<?xml version="1.0" encoding="utf-8" standalone="no"?>
<!DOCTYPE svg PUBLIC "-//W3C//DTD SVG 1.1//EN"
  "http://www.w3.org/Graphics/SVG/1.1/DTD/svg11.dtd">
<!-- Created with matplotlib (http://matplotlib.org/) -->
<svg height="345pt" version="1.1" viewBox="0 0 460 345" width="460pt" xmlns="http://www.w3.org/2000/svg" xmlns:xlink="http://www.w3.org/1999/xlink">
 <defs>
  <style type="text/css">
*{stroke-linecap:butt;stroke-linejoin:round;}
  </style>
 </defs>
 <g id="figure_1">
  <g id="patch_1">
   <path d="M 0 345.6 
L 460.8 345.6 
L 460.8 0 
L 0 0 
z
" style="fill:#ffffff;"/>
  </g>
  <g id="axes_1">
   <g id="patch_2">
    <path d="M 57.6 307.584 
L 414.72 307.584 
L 414.72 41.472 
L 57.6 41.472 
z
" style="fill:#ffffff;"/>
   </g>
   <g id="PathCollection_1">
    <defs>
     <path d="M 0 3 
C 0.795609 3 1.55874 2.683901 2.12132 2.12132 
C 2.683901 1.55874 3 0.795609 3 0 
C 3 -0.795609 2.683901 -1.55874 2.12132 -2.12132 
C 1.55874 -2.683901 0.795609 -3 0 -3 
C -0.795609 -3 -1.55874 -2.683901 -2.12132 -2.12132 
C -2.683901 -1.55874 -3 -0.795609 -3 0 
C -3 0.795609 -2.683901 1.55874 -2.12132 2.12132 
C -1.55874 2.683901 -0.795609 3 0 3 
z
" id="mf5df02a6d1" style="stroke:#ff0000;"/>
    </defs>
    <g clip-path="url(#p065ffa8cd5)">
     <use style="fill:#ff0000;stroke:#ff0000;" x="75.992351" xlink:href="#mf5df02a6d1" y="288.852864"/>
     <use style="fill:#ff0000;stroke:#ff0000;" x="80.152549" xlink:href="#mf5df02a6d1" y="285.868974"/>
     <use style="fill:#ff0000;stroke:#ff0000;" x="84.312748" xlink:href="#mf5df02a6d1" y="282.677462"/>
     <use style="fill:#ff0000;stroke:#ff0000;" x="88.472947" xlink:href="#mf5df02a6d1" y="282.841235"/>
     <use style="fill:#ff0000;stroke:#ff0000;" x="92.633146" xlink:href="#mf5df02a6d1" y="276.668603"/>
     <use style="fill:#ff0000;stroke:#ff0000;" x="96.793344" xlink:href="#mf5df02a6d1" y="273.758514"/>
     <use style="fill:#ff0000;stroke:#ff0000;" x="100.953543" xlink:href="#mf5df02a6d1" y="270.853467"/>
     <use style="fill:#ff0000;stroke:#ff0000;" x="105.113742" xlink:href="#mf5df02a6d1" y="267.957555"/>
     <use style="fill:#ff0000;stroke:#ff0000;" x="109.27394" xlink:href="#mf5df02a6d1" y="264.807536"/>
     <use style="fill:#ff0000;stroke:#ff0000;" x="113.434139" xlink:href="#mf5df02a6d1" y="267.968079"/>
     <use style="fill:#ff0000;stroke:#ff0000;" x="117.594338" xlink:href="#mf5df02a6d1" y="258.809138"/>
     <use style="fill:#ff0000;stroke:#ff0000;" x="121.754536" xlink:href="#mf5df02a6d1" y="255.722998"/>
     <use style="fill:#ff0000;stroke:#ff0000;" x="125.914735" xlink:href="#mf5df02a6d1" y="252.621388"/>
     <use style="fill:#ff0000;stroke:#ff0000;" x="130.074934" xlink:href="#mf5df02a6d1" y="249.293383"/>
     <use style="fill:#ff0000;stroke:#ff0000;" x="134.235132" xlink:href="#mf5df02a6d1" y="245.973113"/>
     <use style="fill:#ff0000;stroke:#ff0000;" x="138.395331" xlink:href="#mf5df02a6d1" y="252.719201"/>
     <use style="fill:#ff0000;stroke:#ff0000;" x="142.55553" xlink:href="#mf5df02a6d1" y="240.332166"/>
     <use style="fill:#ff0000;stroke:#ff0000;" x="146.715728" xlink:href="#mf5df02a6d1" y="237.01964"/>
     <use style="fill:#ff0000;stroke:#ff0000;" x="150.875927" xlink:href="#mf5df02a6d1" y="233.958444"/>
     <use style="fill:#ff0000;stroke:#ff0000;" x="155.036126" xlink:href="#mf5df02a6d1" y="231.203488"/>
     <use style="fill:#ff0000;stroke:#ff0000;" x="159.196324" xlink:href="#mf5df02a6d1" y="227.998938"/>
     <use style="fill:#ff0000;stroke:#ff0000;" x="163.356523" xlink:href="#mf5df02a6d1" y="237.538949"/>
     <use style="fill:#ff0000;stroke:#ff0000;" x="167.516722" xlink:href="#mf5df02a6d1" y="221.465478"/>
     <use style="fill:#ff0000;stroke:#ff0000;" x="171.67692" xlink:href="#mf5df02a6d1" y="218.486786"/>
     <use style="fill:#ff0000;stroke:#ff0000;" x="175.837119" xlink:href="#mf5df02a6d1" y="215.863994"/>
     <use style="fill:#ff0000;stroke:#ff0000;" x="179.997318" xlink:href="#mf5df02a6d1" y="213.604985"/>
     <use style="fill:#ff0000;stroke:#ff0000;" x="184.157516" xlink:href="#mf5df02a6d1" y="209.787997"/>
     <use style="fill:#ff0000;stroke:#ff0000;" x="188.317715" xlink:href="#mf5df02a6d1" y="222.286775"/>
     <use style="fill:#ff0000;stroke:#ff0000;" x="192.477914" xlink:href="#mf5df02a6d1" y="203.508475"/>
     <use style="fill:#ff0000;stroke:#ff0000;" x="196.638113" xlink:href="#mf5df02a6d1" y="200.682442"/>
     <use style="fill:#ff0000;stroke:#ff0000;" x="200.798311" xlink:href="#mf5df02a6d1" y="197.836113"/>
     <use style="fill:#ff0000;stroke:#ff0000;" x="204.95851" xlink:href="#mf5df02a6d1" y="194.757142"/>
     <use style="fill:#ff0000;stroke:#ff0000;" x="209.118709" xlink:href="#mf5df02a6d1" y="191.486414"/>
     <use style="fill:#ff0000;stroke:#ff0000;" x="213.278907" xlink:href="#mf5df02a6d1" y="207.033568"/>
     <use style="fill:#ff0000;stroke:#ff0000;" x="217.439106" xlink:href="#mf5df02a6d1" y="185.027063"/>
     <use style="fill:#ff0000;stroke:#ff0000;" x="221.599305" xlink:href="#mf5df02a6d1" y="182.644335"/>
     <use style="fill:#ff0000;stroke:#ff0000;" x="225.759503" xlink:href="#mf5df02a6d1" y="179.531087"/>
     <use style="fill:#ff0000;stroke:#ff0000;" x="229.919702" xlink:href="#mf5df02a6d1" y="177.160917"/>
     <use style="fill:#ff0000;stroke:#ff0000;" x="234.079901" xlink:href="#mf5df02a6d1" y="174.240467"/>
     <use style="fill:#ff0000;stroke:#ff0000;" x="238.240099" xlink:href="#mf5df02a6d1" y="192.687502"/>
     <use style="fill:#ff0000;stroke:#ff0000;" x="242.400298" xlink:href="#mf5df02a6d1" y="167.307216"/>
     <use style="fill:#ff0000;stroke:#ff0000;" x="246.560497" xlink:href="#mf5df02a6d1" y="163.719313"/>
     <use style="fill:#ff0000;stroke:#ff0000;" x="250.720695" xlink:href="#mf5df02a6d1" y="160.602506"/>
     <use style="fill:#ff0000;stroke:#ff0000;" x="254.880894" xlink:href="#mf5df02a6d1" y="157.400486"/>
     <use style="fill:#ff0000;stroke:#ff0000;" x="259.041093" xlink:href="#mf5df02a6d1" y="153.806409"/>
     <use style="fill:#ff0000;stroke:#ff0000;" x="263.201291" xlink:href="#mf5df02a6d1" y="177.550691"/>
     <use style="fill:#ff0000;stroke:#ff0000;" x="267.36149" xlink:href="#mf5df02a6d1" y="149.689295"/>
     <use style="fill:#ff0000;stroke:#ff0000;" x="271.521689" xlink:href="#mf5df02a6d1" y="146.535085"/>
     <use style="fill:#ff0000;stroke:#ff0000;" x="275.681887" xlink:href="#mf5df02a6d1" y="143.327833"/>
     <use style="fill:#ff0000;stroke:#ff0000;" x="279.842086" xlink:href="#mf5df02a6d1" y="141.532371"/>
     <use style="fill:#ff0000;stroke:#ff0000;" x="284.002285" xlink:href="#mf5df02a6d1" y="138.254011"/>
     <use style="fill:#ff0000;stroke:#ff0000;" x="288.162484" xlink:href="#mf5df02a6d1" y="162.581159"/>
     <use style="fill:#ff0000;stroke:#ff0000;" x="292.322682" xlink:href="#mf5df02a6d1" y="131.78265"/>
     <use style="fill:#ff0000;stroke:#ff0000;" x="296.482881" xlink:href="#mf5df02a6d1" y="128.532907"/>
     <use style="fill:#ff0000;stroke:#ff0000;" x="300.64308" xlink:href="#mf5df02a6d1" y="125.855068"/>
     <use style="fill:#ff0000;stroke:#ff0000;" x="304.803278" xlink:href="#mf5df02a6d1" y="124.509654"/>
     <use style="fill:#ff0000;stroke:#ff0000;" x="308.963477" xlink:href="#mf5df02a6d1" y="120.790859"/>
     <use style="fill:#ff0000;stroke:#ff0000;" x="313.123676" xlink:href="#mf5df02a6d1" y="148.341786"/>
     <use style="fill:#ff0000;stroke:#ff0000;" x="317.283874" xlink:href="#mf5df02a6d1" y="114.162567"/>
     <use style="fill:#ff0000;stroke:#ff0000;" x="321.444073" xlink:href="#mf5df02a6d1" y="110.836589"/>
     <use style="fill:#ff0000;stroke:#ff0000;" x="325.604272" xlink:href="#mf5df02a6d1" y="108.072579"/>
     <use style="fill:#ff0000;stroke:#ff0000;" x="329.76447" xlink:href="#mf5df02a6d1" y="105.318543"/>
     <use style="fill:#ff0000;stroke:#ff0000;" x="333.924669" xlink:href="#mf5df02a6d1" y="101.069668"/>
     <use style="fill:#ff0000;stroke:#ff0000;" x="338.084868" xlink:href="#mf5df02a6d1" y="133.027785"/>
     <use style="fill:#ff0000;stroke:#ff0000;" x="342.245066" xlink:href="#mf5df02a6d1" y="95.114222"/>
     <use style="fill:#ff0000;stroke:#ff0000;" x="346.405265" xlink:href="#mf5df02a6d1" y="92.197296"/>
     <use style="fill:#ff0000;stroke:#ff0000;" x="350.565464" xlink:href="#mf5df02a6d1" y="88.493105"/>
     <use style="fill:#ff0000;stroke:#ff0000;" x="354.725662" xlink:href="#mf5df02a6d1" y="85.578949"/>
     <use style="fill:#ff0000;stroke:#ff0000;" x="358.885861" xlink:href="#mf5df02a6d1" y="82.472804"/>
     <use style="fill:#ff0000;stroke:#ff0000;" x="363.04606" xlink:href="#mf5df02a6d1" y="118.033064"/>
     <use style="fill:#ff0000;stroke:#ff0000;" x="367.206258" xlink:href="#mf5df02a6d1" y="76.567209"/>
     <use style="fill:#ff0000;stroke:#ff0000;" x="371.366457" xlink:href="#mf5df02a6d1" y="74.231164"/>
     <use style="fill:#ff0000;stroke:#ff0000;" x="375.526656" xlink:href="#mf5df02a6d1" y="71.22743"/>
     <use style="fill:#ff0000;stroke:#ff0000;" x="379.686854" xlink:href="#mf5df02a6d1" y="67.967295"/>
     <use style="fill:#ff0000;stroke:#ff0000;" x="383.847053" xlink:href="#mf5df02a6d1" y="64.119948"/>
     <use style="fill:#ff0000;stroke:#ff0000;" x="388.007252" xlink:href="#mf5df02a6d1" y="102.189512"/>
     <use style="fill:#ff0000;stroke:#ff0000;" x="392.167451" xlink:href="#mf5df02a6d1" y="58.717397"/>
     <use style="fill:#ff0000;stroke:#ff0000;" x="396.327649" xlink:href="#mf5df02a6d1" y="55.511574"/>
    </g>
   </g>
   <g id="PathCollection_2">
    <defs>
     <path d="M -3 3 
L 3 -3 
M -3 -3 
L 3 3 
" id="mad84a724dc" style="stroke:#0000ff;stroke-width:1.5;"/>
    </defs>
    <g clip-path="url(#p065ffa8cd5)">
     <use style="fill:#0000ff;stroke:#0000ff;stroke-width:1.5;" x="75.992351" xlink:href="#mad84a724dc" y="292.673736"/>
     <use style="fill:#0000ff;stroke:#0000ff;stroke-width:1.5;" x="80.152549" xlink:href="#mad84a724dc" y="292.025552"/>
     <use style="fill:#0000ff;stroke:#0000ff;stroke-width:1.5;" x="84.312748" xlink:href="#mad84a724dc" y="291.18102"/>
     <use style="fill:#0000ff;stroke:#0000ff;stroke-width:1.5;" x="88.472947" xlink:href="#mad84a724dc" y="291.242522"/>
     <use style="fill:#0000ff;stroke:#0000ff;stroke-width:1.5;" x="92.633146" xlink:href="#mad84a724dc" y="289.025149"/>
     <use style="fill:#0000ff;stroke:#0000ff;stroke-width:1.5;" x="96.793344" xlink:href="#mad84a724dc" y="288.253005"/>
     <use style="fill:#0000ff;stroke:#0000ff;stroke-width:1.5;" x="100.953543" xlink:href="#mad84a724dc" y="287.417214"/>
     <use style="fill:#0000ff;stroke:#0000ff;stroke-width:1.5;" x="105.113742" xlink:href="#mad84a724dc" y="286.170543"/>
     <use style="fill:#0000ff;stroke:#0000ff;stroke-width:1.5;" x="109.27394" xlink:href="#mad84a724dc" y="285.355675"/>
     <use style="fill:#0000ff;stroke:#0000ff;stroke-width:1.5;" x="113.434139" xlink:href="#mad84a724dc" y="286.237545"/>
     <use style="fill:#0000ff;stroke:#0000ff;stroke-width:1.5;" x="117.594338" xlink:href="#mad84a724dc" y="283.823239"/>
     <use style="fill:#0000ff;stroke:#0000ff;stroke-width:1.5;" x="121.754536" xlink:href="#mad84a724dc" y="282.410893"/>
     <use style="fill:#0000ff;stroke:#0000ff;stroke-width:1.5;" x="125.914735" xlink:href="#mad84a724dc" y="281.557392"/>
     <use style="fill:#0000ff;stroke:#0000ff;stroke-width:1.5;" x="130.074934" xlink:href="#mad84a724dc" y="280.835908"/>
     <use style="fill:#0000ff;stroke:#0000ff;stroke-width:1.5;" x="134.235132" xlink:href="#mad84a724dc" y="279.956628"/>
     <use style="fill:#0000ff;stroke:#0000ff;stroke-width:1.5;" x="138.395331" xlink:href="#mad84a724dc" y="281.75577"/>
     <use style="fill:#0000ff;stroke:#0000ff;stroke-width:1.5;" x="142.55553" xlink:href="#mad84a724dc" y="277.870193"/>
     <use style="fill:#0000ff;stroke:#0000ff;stroke-width:1.5;" x="146.715728" xlink:href="#mad84a724dc" y="277.03776"/>
     <use style="fill:#0000ff;stroke:#0000ff;stroke-width:1.5;" x="150.875927" xlink:href="#mad84a724dc" y="276.171362"/>
     <use style="fill:#0000ff;stroke:#0000ff;stroke-width:1.5;" x="155.036126" xlink:href="#mad84a724dc" y="274.956568"/>
     <use style="fill:#0000ff;stroke:#0000ff;stroke-width:1.5;" x="159.196324" xlink:href="#mad84a724dc" y="274.137324"/>
     <use style="fill:#0000ff;stroke:#0000ff;stroke-width:1.5;" x="163.356523" xlink:href="#mad84a724dc" y="277.220307"/>
     <use style="fill:#0000ff;stroke:#0000ff;stroke-width:1.5;" x="167.516722" xlink:href="#mad84a724dc" y="272.504083"/>
     <use style="fill:#0000ff;stroke:#0000ff;stroke-width:1.5;" x="171.67692" xlink:href="#mad84a724dc" y="271.163132"/>
     <use style="fill:#0000ff;stroke:#0000ff;stroke-width:1.5;" x="175.837119" xlink:href="#mad84a724dc" y="270.331131"/>
     <use style="fill:#0000ff;stroke:#0000ff;stroke-width:1.5;" x="179.997318" xlink:href="#mad84a724dc" y="269.56857"/>
     <use style="fill:#0000ff;stroke:#0000ff;stroke-width:1.5;" x="184.157516" xlink:href="#mad84a724dc" y="268.86151"/>
     <use style="fill:#0000ff;stroke:#0000ff;stroke-width:1.5;" x="188.317715" xlink:href="#mad84a724dc" y="272.877626"/>
     <use style="fill:#0000ff;stroke:#0000ff;stroke-width:1.5;" x="192.477914" xlink:href="#mad84a724dc" y="266.700998"/>
     <use style="fill:#0000ff;stroke:#0000ff;stroke-width:1.5;" x="196.638113" xlink:href="#mad84a724dc" y="265.900909"/>
     <use style="fill:#0000ff;stroke:#0000ff;stroke-width:1.5;" x="200.798311" xlink:href="#mad84a724dc" y="265.05647"/>
     <use style="fill:#0000ff;stroke:#0000ff;stroke-width:1.5;" x="204.95851" xlink:href="#mad84a724dc" y="263.569969"/>
     <use style="fill:#0000ff;stroke:#0000ff;stroke-width:1.5;" x="209.118709" xlink:href="#mad84a724dc" y="262.819112"/>
     <use style="fill:#0000ff;stroke:#0000ff;stroke-width:1.5;" x="213.278907" xlink:href="#mad84a724dc" y="267.708265"/>
     <use style="fill:#0000ff;stroke:#0000ff;stroke-width:1.5;" x="217.439106" xlink:href="#mad84a724dc" y="261.280687"/>
     <use style="fill:#0000ff;stroke:#0000ff;stroke-width:1.5;" x="221.599305" xlink:href="#mad84a724dc" y="259.820026"/>
     <use style="fill:#0000ff;stroke:#0000ff;stroke-width:1.5;" x="225.759503" xlink:href="#mad84a724dc" y="259.199836"/>
     <use style="fill:#0000ff;stroke:#0000ff;stroke-width:1.5;" x="229.919702" xlink:href="#mad84a724dc" y="258.382622"/>
     <use style="fill:#0000ff;stroke:#0000ff;stroke-width:1.5;" x="234.079901" xlink:href="#mad84a724dc" y="257.421836"/>
     <use style="fill:#0000ff;stroke:#0000ff;stroke-width:1.5;" x="238.240099" xlink:href="#mad84a724dc" y="263.368941"/>
     <use style="fill:#0000ff;stroke:#0000ff;stroke-width:1.5;" x="242.400298" xlink:href="#mad84a724dc" y="255.382057"/>
     <use style="fill:#0000ff;stroke:#0000ff;stroke-width:1.5;" x="246.560497" xlink:href="#mad84a724dc" y="254.75319"/>
     <use style="fill:#0000ff;stroke:#0000ff;stroke-width:1.5;" x="250.720695" xlink:href="#mad84a724dc" y="253.87443"/>
     <use style="fill:#0000ff;stroke:#0000ff;stroke-width:1.5;" x="254.880894" xlink:href="#mad84a724dc" y="252.497776"/>
     <use style="fill:#0000ff;stroke:#0000ff;stroke-width:1.5;" x="259.041093" xlink:href="#mad84a724dc" y="251.673688"/>
     <use style="fill:#0000ff;stroke:#0000ff;stroke-width:1.5;" x="263.201291" xlink:href="#mad84a724dc" y="258.836868"/>
     <use style="fill:#0000ff;stroke:#0000ff;stroke-width:1.5;" x="267.36149" xlink:href="#mad84a724dc" y="250.113942"/>
     <use style="fill:#0000ff;stroke:#0000ff;stroke-width:1.5;" x="271.521689" xlink:href="#mad84a724dc" y="248.897418"/>
     <use style="fill:#0000ff;stroke:#0000ff;stroke-width:1.5;" x="275.681887" xlink:href="#mad84a724dc" y="248.067553"/>
     <use style="fill:#0000ff;stroke:#0000ff;stroke-width:1.5;" x="279.842086" xlink:href="#mad84a724dc" y="246.826872"/>
     <use style="fill:#0000ff;stroke:#0000ff;stroke-width:1.5;" x="284.002285" xlink:href="#mad84a724dc" y="246.321545"/>
     <use style="fill:#0000ff;stroke:#0000ff;stroke-width:1.5;" x="288.162484" xlink:href="#mad84a724dc" y="254.38682"/>
     <use style="fill:#0000ff;stroke:#0000ff;stroke-width:1.5;" x="292.322682" xlink:href="#mad84a724dc" y="244.204572"/>
     <use style="fill:#0000ff;stroke:#0000ff;stroke-width:1.5;" x="296.482881" xlink:href="#mad84a724dc" y="243.390394"/>
     <use style="fill:#0000ff;stroke:#0000ff;stroke-width:1.5;" x="300.64308" xlink:href="#mad84a724dc" y="242.175881"/>
     <use style="fill:#0000ff;stroke:#0000ff;stroke-width:1.5;" x="304.803278" xlink:href="#mad84a724dc" y="241.098127"/>
     <use style="fill:#0000ff;stroke:#0000ff;stroke-width:1.5;" x="308.963477" xlink:href="#mad84a724dc" y="240.522826"/>
     <use style="fill:#0000ff;stroke:#0000ff;stroke-width:1.5;" x="313.123676" xlink:href="#mad84a724dc" y="249.228097"/>
     <use style="fill:#0000ff;stroke:#0000ff;stroke-width:1.5;" x="317.283874" xlink:href="#mad84a724dc" y="238.897428"/>
     <use style="fill:#0000ff;stroke:#0000ff;stroke-width:1.5;" x="321.444073" xlink:href="#mad84a724dc" y="237.647644"/>
     <use style="fill:#0000ff;stroke:#0000ff;stroke-width:1.5;" x="325.604272" xlink:href="#mad84a724dc" y="236.763686"/>
     <use style="fill:#0000ff;stroke:#0000ff;stroke-width:1.5;" x="329.76447" xlink:href="#mad84a724dc" y="235.688378"/>
     <use style="fill:#0000ff;stroke:#0000ff;stroke-width:1.5;" x="333.924669" xlink:href="#mad84a724dc" y="235.320246"/>
     <use style="fill:#0000ff;stroke:#0000ff;stroke-width:1.5;" x="338.084868" xlink:href="#mad84a724dc" y="244.866185"/>
     <use style="fill:#0000ff;stroke:#0000ff;stroke-width:1.5;" x="342.245066" xlink:href="#mad84a724dc" y="233.076799"/>
     <use style="fill:#0000ff;stroke:#0000ff;stroke-width:1.5;" x="346.405265" xlink:href="#mad84a724dc" y="232.073397"/>
     <use style="fill:#0000ff;stroke:#0000ff;stroke-width:1.5;" x="350.565464" xlink:href="#mad84a724dc" y="231.363228"/>
     <use style="fill:#0000ff;stroke:#0000ff;stroke-width:1.5;" x="354.725662" xlink:href="#mad84a724dc" y="230.066902"/>
     <use style="fill:#0000ff;stroke:#0000ff;stroke-width:1.5;" x="358.885861" xlink:href="#mad84a724dc" y="229.124689"/>
     <use style="fill:#0000ff;stroke:#0000ff;stroke-width:1.5;" x="363.04606" xlink:href="#mad84a724dc" y="240.553014"/>
     <use style="fill:#0000ff;stroke:#0000ff;stroke-width:1.5;" x="367.206258" xlink:href="#mad84a724dc" y="227.555607"/>
     <use style="fill:#0000ff;stroke:#0000ff;stroke-width:1.5;" x="371.366457" xlink:href="#mad84a724dc" y="226.365388"/>
     <use style="fill:#0000ff;stroke:#0000ff;stroke-width:1.5;" x="375.526656" xlink:href="#mad84a724dc" y="225.737744"/>
     <use style="fill:#0000ff;stroke:#0000ff;stroke-width:1.5;" x="379.686854" xlink:href="#mad84a724dc" y="224.721165"/>
     <use style="fill:#0000ff;stroke:#0000ff;stroke-width:1.5;" x="383.847053" xlink:href="#mad84a724dc" y="223.876185"/>
     <use style="fill:#0000ff;stroke:#0000ff;stroke-width:1.5;" x="388.007252" xlink:href="#mad84a724dc" y="235.726494"/>
     <use style="fill:#0000ff;stroke:#0000ff;stroke-width:1.5;" x="392.167451" xlink:href="#mad84a724dc" y="221.525188"/>
     <use style="fill:#0000ff;stroke:#0000ff;stroke-width:1.5;" x="396.327649" xlink:href="#mad84a724dc" y="220.707485"/>
    </g>
   </g>
   <g id="PathCollection_3">
    <defs>
     <path d="M -0 3 
L 3 -3 
L -3 -3 
z
" id="m9f915fb067" style="stroke:#008000;"/>
    </defs>
    <g clip-path="url(#p065ffa8cd5)">
     <use style="fill:#008000;stroke:#008000;" x="75.992351" xlink:href="#m9f915fb067" y="293.334216"/>
     <use style="fill:#008000;stroke:#008000;" x="80.152549" xlink:href="#m9f915fb067" y="292.688417"/>
     <use style="fill:#008000;stroke:#008000;" x="84.312748" xlink:href="#m9f915fb067" y="292.098577"/>
     <use style="fill:#008000;stroke:#008000;" x="88.472947" xlink:href="#m9f915fb067" y="292.114123"/>
     <use style="fill:#008000;stroke:#008000;" x="92.633146" xlink:href="#m9f915fb067" y="290.829984"/>
     <use style="fill:#008000;stroke:#008000;" x="96.793344" xlink:href="#m9f915fb067" y="290.156547"/>
     <use style="fill:#008000;stroke:#008000;" x="100.953543" xlink:href="#m9f915fb067" y="289.549326"/>
     <use style="fill:#008000;stroke:#008000;" x="105.113742" xlink:href="#m9f915fb067" y="288.894353"/>
     <use style="fill:#008000;stroke:#008000;" x="109.27394" xlink:href="#m9f915fb067" y="288.308193"/>
     <use style="fill:#008000;stroke:#008000;" x="113.434139" xlink:href="#m9f915fb067" y="288.961915"/>
     <use style="fill:#008000;stroke:#008000;" x="117.594338" xlink:href="#m9f915fb067" y="287.064323"/>
     <use style="fill:#008000;stroke:#008000;" x="121.754536" xlink:href="#m9f915fb067" y="286.347053"/>
     <use style="fill:#008000;stroke:#008000;" x="125.914735" xlink:href="#m9f915fb067" y="285.703005"/>
     <use style="fill:#008000;stroke:#008000;" x="130.074934" xlink:href="#m9f915fb067" y="285.050974"/>
     <use style="fill:#008000;stroke:#008000;" x="134.235132" xlink:href="#m9f915fb067" y="284.549944"/>
     <use style="fill:#008000;stroke:#008000;" x="138.395331" xlink:href="#m9f915fb067" y="285.877583"/>
     <use style="fill:#008000;stroke:#008000;" x="142.55553" xlink:href="#m9f915fb067" y="283.058607"/>
     <use style="fill:#008000;stroke:#008000;" x="146.715728" xlink:href="#m9f915fb067" y="282.509344"/>
     <use style="fill:#008000;stroke:#008000;" x="150.875927" xlink:href="#m9f915fb067" y="281.959386"/>
     <use style="fill:#008000;stroke:#008000;" x="155.036126" xlink:href="#m9f915fb067" y="281.07989"/>
     <use style="fill:#008000;stroke:#008000;" x="159.196324" xlink:href="#m9f915fb067" y="280.568081"/>
     <use style="fill:#008000;stroke:#008000;" x="163.356523" xlink:href="#m9f915fb067" y="282.546239"/>
     <use style="fill:#008000;stroke:#008000;" x="167.516722" xlink:href="#m9f915fb067" y="279.427638"/>
     <use style="fill:#008000;stroke:#008000;" x="171.67692" xlink:href="#m9f915fb067" y="278.615387"/>
     <use style="fill:#008000;stroke:#008000;" x="175.837119" xlink:href="#m9f915fb067" y="277.96543"/>
     <use style="fill:#008000;stroke:#008000;" x="179.997318" xlink:href="#m9f915fb067" y="277.371026"/>
     <use style="fill:#008000;stroke:#008000;" x="184.157516" xlink:href="#m9f915fb067" y="276.779367"/>
     <use style="fill:#008000;stroke:#008000;" x="188.317715" xlink:href="#m9f915fb067" y="279.507044"/>
     <use style="fill:#008000;stroke:#008000;" x="192.477914" xlink:href="#m9f915fb067" y="275.396862"/>
     <use style="fill:#008000;stroke:#008000;" x="196.638113" xlink:href="#m9f915fb067" y="274.744484"/>
     <use style="fill:#008000;stroke:#008000;" x="200.798311" xlink:href="#m9f915fb067" y="274.051555"/>
     <use style="fill:#008000;stroke:#008000;" x="204.95851" xlink:href="#m9f915fb067" y="273.33003"/>
     <use style="fill:#008000;stroke:#008000;" x="209.118709" xlink:href="#m9f915fb067" y="272.797933"/>
     <use style="fill:#008000;stroke:#008000;" x="213.278907" xlink:href="#m9f915fb067" y="276.095163"/>
     <use style="fill:#008000;stroke:#008000;" x="217.439106" xlink:href="#m9f915fb067" y="271.418259"/>
     <use style="fill:#008000;stroke:#008000;" x="221.599305" xlink:href="#m9f915fb067" y="270.900584"/>
     <use style="fill:#008000;stroke:#008000;" x="225.759503" xlink:href="#m9f915fb067" y="270.182571"/>
     <use style="fill:#008000;stroke:#008000;" x="229.919702" xlink:href="#m9f915fb067" y="269.387408"/>
     <use style="fill:#008000;stroke:#008000;" x="234.079901" xlink:href="#m9f915fb067" y="268.835044"/>
     <use style="fill:#008000;stroke:#008000;" x="238.240099" xlink:href="#m9f915fb067" y="272.949353"/>
     <use style="fill:#008000;stroke:#008000;" x="242.400298" xlink:href="#m9f915fb067" y="267.366466"/>
     <use style="fill:#008000;stroke:#008000;" x="246.560497" xlink:href="#m9f915fb067" y="266.861272"/>
     <use style="fill:#008000;stroke:#008000;" x="250.720695" xlink:href="#m9f915fb067" y="266.38434"/>
     <use style="fill:#008000;stroke:#008000;" x="254.880894" xlink:href="#m9f915fb067" y="265.806383"/>
     <use style="fill:#008000;stroke:#008000;" x="259.041093" xlink:href="#m9f915fb067" y="264.958236"/>
     <use style="fill:#008000;stroke:#008000;" x="263.201291" xlink:href="#m9f915fb067" y="269.791496"/>
     <use style="fill:#008000;stroke:#008000;" x="267.36149" xlink:href="#m9f915fb067" y="263.844089"/>
     <use style="fill:#008000;stroke:#008000;" x="271.521689" xlink:href="#m9f915fb067" y="263.125937"/>
     <use style="fill:#008000;stroke:#008000;" x="275.681887" xlink:href="#m9f915fb067" y="262.336054"/>
     <use style="fill:#008000;stroke:#008000;" x="279.842086" xlink:href="#m9f915fb067" y="261.526709"/>
     <use style="fill:#008000;stroke:#008000;" x="284.002285" xlink:href="#m9f915fb067" y="260.954011"/>
     <use style="fill:#008000;stroke:#008000;" x="288.162484" xlink:href="#m9f915fb067" y="266.737432"/>
     <use style="fill:#008000;stroke:#008000;" x="292.322682" xlink:href="#m9f915fb067" y="259.609648"/>
     <use style="fill:#008000;stroke:#008000;" x="296.482881" xlink:href="#m9f915fb067" y="258.759972"/>
     <use style="fill:#008000;stroke:#008000;" x="300.64308" xlink:href="#m9f915fb067" y="258.443661"/>
     <use style="fill:#008000;stroke:#008000;" x="304.803278" xlink:href="#m9f915fb067" y="257.559158"/>
     <use style="fill:#008000;stroke:#008000;" x="308.963477" xlink:href="#m9f915fb067" y="257.008281"/>
     <use style="fill:#008000;stroke:#008000;" x="313.123676" xlink:href="#m9f915fb067" y="263.333195"/>
     <use style="fill:#008000;stroke:#008000;" x="317.283874" xlink:href="#m9f915fb067" y="255.814493"/>
     <use style="fill:#008000;stroke:#008000;" x="321.444073" xlink:href="#m9f915fb067" y="255.292055"/>
     <use style="fill:#008000;stroke:#008000;" x="325.604272" xlink:href="#m9f915fb067" y="254.613225"/>
     <use style="fill:#008000;stroke:#008000;" x="329.76447" xlink:href="#m9f915fb067" y="254.178522"/>
     <use style="fill:#008000;stroke:#008000;" x="333.924669" xlink:href="#m9f915fb067" y="253.449362"/>
     <use style="fill:#008000;stroke:#008000;" x="338.084868" xlink:href="#m9f915fb067" y="260.598405"/>
     <use style="fill:#008000;stroke:#008000;" x="342.245066" xlink:href="#m9f915fb067" y="252.308585"/>
     <use style="fill:#008000;stroke:#008000;" x="346.405265" xlink:href="#m9f915fb067" y="251.288603"/>
     <use style="fill:#008000;stroke:#008000;" x="350.565464" xlink:href="#m9f915fb067" y="251.03164"/>
     <use style="fill:#008000;stroke:#008000;" x="354.725662" xlink:href="#m9f915fb067" y="250.578685"/>
     <use style="fill:#008000;stroke:#008000;" x="358.885861" xlink:href="#m9f915fb067" y="249.661288"/>
     <use style="fill:#008000;stroke:#008000;" x="363.04606" xlink:href="#m9f915fb067" y="257.436228"/>
     <use style="fill:#008000;stroke:#008000;" x="367.206258" xlink:href="#m9f915fb067" y="248.423467"/>
     <use style="fill:#008000;stroke:#008000;" x="371.366457" xlink:href="#m9f915fb067" y="247.432885"/>
     <use style="fill:#008000;stroke:#008000;" x="375.526656" xlink:href="#m9f915fb067" y="247.256173"/>
     <use style="fill:#008000;stroke:#008000;" x="379.686854" xlink:href="#m9f915fb067" y="246.208951"/>
     <use style="fill:#008000;stroke:#008000;" x="383.847053" xlink:href="#m9f915fb067" y="245.586397"/>
     <use style="fill:#008000;stroke:#008000;" x="388.007252" xlink:href="#m9f915fb067" y="253.988998"/>
     <use style="fill:#008000;stroke:#008000;" x="392.167451" xlink:href="#m9f915fb067" y="244.275112"/>
     <use style="fill:#008000;stroke:#008000;" x="396.327649" xlink:href="#m9f915fb067" y="243.643565"/>
    </g>
   </g>
   <g id="matplotlib.axis_1">
    <g id="xtick_1">
     <g id="line2d_1">
      <defs>
       <path d="M 0 0 
L 0 3.5 
" id="mdfe0be0a18" style="stroke:#000000;stroke-width:0.8;"/>
      </defs>
      <g>
       <use style="stroke:#000000;stroke-width:0.8;" x="67.671953" xlink:href="#mdfe0be0a18" y="307.584"/>
      </g>
     </g>
     <g id="text_1">
      <!-- 0 -->
      <defs>
       <path d="M 31.78125 66.40625 
Q 24.171875 66.40625 20.328125 58.90625 
Q 16.5 51.421875 16.5 36.375 
Q 16.5 21.390625 20.328125 13.890625 
Q 24.171875 6.390625 31.78125 6.390625 
Q 39.453125 6.390625 43.28125 13.890625 
Q 47.125 21.390625 47.125 36.375 
Q 47.125 51.421875 43.28125 58.90625 
Q 39.453125 66.40625 31.78125 66.40625 
z
M 31.78125 74.21875 
Q 44.046875 74.21875 50.515625 64.515625 
Q 56.984375 54.828125 56.984375 36.375 
Q 56.984375 17.96875 50.515625 8.265625 
Q 44.046875 -1.421875 31.78125 -1.421875 
Q 19.53125 -1.421875 13.0625 8.265625 
Q 6.59375 17.96875 6.59375 36.375 
Q 6.59375 54.828125 13.0625 64.515625 
Q 19.53125 74.21875 31.78125 74.21875 
z
" id="DejaVuSans-30"/>
      </defs>
      <g transform="translate(64.490703 322.182437)scale(0.1 -0.1)">
       <use xlink:href="#DejaVuSans-30"/>
      </g>
     </g>
    </g>
    <g id="xtick_2">
     <g id="line2d_2">
      <g>
       <use style="stroke:#000000;stroke-width:0.8;" x="109.27394" xlink:href="#mdfe0be0a18" y="307.584"/>
      </g>
     </g>
     <g id="text_2">
      <!-- 50 -->
      <defs>
       <path d="M 10.796875 72.90625 
L 49.515625 72.90625 
L 49.515625 64.59375 
L 19.828125 64.59375 
L 19.828125 46.734375 
Q 21.96875 47.46875 24.109375 47.828125 
Q 26.265625 48.1875 28.421875 48.1875 
Q 40.625 48.1875 47.75 41.5 
Q 54.890625 34.8125 54.890625 23.390625 
Q 54.890625 11.625 47.5625 5.09375 
Q 40.234375 -1.421875 26.90625 -1.421875 
Q 22.3125 -1.421875 17.546875 -0.640625 
Q 12.796875 0.140625 7.71875 1.703125 
L 7.71875 11.625 
Q 12.109375 9.234375 16.796875 8.0625 
Q 21.484375 6.890625 26.703125 6.890625 
Q 35.15625 6.890625 40.078125 11.328125 
Q 45.015625 15.765625 45.015625 23.390625 
Q 45.015625 31 40.078125 35.4375 
Q 35.15625 39.890625 26.703125 39.890625 
Q 22.75 39.890625 18.8125 39.015625 
Q 14.890625 38.140625 10.796875 36.28125 
z
" id="DejaVuSans-35"/>
      </defs>
      <g transform="translate(102.91144 322.182437)scale(0.1 -0.1)">
       <use xlink:href="#DejaVuSans-35"/>
       <use x="63.623047" xlink:href="#DejaVuSans-30"/>
      </g>
     </g>
    </g>
    <g id="xtick_3">
     <g id="line2d_3">
      <g>
       <use style="stroke:#000000;stroke-width:0.8;" x="150.875927" xlink:href="#mdfe0be0a18" y="307.584"/>
      </g>
     </g>
     <g id="text_3">
      <!-- 100 -->
      <defs>
       <path d="M 12.40625 8.296875 
L 28.515625 8.296875 
L 28.515625 63.921875 
L 10.984375 60.40625 
L 10.984375 69.390625 
L 28.421875 72.90625 
L 38.28125 72.90625 
L 38.28125 8.296875 
L 54.390625 8.296875 
L 54.390625 0 
L 12.40625 0 
z
" id="DejaVuSans-31"/>
      </defs>
      <g transform="translate(141.332177 322.182437)scale(0.1 -0.1)">
       <use xlink:href="#DejaVuSans-31"/>
       <use x="63.623047" xlink:href="#DejaVuSans-30"/>
       <use x="127.246094" xlink:href="#DejaVuSans-30"/>
      </g>
     </g>
    </g>
    <g id="xtick_4">
     <g id="line2d_4">
      <g>
       <use style="stroke:#000000;stroke-width:0.8;" x="192.477914" xlink:href="#mdfe0be0a18" y="307.584"/>
      </g>
     </g>
     <g id="text_4">
      <!-- 150 -->
      <g transform="translate(182.934164 322.182437)scale(0.1 -0.1)">
       <use xlink:href="#DejaVuSans-31"/>
       <use x="63.623047" xlink:href="#DejaVuSans-35"/>
       <use x="127.246094" xlink:href="#DejaVuSans-30"/>
      </g>
     </g>
    </g>
    <g id="xtick_5">
     <g id="line2d_5">
      <g>
       <use style="stroke:#000000;stroke-width:0.8;" x="234.079901" xlink:href="#mdfe0be0a18" y="307.584"/>
      </g>
     </g>
     <g id="text_5">
      <!-- 200 -->
      <defs>
       <path d="M 19.1875 8.296875 
L 53.609375 8.296875 
L 53.609375 0 
L 7.328125 0 
L 7.328125 8.296875 
Q 12.9375 14.109375 22.625 23.890625 
Q 32.328125 33.6875 34.8125 36.53125 
Q 39.546875 41.84375 41.421875 45.53125 
Q 43.3125 49.21875 43.3125 52.78125 
Q 43.3125 58.59375 39.234375 62.25 
Q 35.15625 65.921875 28.609375 65.921875 
Q 23.96875 65.921875 18.8125 64.3125 
Q 13.671875 62.703125 7.8125 59.421875 
L 7.8125 69.390625 
Q 13.765625 71.78125 18.9375 73 
Q 24.125 74.21875 28.421875 74.21875 
Q 39.75 74.21875 46.484375 68.546875 
Q 53.21875 62.890625 53.21875 53.421875 
Q 53.21875 48.921875 51.53125 44.890625 
Q 49.859375 40.875 45.40625 35.40625 
Q 44.1875 33.984375 37.640625 27.21875 
Q 31.109375 20.453125 19.1875 8.296875 
z
" id="DejaVuSans-32"/>
      </defs>
      <g transform="translate(224.536151 322.182437)scale(0.1 -0.1)">
       <use xlink:href="#DejaVuSans-32"/>
       <use x="63.623047" xlink:href="#DejaVuSans-30"/>
       <use x="127.246094" xlink:href="#DejaVuSans-30"/>
      </g>
     </g>
    </g>
    <g id="xtick_6">
     <g id="line2d_6">
      <g>
       <use style="stroke:#000000;stroke-width:0.8;" x="275.681887" xlink:href="#mdfe0be0a18" y="307.584"/>
      </g>
     </g>
     <g id="text_6">
      <!-- 250 -->
      <g transform="translate(266.138137 322.182437)scale(0.1 -0.1)">
       <use xlink:href="#DejaVuSans-32"/>
       <use x="63.623047" xlink:href="#DejaVuSans-35"/>
       <use x="127.246094" xlink:href="#DejaVuSans-30"/>
      </g>
     </g>
    </g>
    <g id="xtick_7">
     <g id="line2d_7">
      <g>
       <use style="stroke:#000000;stroke-width:0.8;" x="317.283874" xlink:href="#mdfe0be0a18" y="307.584"/>
      </g>
     </g>
     <g id="text_7">
      <!-- 300 -->
      <defs>
       <path d="M 40.578125 39.3125 
Q 47.65625 37.796875 51.625 33 
Q 55.609375 28.21875 55.609375 21.1875 
Q 55.609375 10.40625 48.1875 4.484375 
Q 40.765625 -1.421875 27.09375 -1.421875 
Q 22.515625 -1.421875 17.65625 -0.515625 
Q 12.796875 0.390625 7.625 2.203125 
L 7.625 11.71875 
Q 11.71875 9.328125 16.59375 8.109375 
Q 21.484375 6.890625 26.8125 6.890625 
Q 36.078125 6.890625 40.9375 10.546875 
Q 45.796875 14.203125 45.796875 21.1875 
Q 45.796875 27.640625 41.28125 31.265625 
Q 36.765625 34.90625 28.71875 34.90625 
L 20.21875 34.90625 
L 20.21875 43.015625 
L 29.109375 43.015625 
Q 36.375 43.015625 40.234375 45.921875 
Q 44.09375 48.828125 44.09375 54.296875 
Q 44.09375 59.90625 40.109375 62.90625 
Q 36.140625 65.921875 28.71875 65.921875 
Q 24.65625 65.921875 20.015625 65.03125 
Q 15.375 64.15625 9.8125 62.3125 
L 9.8125 71.09375 
Q 15.4375 72.65625 20.34375 73.4375 
Q 25.25 74.21875 29.59375 74.21875 
Q 40.828125 74.21875 47.359375 69.109375 
Q 53.90625 64.015625 53.90625 55.328125 
Q 53.90625 49.265625 50.4375 45.09375 
Q 46.96875 40.921875 40.578125 39.3125 
z
" id="DejaVuSans-33"/>
      </defs>
      <g transform="translate(307.740124 322.182437)scale(0.1 -0.1)">
       <use xlink:href="#DejaVuSans-33"/>
       <use x="63.623047" xlink:href="#DejaVuSans-30"/>
       <use x="127.246094" xlink:href="#DejaVuSans-30"/>
      </g>
     </g>
    </g>
    <g id="xtick_8">
     <g id="line2d_8">
      <g>
       <use style="stroke:#000000;stroke-width:0.8;" x="358.885861" xlink:href="#mdfe0be0a18" y="307.584"/>
      </g>
     </g>
     <g id="text_8">
      <!-- 350 -->
      <g transform="translate(349.342111 322.182437)scale(0.1 -0.1)">
       <use xlink:href="#DejaVuSans-33"/>
       <use x="63.623047" xlink:href="#DejaVuSans-35"/>
       <use x="127.246094" xlink:href="#DejaVuSans-30"/>
      </g>
     </g>
    </g>
    <g id="xtick_9">
     <g id="line2d_9">
      <g>
       <use style="stroke:#000000;stroke-width:0.8;" x="400.487848" xlink:href="#mdfe0be0a18" y="307.584"/>
      </g>
     </g>
     <g id="text_9">
      <!-- 400 -->
      <defs>
       <path d="M 37.796875 64.3125 
L 12.890625 25.390625 
L 37.796875 25.390625 
z
M 35.203125 72.90625 
L 47.609375 72.90625 
L 47.609375 25.390625 
L 58.015625 25.390625 
L 58.015625 17.1875 
L 47.609375 17.1875 
L 47.609375 0 
L 37.796875 0 
L 37.796875 17.1875 
L 4.890625 17.1875 
L 4.890625 26.703125 
z
" id="DejaVuSans-34"/>
      </defs>
      <g transform="translate(390.944098 322.182437)scale(0.1 -0.1)">
       <use xlink:href="#DejaVuSans-34"/>
       <use x="63.623047" xlink:href="#DejaVuSans-30"/>
       <use x="127.246094" xlink:href="#DejaVuSans-30"/>
      </g>
     </g>
    </g>
    <g id="text_10">
     <!-- n_phases -->
     <defs>
      <path d="M 54.890625 33.015625 
L 54.890625 0 
L 45.90625 0 
L 45.90625 32.71875 
Q 45.90625 40.484375 42.875 44.328125 
Q 39.84375 48.1875 33.796875 48.1875 
Q 26.515625 48.1875 22.3125 43.546875 
Q 18.109375 38.921875 18.109375 30.90625 
L 18.109375 0 
L 9.078125 0 
L 9.078125 54.6875 
L 18.109375 54.6875 
L 18.109375 46.1875 
Q 21.34375 51.125 25.703125 53.5625 
Q 30.078125 56 35.796875 56 
Q 45.21875 56 50.046875 50.171875 
Q 54.890625 44.34375 54.890625 33.015625 
z
" id="DejaVuSans-6e"/>
      <path d="M 50.984375 -16.609375 
L 50.984375 -23.578125 
L -0.984375 -23.578125 
L -0.984375 -16.609375 
z
" id="DejaVuSans-5f"/>
      <path d="M 18.109375 8.203125 
L 18.109375 -20.796875 
L 9.078125 -20.796875 
L 9.078125 54.6875 
L 18.109375 54.6875 
L 18.109375 46.390625 
Q 20.953125 51.265625 25.265625 53.625 
Q 29.59375 56 35.59375 56 
Q 45.5625 56 51.78125 48.09375 
Q 58.015625 40.1875 58.015625 27.296875 
Q 58.015625 14.40625 51.78125 6.484375 
Q 45.5625 -1.421875 35.59375 -1.421875 
Q 29.59375 -1.421875 25.265625 0.953125 
Q 20.953125 3.328125 18.109375 8.203125 
z
M 48.6875 27.296875 
Q 48.6875 37.203125 44.609375 42.84375 
Q 40.53125 48.484375 33.40625 48.484375 
Q 26.265625 48.484375 22.1875 42.84375 
Q 18.109375 37.203125 18.109375 27.296875 
Q 18.109375 17.390625 22.1875 11.75 
Q 26.265625 6.109375 33.40625 6.109375 
Q 40.53125 6.109375 44.609375 11.75 
Q 48.6875 17.390625 48.6875 27.296875 
z
" id="DejaVuSans-70"/>
      <path d="M 54.890625 33.015625 
L 54.890625 0 
L 45.90625 0 
L 45.90625 32.71875 
Q 45.90625 40.484375 42.875 44.328125 
Q 39.84375 48.1875 33.796875 48.1875 
Q 26.515625 48.1875 22.3125 43.546875 
Q 18.109375 38.921875 18.109375 30.90625 
L 18.109375 0 
L 9.078125 0 
L 9.078125 75.984375 
L 18.109375 75.984375 
L 18.109375 46.1875 
Q 21.34375 51.125 25.703125 53.5625 
Q 30.078125 56 35.796875 56 
Q 45.21875 56 50.046875 50.171875 
Q 54.890625 44.34375 54.890625 33.015625 
z
" id="DejaVuSans-68"/>
      <path d="M 34.28125 27.484375 
Q 23.390625 27.484375 19.1875 25 
Q 14.984375 22.515625 14.984375 16.5 
Q 14.984375 11.71875 18.140625 8.90625 
Q 21.296875 6.109375 26.703125 6.109375 
Q 34.1875 6.109375 38.703125 11.40625 
Q 43.21875 16.703125 43.21875 25.484375 
L 43.21875 27.484375 
z
M 52.203125 31.203125 
L 52.203125 0 
L 43.21875 0 
L 43.21875 8.296875 
Q 40.140625 3.328125 35.546875 0.953125 
Q 30.953125 -1.421875 24.3125 -1.421875 
Q 15.921875 -1.421875 10.953125 3.296875 
Q 6 8.015625 6 15.921875 
Q 6 25.140625 12.171875 29.828125 
Q 18.359375 34.515625 30.609375 34.515625 
L 43.21875 34.515625 
L 43.21875 35.40625 
Q 43.21875 41.609375 39.140625 45 
Q 35.0625 48.390625 27.6875 48.390625 
Q 23 48.390625 18.546875 47.265625 
Q 14.109375 46.140625 10.015625 43.890625 
L 10.015625 52.203125 
Q 14.9375 54.109375 19.578125 55.046875 
Q 24.21875 56 28.609375 56 
Q 40.484375 56 46.34375 49.84375 
Q 52.203125 43.703125 52.203125 31.203125 
z
" id="DejaVuSans-61"/>
      <path d="M 44.28125 53.078125 
L 44.28125 44.578125 
Q 40.484375 46.53125 36.375 47.5 
Q 32.28125 48.484375 27.875 48.484375 
Q 21.1875 48.484375 17.84375 46.4375 
Q 14.5 44.390625 14.5 40.28125 
Q 14.5 37.15625 16.890625 35.375 
Q 19.28125 33.59375 26.515625 31.984375 
L 29.59375 31.296875 
Q 39.15625 29.25 43.1875 25.515625 
Q 47.21875 21.78125 47.21875 15.09375 
Q 47.21875 7.46875 41.1875 3.015625 
Q 35.15625 -1.421875 24.609375 -1.421875 
Q 20.21875 -1.421875 15.453125 -0.5625 
Q 10.6875 0.296875 5.421875 2 
L 5.421875 11.28125 
Q 10.40625 8.6875 15.234375 7.390625 
Q 20.0625 6.109375 24.8125 6.109375 
Q 31.15625 6.109375 34.5625 8.28125 
Q 37.984375 10.453125 37.984375 14.40625 
Q 37.984375 18.0625 35.515625 20.015625 
Q 33.0625 21.96875 24.703125 23.78125 
L 21.578125 24.515625 
Q 13.234375 26.265625 9.515625 29.90625 
Q 5.8125 33.546875 5.8125 39.890625 
Q 5.8125 47.609375 11.28125 51.796875 
Q 16.75 56 26.8125 56 
Q 31.78125 56 36.171875 55.265625 
Q 40.578125 54.546875 44.28125 53.078125 
z
" id="DejaVuSans-73"/>
      <path d="M 56.203125 29.59375 
L 56.203125 25.203125 
L 14.890625 25.203125 
Q 15.484375 15.921875 20.484375 11.0625 
Q 25.484375 6.203125 34.421875 6.203125 
Q 39.59375 6.203125 44.453125 7.46875 
Q 49.3125 8.734375 54.109375 11.28125 
L 54.109375 2.78125 
Q 49.265625 0.734375 44.1875 -0.34375 
Q 39.109375 -1.421875 33.890625 -1.421875 
Q 20.796875 -1.421875 13.15625 6.1875 
Q 5.515625 13.8125 5.515625 26.8125 
Q 5.515625 40.234375 12.765625 48.109375 
Q 20.015625 56 32.328125 56 
Q 43.359375 56 49.78125 48.890625 
Q 56.203125 41.796875 56.203125 29.59375 
z
M 47.21875 32.234375 
Q 47.125 39.59375 43.09375 43.984375 
Q 39.0625 48.390625 32.421875 48.390625 
Q 24.90625 48.390625 20.390625 44.140625 
Q 15.875 39.890625 15.1875 32.171875 
z
" id="DejaVuSans-65"/>
     </defs>
     <g transform="translate(212.798281 335.860562)scale(0.1 -0.1)">
      <use xlink:href="#DejaVuSans-6e"/>
      <use x="63.378906" xlink:href="#DejaVuSans-5f"/>
      <use x="113.378906" xlink:href="#DejaVuSans-70"/>
      <use x="176.855469" xlink:href="#DejaVuSans-68"/>
      <use x="240.234375" xlink:href="#DejaVuSans-61"/>
      <use x="301.513672" xlink:href="#DejaVuSans-73"/>
      <use x="353.613281" xlink:href="#DejaVuSans-65"/>
      <use x="415.136719" xlink:href="#DejaVuSans-73"/>
     </g>
    </g>
   </g>
   <g id="matplotlib.axis_2">
    <g id="ytick_1">
     <g id="line2d_10">
      <defs>
       <path d="M 0 0 
L -3.5 0 
" id="m2cbf5b6b96" style="stroke:#000000;stroke-width:0.8;"/>
      </defs>
      <g>
       <use style="stroke:#000000;stroke-width:0.8;" x="57.6" xlink:href="#m2cbf5b6b96" y="294.959847"/>
      </g>
     </g>
     <g id="text_11">
      <!-- 0.0 -->
      <defs>
       <path d="M 10.6875 12.40625 
L 21 12.40625 
L 21 0 
L 10.6875 0 
z
" id="DejaVuSans-2e"/>
      </defs>
      <g transform="translate(34.696875 298.759066)scale(0.1 -0.1)">
       <use xlink:href="#DejaVuSans-30"/>
       <use x="63.623047" xlink:href="#DejaVuSans-2e"/>
       <use x="95.410156" xlink:href="#DejaVuSans-30"/>
      </g>
     </g>
    </g>
    <g id="ytick_2">
     <g id="line2d_11">
      <g>
       <use style="stroke:#000000;stroke-width:0.8;" x="57.6" xlink:href="#m2cbf5b6b96" y="247.070192"/>
      </g>
     </g>
     <g id="text_12">
      <!-- 0.2 -->
      <g transform="translate(34.696875 250.869411)scale(0.1 -0.1)">
       <use xlink:href="#DejaVuSans-30"/>
       <use x="63.623047" xlink:href="#DejaVuSans-2e"/>
       <use x="95.410156" xlink:href="#DejaVuSans-32"/>
      </g>
     </g>
    </g>
    <g id="ytick_3">
     <g id="line2d_12">
      <g>
       <use style="stroke:#000000;stroke-width:0.8;" x="57.6" xlink:href="#m2cbf5b6b96" y="199.180538"/>
      </g>
     </g>
     <g id="text_13">
      <!-- 0.4 -->
      <g transform="translate(34.696875 202.979756)scale(0.1 -0.1)">
       <use xlink:href="#DejaVuSans-30"/>
       <use x="63.623047" xlink:href="#DejaVuSans-2e"/>
       <use x="95.410156" xlink:href="#DejaVuSans-34"/>
      </g>
     </g>
    </g>
    <g id="ytick_4">
     <g id="line2d_13">
      <g>
       <use style="stroke:#000000;stroke-width:0.8;" x="57.6" xlink:href="#m2cbf5b6b96" y="151.290883"/>
      </g>
     </g>
     <g id="text_14">
      <!-- 0.6 -->
      <defs>
       <path d="M 33.015625 40.375 
Q 26.375 40.375 22.484375 35.828125 
Q 18.609375 31.296875 18.609375 23.390625 
Q 18.609375 15.53125 22.484375 10.953125 
Q 26.375 6.390625 33.015625 6.390625 
Q 39.65625 6.390625 43.53125 10.953125 
Q 47.40625 15.53125 47.40625 23.390625 
Q 47.40625 31.296875 43.53125 35.828125 
Q 39.65625 40.375 33.015625 40.375 
z
M 52.59375 71.296875 
L 52.59375 62.3125 
Q 48.875 64.0625 45.09375 64.984375 
Q 41.3125 65.921875 37.59375 65.921875 
Q 27.828125 65.921875 22.671875 59.328125 
Q 17.53125 52.734375 16.796875 39.40625 
Q 19.671875 43.65625 24.015625 45.921875 
Q 28.375 48.1875 33.59375 48.1875 
Q 44.578125 48.1875 50.953125 41.515625 
Q 57.328125 34.859375 57.328125 23.390625 
Q 57.328125 12.15625 50.6875 5.359375 
Q 44.046875 -1.421875 33.015625 -1.421875 
Q 20.359375 -1.421875 13.671875 8.265625 
Q 6.984375 17.96875 6.984375 36.375 
Q 6.984375 53.65625 15.1875 63.9375 
Q 23.390625 74.21875 37.203125 74.21875 
Q 40.921875 74.21875 44.703125 73.484375 
Q 48.484375 72.75 52.59375 71.296875 
z
" id="DejaVuSans-36"/>
      </defs>
      <g transform="translate(34.696875 155.090102)scale(0.1 -0.1)">
       <use xlink:href="#DejaVuSans-30"/>
       <use x="63.623047" xlink:href="#DejaVuSans-2e"/>
       <use x="95.410156" xlink:href="#DejaVuSans-36"/>
      </g>
     </g>
    </g>
    <g id="ytick_5">
     <g id="line2d_14">
      <g>
       <use style="stroke:#000000;stroke-width:0.8;" x="57.6" xlink:href="#m2cbf5b6b96" y="103.401228"/>
      </g>
     </g>
     <g id="text_15">
      <!-- 0.8 -->
      <defs>
       <path d="M 31.78125 34.625 
Q 24.75 34.625 20.71875 30.859375 
Q 16.703125 27.09375 16.703125 20.515625 
Q 16.703125 13.921875 20.71875 10.15625 
Q 24.75 6.390625 31.78125 6.390625 
Q 38.8125 6.390625 42.859375 10.171875 
Q 46.921875 13.96875 46.921875 20.515625 
Q 46.921875 27.09375 42.890625 30.859375 
Q 38.875 34.625 31.78125 34.625 
z
M 21.921875 38.8125 
Q 15.578125 40.375 12.03125 44.71875 
Q 8.5 49.078125 8.5 55.328125 
Q 8.5 64.0625 14.71875 69.140625 
Q 20.953125 74.21875 31.78125 74.21875 
Q 42.671875 74.21875 48.875 69.140625 
Q 55.078125 64.0625 55.078125 55.328125 
Q 55.078125 49.078125 51.53125 44.71875 
Q 48 40.375 41.703125 38.8125 
Q 48.828125 37.15625 52.796875 32.3125 
Q 56.78125 27.484375 56.78125 20.515625 
Q 56.78125 9.90625 50.3125 4.234375 
Q 43.84375 -1.421875 31.78125 -1.421875 
Q 19.734375 -1.421875 13.25 4.234375 
Q 6.78125 9.90625 6.78125 20.515625 
Q 6.78125 27.484375 10.78125 32.3125 
Q 14.796875 37.15625 21.921875 38.8125 
z
M 18.3125 54.390625 
Q 18.3125 48.734375 21.84375 45.5625 
Q 25.390625 42.390625 31.78125 42.390625 
Q 38.140625 42.390625 41.71875 45.5625 
Q 45.3125 48.734375 45.3125 54.390625 
Q 45.3125 60.0625 41.71875 63.234375 
Q 38.140625 66.40625 31.78125 66.40625 
Q 25.390625 66.40625 21.84375 63.234375 
Q 18.3125 60.0625 18.3125 54.390625 
z
" id="DejaVuSans-38"/>
      </defs>
      <g transform="translate(34.696875 107.200447)scale(0.1 -0.1)">
       <use xlink:href="#DejaVuSans-30"/>
       <use x="63.623047" xlink:href="#DejaVuSans-2e"/>
       <use x="95.410156" xlink:href="#DejaVuSans-38"/>
      </g>
     </g>
    </g>
    <g id="ytick_6">
     <g id="line2d_15">
      <g>
       <use style="stroke:#000000;stroke-width:0.8;" x="57.6" xlink:href="#m2cbf5b6b96" y="55.511574"/>
      </g>
     </g>
     <g id="text_16">
      <!-- 1.0 -->
      <g transform="translate(34.696875 59.310792)scale(0.1 -0.1)">
       <use xlink:href="#DejaVuSans-31"/>
       <use x="63.623047" xlink:href="#DejaVuSans-2e"/>
       <use x="95.410156" xlink:href="#DejaVuSans-30"/>
      </g>
     </g>
    </g>
    <g id="text_17">
     <!-- elapsed_time -->
     <defs>
      <path d="M 9.421875 75.984375 
L 18.40625 75.984375 
L 18.40625 0 
L 9.421875 0 
z
" id="DejaVuSans-6c"/>
      <path d="M 45.40625 46.390625 
L 45.40625 75.984375 
L 54.390625 75.984375 
L 54.390625 0 
L 45.40625 0 
L 45.40625 8.203125 
Q 42.578125 3.328125 38.25 0.953125 
Q 33.9375 -1.421875 27.875 -1.421875 
Q 17.96875 -1.421875 11.734375 6.484375 
Q 5.515625 14.40625 5.515625 27.296875 
Q 5.515625 40.1875 11.734375 48.09375 
Q 17.96875 56 27.875 56 
Q 33.9375 56 38.25 53.625 
Q 42.578125 51.265625 45.40625 46.390625 
z
M 14.796875 27.296875 
Q 14.796875 17.390625 18.875 11.75 
Q 22.953125 6.109375 30.078125 6.109375 
Q 37.203125 6.109375 41.296875 11.75 
Q 45.40625 17.390625 45.40625 27.296875 
Q 45.40625 37.203125 41.296875 42.84375 
Q 37.203125 48.484375 30.078125 48.484375 
Q 22.953125 48.484375 18.875 42.84375 
Q 14.796875 37.203125 14.796875 27.296875 
z
" id="DejaVuSans-64"/>
      <path d="M 18.3125 70.21875 
L 18.3125 54.6875 
L 36.8125 54.6875 
L 36.8125 47.703125 
L 18.3125 47.703125 
L 18.3125 18.015625 
Q 18.3125 11.328125 20.140625 9.421875 
Q 21.96875 7.515625 27.59375 7.515625 
L 36.8125 7.515625 
L 36.8125 0 
L 27.59375 0 
Q 17.1875 0 13.234375 3.875 
Q 9.28125 7.765625 9.28125 18.015625 
L 9.28125 47.703125 
L 2.6875 47.703125 
L 2.6875 54.6875 
L 9.28125 54.6875 
L 9.28125 70.21875 
z
" id="DejaVuSans-74"/>
      <path d="M 9.421875 54.6875 
L 18.40625 54.6875 
L 18.40625 0 
L 9.421875 0 
z
M 9.421875 75.984375 
L 18.40625 75.984375 
L 18.40625 64.59375 
L 9.421875 64.59375 
z
" id="DejaVuSans-69"/>
      <path d="M 52 44.1875 
Q 55.375 50.25 60.0625 53.125 
Q 64.75 56 71.09375 56 
Q 79.640625 56 84.28125 50.015625 
Q 88.921875 44.046875 88.921875 33.015625 
L 88.921875 0 
L 79.890625 0 
L 79.890625 32.71875 
Q 79.890625 40.578125 77.09375 44.375 
Q 74.3125 48.1875 68.609375 48.1875 
Q 61.625 48.1875 57.5625 43.546875 
Q 53.515625 38.921875 53.515625 30.90625 
L 53.515625 0 
L 44.484375 0 
L 44.484375 32.71875 
Q 44.484375 40.625 41.703125 44.40625 
Q 38.921875 48.1875 33.109375 48.1875 
Q 26.21875 48.1875 22.15625 43.53125 
Q 18.109375 38.875 18.109375 30.90625 
L 18.109375 0 
L 9.078125 0 
L 9.078125 54.6875 
L 18.109375 54.6875 
L 18.109375 46.1875 
Q 21.1875 51.21875 25.484375 53.609375 
Q 29.78125 56 35.6875 56 
Q 41.65625 56 45.828125 52.96875 
Q 50 49.953125 52 44.1875 
z
" id="DejaVuSans-6d"/>
     </defs>
     <g transform="translate(28.339062 207.883469)rotate(-90)scale(0.1 -0.1)">
      <use xlink:href="#DejaVuSans-65"/>
      <use x="61.523438" xlink:href="#DejaVuSans-6c"/>
      <use x="89.306641" xlink:href="#DejaVuSans-61"/>
      <use x="150.585938" xlink:href="#DejaVuSans-70"/>
      <use x="214.0625" xlink:href="#DejaVuSans-73"/>
      <use x="266.162109" xlink:href="#DejaVuSans-65"/>
      <use x="327.685547" xlink:href="#DejaVuSans-64"/>
      <use x="391.162109" xlink:href="#DejaVuSans-5f"/>
      <use x="441.162109" xlink:href="#DejaVuSans-74"/>
      <use x="480.371094" xlink:href="#DejaVuSans-69"/>
      <use x="508.154297" xlink:href="#DejaVuSans-6d"/>
      <use x="605.566406" xlink:href="#DejaVuSans-65"/>
     </g>
    </g>
   </g>
   <g id="patch_3">
    <path d="M 57.6 307.584 
L 57.6 41.472 
" style="fill:none;stroke:#000000;stroke-linecap:square;stroke-linejoin:miter;stroke-width:0.8;"/>
   </g>
   <g id="patch_4">
    <path d="M 414.72 307.584 
L 414.72 41.472 
" style="fill:none;stroke:#000000;stroke-linecap:square;stroke-linejoin:miter;stroke-width:0.8;"/>
   </g>
   <g id="patch_5">
    <path d="M 57.6 307.584 
L 414.72 307.584 
" style="fill:none;stroke:#000000;stroke-linecap:square;stroke-linejoin:miter;stroke-width:0.8;"/>
   </g>
   <g id="patch_6">
    <path d="M 57.6 41.472 
L 414.72 41.472 
" style="fill:none;stroke:#000000;stroke-linecap:square;stroke-linejoin:miter;stroke-width:0.8;"/>
   </g>
   <g id="legend_1">
    <g id="patch_7">
     <path d="M 64.6 93.506375 
L 142.959375 93.506375 
Q 144.959375 93.506375 144.959375 91.506375 
L 144.959375 48.472 
Q 144.959375 46.472 142.959375 46.472 
L 64.6 46.472 
Q 62.6 46.472 62.6 48.472 
L 62.6 91.506375 
Q 62.6 93.506375 64.6 93.506375 
z
" style="fill:#ffffff;opacity:0.8;stroke:#cccccc;stroke-linejoin:miter;"/>
    </g>
    <g id="PathCollection_4">
     <g>
      <use style="fill:#ff0000;stroke:#ff0000;" x="76.6" xlink:href="#mf5df02a6d1" y="55.445438"/>
     </g>
    </g>
    <g id="text_18">
     <!-- cores: 1 -->
     <defs>
      <path d="M 48.78125 52.59375 
L 48.78125 44.1875 
Q 44.96875 46.296875 41.140625 47.34375 
Q 37.3125 48.390625 33.40625 48.390625 
Q 24.65625 48.390625 19.8125 42.84375 
Q 14.984375 37.3125 14.984375 27.296875 
Q 14.984375 17.28125 19.8125 11.734375 
Q 24.65625 6.203125 33.40625 6.203125 
Q 37.3125 6.203125 41.140625 7.25 
Q 44.96875 8.296875 48.78125 10.40625 
L 48.78125 2.09375 
Q 45.015625 0.34375 40.984375 -0.53125 
Q 36.96875 -1.421875 32.421875 -1.421875 
Q 20.0625 -1.421875 12.78125 6.34375 
Q 5.515625 14.109375 5.515625 27.296875 
Q 5.515625 40.671875 12.859375 48.328125 
Q 20.21875 56 33.015625 56 
Q 37.15625 56 41.109375 55.140625 
Q 45.0625 54.296875 48.78125 52.59375 
z
" id="DejaVuSans-63"/>
      <path d="M 30.609375 48.390625 
Q 23.390625 48.390625 19.1875 42.75 
Q 14.984375 37.109375 14.984375 27.296875 
Q 14.984375 17.484375 19.15625 11.84375 
Q 23.34375 6.203125 30.609375 6.203125 
Q 37.796875 6.203125 41.984375 11.859375 
Q 46.1875 17.53125 46.1875 27.296875 
Q 46.1875 37.015625 41.984375 42.703125 
Q 37.796875 48.390625 30.609375 48.390625 
z
M 30.609375 56 
Q 42.328125 56 49.015625 48.375 
Q 55.71875 40.765625 55.71875 27.296875 
Q 55.71875 13.875 49.015625 6.21875 
Q 42.328125 -1.421875 30.609375 -1.421875 
Q 18.84375 -1.421875 12.171875 6.21875 
Q 5.515625 13.875 5.515625 27.296875 
Q 5.515625 40.765625 12.171875 48.375 
Q 18.84375 56 30.609375 56 
z
" id="DejaVuSans-6f"/>
      <path d="M 41.109375 46.296875 
Q 39.59375 47.171875 37.8125 47.578125 
Q 36.03125 48 33.890625 48 
Q 26.265625 48 22.1875 43.046875 
Q 18.109375 38.09375 18.109375 28.8125 
L 18.109375 0 
L 9.078125 0 
L 9.078125 54.6875 
L 18.109375 54.6875 
L 18.109375 46.1875 
Q 20.953125 51.171875 25.484375 53.578125 
Q 30.03125 56 36.53125 56 
Q 37.453125 56 38.578125 55.875 
Q 39.703125 55.765625 41.0625 55.515625 
z
" id="DejaVuSans-72"/>
      <path d="M 11.71875 12.40625 
L 22.015625 12.40625 
L 22.015625 0 
L 11.71875 0 
z
M 11.71875 51.703125 
L 22.015625 51.703125 
L 22.015625 39.3125 
L 11.71875 39.3125 
z
" id="DejaVuSans-3a"/>
      <path id="DejaVuSans-20"/>
     </defs>
     <g transform="translate(94.6 58.070438)scale(0.1 -0.1)">
      <use xlink:href="#DejaVuSans-63"/>
      <use x="54.980469" xlink:href="#DejaVuSans-6f"/>
      <use x="116.162109" xlink:href="#DejaVuSans-72"/>
      <use x="157.244141" xlink:href="#DejaVuSans-65"/>
      <use x="218.767578" xlink:href="#DejaVuSans-73"/>
      <use x="270.867188" xlink:href="#DejaVuSans-3a"/>
      <use x="304.558594" xlink:href="#DejaVuSans-20"/>
      <use x="336.345703" xlink:href="#DejaVuSans-31"/>
     </g>
    </g>
    <g id="PathCollection_5">
     <g>
      <use style="fill:#0000ff;stroke:#0000ff;stroke-width:1.5;" x="76.6" xlink:href="#mad84a724dc" y="70.123563"/>
     </g>
    </g>
    <g id="text_19">
     <!-- cores: 4 -->
     <g transform="translate(94.6 72.748563)scale(0.1 -0.1)">
      <use xlink:href="#DejaVuSans-63"/>
      <use x="54.980469" xlink:href="#DejaVuSans-6f"/>
      <use x="116.162109" xlink:href="#DejaVuSans-72"/>
      <use x="157.244141" xlink:href="#DejaVuSans-65"/>
      <use x="218.767578" xlink:href="#DejaVuSans-73"/>
      <use x="270.867188" xlink:href="#DejaVuSans-3a"/>
      <use x="304.558594" xlink:href="#DejaVuSans-20"/>
      <use x="336.345703" xlink:href="#DejaVuSans-34"/>
     </g>
    </g>
    <g id="PathCollection_6">
     <g>
      <use style="fill:#008000;stroke:#008000;" x="76.6" xlink:href="#m9f915fb067" y="84.801688"/>
     </g>
    </g>
    <g id="text_20">
     <!-- cores: 10 -->
     <g transform="translate(94.6 87.426688)scale(0.1 -0.1)">
      <use xlink:href="#DejaVuSans-63"/>
      <use x="54.980469" xlink:href="#DejaVuSans-6f"/>
      <use x="116.162109" xlink:href="#DejaVuSans-72"/>
      <use x="157.244141" xlink:href="#DejaVuSans-65"/>
      <use x="218.767578" xlink:href="#DejaVuSans-73"/>
      <use x="270.867188" xlink:href="#DejaVuSans-3a"/>
      <use x="304.558594" xlink:href="#DejaVuSans-20"/>
      <use x="336.345703" xlink:href="#DejaVuSans-31"/>
      <use x="399.96875" xlink:href="#DejaVuSans-30"/>
     </g>
    </g>
   </g>
  </g>
 </g>
 <defs>
  <clipPath id="p065ffa8cd5">
   <rect height="266.112" width="357.12" x="57.6" y="41.472"/>
  </clipPath>
 </defs>
</svg>
