<?xml version="1.0" encoding="utf-8" standalone="no"?>
<!DOCTYPE svg PUBLIC "-//W3C//DTD SVG 1.1//EN"
  "http://www.w3.org/Graphics/SVG/1.1/DTD/svg11.dtd">
<!-- Created with matplotlib (http://matplotlib.org/) -->
<svg height="432pt" version="1.1" viewBox="0 0 576 432" width="576pt" xmlns="http://www.w3.org/2000/svg" xmlns:xlink="http://www.w3.org/1999/xlink">
 <defs>
  <style type="text/css">
*{stroke-linecap:butt;stroke-linejoin:round;}
  </style>
 </defs>
 <g id="figure_1">
  <g id="patch_1">
   <path d="M 0 432 
L 576 432 
L 576 0 
L 0 0 
z
" style="fill:#ffffff;"/>
  </g>
  <g id="axes_1">
   <g id="patch_2">
    <path d="M 72 384.48 
L 518.4 384.48 
L 518.4 51.84 
L 72 51.84 
z
" style="fill:#ffffff;"/>
   </g>
   <g id="PathCollection_1">
    <defs>
     <path d="M 0 3 
C 0.795609 3 1.55874 2.683901 2.12132 2.12132 
C 2.683901 1.55874 3 0.795609 3 0 
C 3 -0.795609 2.683901 -1.55874 2.12132 -2.12132 
C 1.55874 -2.683901 0.795609 -3 0 -3 
C -0.795609 -3 -1.55874 -2.683901 -2.12132 -2.12132 
C -2.683901 -1.55874 -3 -0.795609 -3 0 
C -3 0.795609 -2.683901 1.55874 -2.12132 2.12132 
C -1.55874 2.683901 -0.795609 3 0 3 
z
" id="m84cbfa351c" style="stroke:#008000;"/>
    </defs>
    <g clip-path="url(#p19910df75a)">
     <use style="fill:#008000;stroke:#008000;" x="94.450848" xlink:href="#m84cbfa351c" y="77.278008"/>
     <use style="fill:#008000;stroke:#008000;" x="101.142487" xlink:href="#m84cbfa351c" y="79.444161"/>
     <use style="fill:#008000;stroke:#008000;" x="107.834125" xlink:href="#m84cbfa351c" y="74.594254"/>
     <use style="fill:#008000;stroke:#008000;" x="114.525764" xlink:href="#m84cbfa351c" y="128.309809"/>
     <use style="fill:#008000;stroke:#008000;" x="121.217402" xlink:href="#m84cbfa351c" y="269.402672"/>
     <use style="fill:#008000;stroke:#008000;" x="127.90904" xlink:href="#m84cbfa351c" y="294.925902"/>
     <use style="fill:#008000;stroke:#008000;" x="134.600679" xlink:href="#m84cbfa351c" y="271.27693"/>
     <use style="fill:#008000;stroke:#008000;" x="141.292317" xlink:href="#m84cbfa351c" y="129.905406"/>
     <use style="fill:#008000;stroke:#008000;" x="147.983956" xlink:href="#m84cbfa351c" y="77.797773"/>
     <use style="fill:#008000;stroke:#008000;" x="154.675594" xlink:href="#m84cbfa351c" y="80.351013"/>
     <use style="fill:#008000;stroke:#008000;" x="161.367232" xlink:href="#m84cbfa351c" y="77.501587"/>
     <use style="fill:#008000;stroke:#008000;" x="168.058871" xlink:href="#m84cbfa351c" y="74.224773"/>
     <use style="fill:#008000;stroke:#008000;" x="174.750509" xlink:href="#m84cbfa351c" y="74.524074"/>
     <use style="fill:#008000;stroke:#008000;" x="181.442147" xlink:href="#m84cbfa351c" y="72.686227"/>
     <use style="fill:#008000;stroke:#008000;" x="188.133786" xlink:href="#m84cbfa351c" y="77.143329"/>
     <use style="fill:#008000;stroke:#008000;" x="194.825424" xlink:href="#m84cbfa351c" y="75.832923"/>
     <use style="fill:#008000;stroke:#008000;" x="201.517063" xlink:href="#m84cbfa351c" y="70.653433"/>
     <use style="fill:#008000;stroke:#008000;" x="208.208701" xlink:href="#m84cbfa351c" y="76.101428"/>
     <use style="fill:#008000;stroke:#008000;" x="214.900339" xlink:href="#m84cbfa351c" y="73.841941"/>
     <use style="fill:#008000;stroke:#008000;" x="221.591978" xlink:href="#m84cbfa351c" y="75.041782"/>
     <use style="fill:#008000;stroke:#008000;" x="228.283616" xlink:href="#m84cbfa351c" y="76.275119"/>
     <use style="fill:#008000;stroke:#008000;" x="234.975255" xlink:href="#m84cbfa351c" y="72.453895"/>
     <use style="fill:#008000;stroke:#008000;" x="241.666893" xlink:href="#m84cbfa351c" y="71.416814"/>
     <use style="fill:#008000;stroke:#008000;" x="248.358531" xlink:href="#m84cbfa351c" y="74.468492"/>
     <use style="fill:#008000;stroke:#008000;" x="255.05017" xlink:href="#m84cbfa351c" y="71.788801"/>
     <use style="fill:#008000;stroke:#008000;" x="261.741808" xlink:href="#m84cbfa351c" y="73.154312"/>
     <use style="fill:#008000;stroke:#008000;" x="268.433446" xlink:href="#m84cbfa351c" y="74.44016"/>
     <use style="fill:#008000;stroke:#008000;" x="275.125085" xlink:href="#m84cbfa351c" y="76.5954"/>
     <use style="fill:#008000;stroke:#008000;" x="281.816723" xlink:href="#m84cbfa351c" y="86.296039"/>
     <use style="fill:#008000;stroke:#008000;" x="288.508362" xlink:href="#m84cbfa351c" y="129.170561"/>
     <use style="fill:#008000;stroke:#008000;" x="295.2" xlink:href="#m84cbfa351c" y="146.963321"/>
     <use style="fill:#008000;stroke:#008000;" x="301.891638" xlink:href="#m84cbfa351c" y="128.709683"/>
     <use style="fill:#008000;stroke:#008000;" x="308.583277" xlink:href="#m84cbfa351c" y="86.580869"/>
     <use style="fill:#008000;stroke:#008000;" x="315.274915" xlink:href="#m84cbfa351c" y="73.316057"/>
     <use style="fill:#008000;stroke:#008000;" x="321.966554" xlink:href="#m84cbfa351c" y="73.298847"/>
     <use style="fill:#008000;stroke:#008000;" x="328.658192" xlink:href="#m84cbfa351c" y="77.930661"/>
     <use style="fill:#008000;stroke:#008000;" x="335.34983" xlink:href="#m84cbfa351c" y="74.982815"/>
     <use style="fill:#008000;stroke:#008000;" x="342.041469" xlink:href="#m84cbfa351c" y="74.481729"/>
     <use style="fill:#008000;stroke:#008000;" x="348.733107" xlink:href="#m84cbfa351c" y="73.67403"/>
     <use style="fill:#008000;stroke:#008000;" x="355.424745" xlink:href="#m84cbfa351c" y="75.548245"/>
     <use style="fill:#008000;stroke:#008000;" x="362.116384" xlink:href="#m84cbfa351c" y="74.956046"/>
     <use style="fill:#008000;stroke:#008000;" x="368.808022" xlink:href="#m84cbfa351c" y="74.616903"/>
     <use style="fill:#008000;stroke:#008000;" x="375.499661" xlink:href="#m84cbfa351c" y="70.256027"/>
     <use style="fill:#008000;stroke:#008000;" x="382.191299" xlink:href="#m84cbfa351c" y="75.039289"/>
     <use style="fill:#008000;stroke:#008000;" x="388.882937" xlink:href="#m84cbfa351c" y="76.943807"/>
     <use style="fill:#008000;stroke:#008000;" x="395.574576" xlink:href="#m84cbfa351c" y="77.229591"/>
     <use style="fill:#008000;stroke:#008000;" x="402.266214" xlink:href="#m84cbfa351c" y="76.97894"/>
     <use style="fill:#008000;stroke:#008000;" x="408.957853" xlink:href="#m84cbfa351c" y="78.844147"/>
     <use style="fill:#008000;stroke:#008000;" x="415.649491" xlink:href="#m84cbfa351c" y="74.697987"/>
     <use style="fill:#008000;stroke:#008000;" x="422.341129" xlink:href="#m84cbfa351c" y="75.364451"/>
     <use style="fill:#008000;stroke:#008000;" x="429.032768" xlink:href="#m84cbfa351c" y="76.068579"/>
     <use style="fill:#008000;stroke:#008000;" x="435.724406" xlink:href="#m84cbfa351c" y="77.378688"/>
     <use style="fill:#008000;stroke:#008000;" x="442.416044" xlink:href="#m84cbfa351c" y="82.22443"/>
     <use style="fill:#008000;stroke:#008000;" x="449.107683" xlink:href="#m84cbfa351c" y="130.488811"/>
     <use style="fill:#008000;stroke:#008000;" x="455.799321" xlink:href="#m84cbfa351c" y="275.675969"/>
     <use style="fill:#008000;stroke:#008000;" x="462.49096" xlink:href="#m84cbfa351c" y="295.556391"/>
     <use style="fill:#008000;stroke:#008000;" x="469.182598" xlink:href="#m84cbfa351c" y="272.646849"/>
     <use style="fill:#008000;stroke:#008000;" x="475.874236" xlink:href="#m84cbfa351c" y="124.110524"/>
     <use style="fill:#008000;stroke:#008000;" x="482.565875" xlink:href="#m84cbfa351c" y="78.945732"/>
     <use style="fill:#008000;stroke:#008000;" x="489.257513" xlink:href="#m84cbfa351c" y="76.806044"/>
     <use style="fill:#008000;stroke:#008000;" x="495.949152" xlink:href="#m84cbfa351c" y="79.003329"/>
    </g>
   </g>
   <g id="PathCollection_2">
    <defs>
     <path d="M 0 3 
C 0.795609 3 1.55874 2.683901 2.12132 2.12132 
C 2.683901 1.55874 3 0.795609 3 0 
C 3 -0.795609 2.683901 -1.55874 2.12132 -2.12132 
C 1.55874 -2.683901 0.795609 -3 0 -3 
C -0.795609 -3 -1.55874 -2.683901 -2.12132 -2.12132 
C -2.683901 -1.55874 -3 -0.795609 -3 0 
C -3 0.795609 -2.683901 1.55874 -2.12132 2.12132 
C -1.55874 2.683901 -0.795609 3 0 3 
z
" id="m2ea61d718a" style="stroke:#0000ff;"/>
    </defs>
    <g clip-path="url(#p19910df75a)">
     <use style="fill:#0000ff;stroke:#0000ff;" x="94.450848" xlink:href="#m2ea61d718a" y="113.13113"/>
     <use style="fill:#0000ff;stroke:#0000ff;" x="101.142487" xlink:href="#m2ea61d718a" y="112.289249"/>
     <use style="fill:#0000ff;stroke:#0000ff;" x="107.834125" xlink:href="#m2ea61d718a" y="115.57837"/>
     <use style="fill:#0000ff;stroke:#0000ff;" x="114.525764" xlink:href="#m2ea61d718a" y="169.092324"/>
     <use style="fill:#0000ff;stroke:#0000ff;" x="121.217402" xlink:href="#m2ea61d718a" y="338.449468"/>
     <use style="fill:#0000ff;stroke:#0000ff;" x="127.90904" xlink:href="#m2ea61d718a" y="367.703626"/>
     <use style="fill:#0000ff;stroke:#0000ff;" x="134.600679" xlink:href="#m2ea61d718a" y="339.801748"/>
     <use style="fill:#0000ff;stroke:#0000ff;" x="141.292317" xlink:href="#m2ea61d718a" y="168.916787"/>
     <use style="fill:#0000ff;stroke:#0000ff;" x="147.983956" xlink:href="#m2ea61d718a" y="113.967679"/>
     <use style="fill:#0000ff;stroke:#0000ff;" x="154.675594" xlink:href="#m2ea61d718a" y="117.402251"/>
     <use style="fill:#0000ff;stroke:#0000ff;" x="161.367232" xlink:href="#m2ea61d718a" y="116.526759"/>
     <use style="fill:#0000ff;stroke:#0000ff;" x="168.058871" xlink:href="#m2ea61d718a" y="111.688305"/>
     <use style="fill:#0000ff;stroke:#0000ff;" x="174.750509" xlink:href="#m2ea61d718a" y="114.718355"/>
     <use style="fill:#0000ff;stroke:#0000ff;" x="181.442147" xlink:href="#m2ea61d718a" y="116.894523"/>
     <use style="fill:#0000ff;stroke:#0000ff;" x="188.133786" xlink:href="#m2ea61d718a" y="112.992694"/>
     <use style="fill:#0000ff;stroke:#0000ff;" x="194.825424" xlink:href="#m2ea61d718a" y="109.720364"/>
     <use style="fill:#0000ff;stroke:#0000ff;" x="201.517063" xlink:href="#m2ea61d718a" y="110.116984"/>
     <use style="fill:#0000ff;stroke:#0000ff;" x="208.208701" xlink:href="#m2ea61d718a" y="109.420217"/>
     <use style="fill:#0000ff;stroke:#0000ff;" x="214.900339" xlink:href="#m2ea61d718a" y="110.840958"/>
     <use style="fill:#0000ff;stroke:#0000ff;" x="221.591978" xlink:href="#m2ea61d718a" y="110.180136"/>
     <use style="fill:#0000ff;stroke:#0000ff;" x="228.283616" xlink:href="#m2ea61d718a" y="114.342896"/>
     <use style="fill:#0000ff;stroke:#0000ff;" x="234.975255" xlink:href="#m2ea61d718a" y="107.111369"/>
     <use style="fill:#0000ff;stroke:#0000ff;" x="241.666893" xlink:href="#m2ea61d718a" y="112.322521"/>
     <use style="fill:#0000ff;stroke:#0000ff;" x="248.358531" xlink:href="#m2ea61d718a" y="108.412775"/>
     <use style="fill:#0000ff;stroke:#0000ff;" x="255.05017" xlink:href="#m2ea61d718a" y="115.036331"/>
     <use style="fill:#0000ff;stroke:#0000ff;" x="261.741808" xlink:href="#m2ea61d718a" y="115.190861"/>
     <use style="fill:#0000ff;stroke:#0000ff;" x="268.433446" xlink:href="#m2ea61d718a" y="112.075021"/>
     <use style="fill:#0000ff;stroke:#0000ff;" x="275.125085" xlink:href="#m2ea61d718a" y="111.768498"/>
     <use style="fill:#0000ff;stroke:#0000ff;" x="281.816723" xlink:href="#m2ea61d718a" y="120.156786"/>
     <use style="fill:#0000ff;stroke:#0000ff;" x="288.508362" xlink:href="#m2ea61d718a" y="151.394455"/>
     <use style="fill:#0000ff;stroke:#0000ff;" x="295.2" xlink:href="#m2ea61d718a" y="170.081986"/>
     <use style="fill:#0000ff;stroke:#0000ff;" x="301.891638" xlink:href="#m2ea61d718a" y="153.250339"/>
     <use style="fill:#0000ff;stroke:#0000ff;" x="308.583277" xlink:href="#m2ea61d718a" y="124.736125"/>
     <use style="fill:#0000ff;stroke:#0000ff;" x="315.274915" xlink:href="#m2ea61d718a" y="114.092115"/>
     <use style="fill:#0000ff;stroke:#0000ff;" x="321.966554" xlink:href="#m2ea61d718a" y="114.539191"/>
     <use style="fill:#0000ff;stroke:#0000ff;" x="328.658192" xlink:href="#m2ea61d718a" y="112.839343"/>
     <use style="fill:#0000ff;stroke:#0000ff;" x="335.34983" xlink:href="#m2ea61d718a" y="108.689895"/>
     <use style="fill:#0000ff;stroke:#0000ff;" x="342.041469" xlink:href="#m2ea61d718a" y="114.613263"/>
     <use style="fill:#0000ff;stroke:#0000ff;" x="348.733107" xlink:href="#m2ea61d718a" y="110.975535"/>
     <use style="fill:#0000ff;stroke:#0000ff;" x="355.424745" xlink:href="#m2ea61d718a" y="114.089309"/>
     <use style="fill:#0000ff;stroke:#0000ff;" x="362.116384" xlink:href="#m2ea61d718a" y="107.075835"/>
     <use style="fill:#0000ff;stroke:#0000ff;" x="368.808022" xlink:href="#m2ea61d718a" y="107.946487"/>
     <use style="fill:#0000ff;stroke:#0000ff;" x="375.499661" xlink:href="#m2ea61d718a" y="110.272228"/>
     <use style="fill:#0000ff;stroke:#0000ff;" x="382.191299" xlink:href="#m2ea61d718a" y="114.893923"/>
     <use style="fill:#0000ff;stroke:#0000ff;" x="388.882937" xlink:href="#m2ea61d718a" y="112.230706"/>
     <use style="fill:#0000ff;stroke:#0000ff;" x="395.574576" xlink:href="#m2ea61d718a" y="114.261698"/>
     <use style="fill:#0000ff;stroke:#0000ff;" x="402.266214" xlink:href="#m2ea61d718a" y="116.571019"/>
     <use style="fill:#0000ff;stroke:#0000ff;" x="408.957853" xlink:href="#m2ea61d718a" y="114.521028"/>
     <use style="fill:#0000ff;stroke:#0000ff;" x="415.649491" xlink:href="#m2ea61d718a" y="115.056706"/>
     <use style="fill:#0000ff;stroke:#0000ff;" x="422.341129" xlink:href="#m2ea61d718a" y="113.942772"/>
     <use style="fill:#0000ff;stroke:#0000ff;" x="429.032768" xlink:href="#m2ea61d718a" y="114.903177"/>
     <use style="fill:#0000ff;stroke:#0000ff;" x="435.724406" xlink:href="#m2ea61d718a" y="117.970826"/>
     <use style="fill:#0000ff;stroke:#0000ff;" x="442.416044" xlink:href="#m2ea61d718a" y="114.719475"/>
     <use style="fill:#0000ff;stroke:#0000ff;" x="449.107683" xlink:href="#m2ea61d718a" y="171.398314"/>
     <use style="fill:#0000ff;stroke:#0000ff;" x="455.799321" xlink:href="#m2ea61d718a" y="341.041534"/>
     <use style="fill:#0000ff;stroke:#0000ff;" x="462.49096" xlink:href="#m2ea61d718a" y="367.111976"/>
     <use style="fill:#0000ff;stroke:#0000ff;" x="469.182598" xlink:href="#m2ea61d718a" y="336.714078"/>
     <use style="fill:#0000ff;stroke:#0000ff;" x="475.874236" xlink:href="#m2ea61d718a" y="170.915829"/>
     <use style="fill:#0000ff;stroke:#0000ff;" x="482.565875" xlink:href="#m2ea61d718a" y="117.971831"/>
     <use style="fill:#0000ff;stroke:#0000ff;" x="489.257513" xlink:href="#m2ea61d718a" y="118.055787"/>
     <use style="fill:#0000ff;stroke:#0000ff;" x="495.949152" xlink:href="#m2ea61d718a" y="114.408983"/>
    </g>
   </g>
   <g id="PathCollection_3">
    <defs>
     <path d="M 0 3 
C 0.795609 3 1.55874 2.683901 2.12132 2.12132 
C 2.683901 1.55874 3 0.795609 3 0 
C 3 -0.795609 2.683901 -1.55874 2.12132 -2.12132 
C 1.55874 -2.683901 0.795609 -3 0 -3 
C -0.795609 -3 -1.55874 -2.683901 -2.12132 -2.12132 
C -2.683901 -1.55874 -3 -0.795609 -3 0 
C -3 0.795609 -2.683901 1.55874 -2.12132 2.12132 
C -1.55874 2.683901 -0.795609 3 0 3 
z
" id="mc22d7c314d" style="stroke:#ff0000;"/>
    </defs>
    <g clip-path="url(#p19910df75a)">
     <use style="fill:#ff0000;stroke:#ff0000;" x="94.450848" xlink:href="#mc22d7c314d" y="147.08957"/>
     <use style="fill:#ff0000;stroke:#ff0000;" x="101.142487" xlink:href="#mc22d7c314d" y="148.28496"/>
     <use style="fill:#ff0000;stroke:#ff0000;" x="107.834125" xlink:href="#mc22d7c314d" y="150.859354"/>
     <use style="fill:#ff0000;stroke:#ff0000;" x="114.525764" xlink:href="#mc22d7c314d" y="185.789247"/>
     <use style="fill:#ff0000;stroke:#ff0000;" x="121.217402" xlink:href="#mc22d7c314d" y="293.055603"/>
     <use style="fill:#ff0000;stroke:#ff0000;" x="127.90904" xlink:href="#mc22d7c314d" y="313.678213"/>
     <use style="fill:#ff0000;stroke:#ff0000;" x="134.600679" xlink:href="#mc22d7c314d" y="299.407638"/>
     <use style="fill:#ff0000;stroke:#ff0000;" x="141.292317" xlink:href="#mc22d7c314d" y="186.072938"/>
     <use style="fill:#ff0000;stroke:#ff0000;" x="147.983956" xlink:href="#mc22d7c314d" y="147.859331"/>
     <use style="fill:#ff0000;stroke:#ff0000;" x="154.675594" xlink:href="#mc22d7c314d" y="150.212783"/>
     <use style="fill:#ff0000;stroke:#ff0000;" x="161.367232" xlink:href="#mc22d7c314d" y="143.683797"/>
     <use style="fill:#ff0000;stroke:#ff0000;" x="168.058871" xlink:href="#mc22d7c314d" y="150.12197"/>
     <use style="fill:#ff0000;stroke:#ff0000;" x="174.750509" xlink:href="#mc22d7c314d" y="149.635934"/>
     <use style="fill:#ff0000;stroke:#ff0000;" x="181.442147" xlink:href="#mc22d7c314d" y="145.233699"/>
     <use style="fill:#ff0000;stroke:#ff0000;" x="188.133786" xlink:href="#mc22d7c314d" y="143.855067"/>
     <use style="fill:#ff0000;stroke:#ff0000;" x="194.825424" xlink:href="#mc22d7c314d" y="141.868057"/>
     <use style="fill:#ff0000;stroke:#ff0000;" x="201.517063" xlink:href="#mc22d7c314d" y="139.90141"/>
     <use style="fill:#ff0000;stroke:#ff0000;" x="208.208701" xlink:href="#mc22d7c314d" y="147.470549"/>
     <use style="fill:#ff0000;stroke:#ff0000;" x="214.900339" xlink:href="#mc22d7c314d" y="141.095838"/>
     <use style="fill:#ff0000;stroke:#ff0000;" x="221.591978" xlink:href="#mc22d7c314d" y="139.276599"/>
     <use style="fill:#ff0000;stroke:#ff0000;" x="228.283616" xlink:href="#mc22d7c314d" y="145.736217"/>
     <use style="fill:#ff0000;stroke:#ff0000;" x="234.975255" xlink:href="#mc22d7c314d" y="141.536929"/>
     <use style="fill:#ff0000;stroke:#ff0000;" x="241.666893" xlink:href="#mc22d7c314d" y="145.178446"/>
     <use style="fill:#ff0000;stroke:#ff0000;" x="248.358531" xlink:href="#mc22d7c314d" y="145.873847"/>
     <use style="fill:#ff0000;stroke:#ff0000;" x="255.05017" xlink:href="#mc22d7c314d" y="141.480469"/>
     <use style="fill:#ff0000;stroke:#ff0000;" x="261.741808" xlink:href="#mc22d7c314d" y="147.618446"/>
     <use style="fill:#ff0000;stroke:#ff0000;" x="268.433446" xlink:href="#mc22d7c314d" y="147.809841"/>
     <use style="fill:#ff0000;stroke:#ff0000;" x="275.125085" xlink:href="#mc22d7c314d" y="145.906109"/>
     <use style="fill:#ff0000;stroke:#ff0000;" x="281.816723" xlink:href="#mc22d7c314d" y="152.467126"/>
     <use style="fill:#ff0000;stroke:#ff0000;" x="288.508362" xlink:href="#mc22d7c314d" y="196.073877"/>
     <use style="fill:#ff0000;stroke:#ff0000;" x="295.2" xlink:href="#mc22d7c314d" y="210.468747"/>
     <use style="fill:#ff0000;stroke:#ff0000;" x="301.891638" xlink:href="#mc22d7c314d" y="196.231743"/>
     <use style="fill:#ff0000;stroke:#ff0000;" x="308.583277" xlink:href="#mc22d7c314d" y="158.431996"/>
     <use style="fill:#ff0000;stroke:#ff0000;" x="315.274915" xlink:href="#mc22d7c314d" y="144.390042"/>
     <use style="fill:#ff0000;stroke:#ff0000;" x="321.966554" xlink:href="#mc22d7c314d" y="147.928562"/>
     <use style="fill:#ff0000;stroke:#ff0000;" x="328.658192" xlink:href="#mc22d7c314d" y="147.216169"/>
     <use style="fill:#ff0000;stroke:#ff0000;" x="335.34983" xlink:href="#mc22d7c314d" y="143.651034"/>
     <use style="fill:#ff0000;stroke:#ff0000;" x="342.041469" xlink:href="#mc22d7c314d" y="144.135401"/>
     <use style="fill:#ff0000;stroke:#ff0000;" x="348.733107" xlink:href="#mc22d7c314d" y="141.856569"/>
     <use style="fill:#ff0000;stroke:#ff0000;" x="355.424745" xlink:href="#mc22d7c314d" y="142.588696"/>
     <use style="fill:#ff0000;stroke:#ff0000;" x="362.116384" xlink:href="#mc22d7c314d" y="146.418109"/>
     <use style="fill:#ff0000;stroke:#ff0000;" x="368.808022" xlink:href="#mc22d7c314d" y="144.394481"/>
     <use style="fill:#ff0000;stroke:#ff0000;" x="375.499661" xlink:href="#mc22d7c314d" y="139.538743"/>
     <use style="fill:#ff0000;stroke:#ff0000;" x="382.191299" xlink:href="#mc22d7c314d" y="141.248776"/>
     <use style="fill:#ff0000;stroke:#ff0000;" x="388.882937" xlink:href="#mc22d7c314d" y="147.323763"/>
     <use style="fill:#ff0000;stroke:#ff0000;" x="395.574576" xlink:href="#mc22d7c314d" y="140.942394"/>
     <use style="fill:#ff0000;stroke:#ff0000;" x="402.266214" xlink:href="#mc22d7c314d" y="141.13021"/>
     <use style="fill:#ff0000;stroke:#ff0000;" x="408.957853" xlink:href="#mc22d7c314d" y="147.15779"/>
     <use style="fill:#ff0000;stroke:#ff0000;" x="415.649491" xlink:href="#mc22d7c314d" y="148.070024"/>
     <use style="fill:#ff0000;stroke:#ff0000;" x="422.341129" xlink:href="#mc22d7c314d" y="149.678492"/>
     <use style="fill:#ff0000;stroke:#ff0000;" x="429.032768" xlink:href="#mc22d7c314d" y="147.979605"/>
     <use style="fill:#ff0000;stroke:#ff0000;" x="435.724406" xlink:href="#mc22d7c314d" y="145.237122"/>
     <use style="fill:#ff0000;stroke:#ff0000;" x="442.416044" xlink:href="#mc22d7c314d" y="150.024293"/>
     <use style="fill:#ff0000;stroke:#ff0000;" x="449.107683" xlink:href="#mc22d7c314d" y="185.066843"/>
     <use style="fill:#ff0000;stroke:#ff0000;" x="455.799321" xlink:href="#mc22d7c314d" y="298.062218"/>
     <use style="fill:#ff0000;stroke:#ff0000;" x="462.49096" xlink:href="#mc22d7c314d" y="317.569776"/>
     <use style="fill:#ff0000;stroke:#ff0000;" x="469.182598" xlink:href="#mc22d7c314d" y="292.373812"/>
     <use style="fill:#ff0000;stroke:#ff0000;" x="475.874236" xlink:href="#mc22d7c314d" y="186.283883"/>
     <use style="fill:#ff0000;stroke:#ff0000;" x="482.565875" xlink:href="#mc22d7c314d" y="143.965724"/>
     <use style="fill:#ff0000;stroke:#ff0000;" x="489.257513" xlink:href="#mc22d7c314d" y="149.574405"/>
     <use style="fill:#ff0000;stroke:#ff0000;" x="495.949152" xlink:href="#mc22d7c314d" y="147.566596"/>
    </g>
   </g>
   <g id="matplotlib.axis_1">
    <g id="xtick_1">
     <g id="line2d_1">
      <defs>
       <path d="M 0 0 
L 0 3.5 
" id="ma2789826f0" style="stroke:#000000;stroke-width:0.8;"/>
      </defs>
      <g>
       <use style="stroke:#000000;stroke-width:0.8;" x="94.450848" xlink:href="#ma2789826f0" y="384.48"/>
      </g>
     </g>
     <g id="text_1">
      <!-- −0.6 -->
      <defs>
       <path d="M 10.59375 35.5 
L 73.1875 35.5 
L 73.1875 27.203125 
L 10.59375 27.203125 
z
" id="DejaVuSans-2212"/>
       <path d="M 31.78125 66.40625 
Q 24.171875 66.40625 20.328125 58.90625 
Q 16.5 51.421875 16.5 36.375 
Q 16.5 21.390625 20.328125 13.890625 
Q 24.171875 6.390625 31.78125 6.390625 
Q 39.453125 6.390625 43.28125 13.890625 
Q 47.125 21.390625 47.125 36.375 
Q 47.125 51.421875 43.28125 58.90625 
Q 39.453125 66.40625 31.78125 66.40625 
z
M 31.78125 74.21875 
Q 44.046875 74.21875 50.515625 64.515625 
Q 56.984375 54.828125 56.984375 36.375 
Q 56.984375 17.96875 50.515625 8.265625 
Q 44.046875 -1.421875 31.78125 -1.421875 
Q 19.53125 -1.421875 13.0625 8.265625 
Q 6.59375 17.96875 6.59375 36.375 
Q 6.59375 54.828125 13.0625 64.515625 
Q 19.53125 74.21875 31.78125 74.21875 
z
" id="DejaVuSans-30"/>
       <path d="M 10.6875 12.40625 
L 21 12.40625 
L 21 0 
L 10.6875 0 
z
" id="DejaVuSans-2e"/>
       <path d="M 33.015625 40.375 
Q 26.375 40.375 22.484375 35.828125 
Q 18.609375 31.296875 18.609375 23.390625 
Q 18.609375 15.53125 22.484375 10.953125 
Q 26.375 6.390625 33.015625 6.390625 
Q 39.65625 6.390625 43.53125 10.953125 
Q 47.40625 15.53125 47.40625 23.390625 
Q 47.40625 31.296875 43.53125 35.828125 
Q 39.65625 40.375 33.015625 40.375 
z
M 52.59375 71.296875 
L 52.59375 62.3125 
Q 48.875 64.0625 45.09375 64.984375 
Q 41.3125 65.921875 37.59375 65.921875 
Q 27.828125 65.921875 22.671875 59.328125 
Q 17.53125 52.734375 16.796875 39.40625 
Q 19.671875 43.65625 24.015625 45.921875 
Q 28.375 48.1875 33.59375 48.1875 
Q 44.578125 48.1875 50.953125 41.515625 
Q 57.328125 34.859375 57.328125 23.390625 
Q 57.328125 12.15625 50.6875 5.359375 
Q 44.046875 -1.421875 33.015625 -1.421875 
Q 20.359375 -1.421875 13.671875 8.265625 
Q 6.984375 17.96875 6.984375 36.375 
Q 6.984375 53.65625 15.1875 63.9375 
Q 23.390625 74.21875 37.203125 74.21875 
Q 40.921875 74.21875 44.703125 73.484375 
Q 48.484375 72.75 52.59375 71.296875 
z
" id="DejaVuSans-36"/>
      </defs>
      <g transform="translate(82.309442 399.078438)scale(0.1 -0.1)">
       <use xlink:href="#DejaVuSans-2212"/>
       <use x="83.789062" xlink:href="#DejaVuSans-30"/>
       <use x="147.412109" xlink:href="#DejaVuSans-2e"/>
       <use x="179.199219" xlink:href="#DejaVuSans-36"/>
      </g>
     </g>
    </g>
    <g id="xtick_2">
     <g id="line2d_2">
      <g>
       <use style="stroke:#000000;stroke-width:0.8;" x="161.367232" xlink:href="#ma2789826f0" y="384.48"/>
      </g>
     </g>
     <g id="text_2">
      <!-- −0.4 -->
      <defs>
       <path d="M 37.796875 64.3125 
L 12.890625 25.390625 
L 37.796875 25.390625 
z
M 35.203125 72.90625 
L 47.609375 72.90625 
L 47.609375 25.390625 
L 58.015625 25.390625 
L 58.015625 17.1875 
L 47.609375 17.1875 
L 47.609375 0 
L 37.796875 0 
L 37.796875 17.1875 
L 4.890625 17.1875 
L 4.890625 26.703125 
z
" id="DejaVuSans-34"/>
      </defs>
      <g transform="translate(149.225826 399.078438)scale(0.1 -0.1)">
       <use xlink:href="#DejaVuSans-2212"/>
       <use x="83.789062" xlink:href="#DejaVuSans-30"/>
       <use x="147.412109" xlink:href="#DejaVuSans-2e"/>
       <use x="179.199219" xlink:href="#DejaVuSans-34"/>
      </g>
     </g>
    </g>
    <g id="xtick_3">
     <g id="line2d_3">
      <g>
       <use style="stroke:#000000;stroke-width:0.8;" x="228.283616" xlink:href="#ma2789826f0" y="384.48"/>
      </g>
     </g>
     <g id="text_3">
      <!-- −0.2 -->
      <defs>
       <path d="M 19.1875 8.296875 
L 53.609375 8.296875 
L 53.609375 0 
L 7.328125 0 
L 7.328125 8.296875 
Q 12.9375 14.109375 22.625 23.890625 
Q 32.328125 33.6875 34.8125 36.53125 
Q 39.546875 41.84375 41.421875 45.53125 
Q 43.3125 49.21875 43.3125 52.78125 
Q 43.3125 58.59375 39.234375 62.25 
Q 35.15625 65.921875 28.609375 65.921875 
Q 23.96875 65.921875 18.8125 64.3125 
Q 13.671875 62.703125 7.8125 59.421875 
L 7.8125 69.390625 
Q 13.765625 71.78125 18.9375 73 
Q 24.125 74.21875 28.421875 74.21875 
Q 39.75 74.21875 46.484375 68.546875 
Q 53.21875 62.890625 53.21875 53.421875 
Q 53.21875 48.921875 51.53125 44.890625 
Q 49.859375 40.875 45.40625 35.40625 
Q 44.1875 33.984375 37.640625 27.21875 
Q 31.109375 20.453125 19.1875 8.296875 
z
" id="DejaVuSans-32"/>
      </defs>
      <g transform="translate(216.14221 399.078438)scale(0.1 -0.1)">
       <use xlink:href="#DejaVuSans-2212"/>
       <use x="83.789062" xlink:href="#DejaVuSans-30"/>
       <use x="147.412109" xlink:href="#DejaVuSans-2e"/>
       <use x="179.199219" xlink:href="#DejaVuSans-32"/>
      </g>
     </g>
    </g>
    <g id="xtick_4">
     <g id="line2d_4">
      <g>
       <use style="stroke:#000000;stroke-width:0.8;" x="295.2" xlink:href="#ma2789826f0" y="384.48"/>
      </g>
     </g>
     <g id="text_4">
      <!-- 0.0 -->
      <g transform="translate(287.248437 399.078438)scale(0.1 -0.1)">
       <use xlink:href="#DejaVuSans-30"/>
       <use x="63.623047" xlink:href="#DejaVuSans-2e"/>
       <use x="95.410156" xlink:href="#DejaVuSans-30"/>
      </g>
     </g>
    </g>
    <g id="xtick_5">
     <g id="line2d_5">
      <g>
       <use style="stroke:#000000;stroke-width:0.8;" x="362.116384" xlink:href="#ma2789826f0" y="384.48"/>
      </g>
     </g>
     <g id="text_5">
      <!-- 0.2 -->
      <g transform="translate(354.164821 399.078438)scale(0.1 -0.1)">
       <use xlink:href="#DejaVuSans-30"/>
       <use x="63.623047" xlink:href="#DejaVuSans-2e"/>
       <use x="95.410156" xlink:href="#DejaVuSans-32"/>
      </g>
     </g>
    </g>
    <g id="xtick_6">
     <g id="line2d_6">
      <g>
       <use style="stroke:#000000;stroke-width:0.8;" x="429.032768" xlink:href="#ma2789826f0" y="384.48"/>
      </g>
     </g>
     <g id="text_6">
      <!-- 0.4 -->
      <g transform="translate(421.081205 399.078438)scale(0.1 -0.1)">
       <use xlink:href="#DejaVuSans-30"/>
       <use x="63.623047" xlink:href="#DejaVuSans-2e"/>
       <use x="95.410156" xlink:href="#DejaVuSans-34"/>
      </g>
     </g>
    </g>
    <g id="xtick_7">
     <g id="line2d_7">
      <g>
       <use style="stroke:#000000;stroke-width:0.8;" x="495.949152" xlink:href="#ma2789826f0" y="384.48"/>
      </g>
     </g>
     <g id="text_7">
      <!-- 0.6 -->
      <g transform="translate(487.997589 399.078438)scale(0.1 -0.1)">
       <use xlink:href="#DejaVuSans-30"/>
       <use x="63.623047" xlink:href="#DejaVuSans-2e"/>
       <use x="95.410156" xlink:href="#DejaVuSans-36"/>
      </g>
     </g>
    </g>
    <g id="text_8">
     <!-- Phase -->
     <defs>
      <path d="M 19.671875 64.796875 
L 19.671875 37.40625 
L 32.078125 37.40625 
Q 38.96875 37.40625 42.71875 40.96875 
Q 46.484375 44.53125 46.484375 51.125 
Q 46.484375 57.671875 42.71875 61.234375 
Q 38.96875 64.796875 32.078125 64.796875 
z
M 9.8125 72.90625 
L 32.078125 72.90625 
Q 44.34375 72.90625 50.609375 67.359375 
Q 56.890625 61.8125 56.890625 51.125 
Q 56.890625 40.328125 50.609375 34.8125 
Q 44.34375 29.296875 32.078125 29.296875 
L 19.671875 29.296875 
L 19.671875 0 
L 9.8125 0 
z
" id="DejaVuSans-50"/>
      <path d="M 54.890625 33.015625 
L 54.890625 0 
L 45.90625 0 
L 45.90625 32.71875 
Q 45.90625 40.484375 42.875 44.328125 
Q 39.84375 48.1875 33.796875 48.1875 
Q 26.515625 48.1875 22.3125 43.546875 
Q 18.109375 38.921875 18.109375 30.90625 
L 18.109375 0 
L 9.078125 0 
L 9.078125 75.984375 
L 18.109375 75.984375 
L 18.109375 46.1875 
Q 21.34375 51.125 25.703125 53.5625 
Q 30.078125 56 35.796875 56 
Q 45.21875 56 50.046875 50.171875 
Q 54.890625 44.34375 54.890625 33.015625 
z
" id="DejaVuSans-68"/>
      <path d="M 34.28125 27.484375 
Q 23.390625 27.484375 19.1875 25 
Q 14.984375 22.515625 14.984375 16.5 
Q 14.984375 11.71875 18.140625 8.90625 
Q 21.296875 6.109375 26.703125 6.109375 
Q 34.1875 6.109375 38.703125 11.40625 
Q 43.21875 16.703125 43.21875 25.484375 
L 43.21875 27.484375 
z
M 52.203125 31.203125 
L 52.203125 0 
L 43.21875 0 
L 43.21875 8.296875 
Q 40.140625 3.328125 35.546875 0.953125 
Q 30.953125 -1.421875 24.3125 -1.421875 
Q 15.921875 -1.421875 10.953125 3.296875 
Q 6 8.015625 6 15.921875 
Q 6 25.140625 12.171875 29.828125 
Q 18.359375 34.515625 30.609375 34.515625 
L 43.21875 34.515625 
L 43.21875 35.40625 
Q 43.21875 41.609375 39.140625 45 
Q 35.0625 48.390625 27.6875 48.390625 
Q 23 48.390625 18.546875 47.265625 
Q 14.109375 46.140625 10.015625 43.890625 
L 10.015625 52.203125 
Q 14.9375 54.109375 19.578125 55.046875 
Q 24.21875 56 28.609375 56 
Q 40.484375 56 46.34375 49.84375 
Q 52.203125 43.703125 52.203125 31.203125 
z
" id="DejaVuSans-61"/>
      <path d="M 44.28125 53.078125 
L 44.28125 44.578125 
Q 40.484375 46.53125 36.375 47.5 
Q 32.28125 48.484375 27.875 48.484375 
Q 21.1875 48.484375 17.84375 46.4375 
Q 14.5 44.390625 14.5 40.28125 
Q 14.5 37.15625 16.890625 35.375 
Q 19.28125 33.59375 26.515625 31.984375 
L 29.59375 31.296875 
Q 39.15625 29.25 43.1875 25.515625 
Q 47.21875 21.78125 47.21875 15.09375 
Q 47.21875 7.46875 41.1875 3.015625 
Q 35.15625 -1.421875 24.609375 -1.421875 
Q 20.21875 -1.421875 15.453125 -0.5625 
Q 10.6875 0.296875 5.421875 2 
L 5.421875 11.28125 
Q 10.40625 8.6875 15.234375 7.390625 
Q 20.0625 6.109375 24.8125 6.109375 
Q 31.15625 6.109375 34.5625 8.28125 
Q 37.984375 10.453125 37.984375 14.40625 
Q 37.984375 18.0625 35.515625 20.015625 
Q 33.0625 21.96875 24.703125 23.78125 
L 21.578125 24.515625 
Q 13.234375 26.265625 9.515625 29.90625 
Q 5.8125 33.546875 5.8125 39.890625 
Q 5.8125 47.609375 11.28125 51.796875 
Q 16.75 56 26.8125 56 
Q 31.78125 56 36.171875 55.265625 
Q 40.578125 54.546875 44.28125 53.078125 
z
" id="DejaVuSans-73"/>
      <path d="M 56.203125 29.59375 
L 56.203125 25.203125 
L 14.890625 25.203125 
Q 15.484375 15.921875 20.484375 11.0625 
Q 25.484375 6.203125 34.421875 6.203125 
Q 39.59375 6.203125 44.453125 7.46875 
Q 49.3125 8.734375 54.109375 11.28125 
L 54.109375 2.78125 
Q 49.265625 0.734375 44.1875 -0.34375 
Q 39.109375 -1.421875 33.890625 -1.421875 
Q 20.796875 -1.421875 13.15625 6.1875 
Q 5.515625 13.8125 5.515625 26.8125 
Q 5.515625 40.234375 12.765625 48.109375 
Q 20.015625 56 32.328125 56 
Q 43.359375 56 49.78125 48.890625 
Q 56.203125 41.796875 56.203125 29.59375 
z
M 47.21875 32.234375 
Q 47.125 39.59375 43.09375 43.984375 
Q 39.0625 48.390625 32.421875 48.390625 
Q 24.90625 48.390625 20.390625 44.140625 
Q 15.875 39.890625 15.1875 32.171875 
z
" id="DejaVuSans-65"/>
     </defs>
     <g transform="translate(280.271094 412.756563)scale(0.1 -0.1)">
      <use xlink:href="#DejaVuSans-50"/>
      <use x="60.302734" xlink:href="#DejaVuSans-68"/>
      <use x="123.681641" xlink:href="#DejaVuSans-61"/>
      <use x="184.960938" xlink:href="#DejaVuSans-73"/>
      <use x="237.060547" xlink:href="#DejaVuSans-65"/>
     </g>
    </g>
   </g>
   <g id="matplotlib.axis_2">
    <g id="ytick_1">
     <g id="line2d_8">
      <defs>
       <path d="M 0 0 
L -3.5 0 
" id="m533477058d" style="stroke:#000000;stroke-width:0.8;"/>
      </defs>
      <g>
       <use style="stroke:#000000;stroke-width:0.8;" x="72" xlink:href="#m533477058d" y="377.67611"/>
      </g>
     </g>
     <g id="text_9">
      <!-- 0.4 -->
      <g transform="translate(49.096875 381.475328)scale(0.1 -0.1)">
       <use xlink:href="#DejaVuSans-30"/>
       <use x="63.623047" xlink:href="#DejaVuSans-2e"/>
       <use x="95.410156" xlink:href="#DejaVuSans-34"/>
      </g>
     </g>
    </g>
    <g id="ytick_2">
     <g id="line2d_9">
      <g>
       <use style="stroke:#000000;stroke-width:0.8;" x="72" xlink:href="#m533477058d" y="326.917291"/>
      </g>
     </g>
     <g id="text_10">
      <!-- 0.5 -->
      <defs>
       <path d="M 10.796875 72.90625 
L 49.515625 72.90625 
L 49.515625 64.59375 
L 19.828125 64.59375 
L 19.828125 46.734375 
Q 21.96875 47.46875 24.109375 47.828125 
Q 26.265625 48.1875 28.421875 48.1875 
Q 40.625 48.1875 47.75 41.5 
Q 54.890625 34.8125 54.890625 23.390625 
Q 54.890625 11.625 47.5625 5.09375 
Q 40.234375 -1.421875 26.90625 -1.421875 
Q 22.3125 -1.421875 17.546875 -0.640625 
Q 12.796875 0.140625 7.71875 1.703125 
L 7.71875 11.625 
Q 12.109375 9.234375 16.796875 8.0625 
Q 21.484375 6.890625 26.703125 6.890625 
Q 35.15625 6.890625 40.078125 11.328125 
Q 45.015625 15.765625 45.015625 23.390625 
Q 45.015625 31 40.078125 35.4375 
Q 35.15625 39.890625 26.703125 39.890625 
Q 22.75 39.890625 18.8125 39.015625 
Q 14.890625 38.140625 10.796875 36.28125 
z
" id="DejaVuSans-35"/>
      </defs>
      <g transform="translate(49.096875 330.71651)scale(0.1 -0.1)">
       <use xlink:href="#DejaVuSans-30"/>
       <use x="63.623047" xlink:href="#DejaVuSans-2e"/>
       <use x="95.410156" xlink:href="#DejaVuSans-35"/>
      </g>
     </g>
    </g>
    <g id="ytick_3">
     <g id="line2d_10">
      <g>
       <use style="stroke:#000000;stroke-width:0.8;" x="72" xlink:href="#m533477058d" y="276.158473"/>
      </g>
     </g>
     <g id="text_11">
      <!-- 0.6 -->
      <g transform="translate(49.096875 279.957692)scale(0.1 -0.1)">
       <use xlink:href="#DejaVuSans-30"/>
       <use x="63.623047" xlink:href="#DejaVuSans-2e"/>
       <use x="95.410156" xlink:href="#DejaVuSans-36"/>
      </g>
     </g>
    </g>
    <g id="ytick_4">
     <g id="line2d_11">
      <g>
       <use style="stroke:#000000;stroke-width:0.8;" x="72" xlink:href="#m533477058d" y="225.399655"/>
      </g>
     </g>
     <g id="text_12">
      <!-- 0.7 -->
      <defs>
       <path d="M 8.203125 72.90625 
L 55.078125 72.90625 
L 55.078125 68.703125 
L 28.609375 0 
L 18.3125 0 
L 43.21875 64.59375 
L 8.203125 64.59375 
z
" id="DejaVuSans-37"/>
      </defs>
      <g transform="translate(49.096875 229.198874)scale(0.1 -0.1)">
       <use xlink:href="#DejaVuSans-30"/>
       <use x="63.623047" xlink:href="#DejaVuSans-2e"/>
       <use x="95.410156" xlink:href="#DejaVuSans-37"/>
      </g>
     </g>
    </g>
    <g id="ytick_5">
     <g id="line2d_12">
      <g>
       <use style="stroke:#000000;stroke-width:0.8;" x="72" xlink:href="#m533477058d" y="174.640836"/>
      </g>
     </g>
     <g id="text_13">
      <!-- 0.8 -->
      <defs>
       <path d="M 31.78125 34.625 
Q 24.75 34.625 20.71875 30.859375 
Q 16.703125 27.09375 16.703125 20.515625 
Q 16.703125 13.921875 20.71875 10.15625 
Q 24.75 6.390625 31.78125 6.390625 
Q 38.8125 6.390625 42.859375 10.171875 
Q 46.921875 13.96875 46.921875 20.515625 
Q 46.921875 27.09375 42.890625 30.859375 
Q 38.875 34.625 31.78125 34.625 
z
M 21.921875 38.8125 
Q 15.578125 40.375 12.03125 44.71875 
Q 8.5 49.078125 8.5 55.328125 
Q 8.5 64.0625 14.71875 69.140625 
Q 20.953125 74.21875 31.78125 74.21875 
Q 42.671875 74.21875 48.875 69.140625 
Q 55.078125 64.0625 55.078125 55.328125 
Q 55.078125 49.078125 51.53125 44.71875 
Q 48 40.375 41.703125 38.8125 
Q 48.828125 37.15625 52.796875 32.3125 
Q 56.78125 27.484375 56.78125 20.515625 
Q 56.78125 9.90625 50.3125 4.234375 
Q 43.84375 -1.421875 31.78125 -1.421875 
Q 19.734375 -1.421875 13.25 4.234375 
Q 6.78125 9.90625 6.78125 20.515625 
Q 6.78125 27.484375 10.78125 32.3125 
Q 14.796875 37.15625 21.921875 38.8125 
z
M 18.3125 54.390625 
Q 18.3125 48.734375 21.84375 45.5625 
Q 25.390625 42.390625 31.78125 42.390625 
Q 38.140625 42.390625 41.71875 45.5625 
Q 45.3125 48.734375 45.3125 54.390625 
Q 45.3125 60.0625 41.71875 63.234375 
Q 38.140625 66.40625 31.78125 66.40625 
Q 25.390625 66.40625 21.84375 63.234375 
Q 18.3125 60.0625 18.3125 54.390625 
z
" id="DejaVuSans-38"/>
      </defs>
      <g transform="translate(49.096875 178.440055)scale(0.1 -0.1)">
       <use xlink:href="#DejaVuSans-30"/>
       <use x="63.623047" xlink:href="#DejaVuSans-2e"/>
       <use x="95.410156" xlink:href="#DejaVuSans-38"/>
      </g>
     </g>
    </g>
    <g id="ytick_6">
     <g id="line2d_13">
      <g>
       <use style="stroke:#000000;stroke-width:0.8;" x="72" xlink:href="#m533477058d" y="123.882018"/>
      </g>
     </g>
     <g id="text_14">
      <!-- 0.9 -->
      <defs>
       <path d="M 10.984375 1.515625 
L 10.984375 10.5 
Q 14.703125 8.734375 18.5 7.8125 
Q 22.3125 6.890625 25.984375 6.890625 
Q 35.75 6.890625 40.890625 13.453125 
Q 46.046875 20.015625 46.78125 33.40625 
Q 43.953125 29.203125 39.59375 26.953125 
Q 35.25 24.703125 29.984375 24.703125 
Q 19.046875 24.703125 12.671875 31.3125 
Q 6.296875 37.9375 6.296875 49.421875 
Q 6.296875 60.640625 12.9375 67.421875 
Q 19.578125 74.21875 30.609375 74.21875 
Q 43.265625 74.21875 49.921875 64.515625 
Q 56.59375 54.828125 56.59375 36.375 
Q 56.59375 19.140625 48.40625 8.859375 
Q 40.234375 -1.421875 26.421875 -1.421875 
Q 22.703125 -1.421875 18.890625 -0.6875 
Q 15.09375 0.046875 10.984375 1.515625 
z
M 30.609375 32.421875 
Q 37.25 32.421875 41.125 36.953125 
Q 45.015625 41.5 45.015625 49.421875 
Q 45.015625 57.28125 41.125 61.84375 
Q 37.25 66.40625 30.609375 66.40625 
Q 23.96875 66.40625 20.09375 61.84375 
Q 16.21875 57.28125 16.21875 49.421875 
Q 16.21875 41.5 20.09375 36.953125 
Q 23.96875 32.421875 30.609375 32.421875 
z
" id="DejaVuSans-39"/>
      </defs>
      <g transform="translate(49.096875 127.681237)scale(0.1 -0.1)">
       <use xlink:href="#DejaVuSans-30"/>
       <use x="63.623047" xlink:href="#DejaVuSans-2e"/>
       <use x="95.410156" xlink:href="#DejaVuSans-39"/>
      </g>
     </g>
    </g>
    <g id="ytick_7">
     <g id="line2d_14">
      <g>
       <use style="stroke:#000000;stroke-width:0.8;" x="72" xlink:href="#m533477058d" y="73.1232"/>
      </g>
     </g>
     <g id="text_15">
      <!-- 1.0 -->
      <defs>
       <path d="M 12.40625 8.296875 
L 28.515625 8.296875 
L 28.515625 63.921875 
L 10.984375 60.40625 
L 10.984375 69.390625 
L 28.421875 72.90625 
L 38.28125 72.90625 
L 38.28125 8.296875 
L 54.390625 8.296875 
L 54.390625 0 
L 12.40625 0 
z
" id="DejaVuSans-31"/>
      </defs>
      <g transform="translate(49.096875 76.922419)scale(0.1 -0.1)">
       <use xlink:href="#DejaVuSans-31"/>
       <use x="63.623047" xlink:href="#DejaVuSans-2e"/>
       <use x="95.410156" xlink:href="#DejaVuSans-30"/>
      </g>
     </g>
    </g>
    <g id="text_16">
     <!-- Flux -->
     <defs>
      <path d="M 9.8125 72.90625 
L 51.703125 72.90625 
L 51.703125 64.59375 
L 19.671875 64.59375 
L 19.671875 43.109375 
L 48.578125 43.109375 
L 48.578125 34.8125 
L 19.671875 34.8125 
L 19.671875 0 
L 9.8125 0 
z
" id="DejaVuSans-46"/>
      <path d="M 9.421875 75.984375 
L 18.40625 75.984375 
L 18.40625 0 
L 9.421875 0 
z
" id="DejaVuSans-6c"/>
      <path d="M 8.5 21.578125 
L 8.5 54.6875 
L 17.484375 54.6875 
L 17.484375 21.921875 
Q 17.484375 14.15625 20.5 10.265625 
Q 23.53125 6.390625 29.59375 6.390625 
Q 36.859375 6.390625 41.078125 11.03125 
Q 45.3125 15.671875 45.3125 23.6875 
L 45.3125 54.6875 
L 54.296875 54.6875 
L 54.296875 0 
L 45.3125 0 
L 45.3125 8.40625 
Q 42.046875 3.421875 37.71875 1 
Q 33.40625 -1.421875 27.6875 -1.421875 
Q 18.265625 -1.421875 13.375 4.4375 
Q 8.5 10.296875 8.5 21.578125 
z
M 31.109375 56 
z
" id="DejaVuSans-75"/>
      <path d="M 54.890625 54.6875 
L 35.109375 28.078125 
L 55.90625 0 
L 45.3125 0 
L 29.390625 21.484375 
L 13.484375 0 
L 2.875 0 
L 24.125 28.609375 
L 4.6875 54.6875 
L 15.28125 54.6875 
L 29.78125 35.203125 
L 44.28125 54.6875 
z
" id="DejaVuSans-78"/>
     </defs>
     <g transform="translate(43.017187 228.552969)rotate(-90)scale(0.1 -0.1)">
      <use xlink:href="#DejaVuSans-46"/>
      <use x="57.519531" xlink:href="#DejaVuSans-6c"/>
      <use x="85.302734" xlink:href="#DejaVuSans-75"/>
      <use x="148.681641" xlink:href="#DejaVuSans-78"/>
     </g>
    </g>
   </g>
   <g id="patch_3">
    <path d="M 72 384.48 
L 72 51.84 
" style="fill:none;stroke:#000000;stroke-linecap:square;stroke-linejoin:miter;stroke-width:0.8;"/>
   </g>
   <g id="patch_4">
    <path d="M 518.4 384.48 
L 518.4 51.84 
" style="fill:none;stroke:#000000;stroke-linecap:square;stroke-linejoin:miter;stroke-width:0.8;"/>
   </g>
   <g id="patch_5">
    <path d="M 72 384.48 
L 518.4 384.48 
" style="fill:none;stroke:#000000;stroke-linecap:square;stroke-linejoin:miter;stroke-width:0.8;"/>
   </g>
   <g id="patch_6">
    <path d="M 72 51.84 
L 518.4 51.84 
" style="fill:none;stroke:#000000;stroke-linecap:square;stroke-linejoin:miter;stroke-width:0.8;"/>
   </g>
   <g id="legend_1">
    <g id="patch_7">
     <path d="M 392.173437 241.677188 
L 511.4 241.677188 
Q 513.4 241.677188 513.4 239.677188 
L 513.4 196.642812 
Q 513.4 194.642812 511.4 194.642812 
L 392.173437 194.642812 
Q 390.173437 194.642812 390.173437 196.642812 
L 390.173437 239.677188 
Q 390.173437 241.677188 392.173437 241.677188 
z
" style="fill:#ffffff;opacity:0.8;stroke:#cccccc;stroke-linejoin:miter;"/>
    </g>
    <g id="PathCollection_4">
     <g>
      <use style="fill:#008000;stroke:#008000;" x="404.173437" xlink:href="#m84cbfa351c" y="203.61625"/>
     </g>
    </g>
    <g id="text_17">
     <!-- Generic.Bessell.V -->
     <defs>
      <path d="M 59.515625 10.40625 
L 59.515625 29.984375 
L 43.40625 29.984375 
L 43.40625 38.09375 
L 69.28125 38.09375 
L 69.28125 6.78125 
Q 63.578125 2.734375 56.6875 0.65625 
Q 49.8125 -1.421875 42 -1.421875 
Q 24.90625 -1.421875 15.25 8.5625 
Q 5.609375 18.5625 5.609375 36.375 
Q 5.609375 54.25 15.25 64.234375 
Q 24.90625 74.21875 42 74.21875 
Q 49.125 74.21875 55.546875 72.453125 
Q 61.96875 70.703125 67.390625 67.28125 
L 67.390625 56.78125 
Q 61.921875 61.421875 55.765625 63.765625 
Q 49.609375 66.109375 42.828125 66.109375 
Q 29.4375 66.109375 22.71875 58.640625 
Q 16.015625 51.171875 16.015625 36.375 
Q 16.015625 21.625 22.71875 14.15625 
Q 29.4375 6.6875 42.828125 6.6875 
Q 48.046875 6.6875 52.140625 7.59375 
Q 56.25 8.5 59.515625 10.40625 
z
" id="DejaVuSans-47"/>
      <path d="M 54.890625 33.015625 
L 54.890625 0 
L 45.90625 0 
L 45.90625 32.71875 
Q 45.90625 40.484375 42.875 44.328125 
Q 39.84375 48.1875 33.796875 48.1875 
Q 26.515625 48.1875 22.3125 43.546875 
Q 18.109375 38.921875 18.109375 30.90625 
L 18.109375 0 
L 9.078125 0 
L 9.078125 54.6875 
L 18.109375 54.6875 
L 18.109375 46.1875 
Q 21.34375 51.125 25.703125 53.5625 
Q 30.078125 56 35.796875 56 
Q 45.21875 56 50.046875 50.171875 
Q 54.890625 44.34375 54.890625 33.015625 
z
" id="DejaVuSans-6e"/>
      <path d="M 41.109375 46.296875 
Q 39.59375 47.171875 37.8125 47.578125 
Q 36.03125 48 33.890625 48 
Q 26.265625 48 22.1875 43.046875 
Q 18.109375 38.09375 18.109375 28.8125 
L 18.109375 0 
L 9.078125 0 
L 9.078125 54.6875 
L 18.109375 54.6875 
L 18.109375 46.1875 
Q 20.953125 51.171875 25.484375 53.578125 
Q 30.03125 56 36.53125 56 
Q 37.453125 56 38.578125 55.875 
Q 39.703125 55.765625 41.0625 55.515625 
z
" id="DejaVuSans-72"/>
      <path d="M 9.421875 54.6875 
L 18.40625 54.6875 
L 18.40625 0 
L 9.421875 0 
z
M 9.421875 75.984375 
L 18.40625 75.984375 
L 18.40625 64.59375 
L 9.421875 64.59375 
z
" id="DejaVuSans-69"/>
      <path d="M 48.78125 52.59375 
L 48.78125 44.1875 
Q 44.96875 46.296875 41.140625 47.34375 
Q 37.3125 48.390625 33.40625 48.390625 
Q 24.65625 48.390625 19.8125 42.84375 
Q 14.984375 37.3125 14.984375 27.296875 
Q 14.984375 17.28125 19.8125 11.734375 
Q 24.65625 6.203125 33.40625 6.203125 
Q 37.3125 6.203125 41.140625 7.25 
Q 44.96875 8.296875 48.78125 10.40625 
L 48.78125 2.09375 
Q 45.015625 0.34375 40.984375 -0.53125 
Q 36.96875 -1.421875 32.421875 -1.421875 
Q 20.0625 -1.421875 12.78125 6.34375 
Q 5.515625 14.109375 5.515625 27.296875 
Q 5.515625 40.671875 12.859375 48.328125 
Q 20.21875 56 33.015625 56 
Q 37.15625 56 41.109375 55.140625 
Q 45.0625 54.296875 48.78125 52.59375 
z
" id="DejaVuSans-63"/>
      <path d="M 19.671875 34.8125 
L 19.671875 8.109375 
L 35.5 8.109375 
Q 43.453125 8.109375 47.28125 11.40625 
Q 51.125 14.703125 51.125 21.484375 
Q 51.125 28.328125 47.28125 31.5625 
Q 43.453125 34.8125 35.5 34.8125 
z
M 19.671875 64.796875 
L 19.671875 42.828125 
L 34.28125 42.828125 
Q 41.5 42.828125 45.03125 45.53125 
Q 48.578125 48.25 48.578125 53.8125 
Q 48.578125 59.328125 45.03125 62.0625 
Q 41.5 64.796875 34.28125 64.796875 
z
M 9.8125 72.90625 
L 35.015625 72.90625 
Q 46.296875 72.90625 52.390625 68.21875 
Q 58.5 63.53125 58.5 54.890625 
Q 58.5 48.1875 55.375 44.234375 
Q 52.25 40.28125 46.1875 39.3125 
Q 53.46875 37.75 57.5 32.78125 
Q 61.53125 27.828125 61.53125 20.40625 
Q 61.53125 10.640625 54.890625 5.3125 
Q 48.25 0 35.984375 0 
L 9.8125 0 
z
" id="DejaVuSans-42"/>
      <path d="M 28.609375 0 
L 0.78125 72.90625 
L 11.078125 72.90625 
L 34.1875 11.53125 
L 57.328125 72.90625 
L 67.578125 72.90625 
L 39.796875 0 
z
" id="DejaVuSans-56"/>
     </defs>
     <g transform="translate(422.173437 206.24125)scale(0.1 -0.1)">
      <use xlink:href="#DejaVuSans-47"/>
      <use x="77.490234" xlink:href="#DejaVuSans-65"/>
      <use x="139.013672" xlink:href="#DejaVuSans-6e"/>
      <use x="202.392578" xlink:href="#DejaVuSans-65"/>
      <use x="263.916016" xlink:href="#DejaVuSans-72"/>
      <use x="305.029297" xlink:href="#DejaVuSans-69"/>
      <use x="332.8125" xlink:href="#DejaVuSans-63"/>
      <use x="387.792969" xlink:href="#DejaVuSans-2e"/>
      <use x="419.580078" xlink:href="#DejaVuSans-42"/>
      <use x="488.183594" xlink:href="#DejaVuSans-65"/>
      <use x="549.707031" xlink:href="#DejaVuSans-73"/>
      <use x="601.806641" xlink:href="#DejaVuSans-73"/>
      <use x="653.90625" xlink:href="#DejaVuSans-65"/>
      <use x="715.429688" xlink:href="#DejaVuSans-6c"/>
      <use x="743.212891" xlink:href="#DejaVuSans-6c"/>
      <use x="770.996094" xlink:href="#DejaVuSans-2e"/>
      <use x="802.783203" xlink:href="#DejaVuSans-56"/>
     </g>
    </g>
    <g id="PathCollection_5">
     <g>
      <use style="fill:#0000ff;stroke:#0000ff;" x="404.173437" xlink:href="#m2ea61d718a" y="218.294375"/>
     </g>
    </g>
    <g id="text_18">
     <!-- Generic.Bessell.B -->
     <g transform="translate(422.173437 220.919375)scale(0.1 -0.1)">
      <use xlink:href="#DejaVuSans-47"/>
      <use x="77.490234" xlink:href="#DejaVuSans-65"/>
      <use x="139.013672" xlink:href="#DejaVuSans-6e"/>
      <use x="202.392578" xlink:href="#DejaVuSans-65"/>
      <use x="263.916016" xlink:href="#DejaVuSans-72"/>
      <use x="305.029297" xlink:href="#DejaVuSans-69"/>
      <use x="332.8125" xlink:href="#DejaVuSans-63"/>
      <use x="387.792969" xlink:href="#DejaVuSans-2e"/>
      <use x="419.580078" xlink:href="#DejaVuSans-42"/>
      <use x="488.183594" xlink:href="#DejaVuSans-65"/>
      <use x="549.707031" xlink:href="#DejaVuSans-73"/>
      <use x="601.806641" xlink:href="#DejaVuSans-73"/>
      <use x="653.90625" xlink:href="#DejaVuSans-65"/>
      <use x="715.429688" xlink:href="#DejaVuSans-6c"/>
      <use x="743.212891" xlink:href="#DejaVuSans-6c"/>
      <use x="770.996094" xlink:href="#DejaVuSans-2e"/>
      <use x="802.783203" xlink:href="#DejaVuSans-42"/>
     </g>
    </g>
    <g id="PathCollection_6">
     <g>
      <use style="fill:#ff0000;stroke:#ff0000;" x="404.173437" xlink:href="#mc22d7c314d" y="232.9725"/>
     </g>
    </g>
    <g id="text_19">
     <!-- Generic.Bessell.R -->
     <defs>
      <path d="M 44.390625 34.1875 
Q 47.5625 33.109375 50.5625 29.59375 
Q 53.5625 26.078125 56.59375 19.921875 
L 66.609375 0 
L 56 0 
L 46.6875 18.703125 
Q 43.0625 26.03125 39.671875 28.421875 
Q 36.28125 30.8125 30.421875 30.8125 
L 19.671875 30.8125 
L 19.671875 0 
L 9.8125 0 
L 9.8125 72.90625 
L 32.078125 72.90625 
Q 44.578125 72.90625 50.734375 67.671875 
Q 56.890625 62.453125 56.890625 51.90625 
Q 56.890625 45.015625 53.6875 40.46875 
Q 50.484375 35.9375 44.390625 34.1875 
z
M 19.671875 64.796875 
L 19.671875 38.921875 
L 32.078125 38.921875 
Q 39.203125 38.921875 42.84375 42.21875 
Q 46.484375 45.515625 46.484375 51.90625 
Q 46.484375 58.296875 42.84375 61.546875 
Q 39.203125 64.796875 32.078125 64.796875 
z
" id="DejaVuSans-52"/>
     </defs>
     <g transform="translate(422.173437 235.5975)scale(0.1 -0.1)">
      <use xlink:href="#DejaVuSans-47"/>
      <use x="77.490234" xlink:href="#DejaVuSans-65"/>
      <use x="139.013672" xlink:href="#DejaVuSans-6e"/>
      <use x="202.392578" xlink:href="#DejaVuSans-65"/>
      <use x="263.916016" xlink:href="#DejaVuSans-72"/>
      <use x="305.029297" xlink:href="#DejaVuSans-69"/>
      <use x="332.8125" xlink:href="#DejaVuSans-63"/>
      <use x="387.792969" xlink:href="#DejaVuSans-2e"/>
      <use x="419.580078" xlink:href="#DejaVuSans-42"/>
      <use x="488.183594" xlink:href="#DejaVuSans-65"/>
      <use x="549.707031" xlink:href="#DejaVuSans-73"/>
      <use x="601.806641" xlink:href="#DejaVuSans-73"/>
      <use x="653.90625" xlink:href="#DejaVuSans-65"/>
      <use x="715.429688" xlink:href="#DejaVuSans-6c"/>
      <use x="743.212891" xlink:href="#DejaVuSans-6c"/>
      <use x="770.996094" xlink:href="#DejaVuSans-2e"/>
      <use x="802.783203" xlink:href="#DejaVuSans-52"/>
     </g>
    </g>
   </g>
  </g>
 </g>
 <defs>
  <clipPath id="p19910df75a">
   <rect height="332.64" width="446.4" x="72" y="51.84"/>
  </clipPath>
 </defs>
</svg>
