<?xml version="1.0" encoding="utf-8" standalone="no"?>
<!DOCTYPE svg PUBLIC "-//W3C//DTD SVG 1.1//EN"
  "http://www.w3.org/Graphics/SVG/1.1/DTD/svg11.dtd">
<!-- Created with matplotlib (http://matplotlib.org/) -->
<svg height="432pt" version="1.1" viewBox="0 0 576 432" width="576pt" xmlns="http://www.w3.org/2000/svg" xmlns:xlink="http://www.w3.org/1999/xlink">
 <defs>
  <style type="text/css">
*{stroke-linecap:butt;stroke-linejoin:round;}
  </style>
 </defs>
 <g id="figure_1">
  <g id="patch_1">
   <path d="M 0 432 
L 576 432 
L 576 0 
L 0 0 
z
" style="fill:#ffffff;"/>
  </g>
  <g id="axes_1">
   <g id="patch_2">
    <path d="M 72 384.48 
L 518.4 384.48 
L 518.4 51.84 
L 72 51.84 
z
" style="fill:#ffffff;"/>
   </g>
   <g id="PathCollection_1">
    <defs>
     <path d="M 0 3 
C 0.795609 3 1.55874 2.683901 2.12132 2.12132 
C 2.683901 1.55874 3 0.795609 3 0 
C 3 -0.795609 2.683901 -1.55874 2.12132 -2.12132 
C 1.55874 -2.683901 0.795609 -3 0 -3 
C -0.795609 -3 -1.55874 -2.683901 -2.12132 -2.12132 
C -2.683901 -1.55874 -3 -0.795609 -3 0 
C -3 0.795609 -2.683901 1.55874 -2.12132 2.12132 
C -1.55874 2.683901 -0.795609 3 0 3 
z
" id="md67db67d82" style="stroke:#008000;"/>
    </defs>
    <g clip-path="url(#p73d8c1c840)">
     <use style="fill:#008000;stroke:#008000;" x="94.445211" xlink:href="#md67db67d82" y="79.878803"/>
     <use style="fill:#008000;stroke:#008000;" x="101.137037" xlink:href="#md67db67d82" y="78.518894"/>
     <use style="fill:#008000;stroke:#008000;" x="107.828863" xlink:href="#md67db67d82" y="84.168573"/>
     <use style="fill:#008000;stroke:#008000;" x="114.52069" xlink:href="#md67db67d82" y="156.237143"/>
     <use style="fill:#008000;stroke:#008000;" x="121.212516" xlink:href="#md67db67d82" y="294.866281"/>
     <use style="fill:#008000;stroke:#008000;" x="127.904342" xlink:href="#md67db67d82" y="318.184236"/>
     <use style="fill:#008000;stroke:#008000;" x="134.596168" xlink:href="#md67db67d82" y="297.250945"/>
     <use style="fill:#008000;stroke:#008000;" x="141.287995" xlink:href="#md67db67d82" y="155.927595"/>
     <use style="fill:#008000;stroke:#008000;" x="147.979821" xlink:href="#md67db67d82" y="81.328216"/>
     <use style="fill:#008000;stroke:#008000;" x="154.671647" xlink:href="#md67db67d82" y="87.535364"/>
     <use style="fill:#008000;stroke:#008000;" x="161.363474" xlink:href="#md67db67d82" y="85.86679"/>
     <use style="fill:#008000;stroke:#008000;" x="168.0553" xlink:href="#md67db67d82" y="77.278692"/>
     <use style="fill:#008000;stroke:#008000;" x="174.747126" xlink:href="#md67db67d82" y="82.847225"/>
     <use style="fill:#008000;stroke:#008000;" x="181.438953" xlink:href="#md67db67d82" y="86.725889"/>
     <use style="fill:#008000;stroke:#008000;" x="188.130779" xlink:href="#md67db67d82" y="79.815134"/>
     <use style="fill:#008000;stroke:#008000;" x="194.822605" xlink:href="#md67db67d82" y="74.007262"/>
     <use style="fill:#008000;stroke:#008000;" x="201.514432" xlink:href="#md67db67d82" y="75.133187"/>
     <use style="fill:#008000;stroke:#008000;" x="208.206258" xlink:href="#md67db67d82" y="73.626244"/>
     <use style="fill:#008000;stroke:#008000;" x="214.898084" xlink:href="#md67db67d82" y="76.128004"/>
     <use style="fill:#008000;stroke:#008000;" x="221.589911" xlink:href="#md67db67d82" y="75.226365"/>
     <use style="fill:#008000;stroke:#008000;" x="228.281737" xlink:href="#md67db67d82" y="82.099961"/>
     <use style="fill:#008000;stroke:#008000;" x="234.973563" xlink:href="#md67db67d82" y="69.306954"/>
     <use style="fill:#008000;stroke:#008000;" x="241.665389" xlink:href="#md67db67d82" y="78.408121"/>
     <use style="fill:#008000;stroke:#008000;" x="248.357216" xlink:href="#md67db67d82" y="71.310032"/>
     <use style="fill:#008000;stroke:#008000;" x="255.049042" xlink:href="#md67db67d82" y="82.570932"/>
     <use style="fill:#008000;stroke:#008000;" x="261.740868" xlink:href="#md67db67d82" y="82.687922"/>
     <use style="fill:#008000;stroke:#008000;" x="268.432695" xlink:href="#md67db67d82" y="77.105893"/>
     <use style="fill:#008000;stroke:#008000;" x="275.124521" xlink:href="#md67db67d82" y="76.224422"/>
     <use style="fill:#008000;stroke:#008000;" x="281.816347" xlink:href="#md67db67d82" y="88.341079"/>
     <use style="fill:#008000;stroke:#008000;" x="288.508174" xlink:href="#md67db67d82" y="113.874699"/>
     <use style="fill:#008000;stroke:#008000;" x="295.2" xlink:href="#md67db67d82" y="134.30422"/>
     <use style="fill:#008000;stroke:#008000;" x="301.891826" xlink:href="#md67db67d82" y="117.147438"/>
     <use style="fill:#008000;stroke:#008000;" x="308.583653" xlink:href="#md67db67d82" y="96.416465"/>
     <use style="fill:#008000;stroke:#008000;" x="315.275479" xlink:href="#md67db67d82" y="80.321981"/>
     <use style="fill:#008000;stroke:#008000;" x="321.967305" xlink:href="#md67db67d82" y="81.451307"/>
     <use style="fill:#008000;stroke:#008000;" x="328.659132" xlink:href="#md67db67d82" y="78.541162"/>
     <use style="fill:#008000;stroke:#008000;" x="335.350958" xlink:href="#md67db67d82" y="71.379375"/>
     <use style="fill:#008000;stroke:#008000;" x="342.042784" xlink:href="#md67db67d82" y="82.244217"/>
     <use style="fill:#008000;stroke:#008000;" x="348.734611" xlink:href="#md67db67d82" y="76.032792"/>
     <use style="fill:#008000;stroke:#008000;" x="355.426437" xlink:href="#md67db67d82" y="81.612129"/>
     <use style="fill:#008000;stroke:#008000;" x="362.118263" xlink:href="#md67db67d82" y="69.284938"/>
     <use style="fill:#008000;stroke:#008000;" x="368.810089" xlink:href="#md67db67d82" y="71.287461"/>
     <use style="fill:#008000;stroke:#008000;" x="375.501916" xlink:href="#md67db67d82" y="75.125083"/>
     <use style="fill:#008000;stroke:#008000;" x="382.193742" xlink:href="#md67db67d82" y="83.278793"/>
     <use style="fill:#008000;stroke:#008000;" x="388.885568" xlink:href="#md67db67d82" y="78.860608"/>
     <use style="fill:#008000;stroke:#008000;" x="395.577395" xlink:href="#md67db67d82" y="82.015632"/>
     <use style="fill:#008000;stroke:#008000;" x="402.269221" xlink:href="#md67db67d82" y="86.125295"/>
     <use style="fill:#008000;stroke:#008000;" x="408.961047" xlink:href="#md67db67d82" y="82.540373"/>
     <use style="fill:#008000;stroke:#008000;" x="415.652874" xlink:href="#md67db67d82" y="83.443886"/>
     <use style="fill:#008000;stroke:#008000;" x="422.3447" xlink:href="#md67db67d82" y="81.254308"/>
     <use style="fill:#008000;stroke:#008000;" x="429.036526" xlink:href="#md67db67d82" y="83.003701"/>
     <use style="fill:#008000;stroke:#008000;" x="435.728353" xlink:href="#md67db67d82" y="88.538011"/>
     <use style="fill:#008000;stroke:#008000;" x="442.420179" xlink:href="#md67db67d82" y="82.653963"/>
     <use style="fill:#008000;stroke:#008000;" x="449.112005" xlink:href="#md67db67d82" y="160.303618"/>
     <use style="fill:#008000;stroke:#008000;" x="455.803832" xlink:href="#md67db67d82" y="299.437233"/>
     <use style="fill:#008000;stroke:#008000;" x="462.495658" xlink:href="#md67db67d82" y="317.140898"/>
     <use style="fill:#008000;stroke:#008000;" x="469.187484" xlink:href="#md67db67d82" y="291.806025"/>
     <use style="fill:#008000;stroke:#008000;" x="475.87931" xlink:href="#md67db67d82" y="159.452784"/>
     <use style="fill:#008000;stroke:#008000;" x="482.571137" xlink:href="#md67db67d82" y="88.389296"/>
     <use style="fill:#008000;stroke:#008000;" x="489.262963" xlink:href="#md67db67d82" y="88.687836"/>
     <use style="fill:#008000;stroke:#008000;" x="495.954789" xlink:href="#md67db67d82" y="82.132221"/>
    </g>
   </g>
   <g id="PathCollection_2">
    <defs>
     <path d="M 0 3 
C 0.795609 3 1.55874 2.683901 2.12132 2.12132 
C 2.683901 1.55874 3 0.795609 3 0 
C 3 -0.795609 2.683901 -1.55874 2.12132 -2.12132 
C 1.55874 -2.683901 0.795609 -3 0 -3 
C -0.795609 -3 -1.55874 -2.683901 -2.12132 -2.12132 
C -2.683901 -1.55874 -3 -0.795609 -3 0 
C -3 0.795609 -2.683901 1.55874 -2.12132 2.12132 
C -1.55874 2.683901 -0.795609 3 0 3 
z
" id="m4ed1017933" style="stroke:#0000ff;"/>
    </defs>
    <g clip-path="url(#p73d8c1c840)">
     <use style="fill:#0000ff;stroke:#0000ff;" x="94.445211" xlink:href="#m4ed1017933" y="144.003534"/>
     <use style="fill:#0000ff;stroke:#0000ff;" x="101.137037" xlink:href="#m4ed1017933" y="147.704867"/>
     <use style="fill:#0000ff;stroke:#0000ff;" x="107.828863" xlink:href="#m4ed1017933" y="138.86242"/>
     <use style="fill:#0000ff;stroke:#0000ff;" x="114.52069" xlink:href="#m4ed1017933" y="219.938936"/>
     <use style="fill:#0000ff;stroke:#0000ff;" x="121.212516" xlink:href="#m4ed1017933" y="346.572244"/>
     <use style="fill:#0000ff;stroke:#0000ff;" x="127.904342" xlink:href="#m4ed1017933" y="366.437104"/>
     <use style="fill:#0000ff;stroke:#0000ff;" x="134.596168" xlink:href="#m4ed1017933" y="349.877383"/>
     <use style="fill:#0000ff;stroke:#0000ff;" x="141.287995" xlink:href="#m4ed1017933" y="222.752674"/>
     <use style="fill:#0000ff;stroke:#0000ff;" x="147.979821" xlink:href="#m4ed1017933" y="144.511632"/>
     <use style="fill:#0000ff;stroke:#0000ff;" x="154.671647" xlink:href="#m4ed1017933" y="149.304045"/>
     <use style="fill:#0000ff;stroke:#0000ff;" x="161.363474" xlink:href="#m4ed1017933" y="144.397803"/>
     <use style="fill:#0000ff;stroke:#0000ff;" x="168.0553" xlink:href="#m4ed1017933" y="138.795759"/>
     <use style="fill:#0000ff;stroke:#0000ff;" x="174.747126" xlink:href="#m4ed1017933" y="139.830691"/>
     <use style="fill:#0000ff;stroke:#0000ff;" x="181.438953" xlink:href="#m4ed1017933" y="136.966885"/>
     <use style="fill:#0000ff;stroke:#0000ff;" x="188.130779" xlink:href="#m4ed1017933" y="145.15815"/>
     <use style="fill:#0000ff;stroke:#0000ff;" x="194.822605" xlink:href="#m4ed1017933" y="143.140691"/>
     <use style="fill:#0000ff;stroke:#0000ff;" x="201.514432" xlink:href="#m4ed1017933" y="134.806035"/>
     <use style="fill:#0000ff;stroke:#0000ff;" x="208.206258" xlink:href="#m4ed1017933" y="144.424942"/>
     <use style="fill:#0000ff;stroke:#0000ff;" x="214.898084" xlink:href="#m4ed1017933" y="140.736109"/>
     <use style="fill:#0000ff;stroke:#0000ff;" x="221.589911" xlink:href="#m4ed1017933" y="143.414703"/>
     <use style="fill:#0000ff;stroke:#0000ff;" x="228.281737" xlink:href="#m4ed1017933" y="145.315062"/>
     <use style="fill:#0000ff;stroke:#0000ff;" x="234.973563" xlink:href="#m4ed1017933" y="138.732149"/>
     <use style="fill:#0000ff;stroke:#0000ff;" x="241.665389" xlink:href="#m4ed1017933" y="136.930157"/>
     <use style="fill:#0000ff;stroke:#0000ff;" x="248.357216" xlink:href="#m4ed1017933" y="142.191753"/>
     <use style="fill:#0000ff;stroke:#0000ff;" x="255.049042" xlink:href="#m4ed1017933" y="137.122224"/>
     <use style="fill:#0000ff;stroke:#0000ff;" x="261.740868" xlink:href="#m4ed1017933" y="139.43598"/>
     <use style="fill:#0000ff;stroke:#0000ff;" x="268.432695" xlink:href="#m4ed1017933" y="141.604398"/>
     <use style="fill:#0000ff;stroke:#0000ff;" x="275.124521" xlink:href="#m4ed1017933" y="145.09785"/>
     <use style="fill:#0000ff;stroke:#0000ff;" x="281.816347" xlink:href="#m4ed1017933" y="147.168292"/>
     <use style="fill:#0000ff;stroke:#0000ff;" x="288.508174" xlink:href="#m4ed1017933" y="163.207544"/>
     <use style="fill:#0000ff;stroke:#0000ff;" x="295.2" xlink:href="#m4ed1017933" y="174.037519"/>
     <use style="fill:#0000ff;stroke:#0000ff;" x="301.891826" xlink:href="#m4ed1017933" y="162.394814"/>
     <use style="fill:#0000ff;stroke:#0000ff;" x="308.583653" xlink:href="#m4ed1017933" y="147.670574"/>
     <use style="fill:#0000ff;stroke:#0000ff;" x="315.275479" xlink:href="#m4ed1017933" y="139.314926"/>
     <use style="fill:#0000ff;stroke:#0000ff;" x="321.967305" xlink:href="#m4ed1017933" y="139.591762"/>
     <use style="fill:#0000ff;stroke:#0000ff;" x="328.659132" xlink:href="#m4ed1017933" y="147.858782"/>
     <use style="fill:#0000ff;stroke:#0000ff;" x="335.350958" xlink:href="#m4ed1017933" y="142.754676"/>
     <use style="fill:#0000ff;stroke:#0000ff;" x="342.042784" xlink:href="#m4ed1017933" y="142.215096"/>
     <use style="fill:#0000ff;stroke:#0000ff;" x="348.734611" xlink:href="#m4ed1017933" y="140.910621"/>
     <use style="fill:#0000ff;stroke:#0000ff;" x="355.426437" xlink:href="#m4ed1017933" y="144.188848"/>
     <use style="fill:#0000ff;stroke:#0000ff;" x="362.118263" xlink:href="#m4ed1017933" y="142.988957"/>
     <use style="fill:#0000ff;stroke:#0000ff;" x="368.810089" xlink:href="#m4ed1017933" y="142.665455"/>
     <use style="fill:#0000ff;stroke:#0000ff;" x="375.501916" xlink:href="#m4ed1017933" y="134.412568"/>
     <use style="fill:#0000ff;stroke:#0000ff;" x="382.193742" xlink:href="#m4ed1017933" y="142.551926"/>
     <use style="fill:#0000ff;stroke:#0000ff;" x="388.885568" xlink:href="#m4ed1017933" y="145.898731"/>
     <use style="fill:#0000ff;stroke:#0000ff;" x="395.577395" xlink:href="#m4ed1017933" y="145.60363"/>
     <use style="fill:#0000ff;stroke:#0000ff;" x="402.269221" xlink:href="#m4ed1017933" y="144.86826"/>
     <use style="fill:#0000ff;stroke:#0000ff;" x="408.961047" xlink:href="#m4ed1017933" y="147.826004"/>
     <use style="fill:#0000ff;stroke:#0000ff;" x="415.652874" xlink:href="#m4ed1017933" y="140.137375"/>
     <use style="fill:#0000ff;stroke:#0000ff;" x="422.3447" xlink:href="#m4ed1017933" y="140.805512"/>
     <use style="fill:#0000ff;stroke:#0000ff;" x="429.036526" xlink:href="#m4ed1017933" y="141.870779"/>
     <use style="fill:#0000ff;stroke:#0000ff;" x="435.728353" xlink:href="#m4ed1017933" y="144.06253"/>
     <use style="fill:#0000ff;stroke:#0000ff;" x="442.420179" xlink:href="#m4ed1017933" y="152.317774"/>
     <use style="fill:#0000ff;stroke:#0000ff;" x="449.112005" xlink:href="#m4ed1017933" y="223.781473"/>
     <use style="fill:#0000ff;stroke:#0000ff;" x="455.803832" xlink:href="#m4ed1017933" y="357.634823"/>
     <use style="fill:#0000ff;stroke:#0000ff;" x="462.495658" xlink:href="#m4ed1017933" y="367.548934"/>
     <use style="fill:#0000ff;stroke:#0000ff;" x="469.187484" xlink:href="#m4ed1017933" y="352.293153"/>
     <use style="fill:#0000ff;stroke:#0000ff;" x="475.87931" xlink:href="#m4ed1017933" y="212.53375"/>
     <use style="fill:#0000ff;stroke:#0000ff;" x="482.571137" xlink:href="#m4ed1017933" y="146.535989"/>
     <use style="fill:#0000ff;stroke:#0000ff;" x="489.262963" xlink:href="#m4ed1017933" y="143.052706"/>
     <use style="fill:#0000ff;stroke:#0000ff;" x="495.954789" xlink:href="#m4ed1017933" y="147.046033"/>
    </g>
   </g>
   <g id="matplotlib.axis_1">
    <g id="xtick_1">
     <g id="line2d_1">
      <defs>
       <path d="M 0 0 
L 0 3.5 
" id="me6f0e9bfc5" style="stroke:#000000;stroke-width:0.8;"/>
      </defs>
      <g>
       <use style="stroke:#000000;stroke-width:0.8;" x="94.445211" xlink:href="#me6f0e9bfc5" y="384.48"/>
      </g>
     </g>
     <g id="text_1">
      <!-- −0.6 -->
      <defs>
       <path d="M 10.59375 35.5 
L 73.1875 35.5 
L 73.1875 27.203125 
L 10.59375 27.203125 
z
" id="DejaVuSans-2212"/>
       <path d="M 31.78125 66.40625 
Q 24.171875 66.40625 20.328125 58.90625 
Q 16.5 51.421875 16.5 36.375 
Q 16.5 21.390625 20.328125 13.890625 
Q 24.171875 6.390625 31.78125 6.390625 
Q 39.453125 6.390625 43.28125 13.890625 
Q 47.125 21.390625 47.125 36.375 
Q 47.125 51.421875 43.28125 58.90625 
Q 39.453125 66.40625 31.78125 66.40625 
z
M 31.78125 74.21875 
Q 44.046875 74.21875 50.515625 64.515625 
Q 56.984375 54.828125 56.984375 36.375 
Q 56.984375 17.96875 50.515625 8.265625 
Q 44.046875 -1.421875 31.78125 -1.421875 
Q 19.53125 -1.421875 13.0625 8.265625 
Q 6.59375 17.96875 6.59375 36.375 
Q 6.59375 54.828125 13.0625 64.515625 
Q 19.53125 74.21875 31.78125 74.21875 
z
" id="DejaVuSans-30"/>
       <path d="M 10.6875 12.40625 
L 21 12.40625 
L 21 0 
L 10.6875 0 
z
" id="DejaVuSans-2e"/>
       <path d="M 33.015625 40.375 
Q 26.375 40.375 22.484375 35.828125 
Q 18.609375 31.296875 18.609375 23.390625 
Q 18.609375 15.53125 22.484375 10.953125 
Q 26.375 6.390625 33.015625 6.390625 
Q 39.65625 6.390625 43.53125 10.953125 
Q 47.40625 15.53125 47.40625 23.390625 
Q 47.40625 31.296875 43.53125 35.828125 
Q 39.65625 40.375 33.015625 40.375 
z
M 52.59375 71.296875 
L 52.59375 62.3125 
Q 48.875 64.0625 45.09375 64.984375 
Q 41.3125 65.921875 37.59375 65.921875 
Q 27.828125 65.921875 22.671875 59.328125 
Q 17.53125 52.734375 16.796875 39.40625 
Q 19.671875 43.65625 24.015625 45.921875 
Q 28.375 48.1875 33.59375 48.1875 
Q 44.578125 48.1875 50.953125 41.515625 
Q 57.328125 34.859375 57.328125 23.390625 
Q 57.328125 12.15625 50.6875 5.359375 
Q 44.046875 -1.421875 33.015625 -1.421875 
Q 20.359375 -1.421875 13.671875 8.265625 
Q 6.984375 17.96875 6.984375 36.375 
Q 6.984375 53.65625 15.1875 63.9375 
Q 23.390625 74.21875 37.203125 74.21875 
Q 40.921875 74.21875 44.703125 73.484375 
Q 48.484375 72.75 52.59375 71.296875 
z
" id="DejaVuSans-36"/>
      </defs>
      <g transform="translate(82.303804 399.078438)scale(0.1 -0.1)">
       <use xlink:href="#DejaVuSans-2212"/>
       <use x="83.789062" xlink:href="#DejaVuSans-30"/>
       <use x="147.412109" xlink:href="#DejaVuSans-2e"/>
       <use x="179.199219" xlink:href="#DejaVuSans-36"/>
      </g>
     </g>
    </g>
    <g id="xtick_2">
     <g id="line2d_2">
      <g>
       <use style="stroke:#000000;stroke-width:0.8;" x="161.363474" xlink:href="#me6f0e9bfc5" y="384.48"/>
      </g>
     </g>
     <g id="text_2">
      <!-- −0.4 -->
      <defs>
       <path d="M 37.796875 64.3125 
L 12.890625 25.390625 
L 37.796875 25.390625 
z
M 35.203125 72.90625 
L 47.609375 72.90625 
L 47.609375 25.390625 
L 58.015625 25.390625 
L 58.015625 17.1875 
L 47.609375 17.1875 
L 47.609375 0 
L 37.796875 0 
L 37.796875 17.1875 
L 4.890625 17.1875 
L 4.890625 26.703125 
z
" id="DejaVuSans-34"/>
      </defs>
      <g transform="translate(149.222067 399.078438)scale(0.1 -0.1)">
       <use xlink:href="#DejaVuSans-2212"/>
       <use x="83.789062" xlink:href="#DejaVuSans-30"/>
       <use x="147.412109" xlink:href="#DejaVuSans-2e"/>
       <use x="179.199219" xlink:href="#DejaVuSans-34"/>
      </g>
     </g>
    </g>
    <g id="xtick_3">
     <g id="line2d_3">
      <g>
       <use style="stroke:#000000;stroke-width:0.8;" x="228.281737" xlink:href="#me6f0e9bfc5" y="384.48"/>
      </g>
     </g>
     <g id="text_3">
      <!-- −0.2 -->
      <defs>
       <path d="M 19.1875 8.296875 
L 53.609375 8.296875 
L 53.609375 0 
L 7.328125 0 
L 7.328125 8.296875 
Q 12.9375 14.109375 22.625 23.890625 
Q 32.328125 33.6875 34.8125 36.53125 
Q 39.546875 41.84375 41.421875 45.53125 
Q 43.3125 49.21875 43.3125 52.78125 
Q 43.3125 58.59375 39.234375 62.25 
Q 35.15625 65.921875 28.609375 65.921875 
Q 23.96875 65.921875 18.8125 64.3125 
Q 13.671875 62.703125 7.8125 59.421875 
L 7.8125 69.390625 
Q 13.765625 71.78125 18.9375 73 
Q 24.125 74.21875 28.421875 74.21875 
Q 39.75 74.21875 46.484375 68.546875 
Q 53.21875 62.890625 53.21875 53.421875 
Q 53.21875 48.921875 51.53125 44.890625 
Q 49.859375 40.875 45.40625 35.40625 
Q 44.1875 33.984375 37.640625 27.21875 
Q 31.109375 20.453125 19.1875 8.296875 
z
" id="DejaVuSans-32"/>
      </defs>
      <g transform="translate(216.140331 399.078438)scale(0.1 -0.1)">
       <use xlink:href="#DejaVuSans-2212"/>
       <use x="83.789062" xlink:href="#DejaVuSans-30"/>
       <use x="147.412109" xlink:href="#DejaVuSans-2e"/>
       <use x="179.199219" xlink:href="#DejaVuSans-32"/>
      </g>
     </g>
    </g>
    <g id="xtick_4">
     <g id="line2d_4">
      <g>
       <use style="stroke:#000000;stroke-width:0.8;" x="295.2" xlink:href="#me6f0e9bfc5" y="384.48"/>
      </g>
     </g>
     <g id="text_4">
      <!-- 0.0 -->
      <g transform="translate(287.248437 399.078438)scale(0.1 -0.1)">
       <use xlink:href="#DejaVuSans-30"/>
       <use x="63.623047" xlink:href="#DejaVuSans-2e"/>
       <use x="95.410156" xlink:href="#DejaVuSans-30"/>
      </g>
     </g>
    </g>
    <g id="xtick_5">
     <g id="line2d_5">
      <g>
       <use style="stroke:#000000;stroke-width:0.8;" x="362.118263" xlink:href="#me6f0e9bfc5" y="384.48"/>
      </g>
     </g>
     <g id="text_5">
      <!-- 0.2 -->
      <g transform="translate(354.166701 399.078438)scale(0.1 -0.1)">
       <use xlink:href="#DejaVuSans-30"/>
       <use x="63.623047" xlink:href="#DejaVuSans-2e"/>
       <use x="95.410156" xlink:href="#DejaVuSans-32"/>
      </g>
     </g>
    </g>
    <g id="xtick_6">
     <g id="line2d_6">
      <g>
       <use style="stroke:#000000;stroke-width:0.8;" x="429.036526" xlink:href="#me6f0e9bfc5" y="384.48"/>
      </g>
     </g>
     <g id="text_6">
      <!-- 0.4 -->
      <g transform="translate(421.084964 399.078438)scale(0.1 -0.1)">
       <use xlink:href="#DejaVuSans-30"/>
       <use x="63.623047" xlink:href="#DejaVuSans-2e"/>
       <use x="95.410156" xlink:href="#DejaVuSans-34"/>
      </g>
     </g>
    </g>
    <g id="xtick_7">
     <g id="line2d_7">
      <g>
       <use style="stroke:#000000;stroke-width:0.8;" x="495.954789" xlink:href="#me6f0e9bfc5" y="384.48"/>
      </g>
     </g>
     <g id="text_7">
      <!-- 0.6 -->
      <g transform="translate(488.003227 399.078438)scale(0.1 -0.1)">
       <use xlink:href="#DejaVuSans-30"/>
       <use x="63.623047" xlink:href="#DejaVuSans-2e"/>
       <use x="95.410156" xlink:href="#DejaVuSans-36"/>
      </g>
     </g>
    </g>
    <g id="text_8">
     <!-- Phase -->
     <defs>
      <path d="M 19.671875 64.796875 
L 19.671875 37.40625 
L 32.078125 37.40625 
Q 38.96875 37.40625 42.71875 40.96875 
Q 46.484375 44.53125 46.484375 51.125 
Q 46.484375 57.671875 42.71875 61.234375 
Q 38.96875 64.796875 32.078125 64.796875 
z
M 9.8125 72.90625 
L 32.078125 72.90625 
Q 44.34375 72.90625 50.609375 67.359375 
Q 56.890625 61.8125 56.890625 51.125 
Q 56.890625 40.328125 50.609375 34.8125 
Q 44.34375 29.296875 32.078125 29.296875 
L 19.671875 29.296875 
L 19.671875 0 
L 9.8125 0 
z
" id="DejaVuSans-50"/>
      <path d="M 54.890625 33.015625 
L 54.890625 0 
L 45.90625 0 
L 45.90625 32.71875 
Q 45.90625 40.484375 42.875 44.328125 
Q 39.84375 48.1875 33.796875 48.1875 
Q 26.515625 48.1875 22.3125 43.546875 
Q 18.109375 38.921875 18.109375 30.90625 
L 18.109375 0 
L 9.078125 0 
L 9.078125 75.984375 
L 18.109375 75.984375 
L 18.109375 46.1875 
Q 21.34375 51.125 25.703125 53.5625 
Q 30.078125 56 35.796875 56 
Q 45.21875 56 50.046875 50.171875 
Q 54.890625 44.34375 54.890625 33.015625 
z
" id="DejaVuSans-68"/>
      <path d="M 34.28125 27.484375 
Q 23.390625 27.484375 19.1875 25 
Q 14.984375 22.515625 14.984375 16.5 
Q 14.984375 11.71875 18.140625 8.90625 
Q 21.296875 6.109375 26.703125 6.109375 
Q 34.1875 6.109375 38.703125 11.40625 
Q 43.21875 16.703125 43.21875 25.484375 
L 43.21875 27.484375 
z
M 52.203125 31.203125 
L 52.203125 0 
L 43.21875 0 
L 43.21875 8.296875 
Q 40.140625 3.328125 35.546875 0.953125 
Q 30.953125 -1.421875 24.3125 -1.421875 
Q 15.921875 -1.421875 10.953125 3.296875 
Q 6 8.015625 6 15.921875 
Q 6 25.140625 12.171875 29.828125 
Q 18.359375 34.515625 30.609375 34.515625 
L 43.21875 34.515625 
L 43.21875 35.40625 
Q 43.21875 41.609375 39.140625 45 
Q 35.0625 48.390625 27.6875 48.390625 
Q 23 48.390625 18.546875 47.265625 
Q 14.109375 46.140625 10.015625 43.890625 
L 10.015625 52.203125 
Q 14.9375 54.109375 19.578125 55.046875 
Q 24.21875 56 28.609375 56 
Q 40.484375 56 46.34375 49.84375 
Q 52.203125 43.703125 52.203125 31.203125 
z
" id="DejaVuSans-61"/>
      <path d="M 44.28125 53.078125 
L 44.28125 44.578125 
Q 40.484375 46.53125 36.375 47.5 
Q 32.28125 48.484375 27.875 48.484375 
Q 21.1875 48.484375 17.84375 46.4375 
Q 14.5 44.390625 14.5 40.28125 
Q 14.5 37.15625 16.890625 35.375 
Q 19.28125 33.59375 26.515625 31.984375 
L 29.59375 31.296875 
Q 39.15625 29.25 43.1875 25.515625 
Q 47.21875 21.78125 47.21875 15.09375 
Q 47.21875 7.46875 41.1875 3.015625 
Q 35.15625 -1.421875 24.609375 -1.421875 
Q 20.21875 -1.421875 15.453125 -0.5625 
Q 10.6875 0.296875 5.421875 2 
L 5.421875 11.28125 
Q 10.40625 8.6875 15.234375 7.390625 
Q 20.0625 6.109375 24.8125 6.109375 
Q 31.15625 6.109375 34.5625 8.28125 
Q 37.984375 10.453125 37.984375 14.40625 
Q 37.984375 18.0625 35.515625 20.015625 
Q 33.0625 21.96875 24.703125 23.78125 
L 21.578125 24.515625 
Q 13.234375 26.265625 9.515625 29.90625 
Q 5.8125 33.546875 5.8125 39.890625 
Q 5.8125 47.609375 11.28125 51.796875 
Q 16.75 56 26.8125 56 
Q 31.78125 56 36.171875 55.265625 
Q 40.578125 54.546875 44.28125 53.078125 
z
" id="DejaVuSans-73"/>
      <path d="M 56.203125 29.59375 
L 56.203125 25.203125 
L 14.890625 25.203125 
Q 15.484375 15.921875 20.484375 11.0625 
Q 25.484375 6.203125 34.421875 6.203125 
Q 39.59375 6.203125 44.453125 7.46875 
Q 49.3125 8.734375 54.109375 11.28125 
L 54.109375 2.78125 
Q 49.265625 0.734375 44.1875 -0.34375 
Q 39.109375 -1.421875 33.890625 -1.421875 
Q 20.796875 -1.421875 13.15625 6.1875 
Q 5.515625 13.8125 5.515625 26.8125 
Q 5.515625 40.234375 12.765625 48.109375 
Q 20.015625 56 32.328125 56 
Q 43.359375 56 49.78125 48.890625 
Q 56.203125 41.796875 56.203125 29.59375 
z
M 47.21875 32.234375 
Q 47.125 39.59375 43.09375 43.984375 
Q 39.0625 48.390625 32.421875 48.390625 
Q 24.90625 48.390625 20.390625 44.140625 
Q 15.875 39.890625 15.1875 32.171875 
z
" id="DejaVuSans-65"/>
     </defs>
     <g transform="translate(280.271094 412.756563)scale(0.1 -0.1)">
      <use xlink:href="#DejaVuSans-50"/>
      <use x="60.302734" xlink:href="#DejaVuSans-68"/>
      <use x="123.681641" xlink:href="#DejaVuSans-61"/>
      <use x="184.960938" xlink:href="#DejaVuSans-73"/>
      <use x="237.060547" xlink:href="#DejaVuSans-65"/>
     </g>
    </g>
   </g>
   <g id="matplotlib.axis_2">
    <g id="ytick_1">
     <g id="line2d_8">
      <defs>
       <path d="M 0 0 
L -3.5 0 
" id="m8a1a7dff28" style="stroke:#000000;stroke-width:0.8;"/>
      </defs>
      <g>
       <use style="stroke:#000000;stroke-width:0.8;" x="72" xlink:href="#m8a1a7dff28" y="362.596093"/>
      </g>
     </g>
     <g id="text_9">
      <!-- 0.2 -->
      <g transform="translate(49.096875 366.395312)scale(0.1 -0.1)">
       <use xlink:href="#DejaVuSans-30"/>
       <use x="63.623047" xlink:href="#DejaVuSans-2e"/>
       <use x="95.410156" xlink:href="#DejaVuSans-32"/>
      </g>
     </g>
    </g>
    <g id="ytick_2">
     <g id="line2d_9">
      <g>
       <use style="stroke:#000000;stroke-width:0.8;" x="72" xlink:href="#m8a1a7dff28" y="290.988007"/>
      </g>
     </g>
     <g id="text_10">
      <!-- 0.4 -->
      <g transform="translate(49.096875 294.787226)scale(0.1 -0.1)">
       <use xlink:href="#DejaVuSans-30"/>
       <use x="63.623047" xlink:href="#DejaVuSans-2e"/>
       <use x="95.410156" xlink:href="#DejaVuSans-34"/>
      </g>
     </g>
    </g>
    <g id="ytick_3">
     <g id="line2d_10">
      <g>
       <use style="stroke:#000000;stroke-width:0.8;" x="72" xlink:href="#m8a1a7dff28" y="219.379922"/>
      </g>
     </g>
     <g id="text_11">
      <!-- 0.6 -->
      <g transform="translate(49.096875 223.179141)scale(0.1 -0.1)">
       <use xlink:href="#DejaVuSans-30"/>
       <use x="63.623047" xlink:href="#DejaVuSans-2e"/>
       <use x="95.410156" xlink:href="#DejaVuSans-36"/>
      </g>
     </g>
    </g>
    <g id="ytick_4">
     <g id="line2d_11">
      <g>
       <use style="stroke:#000000;stroke-width:0.8;" x="72" xlink:href="#m8a1a7dff28" y="147.771836"/>
      </g>
     </g>
     <g id="text_12">
      <!-- 0.8 -->
      <defs>
       <path d="M 31.78125 34.625 
Q 24.75 34.625 20.71875 30.859375 
Q 16.703125 27.09375 16.703125 20.515625 
Q 16.703125 13.921875 20.71875 10.15625 
Q 24.75 6.390625 31.78125 6.390625 
Q 38.8125 6.390625 42.859375 10.171875 
Q 46.921875 13.96875 46.921875 20.515625 
Q 46.921875 27.09375 42.890625 30.859375 
Q 38.875 34.625 31.78125 34.625 
z
M 21.921875 38.8125 
Q 15.578125 40.375 12.03125 44.71875 
Q 8.5 49.078125 8.5 55.328125 
Q 8.5 64.0625 14.71875 69.140625 
Q 20.953125 74.21875 31.78125 74.21875 
Q 42.671875 74.21875 48.875 69.140625 
Q 55.078125 64.0625 55.078125 55.328125 
Q 55.078125 49.078125 51.53125 44.71875 
Q 48 40.375 41.703125 38.8125 
Q 48.828125 37.15625 52.796875 32.3125 
Q 56.78125 27.484375 56.78125 20.515625 
Q 56.78125 9.90625 50.3125 4.234375 
Q 43.84375 -1.421875 31.78125 -1.421875 
Q 19.734375 -1.421875 13.25 4.234375 
Q 6.78125 9.90625 6.78125 20.515625 
Q 6.78125 27.484375 10.78125 32.3125 
Q 14.796875 37.15625 21.921875 38.8125 
z
M 18.3125 54.390625 
Q 18.3125 48.734375 21.84375 45.5625 
Q 25.390625 42.390625 31.78125 42.390625 
Q 38.140625 42.390625 41.71875 45.5625 
Q 45.3125 48.734375 45.3125 54.390625 
Q 45.3125 60.0625 41.71875 63.234375 
Q 38.140625 66.40625 31.78125 66.40625 
Q 25.390625 66.40625 21.84375 63.234375 
Q 18.3125 60.0625 18.3125 54.390625 
z
" id="DejaVuSans-38"/>
      </defs>
      <g transform="translate(49.096875 151.571055)scale(0.1 -0.1)">
       <use xlink:href="#DejaVuSans-30"/>
       <use x="63.623047" xlink:href="#DejaVuSans-2e"/>
       <use x="95.410156" xlink:href="#DejaVuSans-38"/>
      </g>
     </g>
    </g>
    <g id="ytick_5">
     <g id="line2d_12">
      <g>
       <use style="stroke:#000000;stroke-width:0.8;" x="72" xlink:href="#m8a1a7dff28" y="76.163751"/>
      </g>
     </g>
     <g id="text_13">
      <!-- 1.0 -->
      <defs>
       <path d="M 12.40625 8.296875 
L 28.515625 8.296875 
L 28.515625 63.921875 
L 10.984375 60.40625 
L 10.984375 69.390625 
L 28.421875 72.90625 
L 38.28125 72.90625 
L 38.28125 8.296875 
L 54.390625 8.296875 
L 54.390625 0 
L 12.40625 0 
z
" id="DejaVuSans-31"/>
      </defs>
      <g transform="translate(49.096875 79.96297)scale(0.1 -0.1)">
       <use xlink:href="#DejaVuSans-31"/>
       <use x="63.623047" xlink:href="#DejaVuSans-2e"/>
       <use x="95.410156" xlink:href="#DejaVuSans-30"/>
      </g>
     </g>
    </g>
    <g id="text_14">
     <!-- Flux -->
     <defs>
      <path d="M 9.8125 72.90625 
L 51.703125 72.90625 
L 51.703125 64.59375 
L 19.671875 64.59375 
L 19.671875 43.109375 
L 48.578125 43.109375 
L 48.578125 34.8125 
L 19.671875 34.8125 
L 19.671875 0 
L 9.8125 0 
z
" id="DejaVuSans-46"/>
      <path d="M 9.421875 75.984375 
L 18.40625 75.984375 
L 18.40625 0 
L 9.421875 0 
z
" id="DejaVuSans-6c"/>
      <path d="M 8.5 21.578125 
L 8.5 54.6875 
L 17.484375 54.6875 
L 17.484375 21.921875 
Q 17.484375 14.15625 20.5 10.265625 
Q 23.53125 6.390625 29.59375 6.390625 
Q 36.859375 6.390625 41.078125 11.03125 
Q 45.3125 15.671875 45.3125 23.6875 
L 45.3125 54.6875 
L 54.296875 54.6875 
L 54.296875 0 
L 45.3125 0 
L 45.3125 8.40625 
Q 42.046875 3.421875 37.71875 1 
Q 33.40625 -1.421875 27.6875 -1.421875 
Q 18.265625 -1.421875 13.375 4.4375 
Q 8.5 10.296875 8.5 21.578125 
z
M 31.109375 56 
z
" id="DejaVuSans-75"/>
      <path d="M 54.890625 54.6875 
L 35.109375 28.078125 
L 55.90625 0 
L 45.3125 0 
L 29.390625 21.484375 
L 13.484375 0 
L 2.875 0 
L 24.125 28.609375 
L 4.6875 54.6875 
L 15.28125 54.6875 
L 29.78125 35.203125 
L 44.28125 54.6875 
z
" id="DejaVuSans-78"/>
     </defs>
     <g transform="translate(43.017187 228.552969)rotate(-90)scale(0.1 -0.1)">
      <use xlink:href="#DejaVuSans-46"/>
      <use x="57.519531" xlink:href="#DejaVuSans-6c"/>
      <use x="85.302734" xlink:href="#DejaVuSans-75"/>
      <use x="148.681641" xlink:href="#DejaVuSans-78"/>
     </g>
    </g>
   </g>
   <g id="patch_3">
    <path d="M 72 384.48 
L 72 51.84 
" style="fill:none;stroke:#000000;stroke-linecap:square;stroke-linejoin:miter;stroke-width:0.8;"/>
   </g>
   <g id="patch_4">
    <path d="M 518.4 384.48 
L 518.4 51.84 
" style="fill:none;stroke:#000000;stroke-linecap:square;stroke-linejoin:miter;stroke-width:0.8;"/>
   </g>
   <g id="patch_5">
    <path d="M 72 384.48 
L 518.4 384.48 
" style="fill:none;stroke:#000000;stroke-linecap:square;stroke-linejoin:miter;stroke-width:0.8;"/>
   </g>
   <g id="patch_6">
    <path d="M 72 51.84 
L 518.4 51.84 
" style="fill:none;stroke:#000000;stroke-linecap:square;stroke-linejoin:miter;stroke-width:0.8;"/>
   </g>
   <g id="legend_1">
    <g id="patch_7">
     <path d="M 235.630469 379.48 
L 354.769531 379.48 
Q 356.769531 379.48 356.769531 377.48 
L 356.769531 349.12375 
Q 356.769531 347.12375 354.769531 347.12375 
L 235.630469 347.12375 
Q 233.630469 347.12375 233.630469 349.12375 
L 233.630469 377.48 
Q 233.630469 379.48 235.630469 379.48 
z
" style="fill:#ffffff;opacity:0.8;stroke:#cccccc;stroke-linejoin:miter;"/>
    </g>
    <g id="PathCollection_3">
     <g>
      <use style="fill:#008000;stroke:#008000;" x="247.630469" xlink:href="#md67db67d82" y="356.097188"/>
     </g>
    </g>
    <g id="text_15">
     <!-- Generic.Bessell.V -->
     <defs>
      <path d="M 59.515625 10.40625 
L 59.515625 29.984375 
L 43.40625 29.984375 
L 43.40625 38.09375 
L 69.28125 38.09375 
L 69.28125 6.78125 
Q 63.578125 2.734375 56.6875 0.65625 
Q 49.8125 -1.421875 42 -1.421875 
Q 24.90625 -1.421875 15.25 8.5625 
Q 5.609375 18.5625 5.609375 36.375 
Q 5.609375 54.25 15.25 64.234375 
Q 24.90625 74.21875 42 74.21875 
Q 49.125 74.21875 55.546875 72.453125 
Q 61.96875 70.703125 67.390625 67.28125 
L 67.390625 56.78125 
Q 61.921875 61.421875 55.765625 63.765625 
Q 49.609375 66.109375 42.828125 66.109375 
Q 29.4375 66.109375 22.71875 58.640625 
Q 16.015625 51.171875 16.015625 36.375 
Q 16.015625 21.625 22.71875 14.15625 
Q 29.4375 6.6875 42.828125 6.6875 
Q 48.046875 6.6875 52.140625 7.59375 
Q 56.25 8.5 59.515625 10.40625 
z
" id="DejaVuSans-47"/>
      <path d="M 54.890625 33.015625 
L 54.890625 0 
L 45.90625 0 
L 45.90625 32.71875 
Q 45.90625 40.484375 42.875 44.328125 
Q 39.84375 48.1875 33.796875 48.1875 
Q 26.515625 48.1875 22.3125 43.546875 
Q 18.109375 38.921875 18.109375 30.90625 
L 18.109375 0 
L 9.078125 0 
L 9.078125 54.6875 
L 18.109375 54.6875 
L 18.109375 46.1875 
Q 21.34375 51.125 25.703125 53.5625 
Q 30.078125 56 35.796875 56 
Q 45.21875 56 50.046875 50.171875 
Q 54.890625 44.34375 54.890625 33.015625 
z
" id="DejaVuSans-6e"/>
      <path d="M 41.109375 46.296875 
Q 39.59375 47.171875 37.8125 47.578125 
Q 36.03125 48 33.890625 48 
Q 26.265625 48 22.1875 43.046875 
Q 18.109375 38.09375 18.109375 28.8125 
L 18.109375 0 
L 9.078125 0 
L 9.078125 54.6875 
L 18.109375 54.6875 
L 18.109375 46.1875 
Q 20.953125 51.171875 25.484375 53.578125 
Q 30.03125 56 36.53125 56 
Q 37.453125 56 38.578125 55.875 
Q 39.703125 55.765625 41.0625 55.515625 
z
" id="DejaVuSans-72"/>
      <path d="M 9.421875 54.6875 
L 18.40625 54.6875 
L 18.40625 0 
L 9.421875 0 
z
M 9.421875 75.984375 
L 18.40625 75.984375 
L 18.40625 64.59375 
L 9.421875 64.59375 
z
" id="DejaVuSans-69"/>
      <path d="M 48.78125 52.59375 
L 48.78125 44.1875 
Q 44.96875 46.296875 41.140625 47.34375 
Q 37.3125 48.390625 33.40625 48.390625 
Q 24.65625 48.390625 19.8125 42.84375 
Q 14.984375 37.3125 14.984375 27.296875 
Q 14.984375 17.28125 19.8125 11.734375 
Q 24.65625 6.203125 33.40625 6.203125 
Q 37.3125 6.203125 41.140625 7.25 
Q 44.96875 8.296875 48.78125 10.40625 
L 48.78125 2.09375 
Q 45.015625 0.34375 40.984375 -0.53125 
Q 36.96875 -1.421875 32.421875 -1.421875 
Q 20.0625 -1.421875 12.78125 6.34375 
Q 5.515625 14.109375 5.515625 27.296875 
Q 5.515625 40.671875 12.859375 48.328125 
Q 20.21875 56 33.015625 56 
Q 37.15625 56 41.109375 55.140625 
Q 45.0625 54.296875 48.78125 52.59375 
z
" id="DejaVuSans-63"/>
      <path d="M 19.671875 34.8125 
L 19.671875 8.109375 
L 35.5 8.109375 
Q 43.453125 8.109375 47.28125 11.40625 
Q 51.125 14.703125 51.125 21.484375 
Q 51.125 28.328125 47.28125 31.5625 
Q 43.453125 34.8125 35.5 34.8125 
z
M 19.671875 64.796875 
L 19.671875 42.828125 
L 34.28125 42.828125 
Q 41.5 42.828125 45.03125 45.53125 
Q 48.578125 48.25 48.578125 53.8125 
Q 48.578125 59.328125 45.03125 62.0625 
Q 41.5 64.796875 34.28125 64.796875 
z
M 9.8125 72.90625 
L 35.015625 72.90625 
Q 46.296875 72.90625 52.390625 68.21875 
Q 58.5 63.53125 58.5 54.890625 
Q 58.5 48.1875 55.375 44.234375 
Q 52.25 40.28125 46.1875 39.3125 
Q 53.46875 37.75 57.5 32.78125 
Q 61.53125 27.828125 61.53125 20.40625 
Q 61.53125 10.640625 54.890625 5.3125 
Q 48.25 0 35.984375 0 
L 9.8125 0 
z
" id="DejaVuSans-42"/>
      <path d="M 28.609375 0 
L 0.78125 72.90625 
L 11.078125 72.90625 
L 34.1875 11.53125 
L 57.328125 72.90625 
L 67.578125 72.90625 
L 39.796875 0 
z
" id="DejaVuSans-56"/>
     </defs>
     <g transform="translate(265.630469 358.722188)scale(0.1 -0.1)">
      <use xlink:href="#DejaVuSans-47"/>
      <use x="77.490234" xlink:href="#DejaVuSans-65"/>
      <use x="139.013672" xlink:href="#DejaVuSans-6e"/>
      <use x="202.392578" xlink:href="#DejaVuSans-65"/>
      <use x="263.916016" xlink:href="#DejaVuSans-72"/>
      <use x="305.029297" xlink:href="#DejaVuSans-69"/>
      <use x="332.8125" xlink:href="#DejaVuSans-63"/>
      <use x="387.792969" xlink:href="#DejaVuSans-2e"/>
      <use x="419.580078" xlink:href="#DejaVuSans-42"/>
      <use x="488.183594" xlink:href="#DejaVuSans-65"/>
      <use x="549.707031" xlink:href="#DejaVuSans-73"/>
      <use x="601.806641" xlink:href="#DejaVuSans-73"/>
      <use x="653.90625" xlink:href="#DejaVuSans-65"/>
      <use x="715.429688" xlink:href="#DejaVuSans-6c"/>
      <use x="743.212891" xlink:href="#DejaVuSans-6c"/>
      <use x="770.996094" xlink:href="#DejaVuSans-2e"/>
      <use x="802.783203" xlink:href="#DejaVuSans-56"/>
     </g>
    </g>
    <g id="PathCollection_4">
     <g>
      <use style="fill:#0000ff;stroke:#0000ff;" x="247.630469" xlink:href="#m4ed1017933" y="370.775312"/>
     </g>
    </g>
    <g id="text_16">
     <!-- Generic.Bessell.B -->
     <g transform="translate(265.630469 373.400312)scale(0.1 -0.1)">
      <use xlink:href="#DejaVuSans-47"/>
      <use x="77.490234" xlink:href="#DejaVuSans-65"/>
      <use x="139.013672" xlink:href="#DejaVuSans-6e"/>
      <use x="202.392578" xlink:href="#DejaVuSans-65"/>
      <use x="263.916016" xlink:href="#DejaVuSans-72"/>
      <use x="305.029297" xlink:href="#DejaVuSans-69"/>
      <use x="332.8125" xlink:href="#DejaVuSans-63"/>
      <use x="387.792969" xlink:href="#DejaVuSans-2e"/>
      <use x="419.580078" xlink:href="#DejaVuSans-42"/>
      <use x="488.183594" xlink:href="#DejaVuSans-65"/>
      <use x="549.707031" xlink:href="#DejaVuSans-73"/>
      <use x="601.806641" xlink:href="#DejaVuSans-73"/>
      <use x="653.90625" xlink:href="#DejaVuSans-65"/>
      <use x="715.429688" xlink:href="#DejaVuSans-6c"/>
      <use x="743.212891" xlink:href="#DejaVuSans-6c"/>
      <use x="770.996094" xlink:href="#DejaVuSans-2e"/>
      <use x="802.783203" xlink:href="#DejaVuSans-42"/>
     </g>
    </g>
   </g>
  </g>
 </g>
 <defs>
  <clipPath id="p73d8c1c840">
   <rect height="332.64" width="446.4" x="72" y="51.84"/>
  </clipPath>
 </defs>
</svg>
