<?xml version="1.0" encoding="utf-8" standalone="no"?>
<!DOCTYPE svg PUBLIC "-//W3C//DTD SVG 1.1//EN"
  "http://www.w3.org/Graphics/SVG/1.1/DTD/svg11.dtd">
<!-- Created with matplotlib (http://matplotlib.org/) -->
<svg height="432pt" version="1.1" viewBox="0 0 576 432" width="576pt" xmlns="http://www.w3.org/2000/svg" xmlns:xlink="http://www.w3.org/1999/xlink">
 <defs>
  <style type="text/css">
*{stroke-linecap:butt;stroke-linejoin:round;}
  </style>
 </defs>
 <g id="figure_1">
  <g id="patch_1">
   <path d="M 0 432 
L 576 432 
L 576 0 
L 0 0 
z
" style="fill:#ffffff;"/>
  </g>
  <g id="axes_1">
   <g id="patch_2">
    <path d="M 72 384.48 
L 518.4 384.48 
L 518.4 51.84 
L 72 51.84 
z
" style="fill:#ffffff;"/>
   </g>
   <g id="PathCollection_1">
    <defs>
     <path d="M 0 3 
C 0.795609 3 1.55874 2.683901 2.12132 2.12132 
C 2.683901 1.55874 3 0.795609 3 0 
C 3 -0.795609 2.683901 -1.55874 2.12132 -2.12132 
C 1.55874 -2.683901 0.795609 -3 0 -3 
C -0.795609 -3 -1.55874 -2.683901 -2.12132 -2.12132 
C -2.683901 -1.55874 -3 -0.795609 -3 0 
C -3 0.795609 -2.683901 1.55874 -2.12132 2.12132 
C -1.55874 2.683901 -0.795609 3 0 3 
z
" id="m2433ae3444" style="stroke:#008000;"/>
    </defs>
    <g clip-path="url(#pbab119c8f2)">
     <use style="fill:#008000;stroke:#008000;" x="94.450848" xlink:href="#m2433ae3444" y="74.829682"/>
     <use style="fill:#008000;stroke:#008000;" x="101.142487" xlink:href="#m2433ae3444" y="76.430956"/>
     <use style="fill:#008000;stroke:#008000;" x="107.834125" xlink:href="#m2433ae3444" y="72.850284"/>
     <use style="fill:#008000;stroke:#008000;" x="114.525764" xlink:href="#m2433ae3444" y="123.017081"/>
     <use style="fill:#008000;stroke:#008000;" x="121.217402" xlink:href="#m2433ae3444" y="259.380865"/>
     <use style="fill:#008000;stroke:#008000;" x="127.90904" xlink:href="#m2433ae3444" y="283.720502"/>
     <use style="fill:#008000;stroke:#008000;" x="134.600679" xlink:href="#m2433ae3444" y="260.770054"/>
     <use style="fill:#008000;stroke:#008000;" x="141.292317" xlink:href="#m2433ae3444" y="124.199728"/>
     <use style="fill:#008000;stroke:#008000;" x="147.983956" xlink:href="#m2433ae3444" y="75.224714"/>
     <use style="fill:#008000;stroke:#008000;" x="154.675594" xlink:href="#m2433ae3444" y="77.103109"/>
     <use style="fill:#008000;stroke:#008000;" x="161.367232" xlink:href="#m2433ae3444" y="74.995398"/>
     <use style="fill:#008000;stroke:#008000;" x="168.058871" xlink:href="#m2433ae3444" y="72.586924"/>
     <use style="fill:#008000;stroke:#008000;" x="174.750509" xlink:href="#m2433ae3444" y="72.781138"/>
     <use style="fill:#008000;stroke:#008000;" x="181.442147" xlink:href="#m2433ae3444" y="71.391288"/>
     <use style="fill:#008000;stroke:#008000;" x="188.133786" xlink:href="#m2433ae3444" y="74.701797"/>
     <use style="fill:#008000;stroke:#008000;" x="194.825424" xlink:href="#m2433ae3444" y="73.695716"/>
     <use style="fill:#008000;stroke:#008000;" x="201.517063" xlink:href="#m2433ae3444" y="69.781283"/>
     <use style="fill:#008000;stroke:#008000;" x="208.208701" xlink:href="#m2433ae3444" y="73.811498"/>
     <use style="fill:#008000;stroke:#008000;" x="214.900339" xlink:href="#m2433ae3444" y="72.060854"/>
     <use style="fill:#008000;stroke:#008000;" x="221.591978" xlink:href="#m2433ae3444" y="72.806141"/>
     <use style="fill:#008000;stroke:#008000;" x="228.283616" xlink:href="#m2433ae3444" y="73.644948"/>
     <use style="fill:#008000;stroke:#008000;" x="234.975255" xlink:href="#m2433ae3444" y="70.698639"/>
     <use style="fill:#008000;stroke:#008000;" x="241.666893" xlink:href="#m2433ae3444" y="69.777253"/>
     <use style="fill:#008000;stroke:#008000;" x="248.358531" xlink:href="#m2433ae3444" y="71.926427"/>
     <use style="fill:#008000;stroke:#008000;" x="255.05017" xlink:href="#m2433ae3444" y="69.835041"/>
     <use style="fill:#008000;stroke:#008000;" x="261.741808" xlink:href="#m2433ae3444" y="70.704705"/>
     <use style="fill:#008000;stroke:#008000;" x="268.433446" xlink:href="#m2433ae3444" y="71.545695"/>
     <use style="fill:#008000;stroke:#008000;" x="275.125085" xlink:href="#m2433ae3444" y="73.067436"/>
     <use style="fill:#008000;stroke:#008000;" x="281.816723" xlink:href="#m2433ae3444" y="77.598924"/>
     <use style="fill:#008000;stroke:#008000;" x="288.508362" xlink:href="#m2433ae3444" y="103.057353"/>
     <use style="fill:#008000;stroke:#008000;" x="295.2" xlink:href="#m2433ae3444" y="115.666912"/>
     <use style="fill:#008000;stroke:#008000;" x="301.891638" xlink:href="#m2433ae3444" y="102.715753"/>
     <use style="fill:#008000;stroke:#008000;" x="308.583277" xlink:href="#m2433ae3444" y="77.810039"/>
     <use style="fill:#008000;stroke:#008000;" x="315.274915" xlink:href="#m2433ae3444" y="70.636806"/>
     <use style="fill:#008000;stroke:#008000;" x="321.966554" xlink:href="#m2433ae3444" y="70.699761"/>
     <use style="fill:#008000;stroke:#008000;" x="328.658192" xlink:href="#m2433ae3444" y="74.244907"/>
     <use style="fill:#008000;stroke:#008000;" x="335.34983" xlink:href="#m2433ae3444" y="72.202426"/>
     <use style="fill:#008000;stroke:#008000;" x="342.041469" xlink:href="#m2433ae3444" y="71.936238"/>
     <use style="fill:#008000;stroke:#008000;" x="348.733107" xlink:href="#m2433ae3444" y="71.450288"/>
     <use style="fill:#008000;stroke:#008000;" x="355.424745" xlink:href="#m2433ae3444" y="72.992153"/>
     <use style="fill:#008000;stroke:#008000;" x="362.116384" xlink:href="#m2433ae3444" y="72.667259"/>
     <use style="fill:#008000;stroke:#008000;" x="368.808022" xlink:href="#m2433ae3444" y="72.491223"/>
     <use style="fill:#008000;stroke:#008000;" x="375.499661" xlink:href="#m2433ae3444" y="69.402996"/>
     <use style="fill:#008000;stroke:#008000;" x="382.191299" xlink:href="#m2433ae3444" y="73.024248"/>
     <use style="fill:#008000;stroke:#008000;" x="388.882937" xlink:href="#m2433ae3444" y="74.443672"/>
     <use style="fill:#008000;stroke:#008000;" x="395.574576" xlink:href="#m2433ae3444" y="74.730918"/>
     <use style="fill:#008000;stroke:#008000;" x="402.266214" xlink:href="#m2433ae3444" y="74.579953"/>
     <use style="fill:#008000;stroke:#008000;" x="408.957853" xlink:href="#m2433ae3444" y="75.955503"/>
     <use style="fill:#008000;stroke:#008000;" x="415.649491" xlink:href="#m2433ae3444" y="72.910041"/>
     <use style="fill:#008000;stroke:#008000;" x="422.341129" xlink:href="#m2433ae3444" y="73.431647"/>
     <use style="fill:#008000;stroke:#008000;" x="429.032768" xlink:href="#m2433ae3444" y="73.93326"/>
     <use style="fill:#008000;stroke:#008000;" x="435.724406" xlink:href="#m2433ae3444" y="74.900039"/>
     <use style="fill:#008000;stroke:#008000;" x="442.416044" xlink:href="#m2433ae3444" y="78.505727"/>
     <use style="fill:#008000;stroke:#008000;" x="449.107683" xlink:href="#m2433ae3444" y="124.632144"/>
     <use style="fill:#008000;stroke:#008000;" x="455.799321" xlink:href="#m2433ae3444" y="264.030596"/>
     <use style="fill:#008000;stroke:#008000;" x="462.49096" xlink:href="#m2433ae3444" y="284.187817"/>
     <use style="fill:#008000;stroke:#008000;" x="469.182598" xlink:href="#m2433ae3444" y="261.78543"/>
     <use style="fill:#008000;stroke:#008000;" x="475.874236" xlink:href="#m2433ae3444" y="119.904595"/>
     <use style="fill:#008000;stroke:#008000;" x="482.565875" xlink:href="#m2433ae3444" y="76.075575"/>
     <use style="fill:#008000;stroke:#008000;" x="489.257513" xlink:href="#m2433ae3444" y="74.475598"/>
     <use style="fill:#008000;stroke:#008000;" x="495.949152" xlink:href="#m2433ae3444" y="76.10848"/>
    </g>
   </g>
   <g id="PathCollection_2">
    <defs>
     <path d="M 0 3 
C 0.795609 3 1.55874 2.683901 2.12132 2.12132 
C 2.683901 1.55874 3 0.795609 3 0 
C 3 -0.795609 2.683901 -1.55874 2.12132 -2.12132 
C 1.55874 -2.683901 0.795609 -3 0 -3 
C -0.795609 -3 -1.55874 -2.683901 -2.12132 -2.12132 
C -2.683901 -1.55874 -3 -0.795609 -3 0 
C -3 0.795609 -2.683901 1.55874 -2.12132 2.12132 
C -1.55874 2.683901 -0.795609 3 0 3 
z
" id="me554a4d9e3" style="stroke:#0000ff;"/>
    </defs>
    <g clip-path="url(#pbab119c8f2)">
     <use style="fill:#0000ff;stroke:#0000ff;" x="94.450848" xlink:href="#me554a4d9e3" y="174.048761"/>
     <use style="fill:#0000ff;stroke:#0000ff;" x="101.142487" xlink:href="#me554a4d9e3" y="173.339407"/>
     <use style="fill:#0000ff;stroke:#0000ff;" x="107.834125" xlink:href="#me554a4d9e3" y="175.712284"/>
     <use style="fill:#0000ff;stroke:#0000ff;" x="114.525764" xlink:href="#me554a4d9e3" y="216.221144"/>
     <use style="fill:#0000ff;stroke:#0000ff;" x="121.217402" xlink:href="#me554a4d9e3" y="345.894184"/>
     <use style="fill:#0000ff;stroke:#0000ff;" x="127.90904" xlink:href="#me554a4d9e3" y="367.790923"/>
     <use style="fill:#0000ff;stroke:#0000ff;" x="134.600679" xlink:href="#me554a4d9e3" y="346.896486"/>
     <use style="fill:#0000ff;stroke:#0000ff;" x="141.292317" xlink:href="#me554a4d9e3" y="216.091037"/>
     <use style="fill:#0000ff;stroke:#0000ff;" x="147.983956" xlink:href="#me554a4d9e3" y="174.518449"/>
     <use style="fill:#0000ff;stroke:#0000ff;" x="154.675594" xlink:href="#me554a4d9e3" y="177.129134"/>
     <use style="fill:#0000ff;stroke:#0000ff;" x="161.367232" xlink:href="#me554a4d9e3" y="176.565581"/>
     <use style="fill:#0000ff;stroke:#0000ff;" x="168.058871" xlink:href="#me554a4d9e3" y="173.074159"/>
     <use style="fill:#0000ff;stroke:#0000ff;" x="174.750509" xlink:href="#me554a4d9e3" y="175.430928"/>
     <use style="fill:#0000ff;stroke:#0000ff;" x="181.442147" xlink:href="#me554a4d9e3" y="177.157973"/>
     <use style="fill:#0000ff;stroke:#0000ff;" x="188.133786" xlink:href="#me554a4d9e3" y="174.388984"/>
     <use style="fill:#0000ff;stroke:#0000ff;" x="194.825424" xlink:href="#me554a4d9e3" y="172.066471"/>
     <use style="fill:#0000ff;stroke:#0000ff;" x="201.517063" xlink:href="#me554a4d9e3" y="172.476865"/>
     <use style="fill:#0000ff;stroke:#0000ff;" x="208.208701" xlink:href="#me554a4d9e3" y="172.036284"/>
     <use style="fill:#0000ff;stroke:#0000ff;" x="214.900339" xlink:href="#me554a4d9e3" y="173.152669"/>
     <use style="fill:#0000ff;stroke:#0000ff;" x="221.591978" xlink:href="#me554a4d9e3" y="172.710468"/>
     <use style="fill:#0000ff;stroke:#0000ff;" x="228.283616" xlink:href="#me554a4d9e3" y="175.794008"/>
     <use style="fill:#0000ff;stroke:#0000ff;" x="234.975255" xlink:href="#me554a4d9e3" y="170.431706"/>
     <use style="fill:#0000ff;stroke:#0000ff;" x="241.666893" xlink:href="#me554a4d9e3" y="174.254757"/>
     <use style="fill:#0000ff;stroke:#0000ff;" x="248.358531" xlink:href="#me554a4d9e3" y="171.307787"/>
     <use style="fill:#0000ff;stroke:#0000ff;" x="255.05017" xlink:href="#me554a4d9e3" y="176.152989"/>
     <use style="fill:#0000ff;stroke:#0000ff;" x="261.741808" xlink:href="#me554a4d9e3" y="176.203253"/>
     <use style="fill:#0000ff;stroke:#0000ff;" x="268.433446" xlink:href="#me554a4d9e3" y="173.825823"/>
     <use style="fill:#0000ff;stroke:#0000ff;" x="275.125085" xlink:href="#me554a4d9e3" y="173.541659"/>
     <use style="fill:#0000ff;stroke:#0000ff;" x="281.816723" xlink:href="#me554a4d9e3" y="176.200459"/>
     <use style="fill:#0000ff;stroke:#0000ff;" x="288.508362" xlink:href="#me554a4d9e3" y="187.507659"/>
     <use style="fill:#0000ff;stroke:#0000ff;" x="295.2" xlink:href="#me554a4d9e3" y="197.298654"/>
     <use style="fill:#0000ff;stroke:#0000ff;" x="301.891638" xlink:href="#me554a4d9e3" y="188.883229"/>
     <use style="fill:#0000ff;stroke:#0000ff;" x="308.583277" xlink:href="#me554a4d9e3" y="179.594638"/>
     <use style="fill:#0000ff;stroke:#0000ff;" x="315.274915" xlink:href="#me554a4d9e3" y="175.26391"/>
     <use style="fill:#0000ff;stroke:#0000ff;" x="321.966554" xlink:href="#me554a4d9e3" y="175.652251"/>
     <use style="fill:#0000ff;stroke:#0000ff;" x="328.658192" xlink:href="#me554a4d9e3" y="174.460321"/>
     <use style="fill:#0000ff;stroke:#0000ff;" x="335.34983" xlink:href="#me554a4d9e3" y="171.449048"/>
     <use style="fill:#0000ff;stroke:#0000ff;" x="342.041469" xlink:href="#me554a4d9e3" y="175.903552"/>
     <use style="fill:#0000ff;stroke:#0000ff;" x="348.733107" xlink:href="#me554a4d9e3" y="173.256378"/>
     <use style="fill:#0000ff;stroke:#0000ff;" x="355.424745" xlink:href="#me554a4d9e3" y="175.603714"/>
     <use style="fill:#0000ff;stroke:#0000ff;" x="362.116384" xlink:href="#me554a4d9e3" y="170.407704"/>
     <use style="fill:#0000ff;stroke:#0000ff;" x="368.808022" xlink:href="#me554a4d9e3" y="171.0549"/>
     <use style="fill:#0000ff;stroke:#0000ff;" x="375.499661" xlink:href="#me554a4d9e3" y="172.73113"/>
     <use style="fill:#0000ff;stroke:#0000ff;" x="382.191299" xlink:href="#me554a4d9e3" y="176.093363"/>
     <use style="fill:#0000ff;stroke:#0000ff;" x="388.882937" xlink:href="#me554a4d9e3" y="174.043544"/>
     <use style="fill:#0000ff;stroke:#0000ff;" x="395.574576" xlink:href="#me554a4d9e3" y="175.432482"/>
     <use style="fill:#0000ff;stroke:#0000ff;" x="402.266214" xlink:href="#me554a4d9e3" y="177.041218"/>
     <use style="fill:#0000ff;stroke:#0000ff;" x="408.957853" xlink:href="#me554a4d9e3" y="175.398752"/>
     <use style="fill:#0000ff;stroke:#0000ff;" x="415.649491" xlink:href="#me554a4d9e3" y="175.681712"/>
     <use style="fill:#0000ff;stroke:#0000ff;" x="422.341129" xlink:href="#me554a4d9e3" y="174.745157"/>
     <use style="fill:#0000ff;stroke:#0000ff;" x="429.032768" xlink:href="#me554a4d9e3" y="175.362192"/>
     <use style="fill:#0000ff;stroke:#0000ff;" x="435.724406" xlink:href="#me554a4d9e3" y="177.550558"/>
     <use style="fill:#0000ff;stroke:#0000ff;" x="442.416044" xlink:href="#me554a4d9e3" y="175.075676"/>
     <use style="fill:#0000ff;stroke:#0000ff;" x="449.107683" xlink:href="#me554a4d9e3" y="217.93033"/>
     <use style="fill:#0000ff;stroke:#0000ff;" x="455.799321" xlink:href="#me554a4d9e3" y="347.815408"/>
     <use style="fill:#0000ff;stroke:#0000ff;" x="462.49096" xlink:href="#me554a4d9e3" y="367.352396"/>
     <use style="fill:#0000ff;stroke:#0000ff;" x="469.182598" xlink:href="#me554a4d9e3" y="344.607923"/>
     <use style="fill:#0000ff;stroke:#0000ff;" x="475.874236" xlink:href="#me554a4d9e3" y="217.572715"/>
     <use style="fill:#0000ff;stroke:#0000ff;" x="482.565875" xlink:href="#me554a4d9e3" y="177.486303"/>
     <use style="fill:#0000ff;stroke:#0000ff;" x="489.257513" xlink:href="#me554a4d9e3" y="177.613531"/>
     <use style="fill:#0000ff;stroke:#0000ff;" x="495.949152" xlink:href="#me554a4d9e3" y="174.995898"/>
    </g>
   </g>
   <g id="PathCollection_3">
    <defs>
     <path d="M 0 3 
C 0.795609 3 1.55874 2.683901 2.12132 2.12132 
C 2.683901 1.55874 3 0.795609 3 0 
C 3 -0.795609 2.683901 -1.55874 2.12132 -2.12132 
C 1.55874 -2.683901 0.795609 -3 0 -3 
C -0.795609 -3 -1.55874 -2.683901 -2.12132 -2.12132 
C -2.683901 -1.55874 -3 -0.795609 -3 0 
C -3 0.795609 -2.683901 1.55874 -2.12132 2.12132 
C -1.55874 2.683901 -0.795609 3 0 3 
z
" id="m763d9a16e3" style="stroke:#ff0000;"/>
    </defs>
    <g clip-path="url(#pbab119c8f2)">
     <use style="fill:#ff0000;stroke:#ff0000;" x="94.450848" xlink:href="#m763d9a16e3" y="81.032426"/>
     <use style="fill:#ff0000;stroke:#ff0000;" x="101.142487" xlink:href="#m763d9a16e3" y="81.959209"/>
     <use style="fill:#ff0000;stroke:#ff0000;" x="107.834125" xlink:href="#m763d9a16e3" y="83.919769"/>
     <use style="fill:#ff0000;stroke:#ff0000;" x="114.525764" xlink:href="#m763d9a16e3" y="122.58829"/>
     <use style="fill:#ff0000;stroke:#ff0000;" x="121.217402" xlink:href="#m763d9a16e3" y="240.442675"/>
     <use style="fill:#ff0000;stroke:#ff0000;" x="127.90904" xlink:href="#m763d9a16e3" y="262.556154"/>
     <use style="fill:#ff0000;stroke:#ff0000;" x="134.600679" xlink:href="#m763d9a16e3" y="245.150766"/>
     <use style="fill:#ff0000;stroke:#ff0000;" x="141.292317" xlink:href="#m763d9a16e3" y="122.79856"/>
     <use style="fill:#ff0000;stroke:#ff0000;" x="147.983956" xlink:href="#m763d9a16e3" y="81.696169"/>
     <use style="fill:#ff0000;stroke:#ff0000;" x="154.675594" xlink:href="#m763d9a16e3" y="83.388101"/>
     <use style="fill:#ff0000;stroke:#ff0000;" x="161.367232" xlink:href="#m763d9a16e3" y="78.508087"/>
     <use style="fill:#ff0000;stroke:#ff0000;" x="168.058871" xlink:href="#m763d9a16e3" y="83.255776"/>
     <use style="fill:#ff0000;stroke:#ff0000;" x="174.750509" xlink:href="#m763d9a16e3" y="82.803072"/>
     <use style="fill:#ff0000;stroke:#ff0000;" x="181.442147" xlink:href="#m763d9a16e3" y="79.448408"/>
     <use style="fill:#ff0000;stroke:#ff0000;" x="188.133786" xlink:href="#m763d9a16e3" y="78.374313"/>
     <use style="fill:#ff0000;stroke:#ff0000;" x="194.825424" xlink:href="#m763d9a16e3" y="76.813532"/>
     <use style="fill:#ff0000;stroke:#ff0000;" x="201.517063" xlink:href="#m763d9a16e3" y="75.209006"/>
     <use style="fill:#ff0000;stroke:#ff0000;" x="208.208701" xlink:href="#m763d9a16e3" y="80.786387"/>
     <use style="fill:#ff0000;stroke:#ff0000;" x="214.900339" xlink:href="#m763d9a16e3" y="75.952309"/>
     <use style="fill:#ff0000;stroke:#ff0000;" x="221.591978" xlink:href="#m763d9a16e3" y="74.419837"/>
     <use style="fill:#ff0000;stroke:#ff0000;" x="228.283616" xlink:href="#m763d9a16e3" y="79.142894"/>
     <use style="fill:#ff0000;stroke:#ff0000;" x="234.975255" xlink:href="#m763d9a16e3" y="75.91523"/>
     <use style="fill:#ff0000;stroke:#ff0000;" x="241.666893" xlink:href="#m763d9a16e3" y="78.474422"/>
     <use style="fill:#ff0000;stroke:#ff0000;" x="248.358531" xlink:href="#m763d9a16e3" y="78.903777"/>
     <use style="fill:#ff0000;stroke:#ff0000;" x="255.05017" xlink:href="#m763d9a16e3" y="75.578395"/>
     <use style="fill:#ff0000;stroke:#ff0000;" x="261.741808" xlink:href="#m763d9a16e3" y="80.009348"/>
     <use style="fill:#ff0000;stroke:#ff0000;" x="268.433446" xlink:href="#m763d9a16e3" y="80.070482"/>
     <use style="fill:#ff0000;stroke:#ff0000;" x="275.125085" xlink:href="#m763d9a16e3" y="78.613741"/>
     <use style="fill:#ff0000;stroke:#ff0000;" x="281.816723" xlink:href="#m763d9a16e3" y="82.388658"/>
     <use style="fill:#ff0000;stroke:#ff0000;" x="288.508362" xlink:href="#m763d9a16e3" y="113.751124"/>
     <use style="fill:#ff0000;stroke:#ff0000;" x="295.2" xlink:href="#m763d9a16e3" y="125.783546"/>
     <use style="fill:#ff0000;stroke:#ff0000;" x="301.891638" xlink:href="#m763d9a16e3" y="113.868133"/>
     <use style="fill:#ff0000;stroke:#ff0000;" x="308.583277" xlink:href="#m763d9a16e3" y="86.809785"/>
     <use style="fill:#ff0000;stroke:#ff0000;" x="315.274915" xlink:href="#m763d9a16e3" y="77.49004"/>
     <use style="fill:#ff0000;stroke:#ff0000;" x="321.966554" xlink:href="#m763d9a16e3" y="80.158478"/>
     <use style="fill:#ff0000;stroke:#ff0000;" x="328.658192" xlink:href="#m763d9a16e3" y="79.711182"/>
     <use style="fill:#ff0000;stroke:#ff0000;" x="335.34983" xlink:href="#m763d9a16e3" y="77.187204"/>
     <use style="fill:#ff0000;stroke:#ff0000;" x="342.041469" xlink:href="#m763d9a16e3" y="77.615251"/>
     <use style="fill:#ff0000;stroke:#ff0000;" x="348.733107" xlink:href="#m763d9a16e3" y="76.012266"/>
     <use style="fill:#ff0000;stroke:#ff0000;" x="355.424745" xlink:href="#m763d9a16e3" y="76.694794"/>
     <use style="fill:#ff0000;stroke:#ff0000;" x="362.116384" xlink:href="#m763d9a16e3" y="79.648309"/>
     <use style="fill:#ff0000;stroke:#ff0000;" x="368.808022" xlink:href="#m763d9a16e3" y="78.213181"/>
     <use style="fill:#ff0000;stroke:#ff0000;" x="375.499661" xlink:href="#m763d9a16e3" y="74.798199"/>
     <use style="fill:#ff0000;stroke:#ff0000;" x="382.191299" xlink:href="#m763d9a16e3" y="76.174845"/>
     <use style="fill:#ff0000;stroke:#ff0000;" x="388.882937" xlink:href="#m763d9a16e3" y="80.710412"/>
     <use style="fill:#ff0000;stroke:#ff0000;" x="395.574576" xlink:href="#m763d9a16e3" y="76.127436"/>
     <use style="fill:#ff0000;stroke:#ff0000;" x="402.266214" xlink:href="#m763d9a16e3" y="76.354665"/>
     <use style="fill:#ff0000;stroke:#ff0000;" x="408.957853" xlink:href="#m763d9a16e3" y="80.874533"/>
     <use style="fill:#ff0000;stroke:#ff0000;" x="415.649491" xlink:href="#m763d9a16e3" y="81.642428"/>
     <use style="fill:#ff0000;stroke:#ff0000;" x="422.341129" xlink:href="#m763d9a16e3" y="82.927072"/>
     <use style="fill:#ff0000;stroke:#ff0000;" x="429.032768" xlink:href="#m763d9a16e3" y="81.692114"/>
     <use style="fill:#ff0000;stroke:#ff0000;" x="435.724406" xlink:href="#m763d9a16e3" y="79.700169"/>
     <use style="fill:#ff0000;stroke:#ff0000;" x="442.416044" xlink:href="#m763d9a16e3" y="83.300827"/>
     <use style="fill:#ff0000;stroke:#ff0000;" x="449.107683" xlink:href="#m763d9a16e3" y="122.052848"/>
     <use style="fill:#ff0000;stroke:#ff0000;" x="455.799321" xlink:href="#m763d9a16e3" y="244.153549"/>
     <use style="fill:#ff0000;stroke:#ff0000;" x="462.49096" xlink:href="#m763d9a16e3" y="265.440559"/>
     <use style="fill:#ff0000;stroke:#ff0000;" x="469.182598" xlink:href="#m763d9a16e3" y="239.937335"/>
     <use style="fill:#ff0000;stroke:#ff0000;" x="475.874236" xlink:href="#m763d9a16e3" y="122.954912"/>
     <use style="fill:#ff0000;stroke:#ff0000;" x="482.565875" xlink:href="#m763d9a16e3" y="78.810251"/>
     <use style="fill:#ff0000;stroke:#ff0000;" x="489.257513" xlink:href="#m763d9a16e3" y="82.914938"/>
     <use style="fill:#ff0000;stroke:#ff0000;" x="495.949152" xlink:href="#m763d9a16e3" y="81.385995"/>
    </g>
   </g>
   <g id="matplotlib.axis_1">
    <g id="xtick_1">
     <g id="line2d_1">
      <defs>
       <path d="M 0 0 
L 0 3.5 
" id="mcea620559c" style="stroke:#000000;stroke-width:0.8;"/>
      </defs>
      <g>
       <use style="stroke:#000000;stroke-width:0.8;" x="94.450848" xlink:href="#mcea620559c" y="384.48"/>
      </g>
     </g>
     <g id="text_1">
      <!-- −0.6 -->
      <defs>
       <path d="M 10.59375 35.5 
L 73.1875 35.5 
L 73.1875 27.203125 
L 10.59375 27.203125 
z
" id="DejaVuSans-2212"/>
       <path d="M 31.78125 66.40625 
Q 24.171875 66.40625 20.328125 58.90625 
Q 16.5 51.421875 16.5 36.375 
Q 16.5 21.390625 20.328125 13.890625 
Q 24.171875 6.390625 31.78125 6.390625 
Q 39.453125 6.390625 43.28125 13.890625 
Q 47.125 21.390625 47.125 36.375 
Q 47.125 51.421875 43.28125 58.90625 
Q 39.453125 66.40625 31.78125 66.40625 
z
M 31.78125 74.21875 
Q 44.046875 74.21875 50.515625 64.515625 
Q 56.984375 54.828125 56.984375 36.375 
Q 56.984375 17.96875 50.515625 8.265625 
Q 44.046875 -1.421875 31.78125 -1.421875 
Q 19.53125 -1.421875 13.0625 8.265625 
Q 6.59375 17.96875 6.59375 36.375 
Q 6.59375 54.828125 13.0625 64.515625 
Q 19.53125 74.21875 31.78125 74.21875 
z
" id="DejaVuSans-30"/>
       <path d="M 10.6875 12.40625 
L 21 12.40625 
L 21 0 
L 10.6875 0 
z
" id="DejaVuSans-2e"/>
       <path d="M 33.015625 40.375 
Q 26.375 40.375 22.484375 35.828125 
Q 18.609375 31.296875 18.609375 23.390625 
Q 18.609375 15.53125 22.484375 10.953125 
Q 26.375 6.390625 33.015625 6.390625 
Q 39.65625 6.390625 43.53125 10.953125 
Q 47.40625 15.53125 47.40625 23.390625 
Q 47.40625 31.296875 43.53125 35.828125 
Q 39.65625 40.375 33.015625 40.375 
z
M 52.59375 71.296875 
L 52.59375 62.3125 
Q 48.875 64.0625 45.09375 64.984375 
Q 41.3125 65.921875 37.59375 65.921875 
Q 27.828125 65.921875 22.671875 59.328125 
Q 17.53125 52.734375 16.796875 39.40625 
Q 19.671875 43.65625 24.015625 45.921875 
Q 28.375 48.1875 33.59375 48.1875 
Q 44.578125 48.1875 50.953125 41.515625 
Q 57.328125 34.859375 57.328125 23.390625 
Q 57.328125 12.15625 50.6875 5.359375 
Q 44.046875 -1.421875 33.015625 -1.421875 
Q 20.359375 -1.421875 13.671875 8.265625 
Q 6.984375 17.96875 6.984375 36.375 
Q 6.984375 53.65625 15.1875 63.9375 
Q 23.390625 74.21875 37.203125 74.21875 
Q 40.921875 74.21875 44.703125 73.484375 
Q 48.484375 72.75 52.59375 71.296875 
z
" id="DejaVuSans-36"/>
      </defs>
      <g transform="translate(82.309442 399.078438)scale(0.1 -0.1)">
       <use xlink:href="#DejaVuSans-2212"/>
       <use x="83.789062" xlink:href="#DejaVuSans-30"/>
       <use x="147.412109" xlink:href="#DejaVuSans-2e"/>
       <use x="179.199219" xlink:href="#DejaVuSans-36"/>
      </g>
     </g>
    </g>
    <g id="xtick_2">
     <g id="line2d_2">
      <g>
       <use style="stroke:#000000;stroke-width:0.8;" x="161.367232" xlink:href="#mcea620559c" y="384.48"/>
      </g>
     </g>
     <g id="text_2">
      <!-- −0.4 -->
      <defs>
       <path d="M 37.796875 64.3125 
L 12.890625 25.390625 
L 37.796875 25.390625 
z
M 35.203125 72.90625 
L 47.609375 72.90625 
L 47.609375 25.390625 
L 58.015625 25.390625 
L 58.015625 17.1875 
L 47.609375 17.1875 
L 47.609375 0 
L 37.796875 0 
L 37.796875 17.1875 
L 4.890625 17.1875 
L 4.890625 26.703125 
z
" id="DejaVuSans-34"/>
      </defs>
      <g transform="translate(149.225826 399.078438)scale(0.1 -0.1)">
       <use xlink:href="#DejaVuSans-2212"/>
       <use x="83.789062" xlink:href="#DejaVuSans-30"/>
       <use x="147.412109" xlink:href="#DejaVuSans-2e"/>
       <use x="179.199219" xlink:href="#DejaVuSans-34"/>
      </g>
     </g>
    </g>
    <g id="xtick_3">
     <g id="line2d_3">
      <g>
       <use style="stroke:#000000;stroke-width:0.8;" x="228.283616" xlink:href="#mcea620559c" y="384.48"/>
      </g>
     </g>
     <g id="text_3">
      <!-- −0.2 -->
      <defs>
       <path d="M 19.1875 8.296875 
L 53.609375 8.296875 
L 53.609375 0 
L 7.328125 0 
L 7.328125 8.296875 
Q 12.9375 14.109375 22.625 23.890625 
Q 32.328125 33.6875 34.8125 36.53125 
Q 39.546875 41.84375 41.421875 45.53125 
Q 43.3125 49.21875 43.3125 52.78125 
Q 43.3125 58.59375 39.234375 62.25 
Q 35.15625 65.921875 28.609375 65.921875 
Q 23.96875 65.921875 18.8125 64.3125 
Q 13.671875 62.703125 7.8125 59.421875 
L 7.8125 69.390625 
Q 13.765625 71.78125 18.9375 73 
Q 24.125 74.21875 28.421875 74.21875 
Q 39.75 74.21875 46.484375 68.546875 
Q 53.21875 62.890625 53.21875 53.421875 
Q 53.21875 48.921875 51.53125 44.890625 
Q 49.859375 40.875 45.40625 35.40625 
Q 44.1875 33.984375 37.640625 27.21875 
Q 31.109375 20.453125 19.1875 8.296875 
z
" id="DejaVuSans-32"/>
      </defs>
      <g transform="translate(216.14221 399.078438)scale(0.1 -0.1)">
       <use xlink:href="#DejaVuSans-2212"/>
       <use x="83.789062" xlink:href="#DejaVuSans-30"/>
       <use x="147.412109" xlink:href="#DejaVuSans-2e"/>
       <use x="179.199219" xlink:href="#DejaVuSans-32"/>
      </g>
     </g>
    </g>
    <g id="xtick_4">
     <g id="line2d_4">
      <g>
       <use style="stroke:#000000;stroke-width:0.8;" x="295.2" xlink:href="#mcea620559c" y="384.48"/>
      </g>
     </g>
     <g id="text_4">
      <!-- 0.0 -->
      <g transform="translate(287.248437 399.078438)scale(0.1 -0.1)">
       <use xlink:href="#DejaVuSans-30"/>
       <use x="63.623047" xlink:href="#DejaVuSans-2e"/>
       <use x="95.410156" xlink:href="#DejaVuSans-30"/>
      </g>
     </g>
    </g>
    <g id="xtick_5">
     <g id="line2d_5">
      <g>
       <use style="stroke:#000000;stroke-width:0.8;" x="362.116384" xlink:href="#mcea620559c" y="384.48"/>
      </g>
     </g>
     <g id="text_5">
      <!-- 0.2 -->
      <g transform="translate(354.164821 399.078438)scale(0.1 -0.1)">
       <use xlink:href="#DejaVuSans-30"/>
       <use x="63.623047" xlink:href="#DejaVuSans-2e"/>
       <use x="95.410156" xlink:href="#DejaVuSans-32"/>
      </g>
     </g>
    </g>
    <g id="xtick_6">
     <g id="line2d_6">
      <g>
       <use style="stroke:#000000;stroke-width:0.8;" x="429.032768" xlink:href="#mcea620559c" y="384.48"/>
      </g>
     </g>
     <g id="text_6">
      <!-- 0.4 -->
      <g transform="translate(421.081205 399.078438)scale(0.1 -0.1)">
       <use xlink:href="#DejaVuSans-30"/>
       <use x="63.623047" xlink:href="#DejaVuSans-2e"/>
       <use x="95.410156" xlink:href="#DejaVuSans-34"/>
      </g>
     </g>
    </g>
    <g id="xtick_7">
     <g id="line2d_7">
      <g>
       <use style="stroke:#000000;stroke-width:0.8;" x="495.949152" xlink:href="#mcea620559c" y="384.48"/>
      </g>
     </g>
     <g id="text_7">
      <!-- 0.6 -->
      <g transform="translate(487.997589 399.078438)scale(0.1 -0.1)">
       <use xlink:href="#DejaVuSans-30"/>
       <use x="63.623047" xlink:href="#DejaVuSans-2e"/>
       <use x="95.410156" xlink:href="#DejaVuSans-36"/>
      </g>
     </g>
    </g>
    <g id="text_8">
     <!-- Phase -->
     <defs>
      <path d="M 19.671875 64.796875 
L 19.671875 37.40625 
L 32.078125 37.40625 
Q 38.96875 37.40625 42.71875 40.96875 
Q 46.484375 44.53125 46.484375 51.125 
Q 46.484375 57.671875 42.71875 61.234375 
Q 38.96875 64.796875 32.078125 64.796875 
z
M 9.8125 72.90625 
L 32.078125 72.90625 
Q 44.34375 72.90625 50.609375 67.359375 
Q 56.890625 61.8125 56.890625 51.125 
Q 56.890625 40.328125 50.609375 34.8125 
Q 44.34375 29.296875 32.078125 29.296875 
L 19.671875 29.296875 
L 19.671875 0 
L 9.8125 0 
z
" id="DejaVuSans-50"/>
      <path d="M 54.890625 33.015625 
L 54.890625 0 
L 45.90625 0 
L 45.90625 32.71875 
Q 45.90625 40.484375 42.875 44.328125 
Q 39.84375 48.1875 33.796875 48.1875 
Q 26.515625 48.1875 22.3125 43.546875 
Q 18.109375 38.921875 18.109375 30.90625 
L 18.109375 0 
L 9.078125 0 
L 9.078125 75.984375 
L 18.109375 75.984375 
L 18.109375 46.1875 
Q 21.34375 51.125 25.703125 53.5625 
Q 30.078125 56 35.796875 56 
Q 45.21875 56 50.046875 50.171875 
Q 54.890625 44.34375 54.890625 33.015625 
z
" id="DejaVuSans-68"/>
      <path d="M 34.28125 27.484375 
Q 23.390625 27.484375 19.1875 25 
Q 14.984375 22.515625 14.984375 16.5 
Q 14.984375 11.71875 18.140625 8.90625 
Q 21.296875 6.109375 26.703125 6.109375 
Q 34.1875 6.109375 38.703125 11.40625 
Q 43.21875 16.703125 43.21875 25.484375 
L 43.21875 27.484375 
z
M 52.203125 31.203125 
L 52.203125 0 
L 43.21875 0 
L 43.21875 8.296875 
Q 40.140625 3.328125 35.546875 0.953125 
Q 30.953125 -1.421875 24.3125 -1.421875 
Q 15.921875 -1.421875 10.953125 3.296875 
Q 6 8.015625 6 15.921875 
Q 6 25.140625 12.171875 29.828125 
Q 18.359375 34.515625 30.609375 34.515625 
L 43.21875 34.515625 
L 43.21875 35.40625 
Q 43.21875 41.609375 39.140625 45 
Q 35.0625 48.390625 27.6875 48.390625 
Q 23 48.390625 18.546875 47.265625 
Q 14.109375 46.140625 10.015625 43.890625 
L 10.015625 52.203125 
Q 14.9375 54.109375 19.578125 55.046875 
Q 24.21875 56 28.609375 56 
Q 40.484375 56 46.34375 49.84375 
Q 52.203125 43.703125 52.203125 31.203125 
z
" id="DejaVuSans-61"/>
      <path d="M 44.28125 53.078125 
L 44.28125 44.578125 
Q 40.484375 46.53125 36.375 47.5 
Q 32.28125 48.484375 27.875 48.484375 
Q 21.1875 48.484375 17.84375 46.4375 
Q 14.5 44.390625 14.5 40.28125 
Q 14.5 37.15625 16.890625 35.375 
Q 19.28125 33.59375 26.515625 31.984375 
L 29.59375 31.296875 
Q 39.15625 29.25 43.1875 25.515625 
Q 47.21875 21.78125 47.21875 15.09375 
Q 47.21875 7.46875 41.1875 3.015625 
Q 35.15625 -1.421875 24.609375 -1.421875 
Q 20.21875 -1.421875 15.453125 -0.5625 
Q 10.6875 0.296875 5.421875 2 
L 5.421875 11.28125 
Q 10.40625 8.6875 15.234375 7.390625 
Q 20.0625 6.109375 24.8125 6.109375 
Q 31.15625 6.109375 34.5625 8.28125 
Q 37.984375 10.453125 37.984375 14.40625 
Q 37.984375 18.0625 35.515625 20.015625 
Q 33.0625 21.96875 24.703125 23.78125 
L 21.578125 24.515625 
Q 13.234375 26.265625 9.515625 29.90625 
Q 5.8125 33.546875 5.8125 39.890625 
Q 5.8125 47.609375 11.28125 51.796875 
Q 16.75 56 26.8125 56 
Q 31.78125 56 36.171875 55.265625 
Q 40.578125 54.546875 44.28125 53.078125 
z
" id="DejaVuSans-73"/>
      <path d="M 56.203125 29.59375 
L 56.203125 25.203125 
L 14.890625 25.203125 
Q 15.484375 15.921875 20.484375 11.0625 
Q 25.484375 6.203125 34.421875 6.203125 
Q 39.59375 6.203125 44.453125 7.46875 
Q 49.3125 8.734375 54.109375 11.28125 
L 54.109375 2.78125 
Q 49.265625 0.734375 44.1875 -0.34375 
Q 39.109375 -1.421875 33.890625 -1.421875 
Q 20.796875 -1.421875 13.15625 6.1875 
Q 5.515625 13.8125 5.515625 26.8125 
Q 5.515625 40.234375 12.765625 48.109375 
Q 20.015625 56 32.328125 56 
Q 43.359375 56 49.78125 48.890625 
Q 56.203125 41.796875 56.203125 29.59375 
z
M 47.21875 32.234375 
Q 47.125 39.59375 43.09375 43.984375 
Q 39.0625 48.390625 32.421875 48.390625 
Q 24.90625 48.390625 20.390625 44.140625 
Q 15.875 39.890625 15.1875 32.171875 
z
" id="DejaVuSans-65"/>
     </defs>
     <g transform="translate(280.271094 412.756563)scale(0.1 -0.1)">
      <use xlink:href="#DejaVuSans-50"/>
      <use x="60.302734" xlink:href="#DejaVuSans-68"/>
      <use x="123.681641" xlink:href="#DejaVuSans-61"/>
      <use x="184.960938" xlink:href="#DejaVuSans-73"/>
      <use x="237.060547" xlink:href="#DejaVuSans-65"/>
     </g>
    </g>
   </g>
   <g id="matplotlib.axis_2">
    <g id="ytick_1">
     <g id="line2d_8">
      <defs>
       <path d="M 0 0 
L -3.5 0 
" id="mbccff8a03a" style="stroke:#000000;stroke-width:0.8;"/>
      </defs>
      <g>
       <use style="stroke:#000000;stroke-width:0.8;" x="72" xlink:href="#mbccff8a03a" y="372.151852"/>
      </g>
     </g>
     <g id="text_9">
      <!-- 0.2 -->
      <g transform="translate(49.096875 375.951071)scale(0.1 -0.1)">
       <use xlink:href="#DejaVuSans-30"/>
       <use x="63.623047" xlink:href="#DejaVuSans-2e"/>
       <use x="95.410156" xlink:href="#DejaVuSans-32"/>
      </g>
     </g>
    </g>
    <g id="ytick_2">
     <g id="line2d_9">
      <g>
       <use style="stroke:#000000;stroke-width:0.8;" x="72" xlink:href="#mbccff8a03a" y="334.529711"/>
      </g>
     </g>
     <g id="text_10">
      <!-- 0.3 -->
      <defs>
       <path d="M 40.578125 39.3125 
Q 47.65625 37.796875 51.625 33 
Q 55.609375 28.21875 55.609375 21.1875 
Q 55.609375 10.40625 48.1875 4.484375 
Q 40.765625 -1.421875 27.09375 -1.421875 
Q 22.515625 -1.421875 17.65625 -0.515625 
Q 12.796875 0.390625 7.625 2.203125 
L 7.625 11.71875 
Q 11.71875 9.328125 16.59375 8.109375 
Q 21.484375 6.890625 26.8125 6.890625 
Q 36.078125 6.890625 40.9375 10.546875 
Q 45.796875 14.203125 45.796875 21.1875 
Q 45.796875 27.640625 41.28125 31.265625 
Q 36.765625 34.90625 28.71875 34.90625 
L 20.21875 34.90625 
L 20.21875 43.015625 
L 29.109375 43.015625 
Q 36.375 43.015625 40.234375 45.921875 
Q 44.09375 48.828125 44.09375 54.296875 
Q 44.09375 59.90625 40.109375 62.90625 
Q 36.140625 65.921875 28.71875 65.921875 
Q 24.65625 65.921875 20.015625 65.03125 
Q 15.375 64.15625 9.8125 62.3125 
L 9.8125 71.09375 
Q 15.4375 72.65625 20.34375 73.4375 
Q 25.25 74.21875 29.59375 74.21875 
Q 40.828125 74.21875 47.359375 69.109375 
Q 53.90625 64.015625 53.90625 55.328125 
Q 53.90625 49.265625 50.4375 45.09375 
Q 46.96875 40.921875 40.578125 39.3125 
z
" id="DejaVuSans-33"/>
      </defs>
      <g transform="translate(49.096875 338.32893)scale(0.1 -0.1)">
       <use xlink:href="#DejaVuSans-30"/>
       <use x="63.623047" xlink:href="#DejaVuSans-2e"/>
       <use x="95.410156" xlink:href="#DejaVuSans-33"/>
      </g>
     </g>
    </g>
    <g id="ytick_3">
     <g id="line2d_10">
      <g>
       <use style="stroke:#000000;stroke-width:0.8;" x="72" xlink:href="#mbccff8a03a" y="296.90757"/>
      </g>
     </g>
     <g id="text_11">
      <!-- 0.4 -->
      <g transform="translate(49.096875 300.706789)scale(0.1 -0.1)">
       <use xlink:href="#DejaVuSans-30"/>
       <use x="63.623047" xlink:href="#DejaVuSans-2e"/>
       <use x="95.410156" xlink:href="#DejaVuSans-34"/>
      </g>
     </g>
    </g>
    <g id="ytick_4">
     <g id="line2d_11">
      <g>
       <use style="stroke:#000000;stroke-width:0.8;" x="72" xlink:href="#mbccff8a03a" y="259.285429"/>
      </g>
     </g>
     <g id="text_12">
      <!-- 0.5 -->
      <defs>
       <path d="M 10.796875 72.90625 
L 49.515625 72.90625 
L 49.515625 64.59375 
L 19.828125 64.59375 
L 19.828125 46.734375 
Q 21.96875 47.46875 24.109375 47.828125 
Q 26.265625 48.1875 28.421875 48.1875 
Q 40.625 48.1875 47.75 41.5 
Q 54.890625 34.8125 54.890625 23.390625 
Q 54.890625 11.625 47.5625 5.09375 
Q 40.234375 -1.421875 26.90625 -1.421875 
Q 22.3125 -1.421875 17.546875 -0.640625 
Q 12.796875 0.140625 7.71875 1.703125 
L 7.71875 11.625 
Q 12.109375 9.234375 16.796875 8.0625 
Q 21.484375 6.890625 26.703125 6.890625 
Q 35.15625 6.890625 40.078125 11.328125 
Q 45.015625 15.765625 45.015625 23.390625 
Q 45.015625 31 40.078125 35.4375 
Q 35.15625 39.890625 26.703125 39.890625 
Q 22.75 39.890625 18.8125 39.015625 
Q 14.890625 38.140625 10.796875 36.28125 
z
" id="DejaVuSans-35"/>
      </defs>
      <g transform="translate(49.096875 263.084648)scale(0.1 -0.1)">
       <use xlink:href="#DejaVuSans-30"/>
       <use x="63.623047" xlink:href="#DejaVuSans-2e"/>
       <use x="95.410156" xlink:href="#DejaVuSans-35"/>
      </g>
     </g>
    </g>
    <g id="ytick_5">
     <g id="line2d_12">
      <g>
       <use style="stroke:#000000;stroke-width:0.8;" x="72" xlink:href="#mbccff8a03a" y="221.663288"/>
      </g>
     </g>
     <g id="text_13">
      <!-- 0.6 -->
      <g transform="translate(49.096875 225.462507)scale(0.1 -0.1)">
       <use xlink:href="#DejaVuSans-30"/>
       <use x="63.623047" xlink:href="#DejaVuSans-2e"/>
       <use x="95.410156" xlink:href="#DejaVuSans-36"/>
      </g>
     </g>
    </g>
    <g id="ytick_6">
     <g id="line2d_13">
      <g>
       <use style="stroke:#000000;stroke-width:0.8;" x="72" xlink:href="#mbccff8a03a" y="184.041147"/>
      </g>
     </g>
     <g id="text_14">
      <!-- 0.7 -->
      <defs>
       <path d="M 8.203125 72.90625 
L 55.078125 72.90625 
L 55.078125 68.703125 
L 28.609375 0 
L 18.3125 0 
L 43.21875 64.59375 
L 8.203125 64.59375 
z
" id="DejaVuSans-37"/>
      </defs>
      <g transform="translate(49.096875 187.840366)scale(0.1 -0.1)">
       <use xlink:href="#DejaVuSans-30"/>
       <use x="63.623047" xlink:href="#DejaVuSans-2e"/>
       <use x="95.410156" xlink:href="#DejaVuSans-37"/>
      </g>
     </g>
    </g>
    <g id="ytick_7">
     <g id="line2d_14">
      <g>
       <use style="stroke:#000000;stroke-width:0.8;" x="72" xlink:href="#mbccff8a03a" y="146.419006"/>
      </g>
     </g>
     <g id="text_15">
      <!-- 0.8 -->
      <defs>
       <path d="M 31.78125 34.625 
Q 24.75 34.625 20.71875 30.859375 
Q 16.703125 27.09375 16.703125 20.515625 
Q 16.703125 13.921875 20.71875 10.15625 
Q 24.75 6.390625 31.78125 6.390625 
Q 38.8125 6.390625 42.859375 10.171875 
Q 46.921875 13.96875 46.921875 20.515625 
Q 46.921875 27.09375 42.890625 30.859375 
Q 38.875 34.625 31.78125 34.625 
z
M 21.921875 38.8125 
Q 15.578125 40.375 12.03125 44.71875 
Q 8.5 49.078125 8.5 55.328125 
Q 8.5 64.0625 14.71875 69.140625 
Q 20.953125 74.21875 31.78125 74.21875 
Q 42.671875 74.21875 48.875 69.140625 
Q 55.078125 64.0625 55.078125 55.328125 
Q 55.078125 49.078125 51.53125 44.71875 
Q 48 40.375 41.703125 38.8125 
Q 48.828125 37.15625 52.796875 32.3125 
Q 56.78125 27.484375 56.78125 20.515625 
Q 56.78125 9.90625 50.3125 4.234375 
Q 43.84375 -1.421875 31.78125 -1.421875 
Q 19.734375 -1.421875 13.25 4.234375 
Q 6.78125 9.90625 6.78125 20.515625 
Q 6.78125 27.484375 10.78125 32.3125 
Q 14.796875 37.15625 21.921875 38.8125 
z
M 18.3125 54.390625 
Q 18.3125 48.734375 21.84375 45.5625 
Q 25.390625 42.390625 31.78125 42.390625 
Q 38.140625 42.390625 41.71875 45.5625 
Q 45.3125 48.734375 45.3125 54.390625 
Q 45.3125 60.0625 41.71875 63.234375 
Q 38.140625 66.40625 31.78125 66.40625 
Q 25.390625 66.40625 21.84375 63.234375 
Q 18.3125 60.0625 18.3125 54.390625 
z
" id="DejaVuSans-38"/>
      </defs>
      <g transform="translate(49.096875 150.218225)scale(0.1 -0.1)">
       <use xlink:href="#DejaVuSans-30"/>
       <use x="63.623047" xlink:href="#DejaVuSans-2e"/>
       <use x="95.410156" xlink:href="#DejaVuSans-38"/>
      </g>
     </g>
    </g>
    <g id="ytick_8">
     <g id="line2d_15">
      <g>
       <use style="stroke:#000000;stroke-width:0.8;" x="72" xlink:href="#mbccff8a03a" y="108.796865"/>
      </g>
     </g>
     <g id="text_16">
      <!-- 0.9 -->
      <defs>
       <path d="M 10.984375 1.515625 
L 10.984375 10.5 
Q 14.703125 8.734375 18.5 7.8125 
Q 22.3125 6.890625 25.984375 6.890625 
Q 35.75 6.890625 40.890625 13.453125 
Q 46.046875 20.015625 46.78125 33.40625 
Q 43.953125 29.203125 39.59375 26.953125 
Q 35.25 24.703125 29.984375 24.703125 
Q 19.046875 24.703125 12.671875 31.3125 
Q 6.296875 37.9375 6.296875 49.421875 
Q 6.296875 60.640625 12.9375 67.421875 
Q 19.578125 74.21875 30.609375 74.21875 
Q 43.265625 74.21875 49.921875 64.515625 
Q 56.59375 54.828125 56.59375 36.375 
Q 56.59375 19.140625 48.40625 8.859375 
Q 40.234375 -1.421875 26.421875 -1.421875 
Q 22.703125 -1.421875 18.890625 -0.6875 
Q 15.09375 0.046875 10.984375 1.515625 
z
M 30.609375 32.421875 
Q 37.25 32.421875 41.125 36.953125 
Q 45.015625 41.5 45.015625 49.421875 
Q 45.015625 57.28125 41.125 61.84375 
Q 37.25 66.40625 30.609375 66.40625 
Q 23.96875 66.40625 20.09375 61.84375 
Q 16.21875 57.28125 16.21875 49.421875 
Q 16.21875 41.5 20.09375 36.953125 
Q 23.96875 32.421875 30.609375 32.421875 
z
" id="DejaVuSans-39"/>
      </defs>
      <g transform="translate(49.096875 112.596084)scale(0.1 -0.1)">
       <use xlink:href="#DejaVuSans-30"/>
       <use x="63.623047" xlink:href="#DejaVuSans-2e"/>
       <use x="95.410156" xlink:href="#DejaVuSans-39"/>
      </g>
     </g>
    </g>
    <g id="ytick_9">
     <g id="line2d_16">
      <g>
       <use style="stroke:#000000;stroke-width:0.8;" x="72" xlink:href="#mbccff8a03a" y="71.174724"/>
      </g>
     </g>
     <g id="text_17">
      <!-- 1.0 -->
      <defs>
       <path d="M 12.40625 8.296875 
L 28.515625 8.296875 
L 28.515625 63.921875 
L 10.984375 60.40625 
L 10.984375 69.390625 
L 28.421875 72.90625 
L 38.28125 72.90625 
L 38.28125 8.296875 
L 54.390625 8.296875 
L 54.390625 0 
L 12.40625 0 
z
" id="DejaVuSans-31"/>
      </defs>
      <g transform="translate(49.096875 74.973943)scale(0.1 -0.1)">
       <use xlink:href="#DejaVuSans-31"/>
       <use x="63.623047" xlink:href="#DejaVuSans-2e"/>
       <use x="95.410156" xlink:href="#DejaVuSans-30"/>
      </g>
     </g>
    </g>
    <g id="text_18">
     <!-- Flux -->
     <defs>
      <path d="M 9.8125 72.90625 
L 51.703125 72.90625 
L 51.703125 64.59375 
L 19.671875 64.59375 
L 19.671875 43.109375 
L 48.578125 43.109375 
L 48.578125 34.8125 
L 19.671875 34.8125 
L 19.671875 0 
L 9.8125 0 
z
" id="DejaVuSans-46"/>
      <path d="M 9.421875 75.984375 
L 18.40625 75.984375 
L 18.40625 0 
L 9.421875 0 
z
" id="DejaVuSans-6c"/>
      <path d="M 8.5 21.578125 
L 8.5 54.6875 
L 17.484375 54.6875 
L 17.484375 21.921875 
Q 17.484375 14.15625 20.5 10.265625 
Q 23.53125 6.390625 29.59375 6.390625 
Q 36.859375 6.390625 41.078125 11.03125 
Q 45.3125 15.671875 45.3125 23.6875 
L 45.3125 54.6875 
L 54.296875 54.6875 
L 54.296875 0 
L 45.3125 0 
L 45.3125 8.40625 
Q 42.046875 3.421875 37.71875 1 
Q 33.40625 -1.421875 27.6875 -1.421875 
Q 18.265625 -1.421875 13.375 4.4375 
Q 8.5 10.296875 8.5 21.578125 
z
M 31.109375 56 
z
" id="DejaVuSans-75"/>
      <path d="M 54.890625 54.6875 
L 35.109375 28.078125 
L 55.90625 0 
L 45.3125 0 
L 29.390625 21.484375 
L 13.484375 0 
L 2.875 0 
L 24.125 28.609375 
L 4.6875 54.6875 
L 15.28125 54.6875 
L 29.78125 35.203125 
L 44.28125 54.6875 
z
" id="DejaVuSans-78"/>
     </defs>
     <g transform="translate(43.017187 228.552969)rotate(-90)scale(0.1 -0.1)">
      <use xlink:href="#DejaVuSans-46"/>
      <use x="57.519531" xlink:href="#DejaVuSans-6c"/>
      <use x="85.302734" xlink:href="#DejaVuSans-75"/>
      <use x="148.681641" xlink:href="#DejaVuSans-78"/>
     </g>
    </g>
   </g>
   <g id="patch_3">
    <path d="M 72 384.48 
L 72 51.84 
" style="fill:none;stroke:#000000;stroke-linecap:square;stroke-linejoin:miter;stroke-width:0.8;"/>
   </g>
   <g id="patch_4">
    <path d="M 518.4 384.48 
L 518.4 51.84 
" style="fill:none;stroke:#000000;stroke-linecap:square;stroke-linejoin:miter;stroke-width:0.8;"/>
   </g>
   <g id="patch_5">
    <path d="M 72 384.48 
L 518.4 384.48 
" style="fill:none;stroke:#000000;stroke-linecap:square;stroke-linejoin:miter;stroke-width:0.8;"/>
   </g>
   <g id="patch_6">
    <path d="M 72 51.84 
L 518.4 51.84 
" style="fill:none;stroke:#000000;stroke-linecap:square;stroke-linejoin:miter;stroke-width:0.8;"/>
   </g>
   <g id="legend_1">
    <g id="patch_7">
     <path d="M 235.586719 379.48 
L 354.813281 379.48 
Q 356.813281 379.48 356.813281 377.48 
L 356.813281 334.445625 
Q 356.813281 332.445625 354.813281 332.445625 
L 235.586719 332.445625 
Q 233.586719 332.445625 233.586719 334.445625 
L 233.586719 377.48 
Q 233.586719 379.48 235.586719 379.48 
z
" style="fill:#ffffff;opacity:0.8;stroke:#cccccc;stroke-linejoin:miter;"/>
    </g>
    <g id="PathCollection_4">
     <g>
      <use style="fill:#008000;stroke:#008000;" x="247.586719" xlink:href="#m2433ae3444" y="341.419062"/>
     </g>
    </g>
    <g id="text_19">
     <!-- Generic.Bessell.V -->
     <defs>
      <path d="M 59.515625 10.40625 
L 59.515625 29.984375 
L 43.40625 29.984375 
L 43.40625 38.09375 
L 69.28125 38.09375 
L 69.28125 6.78125 
Q 63.578125 2.734375 56.6875 0.65625 
Q 49.8125 -1.421875 42 -1.421875 
Q 24.90625 -1.421875 15.25 8.5625 
Q 5.609375 18.5625 5.609375 36.375 
Q 5.609375 54.25 15.25 64.234375 
Q 24.90625 74.21875 42 74.21875 
Q 49.125 74.21875 55.546875 72.453125 
Q 61.96875 70.703125 67.390625 67.28125 
L 67.390625 56.78125 
Q 61.921875 61.421875 55.765625 63.765625 
Q 49.609375 66.109375 42.828125 66.109375 
Q 29.4375 66.109375 22.71875 58.640625 
Q 16.015625 51.171875 16.015625 36.375 
Q 16.015625 21.625 22.71875 14.15625 
Q 29.4375 6.6875 42.828125 6.6875 
Q 48.046875 6.6875 52.140625 7.59375 
Q 56.25 8.5 59.515625 10.40625 
z
" id="DejaVuSans-47"/>
      <path d="M 54.890625 33.015625 
L 54.890625 0 
L 45.90625 0 
L 45.90625 32.71875 
Q 45.90625 40.484375 42.875 44.328125 
Q 39.84375 48.1875 33.796875 48.1875 
Q 26.515625 48.1875 22.3125 43.546875 
Q 18.109375 38.921875 18.109375 30.90625 
L 18.109375 0 
L 9.078125 0 
L 9.078125 54.6875 
L 18.109375 54.6875 
L 18.109375 46.1875 
Q 21.34375 51.125 25.703125 53.5625 
Q 30.078125 56 35.796875 56 
Q 45.21875 56 50.046875 50.171875 
Q 54.890625 44.34375 54.890625 33.015625 
z
" id="DejaVuSans-6e"/>
      <path d="M 41.109375 46.296875 
Q 39.59375 47.171875 37.8125 47.578125 
Q 36.03125 48 33.890625 48 
Q 26.265625 48 22.1875 43.046875 
Q 18.109375 38.09375 18.109375 28.8125 
L 18.109375 0 
L 9.078125 0 
L 9.078125 54.6875 
L 18.109375 54.6875 
L 18.109375 46.1875 
Q 20.953125 51.171875 25.484375 53.578125 
Q 30.03125 56 36.53125 56 
Q 37.453125 56 38.578125 55.875 
Q 39.703125 55.765625 41.0625 55.515625 
z
" id="DejaVuSans-72"/>
      <path d="M 9.421875 54.6875 
L 18.40625 54.6875 
L 18.40625 0 
L 9.421875 0 
z
M 9.421875 75.984375 
L 18.40625 75.984375 
L 18.40625 64.59375 
L 9.421875 64.59375 
z
" id="DejaVuSans-69"/>
      <path d="M 48.78125 52.59375 
L 48.78125 44.1875 
Q 44.96875 46.296875 41.140625 47.34375 
Q 37.3125 48.390625 33.40625 48.390625 
Q 24.65625 48.390625 19.8125 42.84375 
Q 14.984375 37.3125 14.984375 27.296875 
Q 14.984375 17.28125 19.8125 11.734375 
Q 24.65625 6.203125 33.40625 6.203125 
Q 37.3125 6.203125 41.140625 7.25 
Q 44.96875 8.296875 48.78125 10.40625 
L 48.78125 2.09375 
Q 45.015625 0.34375 40.984375 -0.53125 
Q 36.96875 -1.421875 32.421875 -1.421875 
Q 20.0625 -1.421875 12.78125 6.34375 
Q 5.515625 14.109375 5.515625 27.296875 
Q 5.515625 40.671875 12.859375 48.328125 
Q 20.21875 56 33.015625 56 
Q 37.15625 56 41.109375 55.140625 
Q 45.0625 54.296875 48.78125 52.59375 
z
" id="DejaVuSans-63"/>
      <path d="M 19.671875 34.8125 
L 19.671875 8.109375 
L 35.5 8.109375 
Q 43.453125 8.109375 47.28125 11.40625 
Q 51.125 14.703125 51.125 21.484375 
Q 51.125 28.328125 47.28125 31.5625 
Q 43.453125 34.8125 35.5 34.8125 
z
M 19.671875 64.796875 
L 19.671875 42.828125 
L 34.28125 42.828125 
Q 41.5 42.828125 45.03125 45.53125 
Q 48.578125 48.25 48.578125 53.8125 
Q 48.578125 59.328125 45.03125 62.0625 
Q 41.5 64.796875 34.28125 64.796875 
z
M 9.8125 72.90625 
L 35.015625 72.90625 
Q 46.296875 72.90625 52.390625 68.21875 
Q 58.5 63.53125 58.5 54.890625 
Q 58.5 48.1875 55.375 44.234375 
Q 52.25 40.28125 46.1875 39.3125 
Q 53.46875 37.75 57.5 32.78125 
Q 61.53125 27.828125 61.53125 20.40625 
Q 61.53125 10.640625 54.890625 5.3125 
Q 48.25 0 35.984375 0 
L 9.8125 0 
z
" id="DejaVuSans-42"/>
      <path d="M 28.609375 0 
L 0.78125 72.90625 
L 11.078125 72.90625 
L 34.1875 11.53125 
L 57.328125 72.90625 
L 67.578125 72.90625 
L 39.796875 0 
z
" id="DejaVuSans-56"/>
     </defs>
     <g transform="translate(265.586719 344.044062)scale(0.1 -0.1)">
      <use xlink:href="#DejaVuSans-47"/>
      <use x="77.490234" xlink:href="#DejaVuSans-65"/>
      <use x="139.013672" xlink:href="#DejaVuSans-6e"/>
      <use x="202.392578" xlink:href="#DejaVuSans-65"/>
      <use x="263.916016" xlink:href="#DejaVuSans-72"/>
      <use x="305.029297" xlink:href="#DejaVuSans-69"/>
      <use x="332.8125" xlink:href="#DejaVuSans-63"/>
      <use x="387.792969" xlink:href="#DejaVuSans-2e"/>
      <use x="419.580078" xlink:href="#DejaVuSans-42"/>
      <use x="488.183594" xlink:href="#DejaVuSans-65"/>
      <use x="549.707031" xlink:href="#DejaVuSans-73"/>
      <use x="601.806641" xlink:href="#DejaVuSans-73"/>
      <use x="653.90625" xlink:href="#DejaVuSans-65"/>
      <use x="715.429688" xlink:href="#DejaVuSans-6c"/>
      <use x="743.212891" xlink:href="#DejaVuSans-6c"/>
      <use x="770.996094" xlink:href="#DejaVuSans-2e"/>
      <use x="802.783203" xlink:href="#DejaVuSans-56"/>
     </g>
    </g>
    <g id="PathCollection_5">
     <g>
      <use style="fill:#0000ff;stroke:#0000ff;" x="247.586719" xlink:href="#me554a4d9e3" y="356.097188"/>
     </g>
    </g>
    <g id="text_20">
     <!-- Generic.Bessell.B -->
     <g transform="translate(265.586719 358.722188)scale(0.1 -0.1)">
      <use xlink:href="#DejaVuSans-47"/>
      <use x="77.490234" xlink:href="#DejaVuSans-65"/>
      <use x="139.013672" xlink:href="#DejaVuSans-6e"/>
      <use x="202.392578" xlink:href="#DejaVuSans-65"/>
      <use x="263.916016" xlink:href="#DejaVuSans-72"/>
      <use x="305.029297" xlink:href="#DejaVuSans-69"/>
      <use x="332.8125" xlink:href="#DejaVuSans-63"/>
      <use x="387.792969" xlink:href="#DejaVuSans-2e"/>
      <use x="419.580078" xlink:href="#DejaVuSans-42"/>
      <use x="488.183594" xlink:href="#DejaVuSans-65"/>
      <use x="549.707031" xlink:href="#DejaVuSans-73"/>
      <use x="601.806641" xlink:href="#DejaVuSans-73"/>
      <use x="653.90625" xlink:href="#DejaVuSans-65"/>
      <use x="715.429688" xlink:href="#DejaVuSans-6c"/>
      <use x="743.212891" xlink:href="#DejaVuSans-6c"/>
      <use x="770.996094" xlink:href="#DejaVuSans-2e"/>
      <use x="802.783203" xlink:href="#DejaVuSans-42"/>
     </g>
    </g>
    <g id="PathCollection_6">
     <g>
      <use style="fill:#ff0000;stroke:#ff0000;" x="247.586719" xlink:href="#m763d9a16e3" y="370.775312"/>
     </g>
    </g>
    <g id="text_21">
     <!-- Generic.Bessell.R -->
     <defs>
      <path d="M 44.390625 34.1875 
Q 47.5625 33.109375 50.5625 29.59375 
Q 53.5625 26.078125 56.59375 19.921875 
L 66.609375 0 
L 56 0 
L 46.6875 18.703125 
Q 43.0625 26.03125 39.671875 28.421875 
Q 36.28125 30.8125 30.421875 30.8125 
L 19.671875 30.8125 
L 19.671875 0 
L 9.8125 0 
L 9.8125 72.90625 
L 32.078125 72.90625 
Q 44.578125 72.90625 50.734375 67.671875 
Q 56.890625 62.453125 56.890625 51.90625 
Q 56.890625 45.015625 53.6875 40.46875 
Q 50.484375 35.9375 44.390625 34.1875 
z
M 19.671875 64.796875 
L 19.671875 38.921875 
L 32.078125 38.921875 
Q 39.203125 38.921875 42.84375 42.21875 
Q 46.484375 45.515625 46.484375 51.90625 
Q 46.484375 58.296875 42.84375 61.546875 
Q 39.203125 64.796875 32.078125 64.796875 
z
" id="DejaVuSans-52"/>
     </defs>
     <g transform="translate(265.586719 373.400312)scale(0.1 -0.1)">
      <use xlink:href="#DejaVuSans-47"/>
      <use x="77.490234" xlink:href="#DejaVuSans-65"/>
      <use x="139.013672" xlink:href="#DejaVuSans-6e"/>
      <use x="202.392578" xlink:href="#DejaVuSans-65"/>
      <use x="263.916016" xlink:href="#DejaVuSans-72"/>
      <use x="305.029297" xlink:href="#DejaVuSans-69"/>
      <use x="332.8125" xlink:href="#DejaVuSans-63"/>
      <use x="387.792969" xlink:href="#DejaVuSans-2e"/>
      <use x="419.580078" xlink:href="#DejaVuSans-42"/>
      <use x="488.183594" xlink:href="#DejaVuSans-65"/>
      <use x="549.707031" xlink:href="#DejaVuSans-73"/>
      <use x="601.806641" xlink:href="#DejaVuSans-73"/>
      <use x="653.90625" xlink:href="#DejaVuSans-65"/>
      <use x="715.429688" xlink:href="#DejaVuSans-6c"/>
      <use x="743.212891" xlink:href="#DejaVuSans-6c"/>
      <use x="770.996094" xlink:href="#DejaVuSans-2e"/>
      <use x="802.783203" xlink:href="#DejaVuSans-52"/>
     </g>
    </g>
   </g>
  </g>
 </g>
 <defs>
  <clipPath id="pbab119c8f2">
   <rect height="332.64" width="446.4" x="72" y="51.84"/>
  </clipPath>
 </defs>
</svg>
