<?xml version="1.0" encoding="utf-8" standalone="no"?>
<!DOCTYPE svg PUBLIC "-//W3C//DTD SVG 1.1//EN"
  "http://www.w3.org/Graphics/SVG/1.1/DTD/svg11.dtd">
<!-- Created with matplotlib (http://matplotlib.org/) -->
<svg height="432pt" version="1.1" viewBox="0 0 576 432" width="576pt" xmlns="http://www.w3.org/2000/svg" xmlns:xlink="http://www.w3.org/1999/xlink">
 <defs>
  <style type="text/css">
*{stroke-linecap:butt;stroke-linejoin:round;}
  </style>
 </defs>
 <g id="figure_1">
  <g id="patch_1">
   <path d="M 0 432 
L 576 432 
L 576 0 
L 0 0 
z
" style="fill:#ffffff;"/>
  </g>
  <g id="axes_1">
   <g id="patch_2">
    <path d="M 72 384.48 
L 518.4 384.48 
L 518.4 51.84 
L 72 51.84 
z
" style="fill:#ffffff;"/>
   </g>
   <g id="PathCollection_1">
    <defs>
     <path d="M 0 3 
C 0.795609 3 1.55874 2.683901 2.12132 2.12132 
C 2.683901 1.55874 3 0.795609 3 0 
C 3 -0.795609 2.683901 -1.55874 2.12132 -2.12132 
C 1.55874 -2.683901 0.795609 -3 0 -3 
C -0.795609 -3 -1.55874 -2.683901 -2.12132 -2.12132 
C -2.683901 -1.55874 -3 -0.795609 -3 0 
C -3 0.795609 -2.683901 1.55874 -2.12132 2.12132 
C -1.55874 2.683901 -0.795609 3 0 3 
z
" id="m9ca5fe1e62" style="stroke:#008000;"/>
    </defs>
    <g clip-path="url(#pfa4b4e2de0)">
     <use style="fill:#008000;stroke:#008000;" x="94.450907" xlink:href="#m9ca5fe1e62" y="175.167269"/>
     <use style="fill:#008000;stroke:#008000;" x="101.142543" xlink:href="#m9ca5fe1e62" y="177.785726"/>
     <use style="fill:#008000;stroke:#008000;" x="107.834179" xlink:href="#m9ca5fe1e62" y="176.100021"/>
     <use style="fill:#008000;stroke:#008000;" x="114.525816" xlink:href="#m9ca5fe1e62" y="192.736717"/>
     <use style="fill:#008000;stroke:#008000;" x="121.217452" xlink:href="#m9ca5fe1e62" y="197.805583"/>
     <use style="fill:#008000;stroke:#008000;" x="127.909089" xlink:href="#m9ca5fe1e62" y="197.962454"/>
     <use style="fill:#008000;stroke:#008000;" x="134.600725" xlink:href="#m9ca5fe1e62" y="199.016934"/>
     <use style="fill:#008000;stroke:#008000;" x="141.292362" xlink:href="#m9ca5fe1e62" y="193.767967"/>
     <use style="fill:#008000;stroke:#008000;" x="147.983998" xlink:href="#m9ca5fe1e62" y="178.170488"/>
     <use style="fill:#008000;stroke:#008000;" x="154.675635" xlink:href="#m9ca5fe1e62" y="178.371833"/>
     <use style="fill:#008000;stroke:#008000;" x="161.367271" xlink:href="#m9ca5fe1e62" y="175.311771"/>
     <use style="fill:#008000;stroke:#008000;" x="168.058907" xlink:href="#m9ca5fe1e62" y="171.713568"/>
     <use style="fill:#008000;stroke:#008000;" x="174.750544" xlink:href="#m9ca5fe1e62" y="170.525121"/>
     <use style="fill:#008000;stroke:#008000;" x="181.44218" xlink:href="#m9ca5fe1e62" y="167.870034"/>
     <use style="fill:#008000;stroke:#008000;" x="188.133817" xlink:href="#m9ca5fe1e62" y="169.291938"/>
     <use style="fill:#008000;stroke:#008000;" x="194.825453" xlink:href="#m9ca5fe1e62" y="167.260474"/>
     <use style="fill:#008000;stroke:#008000;" x="201.51709" xlink:href="#m9ca5fe1e62" y="163.087505"/>
     <use style="fill:#008000;stroke:#008000;" x="208.208726" xlink:href="#m9ca5fe1e62" y="165.951921"/>
     <use style="fill:#008000;stroke:#008000;" x="214.900363" xlink:href="#m9ca5fe1e62" y="164.458072"/>
     <use style="fill:#008000;stroke:#008000;" x="221.591999" xlink:href="#m9ca5fe1e62" y="165.859539"/>
     <use style="fill:#008000;stroke:#008000;" x="228.283636" xlink:href="#m9ca5fe1e62" y="167.552582"/>
     <use style="fill:#008000;stroke:#008000;" x="234.975272" xlink:href="#m9ca5fe1e62" y="166.491066"/>
     <use style="fill:#008000;stroke:#008000;" x="241.666908" xlink:href="#m9ca5fe1e62" y="167.673742"/>
     <use style="fill:#008000;stroke:#008000;" x="248.358545" xlink:href="#m9ca5fe1e62" y="171.670989"/>
     <use style="fill:#008000;stroke:#008000;" x="255.050181" xlink:href="#m9ca5fe1e62" y="172.008597"/>
     <use style="fill:#008000;stroke:#008000;" x="261.741818" xlink:href="#m9ca5fe1e62" y="175.128836"/>
     <use style="fill:#008000;stroke:#008000;" x="268.433454" xlink:href="#m9ca5fe1e62" y="177.937771"/>
     <use style="fill:#008000;stroke:#008000;" x="275.125091" xlink:href="#m9ca5fe1e62" y="182.546562"/>
     <use style="fill:#008000;stroke:#008000;" x="281.816727" xlink:href="#m9ca5fe1e62" y="219.811638"/>
     <use style="fill:#008000;stroke:#008000;" x="288.508364" xlink:href="#m9ca5fe1e62" y="255.654929"/>
     <use style="fill:#008000;stroke:#008000;" x="295.2" xlink:href="#m9ca5fe1e62" y="261.454602"/>
     <use style="fill:#008000;stroke:#008000;" x="301.891636" xlink:href="#m9ca5fe1e62" y="255.357059"/>
     <use style="fill:#008000;stroke:#008000;" x="308.583273" xlink:href="#m9ca5fe1e62" y="219.995727"/>
     <use style="fill:#008000;stroke:#008000;" x="315.274909" xlink:href="#m9ca5fe1e62" y="180.427089"/>
     <use style="fill:#008000;stroke:#008000;" x="321.966546" xlink:href="#m9ca5fe1e62" y="177.200128"/>
     <use style="fill:#008000;stroke:#008000;" x="328.658182" xlink:href="#m9ca5fe1e62" y="178.215839"/>
     <use style="fill:#008000;stroke:#008000;" x="335.349819" xlink:href="#m9ca5fe1e62" y="174.072921"/>
     <use style="fill:#008000;stroke:#008000;" x="342.041455" xlink:href="#m9ca5fe1e62" y="171.679544"/>
     <use style="fill:#008000;stroke:#008000;" x="348.733092" xlink:href="#m9ca5fe1e62" y="169.132604"/>
     <use style="fill:#008000;stroke:#008000;" x="355.424728" xlink:href="#m9ca5fe1e62" y="168.490976"/>
     <use style="fill:#008000;stroke:#008000;" x="362.116364" xlink:href="#m9ca5fe1e62" y="166.700052"/>
     <use style="fill:#008000;stroke:#008000;" x="368.808001" xlink:href="#m9ca5fe1e62" y="165.584935"/>
     <use style="fill:#008000;stroke:#008000;" x="375.499637" xlink:href="#m9ca5fe1e62" y="162.14046"/>
     <use style="fill:#008000;stroke:#008000;" x="382.191274" xlink:href="#m9ca5fe1e62" y="165.26545"/>
     <use style="fill:#008000;stroke:#008000;" x="388.88291" xlink:href="#m9ca5fe1e62" y="167.153038"/>
     <use style="fill:#008000;stroke:#008000;" x="395.574547" xlink:href="#m9ca5fe1e62" y="168.163154"/>
     <use style="fill:#008000;stroke:#008000;" x="402.266183" xlink:href="#m9ca5fe1e62" y="169.185692"/>
     <use style="fill:#008000;stroke:#008000;" x="408.95782" xlink:href="#m9ca5fe1e62" y="171.849961"/>
     <use style="fill:#008000;stroke:#008000;" x="415.649456" xlink:href="#m9ca5fe1e62" y="170.637522"/>
     <use style="fill:#008000;stroke:#008000;" x="422.341093" xlink:href="#m9ca5fe1e62" y="172.450153"/>
     <use style="fill:#008000;stroke:#008000;" x="429.032729" xlink:href="#m9ca5fe1e62" y="174.385603"/>
     <use style="fill:#008000;stroke:#008000;" x="435.724365" xlink:href="#m9ca5fe1e62" y="176.45079"/>
     <use style="fill:#008000;stroke:#008000;" x="442.416002" xlink:href="#m9ca5fe1e62" y="181.031482"/>
     <use style="fill:#008000;stroke:#008000;" x="449.107638" xlink:href="#m9ca5fe1e62" y="194.145027"/>
     <use style="fill:#008000;stroke:#008000;" x="455.799275" xlink:href="#m9ca5fe1e62" y="201.860078"/>
     <use style="fill:#008000;stroke:#008000;" x="462.490911" xlink:href="#m9ca5fe1e62" y="198.369946"/>
     <use style="fill:#008000;stroke:#008000;" x="469.182548" xlink:href="#m9ca5fe1e62" y="199.902327"/>
     <use style="fill:#008000;stroke:#008000;" x="475.874184" xlink:href="#m9ca5fe1e62" y="190.022675"/>
     <use style="fill:#008000;stroke:#008000;" x="482.565821" xlink:href="#m9ca5fe1e62" y="178.912426"/>
     <use style="fill:#008000;stroke:#008000;" x="489.257457" xlink:href="#m9ca5fe1e62" y="176.080683"/>
     <use style="fill:#008000;stroke:#008000;" x="495.949093" xlink:href="#m9ca5fe1e62" y="176.282362"/>
    </g>
   </g>
   <g id="PathCollection_2">
    <defs>
     <path d="M 0 3 
C 0.795609 3 1.55874 2.683901 2.12132 2.12132 
C 2.683901 1.55874 3 0.795609 3 0 
C 3 -0.795609 2.683901 -1.55874 2.12132 -2.12132 
C 1.55874 -2.683901 0.795609 -3 0 -3 
C -0.795609 -3 -1.55874 -2.683901 -2.12132 -2.12132 
C -2.683901 -1.55874 -3 -0.795609 -3 0 
C -3 0.795609 -2.683901 1.55874 -2.12132 2.12132 
C -1.55874 2.683901 -0.795609 3 0 3 
z
" id="m592fbb7293" style="stroke:#0000ff;"/>
    </defs>
    <g clip-path="url(#pfa4b4e2de0)">
     <use style="fill:#0000ff;stroke:#0000ff;" x="94.450907" xlink:href="#m592fbb7293" y="84.342656"/>
     <use style="fill:#0000ff;stroke:#0000ff;" x="101.142543" xlink:href="#m592fbb7293" y="85.552773"/>
     <use style="fill:#0000ff;stroke:#0000ff;" x="107.834179" xlink:href="#m592fbb7293" y="89.411719"/>
     <use style="fill:#0000ff;stroke:#0000ff;" x="114.525816" xlink:href="#m592fbb7293" y="99.142906"/>
     <use style="fill:#0000ff;stroke:#0000ff;" x="121.217452" xlink:href="#m592fbb7293" y="105.886066"/>
     <use style="fill:#0000ff;stroke:#0000ff;" x="127.909089" xlink:href="#m592fbb7293" y="106.756262"/>
     <use style="fill:#0000ff;stroke:#0000ff;" x="134.600725" xlink:href="#m592fbb7293" y="106.760059"/>
     <use style="fill:#0000ff;stroke:#0000ff;" x="141.292362" xlink:href="#m592fbb7293" y="99.029455"/>
     <use style="fill:#0000ff;stroke:#0000ff;" x="147.983998" xlink:href="#m592fbb7293" y="88.370713"/>
     <use style="fill:#0000ff;stroke:#0000ff;" x="154.675635" xlink:href="#m592fbb7293" y="88.857358"/>
     <use style="fill:#0000ff;stroke:#0000ff;" x="161.367271" xlink:href="#m592fbb7293" y="86.537285"/>
     <use style="fill:#0000ff;stroke:#0000ff;" x="168.058907" xlink:href="#m592fbb7293" y="81.31921"/>
     <use style="fill:#0000ff;stroke:#0000ff;" x="174.750544" xlink:href="#m592fbb7293" y="81.244483"/>
     <use style="fill:#0000ff;stroke:#0000ff;" x="181.44218" xlink:href="#m592fbb7293" y="80.513203"/>
     <use style="fill:#0000ff;stroke:#0000ff;" x="188.133817" xlink:href="#m592fbb7293" y="75.883505"/>
     <use style="fill:#0000ff;stroke:#0000ff;" x="194.825453" xlink:href="#m592fbb7293" y="72.00736"/>
     <use style="fill:#0000ff;stroke:#0000ff;" x="201.51709" xlink:href="#m592fbb7293" y="70.959543"/>
     <use style="fill:#0000ff;stroke:#0000ff;" x="208.208726" xlink:href="#m592fbb7293" y="69.523208"/>
     <use style="fill:#0000ff;stroke:#0000ff;" x="214.900363" xlink:href="#m592fbb7293" y="70.259689"/>
     <use style="fill:#0000ff;stroke:#0000ff;" x="221.591999" xlink:href="#m592fbb7293" y="70.516426"/>
     <use style="fill:#0000ff;stroke:#0000ff;" x="228.283636" xlink:href="#m592fbb7293" y="74.379445"/>
     <use style="fill:#0000ff;stroke:#0000ff;" x="234.975272" xlink:href="#m592fbb7293" y="71.594159"/>
     <use style="fill:#0000ff;stroke:#0000ff;" x="241.666908" xlink:href="#m592fbb7293" y="77.48895"/>
     <use style="fill:#0000ff;stroke:#0000ff;" x="248.358545" xlink:href="#m592fbb7293" y="77.80317"/>
     <use style="fill:#0000ff;stroke:#0000ff;" x="255.050181" xlink:href="#m592fbb7293" y="85.053527"/>
     <use style="fill:#0000ff;stroke:#0000ff;" x="261.741818" xlink:href="#m592fbb7293" y="88.319161"/>
     <use style="fill:#0000ff;stroke:#0000ff;" x="268.433454" xlink:href="#m592fbb7293" y="89.164699"/>
     <use style="fill:#0000ff;stroke:#0000ff;" x="275.125091" xlink:href="#m592fbb7293" y="93.023424"/>
     <use style="fill:#0000ff;stroke:#0000ff;" x="281.816727" xlink:href="#m592fbb7293" y="137.968675"/>
     <use style="fill:#0000ff;stroke:#0000ff;" x="288.508364" xlink:href="#m592fbb7293" y="181.830397"/>
     <use style="fill:#0000ff;stroke:#0000ff;" x="295.2" xlink:href="#m592fbb7293" y="191.837328"/>
     <use style="fill:#0000ff;stroke:#0000ff;" x="301.891636" xlink:href="#m592fbb7293" y="183.029874"/>
     <use style="fill:#0000ff;stroke:#0000ff;" x="308.583273" xlink:href="#m592fbb7293" y="140.928348"/>
     <use style="fill:#0000ff;stroke:#0000ff;" x="315.274909" xlink:href="#m592fbb7293" y="94.525202"/>
     <use style="fill:#0000ff;stroke:#0000ff;" x="321.966546" xlink:href="#m592fbb7293" y="90.757317"/>
     <use style="fill:#0000ff;stroke:#0000ff;" x="328.658182" xlink:href="#m592fbb7293" y="86.799351"/>
     <use style="fill:#0000ff;stroke:#0000ff;" x="335.349819" xlink:href="#m592fbb7293" y="80.95176"/>
     <use style="fill:#0000ff;stroke:#0000ff;" x="342.041455" xlink:href="#m592fbb7293" y="81.810608"/>
     <use style="fill:#0000ff;stroke:#0000ff;" x="348.733092" xlink:href="#m592fbb7293" y="76.618379"/>
     <use style="fill:#0000ff;stroke:#0000ff;" x="355.424728" xlink:href="#m592fbb7293" y="76.104073"/>
     <use style="fill:#0000ff;stroke:#0000ff;" x="362.116364" xlink:href="#m592fbb7293" y="69.682669"/>
     <use style="fill:#0000ff;stroke:#0000ff;" x="368.808001" xlink:href="#m592fbb7293" y="69.072796"/>
     <use style="fill:#0000ff;stroke:#0000ff;" x="375.499637" xlink:href="#m592fbb7293" y="69.892113"/>
     <use style="fill:#0000ff;stroke:#0000ff;" x="382.191274" xlink:href="#m592fbb7293" y="73.06092"/>
     <use style="fill:#0000ff;stroke:#0000ff;" x="388.88291" xlink:href="#m592fbb7293" y="72.325663"/>
     <use style="fill:#0000ff;stroke:#0000ff;" x="395.574547" xlink:href="#m592fbb7293" y="74.942472"/>
     <use style="fill:#0000ff;stroke:#0000ff;" x="402.266183" xlink:href="#m592fbb7293" y="78.196214"/>
     <use style="fill:#0000ff;stroke:#0000ff;" x="408.95782" xlink:href="#m592fbb7293" y="78.979188"/>
     <use style="fill:#0000ff;stroke:#0000ff;" x="415.649456" xlink:href="#m592fbb7293" y="81.463163"/>
     <use style="fill:#0000ff;stroke:#0000ff;" x="422.341093" xlink:href="#m592fbb7293" y="82.776294"/>
     <use style="fill:#0000ff;stroke:#0000ff;" x="429.032729" xlink:href="#m592fbb7293" y="85.487948"/>
     <use style="fill:#0000ff;stroke:#0000ff;" x="435.724365" xlink:href="#m592fbb7293" y="89.224834"/>
     <use style="fill:#0000ff;stroke:#0000ff;" x="442.416002" xlink:href="#m592fbb7293" y="88.856607"/>
     <use style="fill:#0000ff;stroke:#0000ff;" x="449.107638" xlink:href="#m592fbb7293" y="100.633291"/>
     <use style="fill:#0000ff;stroke:#0000ff;" x="455.799275" xlink:href="#m592fbb7293" y="107.561345"/>
     <use style="fill:#0000ff;stroke:#0000ff;" x="462.490911" xlink:href="#m592fbb7293" y="106.373873"/>
     <use style="fill:#0000ff;stroke:#0000ff;" x="469.182548" xlink:href="#m592fbb7293" y="104.764466"/>
     <use style="fill:#0000ff;stroke:#0000ff;" x="475.874184" xlink:href="#m592fbb7293" y="100.321456"/>
     <use style="fill:#0000ff;stroke:#0000ff;" x="482.565821" xlink:href="#m592fbb7293" y="90.958638"/>
     <use style="fill:#0000ff;stroke:#0000ff;" x="489.257457" xlink:href="#m592fbb7293" y="89.279745"/>
     <use style="fill:#0000ff;stroke:#0000ff;" x="495.949093" xlink:href="#m592fbb7293" y="85.168545"/>
    </g>
   </g>
   <g id="PathCollection_3">
    <defs>
     <path d="M 0 3 
C 0.795609 3 1.55874 2.683901 2.12132 2.12132 
C 2.683901 1.55874 3 0.795609 3 0 
C 3 -0.795609 2.683901 -1.55874 2.12132 -2.12132 
C 1.55874 -2.683901 0.795609 -3 0 -3 
C -0.795609 -3 -1.55874 -2.683901 -2.12132 -2.12132 
C -2.683901 -1.55874 -3 -0.795609 -3 0 
C -3 0.795609 -2.683901 1.55874 -2.12132 2.12132 
C -1.55874 2.683901 -0.795609 3 0 3 
z
" id="m2bca0c06a3" style="stroke:#ff0000;"/>
    </defs>
    <g clip-path="url(#pfa4b4e2de0)">
     <use style="fill:#ff0000;stroke:#ff0000;" x="94.450907" xlink:href="#m2bca0c06a3" y="304.102561"/>
     <use style="fill:#ff0000;stroke:#ff0000;" x="101.142543" xlink:href="#m2bca0c06a3" y="305.690938"/>
     <use style="fill:#ff0000;stroke:#ff0000;" x="107.834179" xlink:href="#m2bca0c06a3" y="308.472775"/>
     <use style="fill:#ff0000;stroke:#ff0000;" x="114.525816" xlink:href="#m2bca0c06a3" y="318.957647"/>
     <use style="fill:#ff0000;stroke:#ff0000;" x="121.217452" xlink:href="#m2bca0c06a3" y="324.260891"/>
     <use style="fill:#ff0000;stroke:#ff0000;" x="127.909089" xlink:href="#m2bca0c06a3" y="324.687886"/>
     <use style="fill:#ff0000;stroke:#ff0000;" x="134.600725" xlink:href="#m2bca0c06a3" y="328.366276"/>
     <use style="fill:#ff0000;stroke:#ff0000;" x="141.292362" xlink:href="#m2bca0c06a3" y="319.141"/>
     <use style="fill:#ff0000;stroke:#ff0000;" x="147.983998" xlink:href="#m2bca0c06a3" y="306.533829"/>
     <use style="fill:#ff0000;stroke:#ff0000;" x="154.675635" xlink:href="#m2bca0c06a3" y="306.93691"/>
     <use style="fill:#ff0000;stroke:#ff0000;" x="161.367271" xlink:href="#m2bca0c06a3" y="301.901376"/>
     <use style="fill:#ff0000;stroke:#ff0000;" x="168.058907" xlink:href="#m2bca0c06a3" y="305.055386"/>
     <use style="fill:#ff0000;stroke:#ff0000;" x="174.750544" xlink:href="#m2bca0c06a3" y="303.834565"/>
     <use style="fill:#ff0000;stroke:#ff0000;" x="181.44218" xlink:href="#m2bca0c06a3" y="300.019296"/>
     <use style="fill:#ff0000;stroke:#ff0000;" x="188.133817" xlink:href="#m2bca0c06a3" y="298.156923"/>
     <use style="fill:#ff0000;stroke:#ff0000;" x="194.825453" xlink:href="#m2bca0c06a3" y="296.103598"/>
     <use style="fill:#ff0000;stroke:#ff0000;" x="201.51709" xlink:href="#m2bca0c06a3" y="294.329206"/>
     <use style="fill:#ff0000;stroke:#ff0000;" x="208.208726" xlink:href="#m2bca0c06a3" y="298.797149"/>
     <use style="fill:#ff0000;stroke:#ff0000;" x="214.900363" xlink:href="#m2bca0c06a3" y="294.706249"/>
     <use style="fill:#ff0000;stroke:#ff0000;" x="221.591999" xlink:href="#m2bca0c06a3" y="294.032729"/>
     <use style="fill:#ff0000;stroke:#ff0000;" x="228.283636" xlink:href="#m2bca0c06a3" y="298.844703"/>
     <use style="fill:#ff0000;stroke:#ff0000;" x="234.975272" xlink:href="#m2bca0c06a3" y="297.117183"/>
     <use style="fill:#ff0000;stroke:#ff0000;" x="241.666908" xlink:href="#m2bca0c06a3" y="300.751613"/>
     <use style="fill:#ff0000;stroke:#ff0000;" x="248.358545" xlink:href="#m2bca0c06a3" y="302.56711"/>
     <use style="fill:#ff0000;stroke:#ff0000;" x="255.050181" xlink:href="#m2bca0c06a3" y="301.096512"/>
     <use style="fill:#ff0000;stroke:#ff0000;" x="261.741818" xlink:href="#m2bca0c06a3" y="306.56332"/>
     <use style="fill:#ff0000;stroke:#ff0000;" x="268.433454" xlink:href="#m2bca0c06a3" y="307.986665"/>
     <use style="fill:#ff0000;stroke:#ff0000;" x="275.125091" xlink:href="#m2bca0c06a3" y="309.116801"/>
     <use style="fill:#ff0000;stroke:#ff0000;" x="281.816727" xlink:href="#m2bca0c06a3" y="335.646075"/>
     <use style="fill:#ff0000;stroke:#ff0000;" x="288.508364" xlink:href="#m2bca0c06a3" y="364.023414"/>
     <use style="fill:#ff0000;stroke:#ff0000;" x="295.2" xlink:href="#m2bca0c06a3" y="367.221003"/>
     <use style="fill:#ff0000;stroke:#ff0000;" x="301.891636" xlink:href="#m2bca0c06a3" y="364.125444"/>
     <use style="fill:#ff0000;stroke:#ff0000;" x="308.583273" xlink:href="#m2bca0c06a3" y="339.501232"/>
     <use style="fill:#ff0000;stroke:#ff0000;" x="315.274909" xlink:href="#m2bca0c06a3" y="308.136951"/>
     <use style="fill:#ff0000;stroke:#ff0000;" x="321.966546" xlink:href="#m2bca0c06a3" y="308.063396"/>
     <use style="fill:#ff0000;stroke:#ff0000;" x="328.658182" xlink:href="#m2bca0c06a3" y="306.303324"/>
     <use style="fill:#ff0000;stroke:#ff0000;" x="335.349819" xlink:href="#m2bca0c06a3" y="302.49937"/>
     <use style="fill:#ff0000;stroke:#ff0000;" x="342.041455" xlink:href="#m2bca0c06a3" y="301.443535"/>
     <use style="fill:#ff0000;stroke:#ff0000;" x="348.733092" xlink:href="#m2bca0c06a3" y="298.60465"/>
     <use style="fill:#ff0000;stroke:#ff0000;" x="355.424728" xlink:href="#m2bca0c06a3" y="297.796951"/>
     <use style="fill:#ff0000;stroke:#ff0000;" x="362.116364" xlink:href="#m2bca0c06a3" y="299.285417"/>
     <use style="fill:#ff0000;stroke:#ff0000;" x="368.808001" xlink:href="#m2bca0c06a3" y="297.340468"/>
     <use style="fill:#ff0000;stroke:#ff0000;" x="375.499637" xlink:href="#m2bca0c06a3" y="293.699883"/>
     <use style="fill:#ff0000;stroke:#ff0000;" x="382.191274" xlink:href="#m2bca0c06a3" y="294.775953"/>
     <use style="fill:#ff0000;stroke:#ff0000;" x="388.88291" xlink:href="#m2bca0c06a3" y="299.126349"/>
     <use style="fill:#ff0000;stroke:#ff0000;" x="395.574547" xlink:href="#m2bca0c06a3" y="295.505333"/>
     <use style="fill:#ff0000;stroke:#ff0000;" x="402.266183" xlink:href="#m2bca0c06a3" y="296.39582"/>
     <use style="fill:#ff0000;stroke:#ff0000;" x="408.95782" xlink:href="#m2bca0c06a3" y="301.262856"/>
     <use style="fill:#ff0000;stroke:#ff0000;" x="415.649456" xlink:href="#m2bca0c06a3" y="302.822501"/>
     <use style="fill:#ff0000;stroke:#ff0000;" x="422.341093" xlink:href="#m2bca0c06a3" y="304.768761"/>
     <use style="fill:#ff0000;stroke:#ff0000;" x="429.032729" xlink:href="#m2bca0c06a3" y="304.6778"/>
     <use style="fill:#ff0000;stroke:#ff0000;" x="435.724365" xlink:href="#m2bca0c06a3" y="303.721089"/>
     <use style="fill:#ff0000;stroke:#ff0000;" x="442.416002" xlink:href="#m2bca0c06a3" y="307.933066"/>
     <use style="fill:#ff0000;stroke:#ff0000;" x="449.107638" xlink:href="#m2bca0c06a3" y="318.490751"/>
     <use style="fill:#ff0000;stroke:#ff0000;" x="455.799275" xlink:href="#m2bca0c06a3" y="327.496718"/>
     <use style="fill:#ff0000;stroke:#ff0000;" x="462.490911" xlink:href="#m2bca0c06a3" y="327.203043"/>
     <use style="fill:#ff0000;stroke:#ff0000;" x="469.182548" xlink:href="#m2bca0c06a3" y="323.820243"/>
     <use style="fill:#ff0000;stroke:#ff0000;" x="475.874184" xlink:href="#m2bca0c06a3" y="319.277336"/>
     <use style="fill:#ff0000;stroke:#ff0000;" x="482.565821" xlink:href="#m2bca0c06a3" y="304.017352"/>
     <use style="fill:#ff0000;stroke:#ff0000;" x="489.257457" xlink:href="#m2bca0c06a3" y="306.524319"/>
     <use style="fill:#ff0000;stroke:#ff0000;" x="495.949093" xlink:href="#m2bca0c06a3" y="304.410868"/>
    </g>
   </g>
   <g id="matplotlib.axis_1">
    <g id="xtick_1">
     <g id="line2d_1">
      <defs>
       <path d="M 0 0 
L 0 3.5 
" id="m8f4c7b092f" style="stroke:#000000;stroke-width:0.8;"/>
      </defs>
      <g>
       <use style="stroke:#000000;stroke-width:0.8;" x="94.450907" xlink:href="#m8f4c7b092f" y="384.48"/>
      </g>
     </g>
     <g id="text_1">
      <!-- −0.6 -->
      <defs>
       <path d="M 10.59375 35.5 
L 73.1875 35.5 
L 73.1875 27.203125 
L 10.59375 27.203125 
z
" id="DejaVuSans-2212"/>
       <path d="M 31.78125 66.40625 
Q 24.171875 66.40625 20.328125 58.90625 
Q 16.5 51.421875 16.5 36.375 
Q 16.5 21.390625 20.328125 13.890625 
Q 24.171875 6.390625 31.78125 6.390625 
Q 39.453125 6.390625 43.28125 13.890625 
Q 47.125 21.390625 47.125 36.375 
Q 47.125 51.421875 43.28125 58.90625 
Q 39.453125 66.40625 31.78125 66.40625 
z
M 31.78125 74.21875 
Q 44.046875 74.21875 50.515625 64.515625 
Q 56.984375 54.828125 56.984375 36.375 
Q 56.984375 17.96875 50.515625 8.265625 
Q 44.046875 -1.421875 31.78125 -1.421875 
Q 19.53125 -1.421875 13.0625 8.265625 
Q 6.59375 17.96875 6.59375 36.375 
Q 6.59375 54.828125 13.0625 64.515625 
Q 19.53125 74.21875 31.78125 74.21875 
z
" id="DejaVuSans-30"/>
       <path d="M 10.6875 12.40625 
L 21 12.40625 
L 21 0 
L 10.6875 0 
z
" id="DejaVuSans-2e"/>
       <path d="M 33.015625 40.375 
Q 26.375 40.375 22.484375 35.828125 
Q 18.609375 31.296875 18.609375 23.390625 
Q 18.609375 15.53125 22.484375 10.953125 
Q 26.375 6.390625 33.015625 6.390625 
Q 39.65625 6.390625 43.53125 10.953125 
Q 47.40625 15.53125 47.40625 23.390625 
Q 47.40625 31.296875 43.53125 35.828125 
Q 39.65625 40.375 33.015625 40.375 
z
M 52.59375 71.296875 
L 52.59375 62.3125 
Q 48.875 64.0625 45.09375 64.984375 
Q 41.3125 65.921875 37.59375 65.921875 
Q 27.828125 65.921875 22.671875 59.328125 
Q 17.53125 52.734375 16.796875 39.40625 
Q 19.671875 43.65625 24.015625 45.921875 
Q 28.375 48.1875 33.59375 48.1875 
Q 44.578125 48.1875 50.953125 41.515625 
Q 57.328125 34.859375 57.328125 23.390625 
Q 57.328125 12.15625 50.6875 5.359375 
Q 44.046875 -1.421875 33.015625 -1.421875 
Q 20.359375 -1.421875 13.671875 8.265625 
Q 6.984375 17.96875 6.984375 36.375 
Q 6.984375 53.65625 15.1875 63.9375 
Q 23.390625 74.21875 37.203125 74.21875 
Q 40.921875 74.21875 44.703125 73.484375 
Q 48.484375 72.75 52.59375 71.296875 
z
" id="DejaVuSans-36"/>
      </defs>
      <g transform="translate(82.3095 399.078438)scale(0.1 -0.1)">
       <use xlink:href="#DejaVuSans-2212"/>
       <use x="83.789062" xlink:href="#DejaVuSans-30"/>
       <use x="147.412109" xlink:href="#DejaVuSans-2e"/>
       <use x="179.199219" xlink:href="#DejaVuSans-36"/>
      </g>
     </g>
    </g>
    <g id="xtick_2">
     <g id="line2d_2">
      <g>
       <use style="stroke:#000000;stroke-width:0.8;" x="161.367271" xlink:href="#m8f4c7b092f" y="384.48"/>
      </g>
     </g>
     <g id="text_2">
      <!-- −0.4 -->
      <defs>
       <path d="M 37.796875 64.3125 
L 12.890625 25.390625 
L 37.796875 25.390625 
z
M 35.203125 72.90625 
L 47.609375 72.90625 
L 47.609375 25.390625 
L 58.015625 25.390625 
L 58.015625 17.1875 
L 47.609375 17.1875 
L 47.609375 0 
L 37.796875 0 
L 37.796875 17.1875 
L 4.890625 17.1875 
L 4.890625 26.703125 
z
" id="DejaVuSans-34"/>
      </defs>
      <g transform="translate(149.225865 399.078438)scale(0.1 -0.1)">
       <use xlink:href="#DejaVuSans-2212"/>
       <use x="83.789062" xlink:href="#DejaVuSans-30"/>
       <use x="147.412109" xlink:href="#DejaVuSans-2e"/>
       <use x="179.199219" xlink:href="#DejaVuSans-34"/>
      </g>
     </g>
    </g>
    <g id="xtick_3">
     <g id="line2d_3">
      <g>
       <use style="stroke:#000000;stroke-width:0.8;" x="228.283636" xlink:href="#m8f4c7b092f" y="384.48"/>
      </g>
     </g>
     <g id="text_3">
      <!-- −0.2 -->
      <defs>
       <path d="M 19.1875 8.296875 
L 53.609375 8.296875 
L 53.609375 0 
L 7.328125 0 
L 7.328125 8.296875 
Q 12.9375 14.109375 22.625 23.890625 
Q 32.328125 33.6875 34.8125 36.53125 
Q 39.546875 41.84375 41.421875 45.53125 
Q 43.3125 49.21875 43.3125 52.78125 
Q 43.3125 58.59375 39.234375 62.25 
Q 35.15625 65.921875 28.609375 65.921875 
Q 23.96875 65.921875 18.8125 64.3125 
Q 13.671875 62.703125 7.8125 59.421875 
L 7.8125 69.390625 
Q 13.765625 71.78125 18.9375 73 
Q 24.125 74.21875 28.421875 74.21875 
Q 39.75 74.21875 46.484375 68.546875 
Q 53.21875 62.890625 53.21875 53.421875 
Q 53.21875 48.921875 51.53125 44.890625 
Q 49.859375 40.875 45.40625 35.40625 
Q 44.1875 33.984375 37.640625 27.21875 
Q 31.109375 20.453125 19.1875 8.296875 
z
" id="DejaVuSans-32"/>
      </defs>
      <g transform="translate(216.142229 399.078438)scale(0.1 -0.1)">
       <use xlink:href="#DejaVuSans-2212"/>
       <use x="83.789062" xlink:href="#DejaVuSans-30"/>
       <use x="147.412109" xlink:href="#DejaVuSans-2e"/>
       <use x="179.199219" xlink:href="#DejaVuSans-32"/>
      </g>
     </g>
    </g>
    <g id="xtick_4">
     <g id="line2d_4">
      <g>
       <use style="stroke:#000000;stroke-width:0.8;" x="295.2" xlink:href="#m8f4c7b092f" y="384.48"/>
      </g>
     </g>
     <g id="text_4">
      <!-- 0.0 -->
      <g transform="translate(287.248437 399.078438)scale(0.1 -0.1)">
       <use xlink:href="#DejaVuSans-30"/>
       <use x="63.623047" xlink:href="#DejaVuSans-2e"/>
       <use x="95.410156" xlink:href="#DejaVuSans-30"/>
      </g>
     </g>
    </g>
    <g id="xtick_5">
     <g id="line2d_5">
      <g>
       <use style="stroke:#000000;stroke-width:0.8;" x="362.116364" xlink:href="#m8f4c7b092f" y="384.48"/>
      </g>
     </g>
     <g id="text_5">
      <!-- 0.2 -->
      <g transform="translate(354.164802 399.078438)scale(0.1 -0.1)">
       <use xlink:href="#DejaVuSans-30"/>
       <use x="63.623047" xlink:href="#DejaVuSans-2e"/>
       <use x="95.410156" xlink:href="#DejaVuSans-32"/>
      </g>
     </g>
    </g>
    <g id="xtick_6">
     <g id="line2d_6">
      <g>
       <use style="stroke:#000000;stroke-width:0.8;" x="429.032729" xlink:href="#m8f4c7b092f" y="384.48"/>
      </g>
     </g>
     <g id="text_6">
      <!-- 0.4 -->
      <g transform="translate(421.081166 399.078438)scale(0.1 -0.1)">
       <use xlink:href="#DejaVuSans-30"/>
       <use x="63.623047" xlink:href="#DejaVuSans-2e"/>
       <use x="95.410156" xlink:href="#DejaVuSans-34"/>
      </g>
     </g>
    </g>
    <g id="xtick_7">
     <g id="line2d_7">
      <g>
       <use style="stroke:#000000;stroke-width:0.8;" x="495.949093" xlink:href="#m8f4c7b092f" y="384.48"/>
      </g>
     </g>
     <g id="text_7">
      <!-- 0.6 -->
      <g transform="translate(487.997531 399.078438)scale(0.1 -0.1)">
       <use xlink:href="#DejaVuSans-30"/>
       <use x="63.623047" xlink:href="#DejaVuSans-2e"/>
       <use x="95.410156" xlink:href="#DejaVuSans-36"/>
      </g>
     </g>
    </g>
    <g id="text_8">
     <!-- Phase -->
     <defs>
      <path d="M 19.671875 64.796875 
L 19.671875 37.40625 
L 32.078125 37.40625 
Q 38.96875 37.40625 42.71875 40.96875 
Q 46.484375 44.53125 46.484375 51.125 
Q 46.484375 57.671875 42.71875 61.234375 
Q 38.96875 64.796875 32.078125 64.796875 
z
M 9.8125 72.90625 
L 32.078125 72.90625 
Q 44.34375 72.90625 50.609375 67.359375 
Q 56.890625 61.8125 56.890625 51.125 
Q 56.890625 40.328125 50.609375 34.8125 
Q 44.34375 29.296875 32.078125 29.296875 
L 19.671875 29.296875 
L 19.671875 0 
L 9.8125 0 
z
" id="DejaVuSans-50"/>
      <path d="M 54.890625 33.015625 
L 54.890625 0 
L 45.90625 0 
L 45.90625 32.71875 
Q 45.90625 40.484375 42.875 44.328125 
Q 39.84375 48.1875 33.796875 48.1875 
Q 26.515625 48.1875 22.3125 43.546875 
Q 18.109375 38.921875 18.109375 30.90625 
L 18.109375 0 
L 9.078125 0 
L 9.078125 75.984375 
L 18.109375 75.984375 
L 18.109375 46.1875 
Q 21.34375 51.125 25.703125 53.5625 
Q 30.078125 56 35.796875 56 
Q 45.21875 56 50.046875 50.171875 
Q 54.890625 44.34375 54.890625 33.015625 
z
" id="DejaVuSans-68"/>
      <path d="M 34.28125 27.484375 
Q 23.390625 27.484375 19.1875 25 
Q 14.984375 22.515625 14.984375 16.5 
Q 14.984375 11.71875 18.140625 8.90625 
Q 21.296875 6.109375 26.703125 6.109375 
Q 34.1875 6.109375 38.703125 11.40625 
Q 43.21875 16.703125 43.21875 25.484375 
L 43.21875 27.484375 
z
M 52.203125 31.203125 
L 52.203125 0 
L 43.21875 0 
L 43.21875 8.296875 
Q 40.140625 3.328125 35.546875 0.953125 
Q 30.953125 -1.421875 24.3125 -1.421875 
Q 15.921875 -1.421875 10.953125 3.296875 
Q 6 8.015625 6 15.921875 
Q 6 25.140625 12.171875 29.828125 
Q 18.359375 34.515625 30.609375 34.515625 
L 43.21875 34.515625 
L 43.21875 35.40625 
Q 43.21875 41.609375 39.140625 45 
Q 35.0625 48.390625 27.6875 48.390625 
Q 23 48.390625 18.546875 47.265625 
Q 14.109375 46.140625 10.015625 43.890625 
L 10.015625 52.203125 
Q 14.9375 54.109375 19.578125 55.046875 
Q 24.21875 56 28.609375 56 
Q 40.484375 56 46.34375 49.84375 
Q 52.203125 43.703125 52.203125 31.203125 
z
" id="DejaVuSans-61"/>
      <path d="M 44.28125 53.078125 
L 44.28125 44.578125 
Q 40.484375 46.53125 36.375 47.5 
Q 32.28125 48.484375 27.875 48.484375 
Q 21.1875 48.484375 17.84375 46.4375 
Q 14.5 44.390625 14.5 40.28125 
Q 14.5 37.15625 16.890625 35.375 
Q 19.28125 33.59375 26.515625 31.984375 
L 29.59375 31.296875 
Q 39.15625 29.25 43.1875 25.515625 
Q 47.21875 21.78125 47.21875 15.09375 
Q 47.21875 7.46875 41.1875 3.015625 
Q 35.15625 -1.421875 24.609375 -1.421875 
Q 20.21875 -1.421875 15.453125 -0.5625 
Q 10.6875 0.296875 5.421875 2 
L 5.421875 11.28125 
Q 10.40625 8.6875 15.234375 7.390625 
Q 20.0625 6.109375 24.8125 6.109375 
Q 31.15625 6.109375 34.5625 8.28125 
Q 37.984375 10.453125 37.984375 14.40625 
Q 37.984375 18.0625 35.515625 20.015625 
Q 33.0625 21.96875 24.703125 23.78125 
L 21.578125 24.515625 
Q 13.234375 26.265625 9.515625 29.90625 
Q 5.8125 33.546875 5.8125 39.890625 
Q 5.8125 47.609375 11.28125 51.796875 
Q 16.75 56 26.8125 56 
Q 31.78125 56 36.171875 55.265625 
Q 40.578125 54.546875 44.28125 53.078125 
z
" id="DejaVuSans-73"/>
      <path d="M 56.203125 29.59375 
L 56.203125 25.203125 
L 14.890625 25.203125 
Q 15.484375 15.921875 20.484375 11.0625 
Q 25.484375 6.203125 34.421875 6.203125 
Q 39.59375 6.203125 44.453125 7.46875 
Q 49.3125 8.734375 54.109375 11.28125 
L 54.109375 2.78125 
Q 49.265625 0.734375 44.1875 -0.34375 
Q 39.109375 -1.421875 33.890625 -1.421875 
Q 20.796875 -1.421875 13.15625 6.1875 
Q 5.515625 13.8125 5.515625 26.8125 
Q 5.515625 40.234375 12.765625 48.109375 
Q 20.015625 56 32.328125 56 
Q 43.359375 56 49.78125 48.890625 
Q 56.203125 41.796875 56.203125 29.59375 
z
M 47.21875 32.234375 
Q 47.125 39.59375 43.09375 43.984375 
Q 39.0625 48.390625 32.421875 48.390625 
Q 24.90625 48.390625 20.390625 44.140625 
Q 15.875 39.890625 15.1875 32.171875 
z
" id="DejaVuSans-65"/>
     </defs>
     <g transform="translate(280.271094 412.756563)scale(0.1 -0.1)">
      <use xlink:href="#DejaVuSans-50"/>
      <use x="60.302734" xlink:href="#DejaVuSans-68"/>
      <use x="123.681641" xlink:href="#DejaVuSans-61"/>
      <use x="184.960938" xlink:href="#DejaVuSans-73"/>
      <use x="237.060547" xlink:href="#DejaVuSans-65"/>
     </g>
    </g>
   </g>
   <g id="matplotlib.axis_2">
    <g id="ytick_1">
     <g id="line2d_8">
      <defs>
       <path d="M 0 0 
L -3.5 0 
" id="mf6dffb66a7" style="stroke:#000000;stroke-width:0.8;"/>
      </defs>
      <g>
       <use style="stroke:#000000;stroke-width:0.8;" x="72" xlink:href="#mf6dffb66a7" y="333.075673"/>
      </g>
     </g>
     <g id="text_9">
      <!-- 0.6 -->
      <g transform="translate(49.096875 336.874891)scale(0.1 -0.1)">
       <use xlink:href="#DejaVuSans-30"/>
       <use x="63.623047" xlink:href="#DejaVuSans-2e"/>
       <use x="95.410156" xlink:href="#DejaVuSans-36"/>
      </g>
     </g>
    </g>
    <g id="ytick_2">
     <g id="line2d_9">
      <g>
       <use style="stroke:#000000;stroke-width:0.8;" x="72" xlink:href="#mf6dffb66a7" y="267.463787"/>
      </g>
     </g>
     <g id="text_10">
      <!-- 0.7 -->
      <defs>
       <path d="M 8.203125 72.90625 
L 55.078125 72.90625 
L 55.078125 68.703125 
L 28.609375 0 
L 18.3125 0 
L 43.21875 64.59375 
L 8.203125 64.59375 
z
" id="DejaVuSans-37"/>
      </defs>
      <g transform="translate(49.096875 271.263006)scale(0.1 -0.1)">
       <use xlink:href="#DejaVuSans-30"/>
       <use x="63.623047" xlink:href="#DejaVuSans-2e"/>
       <use x="95.410156" xlink:href="#DejaVuSans-37"/>
      </g>
     </g>
    </g>
    <g id="ytick_3">
     <g id="line2d_10">
      <g>
       <use style="stroke:#000000;stroke-width:0.8;" x="72" xlink:href="#mf6dffb66a7" y="201.851902"/>
      </g>
     </g>
     <g id="text_11">
      <!-- 0.8 -->
      <defs>
       <path d="M 31.78125 34.625 
Q 24.75 34.625 20.71875 30.859375 
Q 16.703125 27.09375 16.703125 20.515625 
Q 16.703125 13.921875 20.71875 10.15625 
Q 24.75 6.390625 31.78125 6.390625 
Q 38.8125 6.390625 42.859375 10.171875 
Q 46.921875 13.96875 46.921875 20.515625 
Q 46.921875 27.09375 42.890625 30.859375 
Q 38.875 34.625 31.78125 34.625 
z
M 21.921875 38.8125 
Q 15.578125 40.375 12.03125 44.71875 
Q 8.5 49.078125 8.5 55.328125 
Q 8.5 64.0625 14.71875 69.140625 
Q 20.953125 74.21875 31.78125 74.21875 
Q 42.671875 74.21875 48.875 69.140625 
Q 55.078125 64.0625 55.078125 55.328125 
Q 55.078125 49.078125 51.53125 44.71875 
Q 48 40.375 41.703125 38.8125 
Q 48.828125 37.15625 52.796875 32.3125 
Q 56.78125 27.484375 56.78125 20.515625 
Q 56.78125 9.90625 50.3125 4.234375 
Q 43.84375 -1.421875 31.78125 -1.421875 
Q 19.734375 -1.421875 13.25 4.234375 
Q 6.78125 9.90625 6.78125 20.515625 
Q 6.78125 27.484375 10.78125 32.3125 
Q 14.796875 37.15625 21.921875 38.8125 
z
M 18.3125 54.390625 
Q 18.3125 48.734375 21.84375 45.5625 
Q 25.390625 42.390625 31.78125 42.390625 
Q 38.140625 42.390625 41.71875 45.5625 
Q 45.3125 48.734375 45.3125 54.390625 
Q 45.3125 60.0625 41.71875 63.234375 
Q 38.140625 66.40625 31.78125 66.40625 
Q 25.390625 66.40625 21.84375 63.234375 
Q 18.3125 60.0625 18.3125 54.390625 
z
" id="DejaVuSans-38"/>
      </defs>
      <g transform="translate(49.096875 205.651121)scale(0.1 -0.1)">
       <use xlink:href="#DejaVuSans-30"/>
       <use x="63.623047" xlink:href="#DejaVuSans-2e"/>
       <use x="95.410156" xlink:href="#DejaVuSans-38"/>
      </g>
     </g>
    </g>
    <g id="ytick_4">
     <g id="line2d_11">
      <g>
       <use style="stroke:#000000;stroke-width:0.8;" x="72" xlink:href="#mf6dffb66a7" y="136.240017"/>
      </g>
     </g>
     <g id="text_12">
      <!-- 0.9 -->
      <defs>
       <path d="M 10.984375 1.515625 
L 10.984375 10.5 
Q 14.703125 8.734375 18.5 7.8125 
Q 22.3125 6.890625 25.984375 6.890625 
Q 35.75 6.890625 40.890625 13.453125 
Q 46.046875 20.015625 46.78125 33.40625 
Q 43.953125 29.203125 39.59375 26.953125 
Q 35.25 24.703125 29.984375 24.703125 
Q 19.046875 24.703125 12.671875 31.3125 
Q 6.296875 37.9375 6.296875 49.421875 
Q 6.296875 60.640625 12.9375 67.421875 
Q 19.578125 74.21875 30.609375 74.21875 
Q 43.265625 74.21875 49.921875 64.515625 
Q 56.59375 54.828125 56.59375 36.375 
Q 56.59375 19.140625 48.40625 8.859375 
Q 40.234375 -1.421875 26.421875 -1.421875 
Q 22.703125 -1.421875 18.890625 -0.6875 
Q 15.09375 0.046875 10.984375 1.515625 
z
M 30.609375 32.421875 
Q 37.25 32.421875 41.125 36.953125 
Q 45.015625 41.5 45.015625 49.421875 
Q 45.015625 57.28125 41.125 61.84375 
Q 37.25 66.40625 30.609375 66.40625 
Q 23.96875 66.40625 20.09375 61.84375 
Q 16.21875 57.28125 16.21875 49.421875 
Q 16.21875 41.5 20.09375 36.953125 
Q 23.96875 32.421875 30.609375 32.421875 
z
" id="DejaVuSans-39"/>
      </defs>
      <g transform="translate(49.096875 140.039235)scale(0.1 -0.1)">
       <use xlink:href="#DejaVuSans-30"/>
       <use x="63.623047" xlink:href="#DejaVuSans-2e"/>
       <use x="95.410156" xlink:href="#DejaVuSans-39"/>
      </g>
     </g>
    </g>
    <g id="ytick_5">
     <g id="line2d_12">
      <g>
       <use style="stroke:#000000;stroke-width:0.8;" x="72" xlink:href="#mf6dffb66a7" y="70.628131"/>
      </g>
     </g>
     <g id="text_13">
      <!-- 1.0 -->
      <defs>
       <path d="M 12.40625 8.296875 
L 28.515625 8.296875 
L 28.515625 63.921875 
L 10.984375 60.40625 
L 10.984375 69.390625 
L 28.421875 72.90625 
L 38.28125 72.90625 
L 38.28125 8.296875 
L 54.390625 8.296875 
L 54.390625 0 
L 12.40625 0 
z
" id="DejaVuSans-31"/>
      </defs>
      <g transform="translate(49.096875 74.42735)scale(0.1 -0.1)">
       <use xlink:href="#DejaVuSans-31"/>
       <use x="63.623047" xlink:href="#DejaVuSans-2e"/>
       <use x="95.410156" xlink:href="#DejaVuSans-30"/>
      </g>
     </g>
    </g>
    <g id="text_14">
     <!-- Flux -->
     <defs>
      <path d="M 9.8125 72.90625 
L 51.703125 72.90625 
L 51.703125 64.59375 
L 19.671875 64.59375 
L 19.671875 43.109375 
L 48.578125 43.109375 
L 48.578125 34.8125 
L 19.671875 34.8125 
L 19.671875 0 
L 9.8125 0 
z
" id="DejaVuSans-46"/>
      <path d="M 9.421875 75.984375 
L 18.40625 75.984375 
L 18.40625 0 
L 9.421875 0 
z
" id="DejaVuSans-6c"/>
      <path d="M 8.5 21.578125 
L 8.5 54.6875 
L 17.484375 54.6875 
L 17.484375 21.921875 
Q 17.484375 14.15625 20.5 10.265625 
Q 23.53125 6.390625 29.59375 6.390625 
Q 36.859375 6.390625 41.078125 11.03125 
Q 45.3125 15.671875 45.3125 23.6875 
L 45.3125 54.6875 
L 54.296875 54.6875 
L 54.296875 0 
L 45.3125 0 
L 45.3125 8.40625 
Q 42.046875 3.421875 37.71875 1 
Q 33.40625 -1.421875 27.6875 -1.421875 
Q 18.265625 -1.421875 13.375 4.4375 
Q 8.5 10.296875 8.5 21.578125 
z
M 31.109375 56 
z
" id="DejaVuSans-75"/>
      <path d="M 54.890625 54.6875 
L 35.109375 28.078125 
L 55.90625 0 
L 45.3125 0 
L 29.390625 21.484375 
L 13.484375 0 
L 2.875 0 
L 24.125 28.609375 
L 4.6875 54.6875 
L 15.28125 54.6875 
L 29.78125 35.203125 
L 44.28125 54.6875 
z
" id="DejaVuSans-78"/>
     </defs>
     <g transform="translate(43.017187 228.552969)rotate(-90)scale(0.1 -0.1)">
      <use xlink:href="#DejaVuSans-46"/>
      <use x="57.519531" xlink:href="#DejaVuSans-6c"/>
      <use x="85.302734" xlink:href="#DejaVuSans-75"/>
      <use x="148.681641" xlink:href="#DejaVuSans-78"/>
     </g>
    </g>
   </g>
   <g id="line2d_13">
    <path clip-path="url(#pfa4b4e2de0)" d="M 94.450907 174.685657 
L 101.142543 176.088957 
L 107.834179 177.96832 
L 114.525816 192.461966 
L 121.217452 199.340162 
L 127.909089 199.512791 
L 134.600725 199.340162 
L 141.292362 192.461966 
L 147.983998 177.96832 
L 154.675635 176.088957 
L 161.367271 174.685657 
L 168.058907 173.06656 
L 174.750544 171.382701 
L 181.44218 169.639531 
L 188.133817 167.970211 
L 194.825453 166.582219 
L 201.51709 165.40341 
L 208.208726 164.74038 
L 214.900363 164.611456 
L 221.591999 165.057995 
L 228.283636 166.139778 
L 234.975272 167.611519 
L 241.666908 169.568285 
L 248.358545 171.795538 
L 255.050181 174.126193 
L 261.741818 176.486196 
L 268.433454 178.651368 
L 275.125091 182.667406 
L 281.816727 222.576818 
L 288.508364 255.339019 
L 295.2 259.988441 
L 301.891636 255.339019 
L 308.583273 222.576818 
L 315.274909 182.667406 
L 321.966546 178.651368 
L 328.658182 176.486196 
L 335.349819 174.126193 
L 342.041455 171.795538 
L 348.733092 169.568285 
L 355.424728 167.611519 
L 362.116364 166.139778 
L 368.808001 165.057995 
L 375.499637 164.611456 
L 382.191274 164.74038 
L 388.88291 165.40341 
L 395.574547 166.582219 
L 402.266183 167.970211 
L 408.95782 169.639531 
L 415.649456 171.382701 
L 422.341093 173.06656 
L 429.032729 174.685657 
L 435.724365 176.088957 
L 442.416002 177.96832 
L 449.107638 192.461966 
L 455.799275 199.340162 
L 462.490911 199.512791 
L 469.182548 199.340162 
L 475.874184 192.461966 
L 482.565821 177.96832 
L 489.257457 176.088957 
L 495.949093 174.685657 
" style="fill:none;stroke:#008000;stroke-linecap:square;stroke-width:1.5;"/>
   </g>
   <g id="line2d_14">
    <path clip-path="url(#pfa4b4e2de0)" d="M 94.450907 84.554562 
L 101.142543 86.441137 
L 107.834179 88.510344 
L 114.525816 100.470987 
L 121.217452 105.962129 
L 127.909089 106.200186 
L 134.600725 105.962129 
L 141.292362 100.470987 
L 147.983998 88.510344 
L 154.675635 86.441137 
L 161.367271 84.554562 
L 168.058907 82.376446 
L 174.750544 80.09433 
L 181.44218 77.730517 
L 188.133817 75.466307 
L 194.825453 73.529697 
L 201.51709 71.901768 
L 208.208726 70.915907 
L 214.900363 70.628131 
L 221.591999 71.104282 
L 228.283636 72.412392 
L 234.975272 74.316931 
L 241.666908 76.875613 
L 248.358545 79.852299 
L 255.050181 83.015165 
L 261.741818 86.237512 
L 268.433454 89.219218 
L 275.125091 94.071283 
L 281.816727 140.441492 
L 288.508364 182.063694 
L 295.2 188.92659 
L 301.891636 182.063694 
L 308.583273 140.441492 
L 315.274909 94.071283 
L 321.966546 89.219218 
L 328.658182 86.237512 
L 335.349819 83.015165 
L 342.041455 79.852299 
L 348.733092 76.875613 
L 355.424728 74.316931 
L 362.116364 72.412392 
L 368.808001 71.104282 
L 375.499637 70.628131 
L 382.191274 70.915907 
L 388.88291 71.901768 
L 395.574547 73.529697 
L 402.266183 75.466307 
L 408.95782 77.730517 
L 415.649456 80.09433 
L 422.341093 82.376446 
L 429.032729 84.554562 
L 435.724365 86.441137 
L 442.416002 88.510344 
L 449.107638 100.470987 
L 455.799275 105.962129 
L 462.490911 106.200186 
L 469.182548 105.962129 
L 475.874184 100.470987 
L 482.565821 88.510344 
L 489.257457 86.441137 
L 495.949093 84.554562 
" style="fill:none;stroke:#0000ff;stroke-linecap:square;stroke-width:1.5;"/>
   </g>
   <g id="line2d_15">
    <path clip-path="url(#pfa4b4e2de0)" d="M 94.450907 303.518209 
L 101.142543 304.508585 
L 107.834179 306.025603 
L 114.525816 319.15437 
L 121.217452 325.507321 
L 127.909089 325.626078 
L 134.600725 325.507321 
L 141.292362 319.15437 
L 147.983998 306.025603 
L 154.675635 304.508585 
L 161.367271 303.518209 
L 168.058907 302.377757 
L 174.750544 301.198807 
L 181.44218 299.980563 
L 188.133817 298.814148 
L 194.825453 297.867959 
L 201.51709 297.057175 
L 208.208726 296.630207 
L 214.900363 296.585723 
L 221.591999 296.947713 
L 228.283636 297.762933 
L 234.975272 298.818408 
L 241.666908 300.211517 
L 248.358545 301.768673 
L 255.050181 303.377805 
L 261.741818 304.998183 
L 268.433454 306.474298 
L 275.125091 309.502821 
L 281.816727 340.1743 
L 288.508364 363.583383 
L 295.2 366.419621 
L 301.891636 363.583383 
L 308.583273 340.1743 
L 315.274909 309.502821 
L 321.966546 306.474298 
L 328.658182 304.998183 
L 335.349819 303.377805 
L 342.041455 301.768673 
L 348.733092 300.211517 
L 355.424728 298.818408 
L 362.116364 297.762933 
L 368.808001 296.947713 
L 375.499637 296.585723 
L 382.191274 296.630207 
L 388.88291 297.057175 
L 395.574547 297.867959 
L 402.266183 298.814148 
L 408.95782 299.980563 
L 415.649456 301.198807 
L 422.341093 302.377757 
L 429.032729 303.518209 
L 435.724365 304.508585 
L 442.416002 306.025603 
L 449.107638 319.15437 
L 455.799275 325.507321 
L 462.490911 325.626078 
L 469.182548 325.507321 
L 475.874184 319.15437 
L 482.565821 306.025603 
L 489.257457 304.508585 
L 495.949093 303.518209 
" style="fill:none;stroke:#ff0000;stroke-linecap:square;stroke-width:1.5;"/>
   </g>
   <g id="patch_3">
    <path d="M 72 384.48 
L 72 51.84 
" style="fill:none;stroke:#000000;stroke-linecap:square;stroke-linejoin:miter;stroke-width:0.8;"/>
   </g>
   <g id="patch_4">
    <path d="M 518.4 384.48 
L 518.4 51.84 
" style="fill:none;stroke:#000000;stroke-linecap:square;stroke-linejoin:miter;stroke-width:0.8;"/>
   </g>
   <g id="patch_5">
    <path d="M 72 384.48 
L 518.4 384.48 
" style="fill:none;stroke:#000000;stroke-linecap:square;stroke-linejoin:miter;stroke-width:0.8;"/>
   </g>
   <g id="patch_6">
    <path d="M 72 51.84 
L 518.4 51.84 
" style="fill:none;stroke:#000000;stroke-linecap:square;stroke-linejoin:miter;stroke-width:0.8;"/>
   </g>
   <g id="legend_1">
    <g id="patch_7">
     <path d="M 371.31875 263.694375 
L 511.4 263.694375 
Q 513.4 263.694375 513.4 261.694375 
L 513.4 174.625625 
Q 513.4 172.625625 511.4 172.625625 
L 371.31875 172.625625 
Q 369.31875 172.625625 369.31875 174.625625 
L 369.31875 261.694375 
Q 369.31875 263.694375 371.31875 263.694375 
z
" style="fill:#ffffff;opacity:0.8;stroke:#cccccc;stroke-linejoin:miter;"/>
    </g>
    <g id="line2d_16">
     <path d="M 373.31875 180.724063 
L 393.31875 180.724063 
" style="fill:none;stroke:#008000;stroke-linecap:square;stroke-width:1.5;"/>
    </g>
    <g id="line2d_17"/>
    <g id="text_15">
     <!-- fit.Generic.Bessell.V -->
     <defs>
      <path d="M 37.109375 75.984375 
L 37.109375 68.5 
L 28.515625 68.5 
Q 23.6875 68.5 21.796875 66.546875 
Q 19.921875 64.59375 19.921875 59.515625 
L 19.921875 54.6875 
L 34.71875 54.6875 
L 34.71875 47.703125 
L 19.921875 47.703125 
L 19.921875 0 
L 10.890625 0 
L 10.890625 47.703125 
L 2.296875 47.703125 
L 2.296875 54.6875 
L 10.890625 54.6875 
L 10.890625 58.5 
Q 10.890625 67.625 15.140625 71.796875 
Q 19.390625 75.984375 28.609375 75.984375 
z
" id="DejaVuSans-66"/>
      <path d="M 9.421875 54.6875 
L 18.40625 54.6875 
L 18.40625 0 
L 9.421875 0 
z
M 9.421875 75.984375 
L 18.40625 75.984375 
L 18.40625 64.59375 
L 9.421875 64.59375 
z
" id="DejaVuSans-69"/>
      <path d="M 18.3125 70.21875 
L 18.3125 54.6875 
L 36.8125 54.6875 
L 36.8125 47.703125 
L 18.3125 47.703125 
L 18.3125 18.015625 
Q 18.3125 11.328125 20.140625 9.421875 
Q 21.96875 7.515625 27.59375 7.515625 
L 36.8125 7.515625 
L 36.8125 0 
L 27.59375 0 
Q 17.1875 0 13.234375 3.875 
Q 9.28125 7.765625 9.28125 18.015625 
L 9.28125 47.703125 
L 2.6875 47.703125 
L 2.6875 54.6875 
L 9.28125 54.6875 
L 9.28125 70.21875 
z
" id="DejaVuSans-74"/>
      <path d="M 59.515625 10.40625 
L 59.515625 29.984375 
L 43.40625 29.984375 
L 43.40625 38.09375 
L 69.28125 38.09375 
L 69.28125 6.78125 
Q 63.578125 2.734375 56.6875 0.65625 
Q 49.8125 -1.421875 42 -1.421875 
Q 24.90625 -1.421875 15.25 8.5625 
Q 5.609375 18.5625 5.609375 36.375 
Q 5.609375 54.25 15.25 64.234375 
Q 24.90625 74.21875 42 74.21875 
Q 49.125 74.21875 55.546875 72.453125 
Q 61.96875 70.703125 67.390625 67.28125 
L 67.390625 56.78125 
Q 61.921875 61.421875 55.765625 63.765625 
Q 49.609375 66.109375 42.828125 66.109375 
Q 29.4375 66.109375 22.71875 58.640625 
Q 16.015625 51.171875 16.015625 36.375 
Q 16.015625 21.625 22.71875 14.15625 
Q 29.4375 6.6875 42.828125 6.6875 
Q 48.046875 6.6875 52.140625 7.59375 
Q 56.25 8.5 59.515625 10.40625 
z
" id="DejaVuSans-47"/>
      <path d="M 54.890625 33.015625 
L 54.890625 0 
L 45.90625 0 
L 45.90625 32.71875 
Q 45.90625 40.484375 42.875 44.328125 
Q 39.84375 48.1875 33.796875 48.1875 
Q 26.515625 48.1875 22.3125 43.546875 
Q 18.109375 38.921875 18.109375 30.90625 
L 18.109375 0 
L 9.078125 0 
L 9.078125 54.6875 
L 18.109375 54.6875 
L 18.109375 46.1875 
Q 21.34375 51.125 25.703125 53.5625 
Q 30.078125 56 35.796875 56 
Q 45.21875 56 50.046875 50.171875 
Q 54.890625 44.34375 54.890625 33.015625 
z
" id="DejaVuSans-6e"/>
      <path d="M 41.109375 46.296875 
Q 39.59375 47.171875 37.8125 47.578125 
Q 36.03125 48 33.890625 48 
Q 26.265625 48 22.1875 43.046875 
Q 18.109375 38.09375 18.109375 28.8125 
L 18.109375 0 
L 9.078125 0 
L 9.078125 54.6875 
L 18.109375 54.6875 
L 18.109375 46.1875 
Q 20.953125 51.171875 25.484375 53.578125 
Q 30.03125 56 36.53125 56 
Q 37.453125 56 38.578125 55.875 
Q 39.703125 55.765625 41.0625 55.515625 
z
" id="DejaVuSans-72"/>
      <path d="M 48.78125 52.59375 
L 48.78125 44.1875 
Q 44.96875 46.296875 41.140625 47.34375 
Q 37.3125 48.390625 33.40625 48.390625 
Q 24.65625 48.390625 19.8125 42.84375 
Q 14.984375 37.3125 14.984375 27.296875 
Q 14.984375 17.28125 19.8125 11.734375 
Q 24.65625 6.203125 33.40625 6.203125 
Q 37.3125 6.203125 41.140625 7.25 
Q 44.96875 8.296875 48.78125 10.40625 
L 48.78125 2.09375 
Q 45.015625 0.34375 40.984375 -0.53125 
Q 36.96875 -1.421875 32.421875 -1.421875 
Q 20.0625 -1.421875 12.78125 6.34375 
Q 5.515625 14.109375 5.515625 27.296875 
Q 5.515625 40.671875 12.859375 48.328125 
Q 20.21875 56 33.015625 56 
Q 37.15625 56 41.109375 55.140625 
Q 45.0625 54.296875 48.78125 52.59375 
z
" id="DejaVuSans-63"/>
      <path d="M 19.671875 34.8125 
L 19.671875 8.109375 
L 35.5 8.109375 
Q 43.453125 8.109375 47.28125 11.40625 
Q 51.125 14.703125 51.125 21.484375 
Q 51.125 28.328125 47.28125 31.5625 
Q 43.453125 34.8125 35.5 34.8125 
z
M 19.671875 64.796875 
L 19.671875 42.828125 
L 34.28125 42.828125 
Q 41.5 42.828125 45.03125 45.53125 
Q 48.578125 48.25 48.578125 53.8125 
Q 48.578125 59.328125 45.03125 62.0625 
Q 41.5 64.796875 34.28125 64.796875 
z
M 9.8125 72.90625 
L 35.015625 72.90625 
Q 46.296875 72.90625 52.390625 68.21875 
Q 58.5 63.53125 58.5 54.890625 
Q 58.5 48.1875 55.375 44.234375 
Q 52.25 40.28125 46.1875 39.3125 
Q 53.46875 37.75 57.5 32.78125 
Q 61.53125 27.828125 61.53125 20.40625 
Q 61.53125 10.640625 54.890625 5.3125 
Q 48.25 0 35.984375 0 
L 9.8125 0 
z
" id="DejaVuSans-42"/>
      <path d="M 28.609375 0 
L 0.78125 72.90625 
L 11.078125 72.90625 
L 34.1875 11.53125 
L 57.328125 72.90625 
L 67.578125 72.90625 
L 39.796875 0 
z
" id="DejaVuSans-56"/>
     </defs>
     <g transform="translate(401.31875 184.224063)scale(0.1 -0.1)">
      <use xlink:href="#DejaVuSans-66"/>
      <use x="35.205078" xlink:href="#DejaVuSans-69"/>
      <use x="62.988281" xlink:href="#DejaVuSans-74"/>
      <use x="102.197266" xlink:href="#DejaVuSans-2e"/>
      <use x="133.984375" xlink:href="#DejaVuSans-47"/>
      <use x="211.474609" xlink:href="#DejaVuSans-65"/>
      <use x="272.998047" xlink:href="#DejaVuSans-6e"/>
      <use x="336.376953" xlink:href="#DejaVuSans-65"/>
      <use x="397.900391" xlink:href="#DejaVuSans-72"/>
      <use x="439.013672" xlink:href="#DejaVuSans-69"/>
      <use x="466.796875" xlink:href="#DejaVuSans-63"/>
      <use x="521.777344" xlink:href="#DejaVuSans-2e"/>
      <use x="553.564453" xlink:href="#DejaVuSans-42"/>
      <use x="622.167969" xlink:href="#DejaVuSans-65"/>
      <use x="683.691406" xlink:href="#DejaVuSans-73"/>
      <use x="735.791016" xlink:href="#DejaVuSans-73"/>
      <use x="787.890625" xlink:href="#DejaVuSans-65"/>
      <use x="849.414062" xlink:href="#DejaVuSans-6c"/>
      <use x="877.197266" xlink:href="#DejaVuSans-6c"/>
      <use x="904.980469" xlink:href="#DejaVuSans-2e"/>
      <use x="936.767578" xlink:href="#DejaVuSans-56"/>
     </g>
    </g>
    <g id="line2d_18">
     <path d="M 373.31875 195.402187 
L 393.31875 195.402187 
" style="fill:none;stroke:#0000ff;stroke-linecap:square;stroke-width:1.5;"/>
    </g>
    <g id="line2d_19"/>
    <g id="text_16">
     <!-- fit.Generic.Bessell.B -->
     <g transform="translate(401.31875 198.902187)scale(0.1 -0.1)">
      <use xlink:href="#DejaVuSans-66"/>
      <use x="35.205078" xlink:href="#DejaVuSans-69"/>
      <use x="62.988281" xlink:href="#DejaVuSans-74"/>
      <use x="102.197266" xlink:href="#DejaVuSans-2e"/>
      <use x="133.984375" xlink:href="#DejaVuSans-47"/>
      <use x="211.474609" xlink:href="#DejaVuSans-65"/>
      <use x="272.998047" xlink:href="#DejaVuSans-6e"/>
      <use x="336.376953" xlink:href="#DejaVuSans-65"/>
      <use x="397.900391" xlink:href="#DejaVuSans-72"/>
      <use x="439.013672" xlink:href="#DejaVuSans-69"/>
      <use x="466.796875" xlink:href="#DejaVuSans-63"/>
      <use x="521.777344" xlink:href="#DejaVuSans-2e"/>
      <use x="553.564453" xlink:href="#DejaVuSans-42"/>
      <use x="622.167969" xlink:href="#DejaVuSans-65"/>
      <use x="683.691406" xlink:href="#DejaVuSans-73"/>
      <use x="735.791016" xlink:href="#DejaVuSans-73"/>
      <use x="787.890625" xlink:href="#DejaVuSans-65"/>
      <use x="849.414062" xlink:href="#DejaVuSans-6c"/>
      <use x="877.197266" xlink:href="#DejaVuSans-6c"/>
      <use x="904.980469" xlink:href="#DejaVuSans-2e"/>
      <use x="936.767578" xlink:href="#DejaVuSans-42"/>
     </g>
    </g>
    <g id="line2d_20">
     <path d="M 373.31875 210.080312 
L 393.31875 210.080312 
" style="fill:none;stroke:#ff0000;stroke-linecap:square;stroke-width:1.5;"/>
    </g>
    <g id="line2d_21"/>
    <g id="text_17">
     <!-- fit.Generic.Bessell.R -->
     <defs>
      <path d="M 44.390625 34.1875 
Q 47.5625 33.109375 50.5625 29.59375 
Q 53.5625 26.078125 56.59375 19.921875 
L 66.609375 0 
L 56 0 
L 46.6875 18.703125 
Q 43.0625 26.03125 39.671875 28.421875 
Q 36.28125 30.8125 30.421875 30.8125 
L 19.671875 30.8125 
L 19.671875 0 
L 9.8125 0 
L 9.8125 72.90625 
L 32.078125 72.90625 
Q 44.578125 72.90625 50.734375 67.671875 
Q 56.890625 62.453125 56.890625 51.90625 
Q 56.890625 45.015625 53.6875 40.46875 
Q 50.484375 35.9375 44.390625 34.1875 
z
M 19.671875 64.796875 
L 19.671875 38.921875 
L 32.078125 38.921875 
Q 39.203125 38.921875 42.84375 42.21875 
Q 46.484375 45.515625 46.484375 51.90625 
Q 46.484375 58.296875 42.84375 61.546875 
Q 39.203125 64.796875 32.078125 64.796875 
z
" id="DejaVuSans-52"/>
     </defs>
     <g transform="translate(401.31875 213.580312)scale(0.1 -0.1)">
      <use xlink:href="#DejaVuSans-66"/>
      <use x="35.205078" xlink:href="#DejaVuSans-69"/>
      <use x="62.988281" xlink:href="#DejaVuSans-74"/>
      <use x="102.197266" xlink:href="#DejaVuSans-2e"/>
      <use x="133.984375" xlink:href="#DejaVuSans-47"/>
      <use x="211.474609" xlink:href="#DejaVuSans-65"/>
      <use x="272.998047" xlink:href="#DejaVuSans-6e"/>
      <use x="336.376953" xlink:href="#DejaVuSans-65"/>
      <use x="397.900391" xlink:href="#DejaVuSans-72"/>
      <use x="439.013672" xlink:href="#DejaVuSans-69"/>
      <use x="466.796875" xlink:href="#DejaVuSans-63"/>
      <use x="521.777344" xlink:href="#DejaVuSans-2e"/>
      <use x="553.564453" xlink:href="#DejaVuSans-42"/>
      <use x="622.167969" xlink:href="#DejaVuSans-65"/>
      <use x="683.691406" xlink:href="#DejaVuSans-73"/>
      <use x="735.791016" xlink:href="#DejaVuSans-73"/>
      <use x="787.890625" xlink:href="#DejaVuSans-65"/>
      <use x="849.414062" xlink:href="#DejaVuSans-6c"/>
      <use x="877.197266" xlink:href="#DejaVuSans-6c"/>
      <use x="904.980469" xlink:href="#DejaVuSans-2e"/>
      <use x="936.767578" xlink:href="#DejaVuSans-52"/>
     </g>
    </g>
    <g id="PathCollection_4">
     <g>
      <use style="fill:#008000;stroke:#008000;" x="383.31875" xlink:href="#m9ca5fe1e62" y="225.633438"/>
     </g>
    </g>
    <g id="text_18">
     <!-- obs.Generic.Bessell.V -->
     <defs>
      <path d="M 30.609375 48.390625 
Q 23.390625 48.390625 19.1875 42.75 
Q 14.984375 37.109375 14.984375 27.296875 
Q 14.984375 17.484375 19.15625 11.84375 
Q 23.34375 6.203125 30.609375 6.203125 
Q 37.796875 6.203125 41.984375 11.859375 
Q 46.1875 17.53125 46.1875 27.296875 
Q 46.1875 37.015625 41.984375 42.703125 
Q 37.796875 48.390625 30.609375 48.390625 
z
M 30.609375 56 
Q 42.328125 56 49.015625 48.375 
Q 55.71875 40.765625 55.71875 27.296875 
Q 55.71875 13.875 49.015625 6.21875 
Q 42.328125 -1.421875 30.609375 -1.421875 
Q 18.84375 -1.421875 12.171875 6.21875 
Q 5.515625 13.875 5.515625 27.296875 
Q 5.515625 40.765625 12.171875 48.375 
Q 18.84375 56 30.609375 56 
z
" id="DejaVuSans-6f"/>
      <path d="M 48.6875 27.296875 
Q 48.6875 37.203125 44.609375 42.84375 
Q 40.53125 48.484375 33.40625 48.484375 
Q 26.265625 48.484375 22.1875 42.84375 
Q 18.109375 37.203125 18.109375 27.296875 
Q 18.109375 17.390625 22.1875 11.75 
Q 26.265625 6.109375 33.40625 6.109375 
Q 40.53125 6.109375 44.609375 11.75 
Q 48.6875 17.390625 48.6875 27.296875 
z
M 18.109375 46.390625 
Q 20.953125 51.265625 25.265625 53.625 
Q 29.59375 56 35.59375 56 
Q 45.5625 56 51.78125 48.09375 
Q 58.015625 40.1875 58.015625 27.296875 
Q 58.015625 14.40625 51.78125 6.484375 
Q 45.5625 -1.421875 35.59375 -1.421875 
Q 29.59375 -1.421875 25.265625 0.953125 
Q 20.953125 3.328125 18.109375 8.203125 
L 18.109375 0 
L 9.078125 0 
L 9.078125 75.984375 
L 18.109375 75.984375 
z
" id="DejaVuSans-62"/>
     </defs>
     <g transform="translate(401.31875 228.258438)scale(0.1 -0.1)">
      <use xlink:href="#DejaVuSans-6f"/>
      <use x="61.181641" xlink:href="#DejaVuSans-62"/>
      <use x="124.658203" xlink:href="#DejaVuSans-73"/>
      <use x="176.757812" xlink:href="#DejaVuSans-2e"/>
      <use x="208.544922" xlink:href="#DejaVuSans-47"/>
      <use x="286.035156" xlink:href="#DejaVuSans-65"/>
      <use x="347.558594" xlink:href="#DejaVuSans-6e"/>
      <use x="410.9375" xlink:href="#DejaVuSans-65"/>
      <use x="472.460938" xlink:href="#DejaVuSans-72"/>
      <use x="513.574219" xlink:href="#DejaVuSans-69"/>
      <use x="541.357422" xlink:href="#DejaVuSans-63"/>
      <use x="596.337891" xlink:href="#DejaVuSans-2e"/>
      <use x="628.125" xlink:href="#DejaVuSans-42"/>
      <use x="696.728516" xlink:href="#DejaVuSans-65"/>
      <use x="758.251953" xlink:href="#DejaVuSans-73"/>
      <use x="810.351562" xlink:href="#DejaVuSans-73"/>
      <use x="862.451172" xlink:href="#DejaVuSans-65"/>
      <use x="923.974609" xlink:href="#DejaVuSans-6c"/>
      <use x="951.757812" xlink:href="#DejaVuSans-6c"/>
      <use x="979.541016" xlink:href="#DejaVuSans-2e"/>
      <use x="1011.328125" xlink:href="#DejaVuSans-56"/>
     </g>
    </g>
    <g id="PathCollection_5">
     <g>
      <use style="fill:#0000ff;stroke:#0000ff;" x="383.31875" xlink:href="#m592fbb7293" y="240.311563"/>
     </g>
    </g>
    <g id="text_19">
     <!-- obs.Generic.Bessell.B -->
     <g transform="translate(401.31875 242.936563)scale(0.1 -0.1)">
      <use xlink:href="#DejaVuSans-6f"/>
      <use x="61.181641" xlink:href="#DejaVuSans-62"/>
      <use x="124.658203" xlink:href="#DejaVuSans-73"/>
      <use x="176.757812" xlink:href="#DejaVuSans-2e"/>
      <use x="208.544922" xlink:href="#DejaVuSans-47"/>
      <use x="286.035156" xlink:href="#DejaVuSans-65"/>
      <use x="347.558594" xlink:href="#DejaVuSans-6e"/>
      <use x="410.9375" xlink:href="#DejaVuSans-65"/>
      <use x="472.460938" xlink:href="#DejaVuSans-72"/>
      <use x="513.574219" xlink:href="#DejaVuSans-69"/>
      <use x="541.357422" xlink:href="#DejaVuSans-63"/>
      <use x="596.337891" xlink:href="#DejaVuSans-2e"/>
      <use x="628.125" xlink:href="#DejaVuSans-42"/>
      <use x="696.728516" xlink:href="#DejaVuSans-65"/>
      <use x="758.251953" xlink:href="#DejaVuSans-73"/>
      <use x="810.351562" xlink:href="#DejaVuSans-73"/>
      <use x="862.451172" xlink:href="#DejaVuSans-65"/>
      <use x="923.974609" xlink:href="#DejaVuSans-6c"/>
      <use x="951.757812" xlink:href="#DejaVuSans-6c"/>
      <use x="979.541016" xlink:href="#DejaVuSans-2e"/>
      <use x="1011.328125" xlink:href="#DejaVuSans-42"/>
     </g>
    </g>
    <g id="PathCollection_6">
     <g>
      <use style="fill:#ff0000;stroke:#ff0000;" x="383.31875" xlink:href="#m2bca0c06a3" y="254.989688"/>
     </g>
    </g>
    <g id="text_20">
     <!-- obs.Generic.Bessell.R -->
     <g transform="translate(401.31875 257.614688)scale(0.1 -0.1)">
      <use xlink:href="#DejaVuSans-6f"/>
      <use x="61.181641" xlink:href="#DejaVuSans-62"/>
      <use x="124.658203" xlink:href="#DejaVuSans-73"/>
      <use x="176.757812" xlink:href="#DejaVuSans-2e"/>
      <use x="208.544922" xlink:href="#DejaVuSans-47"/>
      <use x="286.035156" xlink:href="#DejaVuSans-65"/>
      <use x="347.558594" xlink:href="#DejaVuSans-6e"/>
      <use x="410.9375" xlink:href="#DejaVuSans-65"/>
      <use x="472.460938" xlink:href="#DejaVuSans-72"/>
      <use x="513.574219" xlink:href="#DejaVuSans-69"/>
      <use x="541.357422" xlink:href="#DejaVuSans-63"/>
      <use x="596.337891" xlink:href="#DejaVuSans-2e"/>
      <use x="628.125" xlink:href="#DejaVuSans-42"/>
      <use x="696.728516" xlink:href="#DejaVuSans-65"/>
      <use x="758.251953" xlink:href="#DejaVuSans-73"/>
      <use x="810.351562" xlink:href="#DejaVuSans-73"/>
      <use x="862.451172" xlink:href="#DejaVuSans-65"/>
      <use x="923.974609" xlink:href="#DejaVuSans-6c"/>
      <use x="951.757812" xlink:href="#DejaVuSans-6c"/>
      <use x="979.541016" xlink:href="#DejaVuSans-2e"/>
      <use x="1011.328125" xlink:href="#DejaVuSans-52"/>
     </g>
    </g>
   </g>
  </g>
 </g>
 <defs>
  <clipPath id="pfa4b4e2de0">
   <rect height="332.64" width="446.4" x="72" y="51.84"/>
  </clipPath>
 </defs>
</svg>
