<?xml version="1.0" encoding="utf-8" standalone="no"?>
<!DOCTYPE svg PUBLIC "-//W3C//DTD SVG 1.1//EN"
  "http://www.w3.org/Graphics/SVG/1.1/DTD/svg11.dtd">
<!-- Created with matplotlib (http://matplotlib.org/) -->
<svg height="432pt" version="1.1" viewBox="0 0 576 432" width="576pt" xmlns="http://www.w3.org/2000/svg" xmlns:xlink="http://www.w3.org/1999/xlink">
 <defs>
  <style type="text/css">
*{stroke-linecap:butt;stroke-linejoin:round;}
  </style>
 </defs>
 <g id="figure_1">
  <g id="patch_1">
   <path d="M 0 432 
L 576 432 
L 576 0 
L 0 0 
z
" style="fill:#ffffff;"/>
  </g>
  <g id="axes_1">
   <g id="patch_2">
    <path d="M 72 290.52 
L 558.72 290.52 
L 558.72 8.64 
L 72 8.64 
z
" style="fill:#ffffff;"/>
   </g>
   <g id="PathCollection_1">
    <defs>
     <path d="M 0 0.866025 
C 0.229673 0.866025 0.449969 0.774776 0.612372 0.612372 
C 0.774776 0.449969 0.866025 0.229673 0.866025 0 
C 0.866025 -0.229673 0.774776 -0.449969 0.612372 -0.612372 
C 0.449969 -0.774776 0.229673 -0.866025 0 -0.866025 
C -0.229673 -0.866025 -0.449969 -0.774776 -0.612372 -0.612372 
C -0.774776 -0.449969 -0.866025 -0.229673 -0.866025 0 
C -0.866025 0.229673 -0.774776 0.449969 -0.612372 0.612372 
C -0.449969 0.774776 -0.229673 0.866025 0 0.866025 
z
" id="m376668a394" style="stroke:#0000ff;"/>
    </defs>
    <g clip-path="url(#p5358454825)">
     <use style="fill:#0000ff;stroke:#0000ff;" x="462.850909" xlink:href="#m376668a394" y="182.641408"/>
     <use style="fill:#0000ff;stroke:#0000ff;" x="470.225455" xlink:href="#m376668a394" y="174.026787"/>
     <use style="fill:#0000ff;stroke:#0000ff;" x="477.6" xlink:href="#m376668a394" y="172.191216"/>
     <use style="fill:#0000ff;stroke:#0000ff;" x="484.974545" xlink:href="#m376668a394" y="162.766619"/>
     <use style="fill:#0000ff;stroke:#0000ff;" x="492.349091" xlink:href="#m376668a394" y="156.34219"/>
     <use style="fill:#0000ff;stroke:#0000ff;" x="130.996364" xlink:href="#m376668a394" y="150.388167"/>
     <use style="fill:#0000ff;stroke:#0000ff;" x="138.370909" xlink:href="#m376668a394" y="143.406877"/>
     <use style="fill:#0000ff;stroke:#0000ff;" x="145.745455" xlink:href="#m376668a394" y="132.118315"/>
     <use style="fill:#0000ff;stroke:#0000ff;" x="153.12" xlink:href="#m376668a394" y="124.469914"/>
     <use style="fill:#0000ff;stroke:#0000ff;" x="160.494545" xlink:href="#m376668a394" y="124.158364"/>
     <use style="fill:#0000ff;stroke:#0000ff;" x="167.869091" xlink:href="#m376668a394" y="116.843493"/>
     <use style="fill:#0000ff;stroke:#0000ff;" x="175.243636" xlink:href="#m376668a394" y="103.125577"/>
     <use style="fill:#0000ff;stroke:#0000ff;" x="182.618182" xlink:href="#m376668a394" y="104.17671"/>
     <use style="fill:#0000ff;stroke:#0000ff;" x="189.992727" xlink:href="#m376668a394" y="104.440641"/>
     <use style="fill:#0000ff;stroke:#0000ff;" x="197.367273" xlink:href="#m376668a394" y="94.730023"/>
     <use style="fill:#0000ff;stroke:#0000ff;" x="204.741818" xlink:href="#m376668a394" y="86.971685"/>
     <use style="fill:#0000ff;stroke:#0000ff;" x="212.116364" xlink:href="#m376668a394" y="86.857888"/>
     <use style="fill:#0000ff;stroke:#0000ff;" x="219.490909" xlink:href="#m376668a394" y="84.897247"/>
     <use style="fill:#0000ff;stroke:#0000ff;" x="226.865455" xlink:href="#m376668a394" y="87.857223"/>
     <use style="fill:#0000ff;stroke:#0000ff;" x="234.24" xlink:href="#m376668a394" y="88.409005"/>
     <use style="fill:#0000ff;stroke:#0000ff;" x="241.614545" xlink:href="#m376668a394" y="97.382212"/>
     <use style="fill:#0000ff;stroke:#0000ff;" x="248.989091" xlink:href="#m376668a394" y="87.684654"/>
     <use style="fill:#0000ff;stroke:#0000ff;" x="256.363636" xlink:href="#m376668a394" y="100.444783"/>
     <use style="fill:#0000ff;stroke:#0000ff;" x="263.738182" xlink:href="#m376668a394" y="97.830991"/>
     <use style="fill:#0000ff;stroke:#0000ff;" x="271.112727" xlink:href="#m376668a394" y="114.175763"/>
     <use style="fill:#0000ff;stroke:#0000ff;" x="278.487273" xlink:href="#m376668a394" y="120.207584"/>
     <use style="fill:#0000ff;stroke:#0000ff;" x="285.861818" xlink:href="#m376668a394" y="120.947399"/>
     <use style="fill:#0000ff;stroke:#0000ff;" x="293.236364" xlink:href="#m376668a394" y="127.001145"/>
     <use style="fill:#0000ff;stroke:#0000ff;" x="300.610909" xlink:href="#m376668a394" y="133.361811"/>
     <use style="fill:#0000ff;stroke:#0000ff;" x="307.985455" xlink:href="#m376668a394" y="135.874997"/>
     <use style="fill:#0000ff;stroke:#0000ff;" x="315.36" xlink:href="#m376668a394" y="150.430682"/>
     <use style="fill:#0000ff;stroke:#0000ff;" x="322.734545" xlink:href="#m376668a394" y="154.400835"/>
     <use style="fill:#0000ff;stroke:#0000ff;" x="330.109091" xlink:href="#m376668a394" y="171.684147"/>
     <use style="fill:#0000ff;stroke:#0000ff;" x="337.483636" xlink:href="#m376668a394" y="175.964787"/>
     <use style="fill:#0000ff;stroke:#0000ff;" x="344.858182" xlink:href="#m376668a394" y="184.019746"/>
     <use style="fill:#0000ff;stroke:#0000ff;" x="352.232727" xlink:href="#m376668a394" y="187.824959"/>
     <use style="fill:#0000ff;stroke:#0000ff;" x="359.607273" xlink:href="#m376668a394" y="186.637444"/>
     <use style="fill:#0000ff;stroke:#0000ff;" x="366.981818" xlink:href="#m376668a394" y="202.645496"/>
     <use style="fill:#0000ff;stroke:#0000ff;" x="374.356364" xlink:href="#m376668a394" y="201.113173"/>
     <use style="fill:#0000ff;stroke:#0000ff;" x="381.730909" xlink:href="#m376668a394" y="210.241442"/>
     <use style="fill:#0000ff;stroke:#0000ff;" x="389.105455" xlink:href="#m376668a394" y="200.756175"/>
     <use style="fill:#0000ff;stroke:#0000ff;" x="396.48" xlink:href="#m376668a394" y="204.364589"/>
     <use style="fill:#0000ff;stroke:#0000ff;" x="403.854545" xlink:href="#m376668a394" y="208.63444"/>
     <use style="fill:#0000ff;stroke:#0000ff;" x="411.229091" xlink:href="#m376668a394" y="216.203969"/>
     <use style="fill:#0000ff;stroke:#0000ff;" x="418.603636" xlink:href="#m376668a394" y="210.38917"/>
     <use style="fill:#0000ff;stroke:#0000ff;" x="425.978182" xlink:href="#m376668a394" y="210.922875"/>
     <use style="fill:#0000ff;stroke:#0000ff;" x="433.352727" xlink:href="#m376668a394" y="211.362668"/>
     <use style="fill:#0000ff;stroke:#0000ff;" x="440.727273" xlink:href="#m376668a394" y="203.320243"/>
     <use style="fill:#0000ff;stroke:#0000ff;" x="448.101818" xlink:href="#m376668a394" y="198.775898"/>
     <use style="fill:#0000ff;stroke:#0000ff;" x="455.476364" xlink:href="#m376668a394" y="190.575129"/>
     <use style="fill:#0000ff;stroke:#0000ff;" x="462.850909" xlink:href="#m376668a394" y="185.729365"/>
     <use style="fill:#0000ff;stroke:#0000ff;" x="470.225455" xlink:href="#m376668a394" y="183.927462"/>
     <use style="fill:#0000ff;stroke:#0000ff;" x="477.6" xlink:href="#m376668a394" y="170.694512"/>
     <use style="fill:#0000ff;stroke:#0000ff;" x="484.974545" xlink:href="#m376668a394" y="166.785021"/>
     <use style="fill:#0000ff;stroke:#0000ff;" x="492.349091" xlink:href="#m376668a394" y="160.859106"/>
     <use style="fill:#0000ff;stroke:#0000ff;" x="130.996364" xlink:href="#m376668a394" y="149.357163"/>
     <use style="fill:#0000ff;stroke:#0000ff;" x="138.370909" xlink:href="#m376668a394" y="138.026325"/>
     <use style="fill:#0000ff;stroke:#0000ff;" x="145.745455" xlink:href="#m376668a394" y="135.601831"/>
     <use style="fill:#0000ff;stroke:#0000ff;" x="153.12" xlink:href="#m376668a394" y="131.447521"/>
     <use style="fill:#0000ff;stroke:#0000ff;" x="160.494545" xlink:href="#m376668a394" y="125.297212"/>
     <use style="fill:#0000ff;stroke:#0000ff;" x="167.869091" xlink:href="#m376668a394" y="113.153073"/>
    </g>
   </g>
   <g id="PathCollection_2">
    <defs>
     <path d="M -0.866025 0.866025 
L 0.866025 -0.866025 
M -0.866025 -0.866025 
L 0.866025 0.866025 
" id="m973fbd6a50" style="stroke:#ff0000;stroke-width:1.5;"/>
    </defs>
    <g clip-path="url(#p5358454825)">
     <use style="fill:#ff0000;stroke:#ff0000;stroke-width:1.5;" x="462.850909" xlink:href="#m973fbd6a50" y="77.5663"/>
     <use style="fill:#ff0000;stroke:#ff0000;stroke-width:1.5;" x="470.225455" xlink:href="#m973fbd6a50" y="93.470693"/>
     <use style="fill:#ff0000;stroke:#ff0000;stroke-width:1.5;" x="477.6" xlink:href="#m973fbd6a50" y="98.155656"/>
     <use style="fill:#ff0000;stroke:#ff0000;stroke-width:1.5;" x="484.974545" xlink:href="#m973fbd6a50" y="122.079897"/>
     <use style="fill:#ff0000;stroke:#ff0000;stroke-width:1.5;" x="492.349091" xlink:href="#m973fbd6a50" y="129.044435"/>
     <use style="fill:#ff0000;stroke:#ff0000;stroke-width:1.5;" x="130.996364" xlink:href="#m973fbd6a50" y="144.274838"/>
     <use style="fill:#ff0000;stroke:#ff0000;stroke-width:1.5;" x="138.370909" xlink:href="#m973fbd6a50" y="162.894078"/>
     <use style="fill:#ff0000;stroke:#ff0000;stroke-width:1.5;" x="145.745455" xlink:href="#m973fbd6a50" y="185.545201"/>
     <use style="fill:#ff0000;stroke:#ff0000;stroke-width:1.5;" x="153.12" xlink:href="#m973fbd6a50" y="193.567132"/>
     <use style="fill:#ff0000;stroke:#ff0000;stroke-width:1.5;" x="160.494545" xlink:href="#m973fbd6a50" y="212.607571"/>
     <use style="fill:#ff0000;stroke:#ff0000;stroke-width:1.5;" x="167.869091" xlink:href="#m973fbd6a50" y="221.386136"/>
     <use style="fill:#ff0000;stroke:#ff0000;stroke-width:1.5;" x="175.243636" xlink:href="#m973fbd6a50" y="228.238404"/>
     <use style="fill:#ff0000;stroke:#ff0000;stroke-width:1.5;" x="182.618182" xlink:href="#m973fbd6a50" y="240.414017"/>
     <use style="fill:#ff0000;stroke:#ff0000;stroke-width:1.5;" x="189.992727" xlink:href="#m973fbd6a50" y="247.340027"/>
     <use style="fill:#ff0000;stroke:#ff0000;stroke-width:1.5;" x="197.367273" xlink:href="#m973fbd6a50" y="263.439187"/>
     <use style="fill:#ff0000;stroke:#ff0000;stroke-width:1.5;" x="204.741818" xlink:href="#m973fbd6a50" y="267.67575"/>
     <use style="fill:#ff0000;stroke:#ff0000;stroke-width:1.5;" x="212.116364" xlink:href="#m973fbd6a50" y="263.697502"/>
     <use style="fill:#ff0000;stroke:#ff0000;stroke-width:1.5;" x="219.490909" xlink:href="#m973fbd6a50" y="275.404308"/>
     <use style="fill:#ff0000;stroke:#ff0000;stroke-width:1.5;" x="226.865455" xlink:href="#m973fbd6a50" y="271.998954"/>
     <use style="fill:#ff0000;stroke:#ff0000;stroke-width:1.5;" x="234.24" xlink:href="#m973fbd6a50" y="272.925995"/>
     <use style="fill:#ff0000;stroke:#ff0000;stroke-width:1.5;" x="241.614545" xlink:href="#m973fbd6a50" y="271.028176"/>
     <use style="fill:#ff0000;stroke:#ff0000;stroke-width:1.5;" x="248.989091" xlink:href="#m973fbd6a50" y="258.773533"/>
     <use style="fill:#ff0000;stroke:#ff0000;stroke-width:1.5;" x="256.363636" xlink:href="#m973fbd6a50" y="249.464863"/>
     <use style="fill:#ff0000;stroke:#ff0000;stroke-width:1.5;" x="263.738182" xlink:href="#m973fbd6a50" y="245.374428"/>
     <use style="fill:#ff0000;stroke:#ff0000;stroke-width:1.5;" x="271.112727" xlink:href="#m973fbd6a50" y="229.65926"/>
     <use style="fill:#ff0000;stroke:#ff0000;stroke-width:1.5;" x="278.487273" xlink:href="#m973fbd6a50" y="219.974016"/>
     <use style="fill:#ff0000;stroke:#ff0000;stroke-width:1.5;" x="285.861818" xlink:href="#m973fbd6a50" y="208.861952"/>
     <use style="fill:#ff0000;stroke:#ff0000;stroke-width:1.5;" x="293.236364" xlink:href="#m973fbd6a50" y="198.320835"/>
     <use style="fill:#ff0000;stroke:#ff0000;stroke-width:1.5;" x="300.610909" xlink:href="#m973fbd6a50" y="178.85811"/>
     <use style="fill:#ff0000;stroke:#ff0000;stroke-width:1.5;" x="307.985455" xlink:href="#m973fbd6a50" y="162.222177"/>
     <use style="fill:#ff0000;stroke:#ff0000;stroke-width:1.5;" x="315.36" xlink:href="#m973fbd6a50" y="148.975031"/>
     <use style="fill:#ff0000;stroke:#ff0000;stroke-width:1.5;" x="322.734545" xlink:href="#m973fbd6a50" y="130.83548"/>
     <use style="fill:#ff0000;stroke:#ff0000;stroke-width:1.5;" x="330.109091" xlink:href="#m973fbd6a50" y="118.669625"/>
     <use style="fill:#ff0000;stroke:#ff0000;stroke-width:1.5;" x="337.483636" xlink:href="#m973fbd6a50" y="102.777229"/>
     <use style="fill:#ff0000;stroke:#ff0000;stroke-width:1.5;" x="344.858182" xlink:href="#m973fbd6a50" y="89.316502"/>
     <use style="fill:#ff0000;stroke:#ff0000;stroke-width:1.5;" x="352.232727" xlink:href="#m973fbd6a50" y="84.86702"/>
     <use style="fill:#ff0000;stroke:#ff0000;stroke-width:1.5;" x="359.607273" xlink:href="#m973fbd6a50" y="68.183257"/>
     <use style="fill:#ff0000;stroke:#ff0000;stroke-width:1.5;" x="366.981818" xlink:href="#m973fbd6a50" y="57.378333"/>
     <use style="fill:#ff0000;stroke:#ff0000;stroke-width:1.5;" x="374.356364" xlink:href="#m973fbd6a50" y="47.366993"/>
     <use style="fill:#ff0000;stroke:#ff0000;stroke-width:1.5;" x="381.730909" xlink:href="#m973fbd6a50" y="43.371565"/>
     <use style="fill:#ff0000;stroke:#ff0000;stroke-width:1.5;" x="389.105455" xlink:href="#m973fbd6a50" y="36.654586"/>
     <use style="fill:#ff0000;stroke:#ff0000;stroke-width:1.5;" x="396.48" xlink:href="#m973fbd6a50" y="32.489757"/>
     <use style="fill:#ff0000;stroke:#ff0000;stroke-width:1.5;" x="403.854545" xlink:href="#m973fbd6a50" y="22.213602"/>
     <use style="fill:#ff0000;stroke:#ff0000;stroke-width:1.5;" x="411.229091" xlink:href="#m973fbd6a50" y="30.016869"/>
     <use style="fill:#ff0000;stroke:#ff0000;stroke-width:1.5;" x="418.603636" xlink:href="#m973fbd6a50" y="34.963215"/>
     <use style="fill:#ff0000;stroke:#ff0000;stroke-width:1.5;" x="425.978182" xlink:href="#m973fbd6a50" y="38.034589"/>
     <use style="fill:#ff0000;stroke:#ff0000;stroke-width:1.5;" x="433.352727" xlink:href="#m973fbd6a50" y="42.358565"/>
     <use style="fill:#ff0000;stroke:#ff0000;stroke-width:1.5;" x="440.727273" xlink:href="#m973fbd6a50" y="52.039496"/>
     <use style="fill:#ff0000;stroke:#ff0000;stroke-width:1.5;" x="448.101818" xlink:href="#m973fbd6a50" y="52.697915"/>
     <use style="fill:#ff0000;stroke:#ff0000;stroke-width:1.5;" x="455.476364" xlink:href="#m973fbd6a50" y="63.182529"/>
     <use style="fill:#ff0000;stroke:#ff0000;stroke-width:1.5;" x="462.850909" xlink:href="#m973fbd6a50" y="75.458758"/>
     <use style="fill:#ff0000;stroke:#ff0000;stroke-width:1.5;" x="470.225455" xlink:href="#m973fbd6a50" y="89.871414"/>
     <use style="fill:#ff0000;stroke:#ff0000;stroke-width:1.5;" x="477.6" xlink:href="#m973fbd6a50" y="111.451946"/>
     <use style="fill:#ff0000;stroke:#ff0000;stroke-width:1.5;" x="484.974545" xlink:href="#m973fbd6a50" y="125.877009"/>
     <use style="fill:#ff0000;stroke:#ff0000;stroke-width:1.5;" x="492.349091" xlink:href="#m973fbd6a50" y="139.976237"/>
     <use style="fill:#ff0000;stroke:#ff0000;stroke-width:1.5;" x="130.996364" xlink:href="#m973fbd6a50" y="145.373524"/>
     <use style="fill:#ff0000;stroke:#ff0000;stroke-width:1.5;" x="138.370909" xlink:href="#m973fbd6a50" y="165.281289"/>
     <use style="fill:#ff0000;stroke:#ff0000;stroke-width:1.5;" x="145.745455" xlink:href="#m973fbd6a50" y="175.447081"/>
     <use style="fill:#ff0000;stroke:#ff0000;stroke-width:1.5;" x="153.12" xlink:href="#m973fbd6a50" y="195.567557"/>
     <use style="fill:#ff0000;stroke:#ff0000;stroke-width:1.5;" x="160.494545" xlink:href="#m973fbd6a50" y="206.430134"/>
     <use style="fill:#ff0000;stroke:#ff0000;stroke-width:1.5;" x="167.869091" xlink:href="#m973fbd6a50" y="224.00306"/>
    </g>
   </g>
   <g id="matplotlib.axis_1">
    <g id="xtick_1">
     <g id="line2d_1">
      <defs>
       <path d="M 0 0 
L 0 3.5 
" id="m67e7753459" style="stroke:#000000;stroke-width:0.8;"/>
      </defs>
      <g>
       <use style="stroke:#000000;stroke-width:0.8;" x="94.123636" xlink:href="#m67e7753459" y="290.52"/>
      </g>
     </g>
     <g id="text_1">
      <!-- −0.6 -->
      <defs>
       <path d="M 10.59375 35.5 
L 73.1875 35.5 
L 73.1875 27.203125 
L 10.59375 27.203125 
z
" id="DejaVuSans-2212"/>
       <path d="M 31.78125 66.40625 
Q 24.171875 66.40625 20.328125 58.90625 
Q 16.5 51.421875 16.5 36.375 
Q 16.5 21.390625 20.328125 13.890625 
Q 24.171875 6.390625 31.78125 6.390625 
Q 39.453125 6.390625 43.28125 13.890625 
Q 47.125 21.390625 47.125 36.375 
Q 47.125 51.421875 43.28125 58.90625 
Q 39.453125 66.40625 31.78125 66.40625 
z
M 31.78125 74.21875 
Q 44.046875 74.21875 50.515625 64.515625 
Q 56.984375 54.828125 56.984375 36.375 
Q 56.984375 17.96875 50.515625 8.265625 
Q 44.046875 -1.421875 31.78125 -1.421875 
Q 19.53125 -1.421875 13.0625 8.265625 
Q 6.59375 17.96875 6.59375 36.375 
Q 6.59375 54.828125 13.0625 64.515625 
Q 19.53125 74.21875 31.78125 74.21875 
z
" id="DejaVuSans-30"/>
       <path d="M 10.6875 12.40625 
L 21 12.40625 
L 21 0 
L 10.6875 0 
z
" id="DejaVuSans-2e"/>
       <path d="M 33.015625 40.375 
Q 26.375 40.375 22.484375 35.828125 
Q 18.609375 31.296875 18.609375 23.390625 
Q 18.609375 15.53125 22.484375 10.953125 
Q 26.375 6.390625 33.015625 6.390625 
Q 39.65625 6.390625 43.53125 10.953125 
Q 47.40625 15.53125 47.40625 23.390625 
Q 47.40625 31.296875 43.53125 35.828125 
Q 39.65625 40.375 33.015625 40.375 
z
M 52.59375 71.296875 
L 52.59375 62.3125 
Q 48.875 64.0625 45.09375 64.984375 
Q 41.3125 65.921875 37.59375 65.921875 
Q 27.828125 65.921875 22.671875 59.328125 
Q 17.53125 52.734375 16.796875 39.40625 
Q 19.671875 43.65625 24.015625 45.921875 
Q 28.375 48.1875 33.59375 48.1875 
Q 44.578125 48.1875 50.953125 41.515625 
Q 57.328125 34.859375 57.328125 23.390625 
Q 57.328125 12.15625 50.6875 5.359375 
Q 44.046875 -1.421875 33.015625 -1.421875 
Q 20.359375 -1.421875 13.671875 8.265625 
Q 6.984375 17.96875 6.984375 36.375 
Q 6.984375 53.65625 15.1875 63.9375 
Q 23.390625 74.21875 37.203125 74.21875 
Q 40.921875 74.21875 44.703125 73.484375 
Q 48.484375 72.75 52.59375 71.296875 
z
" id="DejaVuSans-36"/>
      </defs>
      <g transform="translate(81.98223 305.118437)scale(0.1 -0.1)">
       <use xlink:href="#DejaVuSans-2212"/>
       <use x="83.789062" xlink:href="#DejaVuSans-30"/>
       <use x="147.412109" xlink:href="#DejaVuSans-2e"/>
       <use x="179.199219" xlink:href="#DejaVuSans-36"/>
      </g>
     </g>
    </g>
    <g id="xtick_2">
     <g id="line2d_2">
      <g>
       <use style="stroke:#000000;stroke-width:0.8;" x="167.869091" xlink:href="#m67e7753459" y="290.52"/>
      </g>
     </g>
     <g id="text_2">
      <!-- −0.4 -->
      <defs>
       <path d="M 37.796875 64.3125 
L 12.890625 25.390625 
L 37.796875 25.390625 
z
M 35.203125 72.90625 
L 47.609375 72.90625 
L 47.609375 25.390625 
L 58.015625 25.390625 
L 58.015625 17.1875 
L 47.609375 17.1875 
L 47.609375 0 
L 37.796875 0 
L 37.796875 17.1875 
L 4.890625 17.1875 
L 4.890625 26.703125 
z
" id="DejaVuSans-34"/>
      </defs>
      <g transform="translate(155.727685 305.118437)scale(0.1 -0.1)">
       <use xlink:href="#DejaVuSans-2212"/>
       <use x="83.789062" xlink:href="#DejaVuSans-30"/>
       <use x="147.412109" xlink:href="#DejaVuSans-2e"/>
       <use x="179.199219" xlink:href="#DejaVuSans-34"/>
      </g>
     </g>
    </g>
    <g id="xtick_3">
     <g id="line2d_3">
      <g>
       <use style="stroke:#000000;stroke-width:0.8;" x="241.614545" xlink:href="#m67e7753459" y="290.52"/>
      </g>
     </g>
     <g id="text_3">
      <!-- −0.2 -->
      <defs>
       <path d="M 19.1875 8.296875 
L 53.609375 8.296875 
L 53.609375 0 
L 7.328125 0 
L 7.328125 8.296875 
Q 12.9375 14.109375 22.625 23.890625 
Q 32.328125 33.6875 34.8125 36.53125 
Q 39.546875 41.84375 41.421875 45.53125 
Q 43.3125 49.21875 43.3125 52.78125 
Q 43.3125 58.59375 39.234375 62.25 
Q 35.15625 65.921875 28.609375 65.921875 
Q 23.96875 65.921875 18.8125 64.3125 
Q 13.671875 62.703125 7.8125 59.421875 
L 7.8125 69.390625 
Q 13.765625 71.78125 18.9375 73 
Q 24.125 74.21875 28.421875 74.21875 
Q 39.75 74.21875 46.484375 68.546875 
Q 53.21875 62.890625 53.21875 53.421875 
Q 53.21875 48.921875 51.53125 44.890625 
Q 49.859375 40.875 45.40625 35.40625 
Q 44.1875 33.984375 37.640625 27.21875 
Q 31.109375 20.453125 19.1875 8.296875 
z
" id="DejaVuSans-32"/>
      </defs>
      <g transform="translate(229.473139 305.118437)scale(0.1 -0.1)">
       <use xlink:href="#DejaVuSans-2212"/>
       <use x="83.789062" xlink:href="#DejaVuSans-30"/>
       <use x="147.412109" xlink:href="#DejaVuSans-2e"/>
       <use x="179.199219" xlink:href="#DejaVuSans-32"/>
      </g>
     </g>
    </g>
    <g id="xtick_4">
     <g id="line2d_4">
      <g>
       <use style="stroke:#000000;stroke-width:0.8;" x="315.36" xlink:href="#m67e7753459" y="290.52"/>
      </g>
     </g>
     <g id="text_4">
      <!-- 0.0 -->
      <g transform="translate(307.408437 305.118437)scale(0.1 -0.1)">
       <use xlink:href="#DejaVuSans-30"/>
       <use x="63.623047" xlink:href="#DejaVuSans-2e"/>
       <use x="95.410156" xlink:href="#DejaVuSans-30"/>
      </g>
     </g>
    </g>
    <g id="xtick_5">
     <g id="line2d_5">
      <g>
       <use style="stroke:#000000;stroke-width:0.8;" x="389.105455" xlink:href="#m67e7753459" y="290.52"/>
      </g>
     </g>
     <g id="text_5">
      <!-- 0.2 -->
      <g transform="translate(381.153892 305.118437)scale(0.1 -0.1)">
       <use xlink:href="#DejaVuSans-30"/>
       <use x="63.623047" xlink:href="#DejaVuSans-2e"/>
       <use x="95.410156" xlink:href="#DejaVuSans-32"/>
      </g>
     </g>
    </g>
    <g id="xtick_6">
     <g id="line2d_6">
      <g>
       <use style="stroke:#000000;stroke-width:0.8;" x="462.850909" xlink:href="#m67e7753459" y="290.52"/>
      </g>
     </g>
     <g id="text_6">
      <!-- 0.4 -->
      <g transform="translate(454.899347 305.118437)scale(0.1 -0.1)">
       <use xlink:href="#DejaVuSans-30"/>
       <use x="63.623047" xlink:href="#DejaVuSans-2e"/>
       <use x="95.410156" xlink:href="#DejaVuSans-34"/>
      </g>
     </g>
    </g>
    <g id="xtick_7">
     <g id="line2d_7">
      <g>
       <use style="stroke:#000000;stroke-width:0.8;" x="536.596364" xlink:href="#m67e7753459" y="290.52"/>
      </g>
     </g>
     <g id="text_7">
      <!-- 0.6 -->
      <g transform="translate(528.644801 305.118437)scale(0.1 -0.1)">
       <use xlink:href="#DejaVuSans-30"/>
       <use x="63.623047" xlink:href="#DejaVuSans-2e"/>
       <use x="95.410156" xlink:href="#DejaVuSans-36"/>
      </g>
     </g>
    </g>
   </g>
   <g id="matplotlib.axis_2">
    <g id="ytick_1">
     <g id="line2d_8">
      <defs>
       <path d="M 0 0 
L -3.5 0 
" id="mcdf3de15ab" style="stroke:#000000;stroke-width:0.8;"/>
      </defs>
      <g>
       <use style="stroke:#000000;stroke-width:0.8;" x="72" xlink:href="#mcdf3de15ab" y="268.26381"/>
      </g>
     </g>
     <g id="text_8">
      <!-- −100 -->
      <defs>
       <path d="M 12.40625 8.296875 
L 28.515625 8.296875 
L 28.515625 63.921875 
L 10.984375 60.40625 
L 10.984375 69.390625 
L 28.421875 72.90625 
L 38.28125 72.90625 
L 38.28125 8.296875 
L 54.390625 8.296875 
L 54.390625 0 
L 12.40625 0 
z
" id="DejaVuSans-31"/>
      </defs>
      <g transform="translate(37.532812 272.063029)scale(0.1 -0.1)">
       <use xlink:href="#DejaVuSans-2212"/>
       <use x="83.789062" xlink:href="#DejaVuSans-31"/>
       <use x="147.412109" xlink:href="#DejaVuSans-30"/>
       <use x="211.035156" xlink:href="#DejaVuSans-30"/>
      </g>
     </g>
    </g>
    <g id="ytick_2">
     <g id="line2d_9">
      <g>
       <use style="stroke:#000000;stroke-width:0.8;" x="72" xlink:href="#mcdf3de15ab" y="218.876707"/>
      </g>
     </g>
     <g id="text_9">
      <!-- −50 -->
      <defs>
       <path d="M 10.796875 72.90625 
L 49.515625 72.90625 
L 49.515625 64.59375 
L 19.828125 64.59375 
L 19.828125 46.734375 
Q 21.96875 47.46875 24.109375 47.828125 
Q 26.265625 48.1875 28.421875 48.1875 
Q 40.625 48.1875 47.75 41.5 
Q 54.890625 34.8125 54.890625 23.390625 
Q 54.890625 11.625 47.5625 5.09375 
Q 40.234375 -1.421875 26.90625 -1.421875 
Q 22.3125 -1.421875 17.546875 -0.640625 
Q 12.796875 0.140625 7.71875 1.703125 
L 7.71875 11.625 
Q 12.109375 9.234375 16.796875 8.0625 
Q 21.484375 6.890625 26.703125 6.890625 
Q 35.15625 6.890625 40.078125 11.328125 
Q 45.015625 15.765625 45.015625 23.390625 
Q 45.015625 31 40.078125 35.4375 
Q 35.15625 39.890625 26.703125 39.890625 
Q 22.75 39.890625 18.8125 39.015625 
Q 14.890625 38.140625 10.796875 36.28125 
z
" id="DejaVuSans-35"/>
      </defs>
      <g transform="translate(43.895313 222.675926)scale(0.1 -0.1)">
       <use xlink:href="#DejaVuSans-2212"/>
       <use x="83.789062" xlink:href="#DejaVuSans-35"/>
       <use x="147.412109" xlink:href="#DejaVuSans-30"/>
      </g>
     </g>
    </g>
    <g id="ytick_3">
     <g id="line2d_10">
      <g>
       <use style="stroke:#000000;stroke-width:0.8;" x="72" xlink:href="#mcdf3de15ab" y="169.489605"/>
      </g>
     </g>
     <g id="text_10">
      <!-- 0 -->
      <g transform="translate(58.6375 173.288824)scale(0.1 -0.1)">
       <use xlink:href="#DejaVuSans-30"/>
      </g>
     </g>
    </g>
    <g id="ytick_4">
     <g id="line2d_11">
      <g>
       <use style="stroke:#000000;stroke-width:0.8;" x="72" xlink:href="#mcdf3de15ab" y="120.102503"/>
      </g>
     </g>
     <g id="text_11">
      <!-- 50 -->
      <g transform="translate(52.275 123.901722)scale(0.1 -0.1)">
       <use xlink:href="#DejaVuSans-35"/>
       <use x="63.623047" xlink:href="#DejaVuSans-30"/>
      </g>
     </g>
    </g>
    <g id="ytick_5">
     <g id="line2d_12">
      <g>
       <use style="stroke:#000000;stroke-width:0.8;" x="72" xlink:href="#mcdf3de15ab" y="70.715401"/>
      </g>
     </g>
     <g id="text_12">
      <!-- 100 -->
      <g transform="translate(45.9125 74.514619)scale(0.1 -0.1)">
       <use xlink:href="#DejaVuSans-31"/>
       <use x="63.623047" xlink:href="#DejaVuSans-30"/>
       <use x="127.246094" xlink:href="#DejaVuSans-30"/>
      </g>
     </g>
    </g>
    <g id="ytick_6">
     <g id="line2d_13">
      <g>
       <use style="stroke:#000000;stroke-width:0.8;" x="72" xlink:href="#mcdf3de15ab" y="21.328298"/>
      </g>
     </g>
     <g id="text_13">
      <!-- 150 -->
      <g transform="translate(45.9125 25.127517)scale(0.1 -0.1)">
       <use xlink:href="#DejaVuSans-31"/>
       <use x="63.623047" xlink:href="#DejaVuSans-35"/>
       <use x="127.246094" xlink:href="#DejaVuSans-30"/>
      </g>
     </g>
    </g>
    <g id="text_14">
     <!-- Radial velocity/[km / s] -->
     <defs>
      <path d="M 44.390625 34.1875 
Q 47.5625 33.109375 50.5625 29.59375 
Q 53.5625 26.078125 56.59375 19.921875 
L 66.609375 0 
L 56 0 
L 46.6875 18.703125 
Q 43.0625 26.03125 39.671875 28.421875 
Q 36.28125 30.8125 30.421875 30.8125 
L 19.671875 30.8125 
L 19.671875 0 
L 9.8125 0 
L 9.8125 72.90625 
L 32.078125 72.90625 
Q 44.578125 72.90625 50.734375 67.671875 
Q 56.890625 62.453125 56.890625 51.90625 
Q 56.890625 45.015625 53.6875 40.46875 
Q 50.484375 35.9375 44.390625 34.1875 
z
M 19.671875 64.796875 
L 19.671875 38.921875 
L 32.078125 38.921875 
Q 39.203125 38.921875 42.84375 42.21875 
Q 46.484375 45.515625 46.484375 51.90625 
Q 46.484375 58.296875 42.84375 61.546875 
Q 39.203125 64.796875 32.078125 64.796875 
z
" id="DejaVuSans-52"/>
      <path d="M 34.28125 27.484375 
Q 23.390625 27.484375 19.1875 25 
Q 14.984375 22.515625 14.984375 16.5 
Q 14.984375 11.71875 18.140625 8.90625 
Q 21.296875 6.109375 26.703125 6.109375 
Q 34.1875 6.109375 38.703125 11.40625 
Q 43.21875 16.703125 43.21875 25.484375 
L 43.21875 27.484375 
z
M 52.203125 31.203125 
L 52.203125 0 
L 43.21875 0 
L 43.21875 8.296875 
Q 40.140625 3.328125 35.546875 0.953125 
Q 30.953125 -1.421875 24.3125 -1.421875 
Q 15.921875 -1.421875 10.953125 3.296875 
Q 6 8.015625 6 15.921875 
Q 6 25.140625 12.171875 29.828125 
Q 18.359375 34.515625 30.609375 34.515625 
L 43.21875 34.515625 
L 43.21875 35.40625 
Q 43.21875 41.609375 39.140625 45 
Q 35.0625 48.390625 27.6875 48.390625 
Q 23 48.390625 18.546875 47.265625 
Q 14.109375 46.140625 10.015625 43.890625 
L 10.015625 52.203125 
Q 14.9375 54.109375 19.578125 55.046875 
Q 24.21875 56 28.609375 56 
Q 40.484375 56 46.34375 49.84375 
Q 52.203125 43.703125 52.203125 31.203125 
z
" id="DejaVuSans-61"/>
      <path d="M 45.40625 46.390625 
L 45.40625 75.984375 
L 54.390625 75.984375 
L 54.390625 0 
L 45.40625 0 
L 45.40625 8.203125 
Q 42.578125 3.328125 38.25 0.953125 
Q 33.9375 -1.421875 27.875 -1.421875 
Q 17.96875 -1.421875 11.734375 6.484375 
Q 5.515625 14.40625 5.515625 27.296875 
Q 5.515625 40.1875 11.734375 48.09375 
Q 17.96875 56 27.875 56 
Q 33.9375 56 38.25 53.625 
Q 42.578125 51.265625 45.40625 46.390625 
z
M 14.796875 27.296875 
Q 14.796875 17.390625 18.875 11.75 
Q 22.953125 6.109375 30.078125 6.109375 
Q 37.203125 6.109375 41.296875 11.75 
Q 45.40625 17.390625 45.40625 27.296875 
Q 45.40625 37.203125 41.296875 42.84375 
Q 37.203125 48.484375 30.078125 48.484375 
Q 22.953125 48.484375 18.875 42.84375 
Q 14.796875 37.203125 14.796875 27.296875 
z
" id="DejaVuSans-64"/>
      <path d="M 9.421875 54.6875 
L 18.40625 54.6875 
L 18.40625 0 
L 9.421875 0 
z
M 9.421875 75.984375 
L 18.40625 75.984375 
L 18.40625 64.59375 
L 9.421875 64.59375 
z
" id="DejaVuSans-69"/>
      <path d="M 9.421875 75.984375 
L 18.40625 75.984375 
L 18.40625 0 
L 9.421875 0 
z
" id="DejaVuSans-6c"/>
      <path id="DejaVuSans-20"/>
      <path d="M 2.984375 54.6875 
L 12.5 54.6875 
L 29.59375 8.796875 
L 46.6875 54.6875 
L 56.203125 54.6875 
L 35.6875 0 
L 23.484375 0 
z
" id="DejaVuSans-76"/>
      <path d="M 56.203125 29.59375 
L 56.203125 25.203125 
L 14.890625 25.203125 
Q 15.484375 15.921875 20.484375 11.0625 
Q 25.484375 6.203125 34.421875 6.203125 
Q 39.59375 6.203125 44.453125 7.46875 
Q 49.3125 8.734375 54.109375 11.28125 
L 54.109375 2.78125 
Q 49.265625 0.734375 44.1875 -0.34375 
Q 39.109375 -1.421875 33.890625 -1.421875 
Q 20.796875 -1.421875 13.15625 6.1875 
Q 5.515625 13.8125 5.515625 26.8125 
Q 5.515625 40.234375 12.765625 48.109375 
Q 20.015625 56 32.328125 56 
Q 43.359375 56 49.78125 48.890625 
Q 56.203125 41.796875 56.203125 29.59375 
z
M 47.21875 32.234375 
Q 47.125 39.59375 43.09375 43.984375 
Q 39.0625 48.390625 32.421875 48.390625 
Q 24.90625 48.390625 20.390625 44.140625 
Q 15.875 39.890625 15.1875 32.171875 
z
" id="DejaVuSans-65"/>
      <path d="M 30.609375 48.390625 
Q 23.390625 48.390625 19.1875 42.75 
Q 14.984375 37.109375 14.984375 27.296875 
Q 14.984375 17.484375 19.15625 11.84375 
Q 23.34375 6.203125 30.609375 6.203125 
Q 37.796875 6.203125 41.984375 11.859375 
Q 46.1875 17.53125 46.1875 27.296875 
Q 46.1875 37.015625 41.984375 42.703125 
Q 37.796875 48.390625 30.609375 48.390625 
z
M 30.609375 56 
Q 42.328125 56 49.015625 48.375 
Q 55.71875 40.765625 55.71875 27.296875 
Q 55.71875 13.875 49.015625 6.21875 
Q 42.328125 -1.421875 30.609375 -1.421875 
Q 18.84375 -1.421875 12.171875 6.21875 
Q 5.515625 13.875 5.515625 27.296875 
Q 5.515625 40.765625 12.171875 48.375 
Q 18.84375 56 30.609375 56 
z
" id="DejaVuSans-6f"/>
      <path d="M 48.78125 52.59375 
L 48.78125 44.1875 
Q 44.96875 46.296875 41.140625 47.34375 
Q 37.3125 48.390625 33.40625 48.390625 
Q 24.65625 48.390625 19.8125 42.84375 
Q 14.984375 37.3125 14.984375 27.296875 
Q 14.984375 17.28125 19.8125 11.734375 
Q 24.65625 6.203125 33.40625 6.203125 
Q 37.3125 6.203125 41.140625 7.25 
Q 44.96875 8.296875 48.78125 10.40625 
L 48.78125 2.09375 
Q 45.015625 0.34375 40.984375 -0.53125 
Q 36.96875 -1.421875 32.421875 -1.421875 
Q 20.0625 -1.421875 12.78125 6.34375 
Q 5.515625 14.109375 5.515625 27.296875 
Q 5.515625 40.671875 12.859375 48.328125 
Q 20.21875 56 33.015625 56 
Q 37.15625 56 41.109375 55.140625 
Q 45.0625 54.296875 48.78125 52.59375 
z
" id="DejaVuSans-63"/>
      <path d="M 18.3125 70.21875 
L 18.3125 54.6875 
L 36.8125 54.6875 
L 36.8125 47.703125 
L 18.3125 47.703125 
L 18.3125 18.015625 
Q 18.3125 11.328125 20.140625 9.421875 
Q 21.96875 7.515625 27.59375 7.515625 
L 36.8125 7.515625 
L 36.8125 0 
L 27.59375 0 
Q 17.1875 0 13.234375 3.875 
Q 9.28125 7.765625 9.28125 18.015625 
L 9.28125 47.703125 
L 2.6875 47.703125 
L 2.6875 54.6875 
L 9.28125 54.6875 
L 9.28125 70.21875 
z
" id="DejaVuSans-74"/>
      <path d="M 32.171875 -5.078125 
Q 28.375 -14.84375 24.75 -17.8125 
Q 21.140625 -20.796875 15.09375 -20.796875 
L 7.90625 -20.796875 
L 7.90625 -13.28125 
L 13.1875 -13.28125 
Q 16.890625 -13.28125 18.9375 -11.515625 
Q 21 -9.765625 23.484375 -3.21875 
L 25.09375 0.875 
L 2.984375 54.6875 
L 12.5 54.6875 
L 29.59375 11.921875 
L 46.6875 54.6875 
L 56.203125 54.6875 
z
" id="DejaVuSans-79"/>
      <path d="M 25.390625 72.90625 
L 33.6875 72.90625 
L 8.296875 -9.28125 
L 0 -9.28125 
z
" id="DejaVuSans-2f"/>
      <path d="M 8.59375 75.984375 
L 29.296875 75.984375 
L 29.296875 69 
L 17.578125 69 
L 17.578125 -6.203125 
L 29.296875 -6.203125 
L 29.296875 -13.1875 
L 8.59375 -13.1875 
z
" id="DejaVuSans-5b"/>
      <path d="M 9.078125 75.984375 
L 18.109375 75.984375 
L 18.109375 31.109375 
L 44.921875 54.6875 
L 56.390625 54.6875 
L 27.390625 29.109375 
L 57.625 0 
L 45.90625 0 
L 18.109375 26.703125 
L 18.109375 0 
L 9.078125 0 
z
" id="DejaVuSans-6b"/>
      <path d="M 52 44.1875 
Q 55.375 50.25 60.0625 53.125 
Q 64.75 56 71.09375 56 
Q 79.640625 56 84.28125 50.015625 
Q 88.921875 44.046875 88.921875 33.015625 
L 88.921875 0 
L 79.890625 0 
L 79.890625 32.71875 
Q 79.890625 40.578125 77.09375 44.375 
Q 74.3125 48.1875 68.609375 48.1875 
Q 61.625 48.1875 57.5625 43.546875 
Q 53.515625 38.921875 53.515625 30.90625 
L 53.515625 0 
L 44.484375 0 
L 44.484375 32.71875 
Q 44.484375 40.625 41.703125 44.40625 
Q 38.921875 48.1875 33.109375 48.1875 
Q 26.21875 48.1875 22.15625 43.53125 
Q 18.109375 38.875 18.109375 30.90625 
L 18.109375 0 
L 9.078125 0 
L 9.078125 54.6875 
L 18.109375 54.6875 
L 18.109375 46.1875 
Q 21.1875 51.21875 25.484375 53.609375 
Q 29.78125 56 35.6875 56 
Q 41.65625 56 45.828125 52.96875 
Q 50 49.953125 52 44.1875 
z
" id="DejaVuSans-6d"/>
      <path d="M 44.28125 53.078125 
L 44.28125 44.578125 
Q 40.484375 46.53125 36.375 47.5 
Q 32.28125 48.484375 27.875 48.484375 
Q 21.1875 48.484375 17.84375 46.4375 
Q 14.5 44.390625 14.5 40.28125 
Q 14.5 37.15625 16.890625 35.375 
Q 19.28125 33.59375 26.515625 31.984375 
L 29.59375 31.296875 
Q 39.15625 29.25 43.1875 25.515625 
Q 47.21875 21.78125 47.21875 15.09375 
Q 47.21875 7.46875 41.1875 3.015625 
Q 35.15625 -1.421875 24.609375 -1.421875 
Q 20.21875 -1.421875 15.453125 -0.5625 
Q 10.6875 0.296875 5.421875 2 
L 5.421875 11.28125 
Q 10.40625 8.6875 15.234375 7.390625 
Q 20.0625 6.109375 24.8125 6.109375 
Q 31.15625 6.109375 34.5625 8.28125 
Q 37.984375 10.453125 37.984375 14.40625 
Q 37.984375 18.0625 35.515625 20.015625 
Q 33.0625 21.96875 24.703125 23.78125 
L 21.578125 24.515625 
Q 13.234375 26.265625 9.515625 29.90625 
Q 5.8125 33.546875 5.8125 39.890625 
Q 5.8125 47.609375 11.28125 51.796875 
Q 16.75 56 26.8125 56 
Q 31.78125 56 36.171875 55.265625 
Q 40.578125 54.546875 44.28125 53.078125 
z
" id="DejaVuSans-73"/>
      <path d="M 30.421875 75.984375 
L 30.421875 -13.1875 
L 9.71875 -13.1875 
L 9.71875 -6.203125 
L 21.390625 -6.203125 
L 21.390625 69 
L 9.71875 69 
L 9.71875 75.984375 
z
" id="DejaVuSans-5d"/>
     </defs>
     <g transform="translate(31.453125 207.083125)rotate(-90)scale(0.1 -0.1)">
      <use xlink:href="#DejaVuSans-52"/>
      <use x="69.451172" xlink:href="#DejaVuSans-61"/>
      <use x="130.730469" xlink:href="#DejaVuSans-64"/>
      <use x="194.207031" xlink:href="#DejaVuSans-69"/>
      <use x="221.990234" xlink:href="#DejaVuSans-61"/>
      <use x="283.269531" xlink:href="#DejaVuSans-6c"/>
      <use x="311.052734" xlink:href="#DejaVuSans-20"/>
      <use x="342.839844" xlink:href="#DejaVuSans-76"/>
      <use x="402.019531" xlink:href="#DejaVuSans-65"/>
      <use x="463.542969" xlink:href="#DejaVuSans-6c"/>
      <use x="491.326172" xlink:href="#DejaVuSans-6f"/>
      <use x="552.507812" xlink:href="#DejaVuSans-63"/>
      <use x="607.488281" xlink:href="#DejaVuSans-69"/>
      <use x="635.271484" xlink:href="#DejaVuSans-74"/>
      <use x="674.480469" xlink:href="#DejaVuSans-79"/>
      <use x="733.660156" xlink:href="#DejaVuSans-2f"/>
      <use x="767.351562" xlink:href="#DejaVuSans-5b"/>
      <use x="806.365234" xlink:href="#DejaVuSans-6b"/>
      <use x="864.275391" xlink:href="#DejaVuSans-6d"/>
      <use x="961.6875" xlink:href="#DejaVuSans-20"/>
      <use x="993.474609" xlink:href="#DejaVuSans-2f"/>
      <use x="1027.166016" xlink:href="#DejaVuSans-20"/>
      <use x="1058.953125" xlink:href="#DejaVuSans-73"/>
      <use x="1111.052734" xlink:href="#DejaVuSans-5d"/>
     </g>
    </g>
   </g>
   <g id="line2d_14">
    <path clip-path="url(#p5358454825)" d="M 94.123636 191.355439 
L 100.043004 185.816179 
L 105.962372 179.918182 
L 111.881739 173.71922 
L 119.280949 165.640714 
L 129.639842 153.941563 
L 147.397945 133.79345 
L 154.797154 125.729065 
L 160.716522 119.550906 
L 166.635889 113.686096 
L 172.555257 108.196582 
L 176.994783 104.360991 
L 181.434308 100.792479 
L 185.873834 97.51259 
L 190.31336 94.541204 
L 194.752885 91.896391 
L 199.192411 89.594287 
L 203.631937 87.648974 
L 206.591621 86.556298 
L 209.551304 85.630527 
L 212.510988 84.874192 
L 215.470672 84.289362 
L 218.430356 83.87764 
L 221.39004 83.640152 
L 224.349723 83.57755 
L 227.309407 83.690006 
L 230.269091 83.97721 
L 233.228775 84.438377 
L 236.188458 85.072243 
L 239.148142 85.877072 
L 242.107826 86.850662 
L 245.06751 87.990354 
L 249.507036 90.004405 
L 253.946561 92.372736 
L 258.386087 95.080865 
L 262.825613 98.112282 
L 267.265138 101.448561 
L 271.704664 105.069496 
L 276.14419 108.953242 
L 280.583715 113.076465 
L 286.503083 118.903817 
L 292.422451 125.051334 
L 299.82166 133.087408 
L 310.180553 144.759099 
L 329.418498 166.576135 
L 336.817708 174.618191 
L 342.737075 180.777951 
L 348.656443 186.628298 
L 354.57581 192.111985 
L 359.015336 195.9519 
L 363.454862 199.534602 
L 367.894387 202.840686 
L 372.333913 205.852317 
L 376.773439 208.553308 
L 381.212964 210.929191 
L 385.65249 212.967277 
L 390.092016 214.656711 
L 393.0517 215.584791 
L 396.011383 216.351695 
L 398.971067 216.955615 
L 401.930751 217.39513 
L 404.890435 217.669204 
L 407.850119 217.777194 
L 410.809802 217.718845 
L 413.769486 217.494295 
L 416.72917 217.104072 
L 419.688854 216.549094 
L 422.648538 215.830667 
L 425.608221 214.950484 
L 428.567905 213.910621 
L 433.007431 212.056899 
L 437.446957 209.85937 
L 441.886482 207.329753 
L 446.326008 204.481577 
L 450.765534 201.330121 
L 455.205059 197.892351 
L 459.644585 194.186849 
L 464.084111 190.233725 
L 470.003478 184.615149 
L 475.922846 178.649567 
L 481.842213 172.395497 
L 489.241423 164.266612 
L 499.600316 152.533143 
L 515.878577 134.067429 
L 523.277787 125.99234 
L 529.197154 119.802514 
L 535.116522 113.923388 
L 536.596364 112.509502 
L 536.596364 112.509502 
" style="fill:none;stroke:#6495ed;stroke-linecap:square;stroke-width:1.5;"/>
   </g>
   <g id="line2d_15">
    <path clip-path="url(#p5358454825)" d="M 94.123636 75.647939 
L 98.563162 83.36946 
L 103.002688 91.484057 
L 108.922055 102.837554 
L 114.841423 114.698707 
L 122.240632 130.059683 
L 134.079368 155.303846 
L 145.918103 180.474131 
L 153.317312 195.709336 
L 159.23668 207.420053 
L 165.156047 218.573242 
L 169.595573 226.501276 
L 174.035099 234.002096 
L 178.474625 241.030733 
L 182.91415 247.544863 
L 185.873834 251.582203 
L 188.833518 255.362418 
L 191.793202 258.875293 
L 194.752885 262.111315 
L 197.712569 265.0617 
L 200.672253 267.71843 
L 203.631937 270.074268 
L 206.591621 272.12279 
L 209.551304 273.858403 
L 212.510988 275.276361 
L 215.470672 276.372785 
L 218.430356 277.144672 
L 221.39004 277.589908 
L 224.349723 277.707273 
L 227.309407 277.496444 
L 230.269091 276.957999 
L 233.228775 276.093415 
L 236.188458 274.90506 
L 239.148142 273.396186 
L 242.107826 271.570922 
L 245.06751 269.434256 
L 248.027194 266.992021 
L 250.986877 264.250874 
L 253.946561 261.218276 
L 256.906245 257.902467 
L 259.865929 254.312441 
L 262.825613 250.457915 
L 267.265138 244.203141 
L 271.704664 237.414701 
L 276.14419 230.13355 
L 280.583715 222.403434 
L 285.023241 214.270589 
L 290.942609 202.884283 
L 296.861976 190.988055 
L 304.261186 175.590291 
L 316.099921 150.324035 
L 327.938656 125.185967 
L 335.337866 109.99099 
L 341.257233 98.315355 
L 347.176601 87.191916 
L 351.616126 79.27757 
L 356.055652 71.778708 
L 360.495178 64.736251 
L 364.934704 58.188454 
L 369.374229 52.170735 
L 372.333913 48.469548 
L 375.293597 45.027262 
L 378.253281 41.85208 
L 381.212964 38.951549 
L 384.172648 36.332553 
L 387.132332 34.001294 
L 390.092016 31.963288 
L 393.0517 30.223346 
L 396.011383 28.785573 
L 398.971067 27.653358 
L 401.930751 26.829367 
L 404.890435 26.315539 
L 407.850119 26.113082 
L 410.809802 26.222473 
L 413.769486 26.643453 
L 416.72917 27.375034 
L 419.688854 28.415494 
L 422.648538 29.762383 
L 425.608221 31.412528 
L 428.567905 33.362038 
L 431.527589 35.60631 
L 434.487273 38.140038 
L 437.446957 40.957224 
L 440.40664 44.051186 
L 443.366324 47.414574 
L 446.326008 51.039378 
L 449.285692 54.916951 
L 453.725217 61.186796 
L 458.164743 67.970518 
L 462.604269 75.231352 
L 467.043794 82.929774 
L 471.48332 91.023682 
L 477.402688 102.353562 
L 483.322055 114.195869 
L 490.721265 129.540336 
L 502.56 154.775095 
L 514.398735 179.957461 
L 521.797945 195.211087 
L 527.717312 206.942403 
L 533.63668 218.12121 
L 536.596364 223.466362 
L 536.596364 223.466362 
" style="fill:none;stroke:#b22222;stroke-dasharray:5.55,2.4;stroke-dashoffset:0;stroke-width:1.5;"/>
   </g>
   <g id="patch_3">
    <path d="M 72 290.52 
L 72 8.64 
" style="fill:none;stroke:#000000;stroke-linecap:square;stroke-linejoin:miter;stroke-width:0.8;"/>
   </g>
   <g id="patch_4">
    <path d="M 558.72 290.52 
L 558.72 8.64 
" style="fill:none;stroke:#000000;stroke-linecap:square;stroke-linejoin:miter;stroke-width:0.8;"/>
   </g>
   <g id="patch_5">
    <path d="M 72 290.52 
L 558.72 290.52 
" style="fill:none;stroke:#000000;stroke-linecap:square;stroke-linejoin:miter;stroke-width:0.8;"/>
   </g>
   <g id="patch_6">
    <path d="M 72 8.64 
L 558.72 8.64 
" style="fill:none;stroke:#000000;stroke-linecap:square;stroke-linejoin:miter;stroke-width:0.8;"/>
   </g>
   <g id="legend_1">
    <g id="patch_7">
     <path d="M 79 75.3525 
L 193.179688 75.3525 
Q 195.179688 75.3525 195.179688 73.3525 
L 195.179688 15.64 
Q 195.179688 13.64 193.179688 13.64 
L 79 13.64 
Q 77 13.64 77 15.64 
L 77 73.3525 
Q 77 75.3525 79 75.3525 
z
" style="fill:#ffffff;opacity:0.8;stroke:#cccccc;stroke-linejoin:miter;"/>
    </g>
    <g id="line2d_16">
     <path d="M 81 21.738437 
L 101 21.738437 
" style="fill:none;stroke:#6495ed;stroke-linecap:square;stroke-width:1.5;"/>
    </g>
    <g id="line2d_17"/>
    <g id="text_15">
     <!-- primary RV fit -->
     <defs>
      <path d="M 18.109375 8.203125 
L 18.109375 -20.796875 
L 9.078125 -20.796875 
L 9.078125 54.6875 
L 18.109375 54.6875 
L 18.109375 46.390625 
Q 20.953125 51.265625 25.265625 53.625 
Q 29.59375 56 35.59375 56 
Q 45.5625 56 51.78125 48.09375 
Q 58.015625 40.1875 58.015625 27.296875 
Q 58.015625 14.40625 51.78125 6.484375 
Q 45.5625 -1.421875 35.59375 -1.421875 
Q 29.59375 -1.421875 25.265625 0.953125 
Q 20.953125 3.328125 18.109375 8.203125 
z
M 48.6875 27.296875 
Q 48.6875 37.203125 44.609375 42.84375 
Q 40.53125 48.484375 33.40625 48.484375 
Q 26.265625 48.484375 22.1875 42.84375 
Q 18.109375 37.203125 18.109375 27.296875 
Q 18.109375 17.390625 22.1875 11.75 
Q 26.265625 6.109375 33.40625 6.109375 
Q 40.53125 6.109375 44.609375 11.75 
Q 48.6875 17.390625 48.6875 27.296875 
z
" id="DejaVuSans-70"/>
      <path d="M 41.109375 46.296875 
Q 39.59375 47.171875 37.8125 47.578125 
Q 36.03125 48 33.890625 48 
Q 26.265625 48 22.1875 43.046875 
Q 18.109375 38.09375 18.109375 28.8125 
L 18.109375 0 
L 9.078125 0 
L 9.078125 54.6875 
L 18.109375 54.6875 
L 18.109375 46.1875 
Q 20.953125 51.171875 25.484375 53.578125 
Q 30.03125 56 36.53125 56 
Q 37.453125 56 38.578125 55.875 
Q 39.703125 55.765625 41.0625 55.515625 
z
" id="DejaVuSans-72"/>
      <path d="M 28.609375 0 
L 0.78125 72.90625 
L 11.078125 72.90625 
L 34.1875 11.53125 
L 57.328125 72.90625 
L 67.578125 72.90625 
L 39.796875 0 
z
" id="DejaVuSans-56"/>
      <path d="M 37.109375 75.984375 
L 37.109375 68.5 
L 28.515625 68.5 
Q 23.6875 68.5 21.796875 66.546875 
Q 19.921875 64.59375 19.921875 59.515625 
L 19.921875 54.6875 
L 34.71875 54.6875 
L 34.71875 47.703125 
L 19.921875 47.703125 
L 19.921875 0 
L 10.890625 0 
L 10.890625 47.703125 
L 2.296875 47.703125 
L 2.296875 54.6875 
L 10.890625 54.6875 
L 10.890625 58.5 
Q 10.890625 67.625 15.140625 71.796875 
Q 19.390625 75.984375 28.609375 75.984375 
z
" id="DejaVuSans-66"/>
     </defs>
     <g transform="translate(109 25.238437)scale(0.1 -0.1)">
      <use xlink:href="#DejaVuSans-70"/>
      <use x="63.476562" xlink:href="#DejaVuSans-72"/>
      <use x="104.589844" xlink:href="#DejaVuSans-69"/>
      <use x="132.373047" xlink:href="#DejaVuSans-6d"/>
      <use x="229.785156" xlink:href="#DejaVuSans-61"/>
      <use x="291.064453" xlink:href="#DejaVuSans-72"/>
      <use x="332.177734" xlink:href="#DejaVuSans-79"/>
      <use x="391.357422" xlink:href="#DejaVuSans-20"/>
      <use x="423.144531" xlink:href="#DejaVuSans-52"/>
      <use x="492.548828" xlink:href="#DejaVuSans-56"/>
      <use x="560.957031" xlink:href="#DejaVuSans-20"/>
      <use x="592.744141" xlink:href="#DejaVuSans-66"/>
      <use x="627.949219" xlink:href="#DejaVuSans-69"/>
      <use x="655.732422" xlink:href="#DejaVuSans-74"/>
     </g>
    </g>
    <g id="line2d_18">
     <path d="M 81 36.416562 
L 101 36.416562 
" style="fill:none;stroke:#b22222;stroke-dasharray:5.55,2.4;stroke-dashoffset:0;stroke-width:1.5;"/>
    </g>
    <g id="line2d_19"/>
    <g id="text_16">
     <!-- secondary RV fit -->
     <defs>
      <path d="M 54.890625 33.015625 
L 54.890625 0 
L 45.90625 0 
L 45.90625 32.71875 
Q 45.90625 40.484375 42.875 44.328125 
Q 39.84375 48.1875 33.796875 48.1875 
Q 26.515625 48.1875 22.3125 43.546875 
Q 18.109375 38.921875 18.109375 30.90625 
L 18.109375 0 
L 9.078125 0 
L 9.078125 54.6875 
L 18.109375 54.6875 
L 18.109375 46.1875 
Q 21.34375 51.125 25.703125 53.5625 
Q 30.078125 56 35.796875 56 
Q 45.21875 56 50.046875 50.171875 
Q 54.890625 44.34375 54.890625 33.015625 
z
" id="DejaVuSans-6e"/>
     </defs>
     <g transform="translate(109 39.916562)scale(0.1 -0.1)">
      <use xlink:href="#DejaVuSans-73"/>
      <use x="52.099609" xlink:href="#DejaVuSans-65"/>
      <use x="113.623047" xlink:href="#DejaVuSans-63"/>
      <use x="168.603516" xlink:href="#DejaVuSans-6f"/>
      <use x="229.785156" xlink:href="#DejaVuSans-6e"/>
      <use x="293.164062" xlink:href="#DejaVuSans-64"/>
      <use x="356.640625" xlink:href="#DejaVuSans-61"/>
      <use x="417.919922" xlink:href="#DejaVuSans-72"/>
      <use x="459.033203" xlink:href="#DejaVuSans-79"/>
      <use x="518.212891" xlink:href="#DejaVuSans-20"/>
      <use x="550" xlink:href="#DejaVuSans-52"/>
      <use x="619.404297" xlink:href="#DejaVuSans-56"/>
      <use x="687.8125" xlink:href="#DejaVuSans-20"/>
      <use x="719.599609" xlink:href="#DejaVuSans-66"/>
      <use x="754.804688" xlink:href="#DejaVuSans-69"/>
      <use x="782.587891" xlink:href="#DejaVuSans-74"/>
     </g>
    </g>
    <g id="PathCollection_3">
     <g>
      <use style="fill:#0000ff;stroke:#0000ff;" x="91" xlink:href="#m376668a394" y="51.969687"/>
     </g>
    </g>
    <g id="text_17">
     <!-- primary -->
     <g transform="translate(109 54.594687)scale(0.1 -0.1)">
      <use xlink:href="#DejaVuSans-70"/>
      <use x="63.476562" xlink:href="#DejaVuSans-72"/>
      <use x="104.589844" xlink:href="#DejaVuSans-69"/>
      <use x="132.373047" xlink:href="#DejaVuSans-6d"/>
      <use x="229.785156" xlink:href="#DejaVuSans-61"/>
      <use x="291.064453" xlink:href="#DejaVuSans-72"/>
      <use x="332.177734" xlink:href="#DejaVuSans-79"/>
     </g>
    </g>
    <g id="PathCollection_4">
     <g>
      <use style="fill:#ff0000;stroke:#ff0000;stroke-width:1.5;" x="91" xlink:href="#m973fbd6a50" y="66.647812"/>
     </g>
    </g>
    <g id="text_18">
     <!-- secondary -->
     <g transform="translate(109 69.272812)scale(0.1 -0.1)">
      <use xlink:href="#DejaVuSans-73"/>
      <use x="52.099609" xlink:href="#DejaVuSans-65"/>
      <use x="113.623047" xlink:href="#DejaVuSans-63"/>
      <use x="168.603516" xlink:href="#DejaVuSans-6f"/>
      <use x="229.785156" xlink:href="#DejaVuSans-6e"/>
      <use x="293.164062" xlink:href="#DejaVuSans-64"/>
      <use x="356.640625" xlink:href="#DejaVuSans-61"/>
      <use x="417.919922" xlink:href="#DejaVuSans-72"/>
      <use x="459.033203" xlink:href="#DejaVuSans-79"/>
     </g>
    </g>
   </g>
  </g>
  <g id="axes_2">
   <g id="patch_8">
    <path d="M 72 384.48 
L 558.72 384.48 
L 558.72 290.52 
L 72 290.52 
z
" style="fill:#ffffff;"/>
   </g>
   <g id="PathCollection_5">
    <g clip-path="url(#paaa8f56231)">
     <use style="fill:#0000ff;stroke:#0000ff;" x="462.850909" xlink:href="#m376668a394" y="311.851813"/>
     <use style="fill:#0000ff;stroke:#0000ff;" x="470.225455" xlink:href="#m376668a394" y="306.01981"/>
     <use style="fill:#0000ff;stroke:#0000ff;" x="477.6" xlink:href="#m376668a394" y="325.931389"/>
     <use style="fill:#0000ff;stroke:#0000ff;" x="484.974545" xlink:href="#m376668a394" y="320.613073"/>
     <use style="fill:#0000ff;stroke:#0000ff;" x="492.349091" xlink:href="#m376668a394" y="326.90779"/>
     <use style="fill:#0000ff;stroke:#0000ff;" x="130.996364" xlink:href="#m376668a394" y="335.463074"/>
     <use style="fill:#0000ff;stroke:#0000ff;" x="138.370909" xlink:href="#m376668a394" y="340.544966"/>
     <use style="fill:#0000ff;stroke:#0000ff;" x="145.745455" xlink:href="#m376668a394" y="330.139556"/>
     <use style="fill:#0000ff;stroke:#0000ff;" x="153.12" xlink:href="#m376668a394" y="331.751454"/>
     <use style="fill:#0000ff;stroke:#0000ff;" x="160.494545" xlink:href="#m376668a394" y="357.932282"/>
     <use style="fill:#0000ff;stroke:#0000ff;" x="167.869091" xlink:href="#m376668a394" y="357.765134"/>
     <use style="fill:#0000ff;stroke:#0000ff;" x="175.243636" xlink:href="#m376668a394" y="332.9435"/>
     <use style="fill:#0000ff;stroke:#0000ff;" x="182.618182" xlink:href="#m376668a394" y="357.599765"/>
     <use style="fill:#0000ff;stroke:#0000ff;" x="189.992727" xlink:href="#m376668a394" y="376.631545"/>
     <use style="fill:#0000ff;stroke:#0000ff;" x="197.367273" xlink:href="#m376668a394" y="357.398891"/>
     <use style="fill:#0000ff;stroke:#0000ff;" x="204.741818" xlink:href="#m376668a394" y="341.629509"/>
     <use style="fill:#0000ff;stroke:#0000ff;" x="212.116364" xlink:href="#m376668a394" y="349.163683"/>
     <use style="fill:#0000ff;stroke:#0000ff;" x="219.490909" xlink:href="#m376668a394" y="346.459882"/>
     <use style="fill:#0000ff;stroke:#0000ff;" x="226.865455" xlink:href="#m376668a394" y="357.266483"/>
     <use style="fill:#0000ff;stroke:#0000ff;" x="234.24" xlink:href="#m376668a394" y="355.781489"/>
     <use style="fill:#0000ff;stroke:#0000ff;" x="241.614545" xlink:href="#m376668a394" y="380.180417"/>
     <use style="fill:#0000ff;stroke:#0000ff;" x="248.989091" xlink:href="#m376668a394" y="335.228001"/>
     <use style="fill:#0000ff;stroke:#0000ff;" x="256.363636" xlink:href="#m376668a394" y="365.868078"/>
     <use style="fill:#0000ff;stroke:#0000ff;" x="263.738182" xlink:href="#m376668a394" y="339.18412"/>
     <use style="fill:#0000ff;stroke:#0000ff;" x="271.112727" xlink:href="#m376668a394" y="376.310087"/>
     <use style="fill:#0000ff;stroke:#0000ff;" x="278.487273" xlink:href="#m376668a394" y="374.558149"/>
     <use style="fill:#0000ff;stroke:#0000ff;" x="285.861818" xlink:href="#m376668a394" y="351.980923"/>
     <use style="fill:#0000ff;stroke:#0000ff;" x="293.236364" xlink:href="#m376668a394" y="346.32188"/>
     <use style="fill:#0000ff;stroke:#0000ff;" x="300.610909" xlink:href="#m376668a394" y="340.396858"/>
     <use style="fill:#0000ff;stroke:#0000ff;" x="307.985455" xlink:href="#m376668a394" y="320.040542"/>
     <use style="fill:#0000ff;stroke:#0000ff;" x="315.36" xlink:href="#m376668a394" y="341.648371"/>
     <use style="fill:#0000ff;stroke:#0000ff;" x="322.734545" xlink:href="#m376668a394" y="326.045232"/>
     <use style="fill:#0000ff;stroke:#0000ff;" x="330.109091" xlink:href="#m376668a394" y="357.812132"/>
     <use style="fill:#0000ff;stroke:#0000ff;" x="337.483636" xlink:href="#m376668a394" y="344.77635"/>
     <use style="fill:#0000ff;stroke:#0000ff;" x="344.858182" xlink:href="#m376668a394" y="346.421097"/>
     <use style="fill:#0000ff;stroke:#0000ff;" x="352.232727" xlink:href="#m376668a394" y="334.911465"/>
     <use style="fill:#0000ff;stroke:#0000ff;" x="359.607273" xlink:href="#m376668a394" y="308.009234"/>
     <use style="fill:#0000ff;stroke:#0000ff;" x="366.981818" xlink:href="#m376668a394" y="344.15231"/>
     <use style="fill:#0000ff;stroke:#0000ff;" x="374.356364" xlink:href="#m376668a394" y="321.380849"/>
     <use style="fill:#0000ff;stroke:#0000ff;" x="381.730909" xlink:href="#m376668a394" y="339.212008"/>
     <use style="fill:#0000ff;stroke:#0000ff;" x="389.105455" xlink:href="#m376668a394" y="294.819583"/>
     <use style="fill:#0000ff;stroke:#0000ff;" x="396.48" xlink:href="#m376668a394" y="299.965843"/>
     <use style="fill:#0000ff;stroke:#0000ff;" x="403.854545" xlink:href="#m376668a394" y="311.003213"/>
     <use style="fill:#0000ff;stroke:#0000ff;" x="411.229091" xlink:href="#m376668a394" y="337.275872"/>
     <use style="fill:#0000ff;stroke:#0000ff;" x="418.603636" xlink:href="#m376668a394" y="320.066096"/>
     <use style="fill:#0000ff;stroke:#0000ff;" x="425.978182" xlink:href="#m376668a394" y="328.780535"/>
     <use style="fill:#0000ff;stroke:#0000ff;" x="433.352727" xlink:href="#m376668a394" y="340.643704"/>
     <use style="fill:#0000ff;stroke:#0000ff;" x="440.727273" xlink:href="#m376668a394" y="325.979822"/>
     <use style="fill:#0000ff;stroke:#0000ff;" x="448.101818" xlink:href="#m376668a394" y="326.755396"/>
     <use style="fill:#0000ff;stroke:#0000ff;" x="455.476364" xlink:href="#m376668a394" y="317.540387"/>
     <use style="fill:#0000ff;stroke:#0000ff;" x="462.850909" xlink:href="#m376668a394" y="322.720575"/>
     <use style="fill:#0000ff;stroke:#0000ff;" x="470.225455" xlink:href="#m376668a394" y="340.867475"/>
     <use style="fill:#0000ff;stroke:#0000ff;" x="477.6" xlink:href="#m376668a394" y="320.6634"/>
     <use style="fill:#0000ff;stroke:#0000ff;" x="484.974545" xlink:href="#m376668a394" y="334.756748"/>
     <use style="fill:#0000ff;stroke:#0000ff;" x="492.349091" xlink:href="#m376668a394" y="342.806099"/>
     <use style="fill:#0000ff;stroke:#0000ff;" x="130.996364" xlink:href="#m376668a394" y="331.834222"/>
     <use style="fill:#0000ff;stroke:#0000ff;" x="138.370909" xlink:href="#m376668a394" y="321.606895"/>
     <use style="fill:#0000ff;stroke:#0000ff;" x="145.745455" xlink:href="#m376668a394" y="342.400579"/>
     <use style="fill:#0000ff;stroke:#0000ff;" x="153.12" xlink:href="#m376668a394" y="356.310719"/>
     <use style="fill:#0000ff;stroke:#0000ff;" x="160.494545" xlink:href="#m376668a394" y="361.940715"/>
     <use style="fill:#0000ff;stroke:#0000ff;" x="167.869091" xlink:href="#m376668a394" y="344.775865"/>
    </g>
   </g>
   <g id="PathCollection_6">
    <g clip-path="url(#paaa8f56231)">
     <use style="fill:#ff0000;stroke:#ff0000;stroke-width:1.5;" x="462.850909" xlink:href="#m973fbd6a50" y="349.256908"/>
     <use style="fill:#ff0000;stroke:#ff0000;stroke-width:1.5;" x="470.225455" xlink:href="#m973fbd6a50" y="359.324446"/>
     <use style="fill:#ff0000;stroke:#ff0000;stroke-width:1.5;" x="477.6" xlink:href="#m973fbd6a50" y="326.37212"/>
     <use style="fill:#ff0000;stroke:#ff0000;stroke-width:1.5;" x="484.974545" xlink:href="#m973fbd6a50" y="358.359494"/>
     <use style="fill:#ff0000;stroke:#ff0000;stroke-width:1.5;" x="492.349091" xlink:href="#m973fbd6a50" y="328.678727"/>
     <use style="fill:#ff0000;stroke:#ff0000;stroke-width:1.5;" x="130.996364" xlink:href="#m973fbd6a50" y="326.957545"/>
     <use style="fill:#ff0000;stroke:#ff0000;stroke-width:1.5;" x="138.370909" xlink:href="#m973fbd6a50" y="336.897358"/>
     <use style="fill:#ff0000;stroke:#ff0000;stroke-width:1.5;" x="145.745455" xlink:href="#m973fbd6a50" y="361.641132"/>
     <use style="fill:#ff0000;stroke:#ff0000;stroke-width:1.5;" x="153.12" xlink:href="#m973fbd6a50" y="336.384709"/>
     <use style="fill:#ff0000;stroke:#ff0000;stroke-width:1.5;" x="160.494545" xlink:href="#m973fbd6a50" y="352.262847"/>
     <use style="fill:#ff0000;stroke:#ff0000;stroke-width:1.5;" x="167.869091" xlink:href="#m973fbd6a50" y="335.205745"/>
     <use style="fill:#ff0000;stroke:#ff0000;stroke-width:1.5;" x="175.243636" xlink:href="#m973fbd6a50" y="315.338476"/>
     <use style="fill:#ff0000;stroke:#ff0000;stroke-width:1.5;" x="182.618182" xlink:href="#m973fbd6a50" y="318.904453"/>
     <use style="fill:#ff0000;stroke:#ff0000;stroke-width:1.5;" x="189.992727" xlink:href="#m973fbd6a50" y="309.343399"/>
     <use style="fill:#ff0000;stroke:#ff0000;stroke-width:1.5;" x="197.367273" xlink:href="#m973fbd6a50" y="337.987529"/>
     <use style="fill:#ff0000;stroke:#ff0000;stroke-width:1.5;" x="204.741818" xlink:href="#m973fbd6a50" y="331.268202"/>
     <use style="fill:#ff0000;stroke:#ff0000;stroke-width:1.5;" x="212.116364" xlink:href="#m973fbd6a50" y="302.390062"/>
     <use style="fill:#ff0000;stroke:#ff0000;stroke-width:1.5;" x="219.490909" xlink:href="#m973fbd6a50" y="335.726155"/>
     <use style="fill:#ff0000;stroke:#ff0000;stroke-width:1.5;" x="226.865455" xlink:href="#m973fbd6a50" y="323.01228"/>
     <use style="fill:#ff0000;stroke:#ff0000;stroke-width:1.5;" x="234.24" xlink:href="#m973fbd6a50" y="332.700282"/>
     <use style="fill:#ff0000;stroke:#ff0000;stroke-width:1.5;" x="241.614545" xlink:href="#m973fbd6a50" y="339.489435"/>
     <use style="fill:#ff0000;stroke:#ff0000;stroke-width:1.5;" x="248.989091" xlink:href="#m973fbd6a50" y="316.64089"/>
     <use style="fill:#ff0000;stroke:#ff0000;stroke-width:1.5;" x="256.363636" xlink:href="#m973fbd6a50" y="310.633871"/>
     <use style="fill:#ff0000;stroke:#ff0000;stroke-width:1.5;" x="263.738182" xlink:href="#m973fbd6a50" y="329.015468"/>
     <use style="fill:#ff0000;stroke:#ff0000;stroke-width:1.5;" x="271.112727" xlink:href="#m973fbd6a50" y="311.953718"/>
     <use style="fill:#ff0000;stroke:#ff0000;stroke-width:1.5;" x="278.487273" xlink:href="#m973fbd6a50" y="320.95095"/>
     <use style="fill:#ff0000;stroke:#ff0000;stroke-width:1.5;" x="285.861818" xlink:href="#m973fbd6a50" y="329.048568"/>
     <use style="fill:#ff0000;stroke:#ff0000;stroke-width:1.5;" x="293.236364" xlink:href="#m973fbd6a50" y="342.502989"/>
     <use style="fill:#ff0000;stroke:#ff0000;stroke-width:1.5;" x="300.610909" xlink:href="#m973fbd6a50" y="327.079709"/>
     <use style="fill:#ff0000;stroke:#ff0000;stroke-width:1.5;" x="307.985455" xlink:href="#m973fbd6a50" y="323.273053"/>
     <use style="fill:#ff0000;stroke:#ff0000;stroke-width:1.5;" x="315.36" xlink:href="#m973fbd6a50" y="332.18544"/>
     <use style="fill:#ff0000;stroke:#ff0000;stroke-width:1.5;" x="322.734545" xlink:href="#m973fbd6a50" y="323.7894"/>
     <use style="fill:#ff0000;stroke:#ff0000;stroke-width:1.5;" x="330.109091" xlink:href="#m973fbd6a50" y="335.460451"/>
     <use style="fill:#ff0000;stroke:#ff0000;stroke-width:1.5;" x="337.483636" xlink:href="#m973fbd6a50" y="332.209366"/>
     <use style="fill:#ff0000;stroke:#ff0000;stroke-width:1.5;" x="344.858182" xlink:href="#m973fbd6a50" y="334.899993"/>
     <use style="fill:#ff0000;stroke:#ff0000;stroke-width:1.5;" x="352.232727" xlink:href="#m973fbd6a50" y="365.926452"/>
     <use style="fill:#ff0000;stroke:#ff0000;stroke-width:1.5;" x="359.607273" xlink:href="#m973fbd6a50" y="349.803763"/>
     <use style="fill:#ff0000;stroke:#ff0000;stroke-width:1.5;" x="366.981818" xlink:href="#m973fbd6a50" y="349.645513"/>
     <use style="fill:#ff0000;stroke:#ff0000;stroke-width:1.5;" x="374.356364" xlink:href="#m973fbd6a50" y="346.988375"/>
     <use style="fill:#ff0000;stroke:#ff0000;stroke-width:1.5;" x="381.730909" xlink:href="#m973fbd6a50" y="359.730823"/>
     <use style="fill:#ff0000;stroke:#ff0000;stroke-width:1.5;" x="389.105455" xlink:href="#m973fbd6a50" y="356.724318"/>
     <use style="fill:#ff0000;stroke:#ff0000;stroke-width:1.5;" x="396.48" xlink:href="#m973fbd6a50" y="356.228008"/>
     <use style="fill:#ff0000;stroke:#ff0000;stroke-width:1.5;" x="403.854545" xlink:href="#m973fbd6a50" y="327.541619"/>
     <use style="fill:#ff0000;stroke:#ff0000;stroke-width:1.5;" x="411.229091" xlink:href="#m973fbd6a50" y="355.700669"/>
     <use style="fill:#ff0000;stroke:#ff0000;stroke-width:1.5;" x="418.603636" xlink:href="#m973fbd6a50" y="367.004824"/>
     <use style="fill:#ff0000;stroke:#ff0000;stroke-width:1.5;" x="425.978182" xlink:href="#m973fbd6a50" y="364.999361"/>
     <use style="fill:#ff0000;stroke:#ff0000;stroke-width:1.5;" x="433.352727" xlink:href="#m973fbd6a50" y="360.879856"/>
     <use style="fill:#ff0000;stroke:#ff0000;stroke-width:1.5;" x="440.727273" xlink:href="#m973fbd6a50" y="369.376052"/>
     <use style="fill:#ff0000;stroke:#ff0000;stroke-width:1.5;" x="448.101818" xlink:href="#m973fbd6a50" y="340.252722"/>
     <use style="fill:#ff0000;stroke:#ff0000;stroke-width:1.5;" x="455.476364" xlink:href="#m973fbd6a50" y="340.317384"/>
     <use style="fill:#ff0000;stroke:#ff0000;stroke-width:1.5;" x="462.850909" xlink:href="#m973fbd6a50" y="341.838937"/>
     <use style="fill:#ff0000;stroke:#ff0000;stroke-width:1.5;" x="470.225455" xlink:href="#m973fbd6a50" y="346.65597"/>
     <use style="fill:#ff0000;stroke:#ff0000;stroke-width:1.5;" x="477.6" xlink:href="#m973fbd6a50" y="373.171423"/>
     <use style="fill:#ff0000;stroke:#ff0000;stroke-width:1.5;" x="484.974545" xlink:href="#m973fbd6a50" y="371.724289"/>
     <use style="fill:#ff0000;stroke:#ff0000;stroke-width:1.5;" x="492.349091" xlink:href="#m973fbd6a50" y="367.155677"/>
     <use style="fill:#ff0000;stroke:#ff0000;stroke-width:1.5;" x="130.996364" xlink:href="#m973fbd6a50" y="330.824622"/>
     <use style="fill:#ff0000;stroke:#ff0000;stroke-width:1.5;" x="138.370909" xlink:href="#m973fbd6a50" y="345.29969"/>
     <use style="fill:#ff0000;stroke:#ff0000;stroke-width:1.5;" x="145.745455" xlink:href="#m973fbd6a50" y="326.098513"/>
     <use style="fill:#ff0000;stroke:#ff0000;stroke-width:1.5;" x="153.12" xlink:href="#m973fbd6a50" y="343.425658"/>
     <use style="fill:#ff0000;stroke:#ff0000;stroke-width:1.5;" x="160.494545" xlink:href="#m973fbd6a50" y="330.519957"/>
     <use style="fill:#ff0000;stroke:#ff0000;stroke-width:1.5;" x="167.869091" xlink:href="#m973fbd6a50" y="344.4166"/>
    </g>
   </g>
   <g id="matplotlib.axis_3">
    <g id="xtick_8">
     <g id="line2d_20">
      <g>
       <use style="stroke:#000000;stroke-width:0.8;" x="94.123636" xlink:href="#m67e7753459" y="384.48"/>
      </g>
     </g>
     <g id="text_19">
      <!-- −0.6 -->
      <g transform="translate(81.98223 399.078438)scale(0.1 -0.1)">
       <use xlink:href="#DejaVuSans-2212"/>
       <use x="83.789062" xlink:href="#DejaVuSans-30"/>
       <use x="147.412109" xlink:href="#DejaVuSans-2e"/>
       <use x="179.199219" xlink:href="#DejaVuSans-36"/>
      </g>
     </g>
    </g>
    <g id="xtick_9">
     <g id="line2d_21">
      <g>
       <use style="stroke:#000000;stroke-width:0.8;" x="167.869091" xlink:href="#m67e7753459" y="384.48"/>
      </g>
     </g>
     <g id="text_20">
      <!-- −0.4 -->
      <g transform="translate(155.727685 399.078438)scale(0.1 -0.1)">
       <use xlink:href="#DejaVuSans-2212"/>
       <use x="83.789062" xlink:href="#DejaVuSans-30"/>
       <use x="147.412109" xlink:href="#DejaVuSans-2e"/>
       <use x="179.199219" xlink:href="#DejaVuSans-34"/>
      </g>
     </g>
    </g>
    <g id="xtick_10">
     <g id="line2d_22">
      <g>
       <use style="stroke:#000000;stroke-width:0.8;" x="241.614545" xlink:href="#m67e7753459" y="384.48"/>
      </g>
     </g>
     <g id="text_21">
      <!-- −0.2 -->
      <g transform="translate(229.473139 399.078438)scale(0.1 -0.1)">
       <use xlink:href="#DejaVuSans-2212"/>
       <use x="83.789062" xlink:href="#DejaVuSans-30"/>
       <use x="147.412109" xlink:href="#DejaVuSans-2e"/>
       <use x="179.199219" xlink:href="#DejaVuSans-32"/>
      </g>
     </g>
    </g>
    <g id="xtick_11">
     <g id="line2d_23">
      <g>
       <use style="stroke:#000000;stroke-width:0.8;" x="315.36" xlink:href="#m67e7753459" y="384.48"/>
      </g>
     </g>
     <g id="text_22">
      <!-- 0.0 -->
      <g transform="translate(307.408437 399.078438)scale(0.1 -0.1)">
       <use xlink:href="#DejaVuSans-30"/>
       <use x="63.623047" xlink:href="#DejaVuSans-2e"/>
       <use x="95.410156" xlink:href="#DejaVuSans-30"/>
      </g>
     </g>
    </g>
    <g id="xtick_12">
     <g id="line2d_24">
      <g>
       <use style="stroke:#000000;stroke-width:0.8;" x="389.105455" xlink:href="#m67e7753459" y="384.48"/>
      </g>
     </g>
     <g id="text_23">
      <!-- 0.2 -->
      <g transform="translate(381.153892 399.078438)scale(0.1 -0.1)">
       <use xlink:href="#DejaVuSans-30"/>
       <use x="63.623047" xlink:href="#DejaVuSans-2e"/>
       <use x="95.410156" xlink:href="#DejaVuSans-32"/>
      </g>
     </g>
    </g>
    <g id="xtick_13">
     <g id="line2d_25">
      <g>
       <use style="stroke:#000000;stroke-width:0.8;" x="462.850909" xlink:href="#m67e7753459" y="384.48"/>
      </g>
     </g>
     <g id="text_24">
      <!-- 0.4 -->
      <g transform="translate(454.899347 399.078438)scale(0.1 -0.1)">
       <use xlink:href="#DejaVuSans-30"/>
       <use x="63.623047" xlink:href="#DejaVuSans-2e"/>
       <use x="95.410156" xlink:href="#DejaVuSans-34"/>
      </g>
     </g>
    </g>
    <g id="xtick_14">
     <g id="line2d_26">
      <g>
       <use style="stroke:#000000;stroke-width:0.8;" x="536.596364" xlink:href="#m67e7753459" y="384.48"/>
      </g>
     </g>
     <g id="text_25">
      <!-- 0.6 -->
      <g transform="translate(528.644801 399.078438)scale(0.1 -0.1)">
       <use xlink:href="#DejaVuSans-30"/>
       <use x="63.623047" xlink:href="#DejaVuSans-2e"/>
       <use x="95.410156" xlink:href="#DejaVuSans-36"/>
      </g>
     </g>
    </g>
    <g id="text_26">
     <!-- Phase -->
     <defs>
      <path d="M 19.671875 64.796875 
L 19.671875 37.40625 
L 32.078125 37.40625 
Q 38.96875 37.40625 42.71875 40.96875 
Q 46.484375 44.53125 46.484375 51.125 
Q 46.484375 57.671875 42.71875 61.234375 
Q 38.96875 64.796875 32.078125 64.796875 
z
M 9.8125 72.90625 
L 32.078125 72.90625 
Q 44.34375 72.90625 50.609375 67.359375 
Q 56.890625 61.8125 56.890625 51.125 
Q 56.890625 40.328125 50.609375 34.8125 
Q 44.34375 29.296875 32.078125 29.296875 
L 19.671875 29.296875 
L 19.671875 0 
L 9.8125 0 
z
" id="DejaVuSans-50"/>
      <path d="M 54.890625 33.015625 
L 54.890625 0 
L 45.90625 0 
L 45.90625 32.71875 
Q 45.90625 40.484375 42.875 44.328125 
Q 39.84375 48.1875 33.796875 48.1875 
Q 26.515625 48.1875 22.3125 43.546875 
Q 18.109375 38.921875 18.109375 30.90625 
L 18.109375 0 
L 9.078125 0 
L 9.078125 75.984375 
L 18.109375 75.984375 
L 18.109375 46.1875 
Q 21.34375 51.125 25.703125 53.5625 
Q 30.078125 56 35.796875 56 
Q 45.21875 56 50.046875 50.171875 
Q 54.890625 44.34375 54.890625 33.015625 
z
" id="DejaVuSans-68"/>
     </defs>
     <g transform="translate(300.431094 412.756563)scale(0.1 -0.1)">
      <use xlink:href="#DejaVuSans-50"/>
      <use x="60.302734" xlink:href="#DejaVuSans-68"/>
      <use x="123.681641" xlink:href="#DejaVuSans-61"/>
      <use x="184.960938" xlink:href="#DejaVuSans-73"/>
      <use x="237.060547" xlink:href="#DejaVuSans-65"/>
     </g>
    </g>
   </g>
   <g id="matplotlib.axis_4">
    <g id="ytick_7">
     <g id="line2d_27">
      <g>
       <use style="stroke:#000000;stroke-width:0.8;" x="72" xlink:href="#mcdf3de15ab" y="377.282366"/>
      </g>
     </g>
     <g id="text_27">
      <!-- −10 -->
      <g transform="translate(43.895313 381.081585)scale(0.1 -0.1)">
       <use xlink:href="#DejaVuSans-2212"/>
       <use x="83.789062" xlink:href="#DejaVuSans-31"/>
       <use x="147.412109" xlink:href="#DejaVuSans-30"/>
      </g>
     </g>
    </g>
    <g id="ytick_8">
     <g id="line2d_28">
      <g>
       <use style="stroke:#000000;stroke-width:0.8;" x="72" xlink:href="#mcdf3de15ab" y="342.516549"/>
      </g>
     </g>
     <g id="text_28">
      <!-- 0 -->
      <g transform="translate(58.6375 346.315768)scale(0.1 -0.1)">
       <use xlink:href="#DejaVuSans-30"/>
      </g>
     </g>
    </g>
    <g id="ytick_9">
     <g id="line2d_29">
      <g>
       <use style="stroke:#000000;stroke-width:0.8;" x="72" xlink:href="#mcdf3de15ab" y="307.750732"/>
      </g>
     </g>
     <g id="text_29">
      <!-- 10 -->
      <g transform="translate(52.275 311.549951)scale(0.1 -0.1)">
       <use xlink:href="#DejaVuSans-31"/>
       <use x="63.623047" xlink:href="#DejaVuSans-30"/>
      </g>
     </g>
    </g>
    <g id="text_30">
     <!-- Residuals -->
     <defs>
      <path d="M 8.5 21.578125 
L 8.5 54.6875 
L 17.484375 54.6875 
L 17.484375 21.921875 
Q 17.484375 14.15625 20.5 10.265625 
Q 23.53125 6.390625 29.59375 6.390625 
Q 36.859375 6.390625 41.078125 11.03125 
Q 45.3125 15.671875 45.3125 23.6875 
L 45.3125 54.6875 
L 54.296875 54.6875 
L 54.296875 0 
L 45.3125 0 
L 45.3125 8.40625 
Q 42.046875 3.421875 37.71875 1 
Q 33.40625 -1.421875 27.6875 -1.421875 
Q 18.265625 -1.421875 13.375 4.4375 
Q 8.5 10.296875 8.5 21.578125 
z
M 31.109375 56 
z
" id="DejaVuSans-75"/>
     </defs>
     <g transform="translate(37.815625 361.442187)rotate(-90)scale(0.1 -0.1)">
      <use xlink:href="#DejaVuSans-52"/>
      <use x="69.419922" xlink:href="#DejaVuSans-65"/>
      <use x="130.943359" xlink:href="#DejaVuSans-73"/>
      <use x="183.042969" xlink:href="#DejaVuSans-69"/>
      <use x="210.826172" xlink:href="#DejaVuSans-64"/>
      <use x="274.302734" xlink:href="#DejaVuSans-75"/>
      <use x="337.681641" xlink:href="#DejaVuSans-61"/>
      <use x="398.960938" xlink:href="#DejaVuSans-6c"/>
      <use x="426.744141" xlink:href="#DejaVuSans-73"/>
     </g>
    </g>
   </g>
   <g id="line2d_30">
    <path clip-path="url(#paaa8f56231)" d="M 72 342.516549 
L 558.72 342.516549 
" style="fill:none;stroke:#000000;stroke-dasharray:1.85,0.8;stroke-dashoffset:0;stroke-width:0.5;"/>
   </g>
   <g id="patch_9">
    <path d="M 72 384.48 
L 72 290.52 
" style="fill:none;stroke:#000000;stroke-linecap:square;stroke-linejoin:miter;stroke-width:0.8;"/>
   </g>
   <g id="patch_10">
    <path d="M 558.72 384.48 
L 558.72 290.52 
" style="fill:none;stroke:#000000;stroke-linecap:square;stroke-linejoin:miter;stroke-width:0.8;"/>
   </g>
   <g id="patch_11">
    <path d="M 72 384.48 
L 558.72 384.48 
" style="fill:none;stroke:#000000;stroke-linecap:square;stroke-linejoin:miter;stroke-width:0.8;"/>
   </g>
   <g id="patch_12">
    <path d="M 72 290.52 
L 558.72 290.52 
" style="fill:none;stroke:#000000;stroke-linecap:square;stroke-linejoin:miter;stroke-width:0.8;"/>
   </g>
  </g>
 </g>
 <defs>
  <clipPath id="p5358454825">
   <rect height="281.88" width="486.72" x="72" y="8.64"/>
  </clipPath>
  <clipPath id="paaa8f56231">
   <rect height="93.96" width="486.72" x="72" y="290.52"/>
  </clipPath>
 </defs>
</svg>
