<?xml version="1.0" encoding="utf-8" standalone="no"?>
<!DOCTYPE svg PUBLIC "-//W3C//DTD SVG 1.1//EN"
  "http://www.w3.org/Graphics/SVG/1.1/DTD/svg11.dtd">
<!-- Created with matplotlib (http://matplotlib.org/) -->
<svg height="432pt" version="1.1" viewBox="0 0 576 432" width="576pt" xmlns="http://www.w3.org/2000/svg" xmlns:xlink="http://www.w3.org/1999/xlink">
 <defs>
  <style type="text/css">
*{stroke-linecap:butt;stroke-linejoin:round;}
  </style>
 </defs>
 <g id="figure_1">
  <g id="patch_1">
   <path d="M 0 432 
L 576 432 
L 576 0 
L 0 0 
z
" style="fill:#ffffff;"/>
  </g>
  <g id="axes_1">
   <g id="patch_2">
    <path d="M 72 384.48 
L 518.4 384.48 
L 518.4 51.84 
L 72 51.84 
z
" style="fill:#ffffff;"/>
   </g>
   <g id="PathCollection_1">
    <defs>
     <path d="M 0 3 
C 0.795609 3 1.55874 2.683901 2.12132 2.12132 
C 2.683901 1.55874 3 0.795609 3 0 
C 3 -0.795609 2.683901 -1.55874 2.12132 -2.12132 
C 1.55874 -2.683901 0.795609 -3 0 -3 
C -0.795609 -3 -1.55874 -2.683901 -2.12132 -2.12132 
C -2.683901 -1.55874 -3 -0.795609 -3 0 
C -3 0.795609 -2.683901 1.55874 -2.12132 2.12132 
C -1.55874 2.683901 -0.795609 3 0 3 
z
" id="med982b9bb8" style="stroke:#008000;"/>
    </defs>
    <g clip-path="url(#p49d9c53200)">
     <use style="fill:#008000;stroke:#008000;" x="94.445211" xlink:href="#med982b9bb8" y="172.166177"/>
     <use style="fill:#008000;stroke:#008000;" x="101.137037" xlink:href="#med982b9bb8" y="177.342557"/>
     <use style="fill:#008000;stroke:#008000;" x="107.828863" xlink:href="#med982b9bb8" y="191.74789"/>
     <use style="fill:#008000;stroke:#008000;" x="114.52069" xlink:href="#med982b9bb8" y="197.912699"/>
     <use style="fill:#008000;stroke:#008000;" x="121.212516" xlink:href="#med982b9bb8" y="208.243685"/>
     <use style="fill:#008000;stroke:#008000;" x="127.904342" xlink:href="#med982b9bb8" y="219.426862"/>
     <use style="fill:#008000;stroke:#008000;" x="134.596168" xlink:href="#med982b9bb8" y="229.379755"/>
     <use style="fill:#008000;stroke:#008000;" x="141.287995" xlink:href="#med982b9bb8" y="233.885314"/>
     <use style="fill:#008000;stroke:#008000;" x="147.979821" xlink:href="#med982b9bb8" y="242.177348"/>
     <use style="fill:#008000;stroke:#008000;" x="154.671647" xlink:href="#med982b9bb8" y="258.407892"/>
     <use style="fill:#008000;stroke:#008000;" x="161.363474" xlink:href="#med982b9bb8" y="265.140891"/>
     <use style="fill:#008000;stroke:#008000;" x="168.0553" xlink:href="#med982b9bb8" y="262.85091"/>
     <use style="fill:#008000;stroke:#008000;" x="174.747126" xlink:href="#med982b9bb8" y="276.671284"/>
     <use style="fill:#008000;stroke:#008000;" x="181.438953" xlink:href="#med982b9bb8" y="287.773293"/>
     <use style="fill:#008000;stroke:#008000;" x="188.130779" xlink:href="#med982b9bb8" y="284.983803"/>
     <use style="fill:#008000;stroke:#008000;" x="194.822605" xlink:href="#med982b9bb8" y="282.447314"/>
     <use style="fill:#008000;stroke:#008000;" x="201.514432" xlink:href="#med982b9bb8" y="286.874511"/>
     <use style="fill:#008000;stroke:#008000;" x="208.206258" xlink:href="#med982b9bb8" y="286.826267"/>
     <use style="fill:#008000;stroke:#008000;" x="214.898084" xlink:href="#med982b9bb8" y="290.371221"/>
     <use style="fill:#008000;stroke:#008000;" x="221.589911" xlink:href="#med982b9bb8" y="288.732174"/>
     <use style="fill:#008000;stroke:#008000;" x="228.281737" xlink:href="#med982b9bb8" y="294.915263"/>
     <use style="fill:#008000;stroke:#008000;" x="234.973563" xlink:href="#med982b9bb8" y="276.546064"/>
     <use style="fill:#008000;stroke:#008000;" x="241.665389" xlink:href="#med982b9bb8" y="282.987738"/>
     <use style="fill:#008000;stroke:#008000;" x="248.357216" xlink:href="#med982b9bb8" y="269.071467"/>
     <use style="fill:#008000;stroke:#008000;" x="255.049042" xlink:href="#med982b9bb8" y="276.084934"/>
     <use style="fill:#008000;stroke:#008000;" x="261.740868" xlink:href="#med982b9bb8" y="269.169824"/>
     <use style="fill:#008000;stroke:#008000;" x="268.432695" xlink:href="#med982b9bb8" y="254.562347"/>
     <use style="fill:#008000;stroke:#008000;" x="275.124521" xlink:href="#med982b9bb8" y="245.208823"/>
     <use style="fill:#008000;stroke:#008000;" x="281.816347" xlink:href="#med982b9bb8" y="235.37456"/>
     <use style="fill:#008000;stroke:#008000;" x="288.508174" xlink:href="#med982b9bb8" y="220.359357"/>
     <use style="fill:#008000;stroke:#008000;" x="295.2" xlink:href="#med982b9bb8" y="219.477779"/>
     <use style="fill:#008000;stroke:#008000;" x="301.891826" xlink:href="#med982b9bb8" y="205.918661"/>
     <use style="fill:#008000;stroke:#008000;" x="308.583653" xlink:href="#med982b9bb8" y="208.59259"/>
     <use style="fill:#008000;stroke:#008000;" x="315.275479" xlink:href="#med982b9bb8" y="196.267227"/>
     <use style="fill:#008000;stroke:#008000;" x="321.967305" xlink:href="#med982b9bb8" y="189.310415"/>
     <use style="fill:#008000;stroke:#008000;" x="328.659132" xlink:href="#med982b9bb8" y="178.374148"/>
     <use style="fill:#008000;stroke:#008000;" x="335.350958" xlink:href="#med982b9bb8" y="162.812951"/>
     <use style="fill:#008000;stroke:#008000;" x="342.042784" xlink:href="#med982b9bb8" y="169.423152"/>
     <use style="fill:#008000;stroke:#008000;" x="348.734611" xlink:href="#med982b9bb8" y="156.80208"/>
     <use style="fill:#008000;stroke:#008000;" x="355.426437" xlink:href="#med982b9bb8" y="158.894133"/>
     <use style="fill:#008000;stroke:#008000;" x="362.118263" xlink:href="#med982b9bb8" y="140.779179"/>
     <use style="fill:#008000;stroke:#008000;" x="368.810089" xlink:href="#med982b9bb8" y="140.537237"/>
     <use style="fill:#008000;stroke:#008000;" x="375.501916" xlink:href="#med982b9bb8" y="143.351057"/>
     <use style="fill:#008000;stroke:#008000;" x="382.193742" xlink:href="#med982b9bb8" y="152.416546"/>
     <use style="fill:#008000;stroke:#008000;" x="388.885568" xlink:href="#med982b9bb8" y="147.75245"/>
     <use style="fill:#008000;stroke:#008000;" x="395.577395" xlink:href="#med982b9bb8" y="152.955115"/>
     <use style="fill:#008000;stroke:#008000;" x="402.269221" xlink:href="#med982b9bb8" y="160.236945"/>
     <use style="fill:#008000;stroke:#008000;" x="408.961047" xlink:href="#med982b9bb8" y="159.445332"/>
     <use style="fill:#008000;stroke:#008000;" x="415.652874" xlink:href="#med982b9bb8" y="164.788809"/>
     <use style="fill:#008000;stroke:#008000;" x="422.3447" xlink:href="#med982b9bb8" y="167.528837"/>
     <use style="fill:#008000;stroke:#008000;" x="429.036526" xlink:href="#med982b9bb8" y="175.864403"/>
     <use style="fill:#008000;stroke:#008000;" x="435.728353" xlink:href="#med982b9bb8" y="189.199893"/>
     <use style="fill:#008000;stroke:#008000;" x="442.420179" xlink:href="#med982b9bb8" y="189.955393"/>
     <use style="fill:#008000;stroke:#008000;" x="449.112005" xlink:href="#med982b9bb8" y="202.725254"/>
     <use style="fill:#008000;stroke:#008000;" x="455.803832" xlink:href="#med982b9bb8" y="213.653275"/>
     <use style="fill:#008000;stroke:#008000;" x="462.495658" xlink:href="#med982b9bb8" y="218.192101"/>
     <use style="fill:#008000;stroke:#008000;" x="469.187484" xlink:href="#med982b9bb8" y="222.93585"/>
     <use style="fill:#008000;stroke:#008000;" x="475.87931" xlink:href="#med982b9bb8" y="238.057274"/>
     <use style="fill:#008000;stroke:#008000;" x="482.571137" xlink:href="#med982b9bb8" y="250.533932"/>
     <use style="fill:#008000;stroke:#008000;" x="489.262963" xlink:href="#med982b9bb8" y="259.77181"/>
     <use style="fill:#008000;stroke:#008000;" x="495.954789" xlink:href="#med982b9bb8" y="260.721136"/>
    </g>
   </g>
   <g id="PathCollection_2">
    <g clip-path="url(#p49d9c53200)">
     <use style="fill:#008000;stroke:#008000;" x="94.445211" xlink:href="#med982b9bb8" y="303.989488"/>
     <use style="fill:#008000;stroke:#008000;" x="101.137037" xlink:href="#med982b9bb8" y="292.050049"/>
     <use style="fill:#008000;stroke:#008000;" x="107.828863" xlink:href="#med982b9bb8" y="264.453565"/>
     <use style="fill:#008000;stroke:#008000;" x="114.52069" xlink:href="#med982b9bb8" y="258.20197"/>
     <use style="fill:#008000;stroke:#008000;" x="121.212516" xlink:href="#med982b9bb8" y="230.492767"/>
     <use style="fill:#008000;stroke:#008000;" x="127.904342" xlink:href="#med982b9bb8" y="212.105361"/>
     <use style="fill:#008000;stroke:#008000;" x="134.596168" xlink:href="#med982b9bb8" y="197.776526"/>
     <use style="fill:#008000;stroke:#008000;" x="141.287995" xlink:href="#med982b9bb8" y="188.854034"/>
     <use style="fill:#008000;stroke:#008000;" x="147.979821" xlink:href="#med982b9bb8" y="163.557369"/>
     <use style="fill:#008000;stroke:#008000;" x="154.671647" xlink:href="#med982b9bb8" y="153.153421"/>
     <use style="fill:#008000;stroke:#008000;" x="161.363474" xlink:href="#med982b9bb8" y="132.679884"/>
     <use style="fill:#008000;stroke:#008000;" x="168.0553" xlink:href="#med982b9bb8" y="112.60837"/>
     <use style="fill:#008000;stroke:#008000;" x="174.747126" xlink:href="#med982b9bb8" y="102.067224"/>
     <use style="fill:#008000;stroke:#008000;" x="181.438953" xlink:href="#med982b9bb8" y="88.79018"/>
     <use style="fill:#008000;stroke:#008000;" x="188.130779" xlink:href="#med982b9bb8" y="90.390548"/>
     <use style="fill:#008000;stroke:#008000;" x="194.822605" xlink:href="#med982b9bb8" y="81.954134"/>
     <use style="fill:#008000;stroke:#008000;" x="201.514432" xlink:href="#med982b9bb8" y="68.0627"/>
     <use style="fill:#008000;stroke:#008000;" x="208.206258" xlink:href="#med982b9bb8" y="77.483358"/>
     <use style="fill:#008000;stroke:#008000;" x="214.898084" xlink:href="#med982b9bb8" y="73.405007"/>
     <use style="fill:#008000;stroke:#008000;" x="221.589911" xlink:href="#med982b9bb8" y="79.115013"/>
     <use style="fill:#008000;stroke:#008000;" x="228.281737" xlink:href="#med982b9bb8" y="85.969097"/>
     <use style="fill:#008000;stroke:#008000;" x="234.973563" xlink:href="#med982b9bb8" y="84.802824"/>
     <use style="fill:#008000;stroke:#008000;" x="241.665389" xlink:href="#med982b9bb8" y="91.334945"/>
     <use style="fill:#008000;stroke:#008000;" x="248.357216" xlink:href="#med982b9bb8" y="108.007957"/>
     <use style="fill:#008000;stroke:#008000;" x="255.049042" xlink:href="#med982b9bb8" y="114.310029"/>
     <use style="fill:#008000;stroke:#008000;" x="261.740868" xlink:href="#med982b9bb8" y="130.988688"/>
     <use style="fill:#008000;stroke:#008000;" x="268.432695" xlink:href="#med982b9bb8" y="148.667558"/>
     <use style="fill:#008000;stroke:#008000;" x="275.124521" xlink:href="#med982b9bb8" y="169.250542"/>
     <use style="fill:#008000;stroke:#008000;" x="281.816347" xlink:href="#med982b9bb8" y="180.845379"/>
     <use style="fill:#008000;stroke:#008000;" x="288.508174" xlink:href="#med982b9bb8" y="196.971838"/>
     <use style="fill:#008000;stroke:#008000;" x="295.2" xlink:href="#med982b9bb8" y="217.734449"/>
     <use style="fill:#008000;stroke:#008000;" x="301.891826" xlink:href="#med982b9bb8" y="232.637774"/>
     <use style="fill:#008000;stroke:#008000;" x="308.583653" xlink:href="#med982b9bb8" y="254.117729"/>
     <use style="fill:#008000;stroke:#008000;" x="315.275479" xlink:href="#med982b9bb8" y="269.988495"/>
     <use style="fill:#008000;stroke:#008000;" x="321.967305" xlink:href="#med982b9bb8" y="287.07487"/>
     <use style="fill:#008000;stroke:#008000;" x="328.659132" xlink:href="#med982b9bb8" y="312.733042"/>
     <use style="fill:#008000;stroke:#008000;" x="335.350958" xlink:href="#med982b9bb8" y="321.030071"/>
     <use style="fill:#008000;stroke:#008000;" x="342.042784" xlink:href="#med982b9bb8" y="333.212794"/>
     <use style="fill:#008000;stroke:#008000;" x="348.734611" xlink:href="#med982b9bb8" y="342.794757"/>
     <use style="fill:#008000;stroke:#008000;" x="355.426437" xlink:href="#med982b9bb8" y="355.690172"/>
     <use style="fill:#008000;stroke:#008000;" x="362.118263" xlink:href="#med982b9bb8" y="361.155966"/>
     <use style="fill:#008000;stroke:#008000;" x="368.810089" xlink:href="#med982b9bb8" y="365.295014"/>
     <use style="fill:#008000;stroke:#008000;" x="375.501916" xlink:href="#med982b9bb8" y="357.587747"/>
     <use style="fill:#008000;stroke:#008000;" x="382.193742" xlink:href="#med982b9bb8" y="366.933166"/>
     <use style="fill:#008000;stroke:#008000;" x="388.885568" xlink:href="#med982b9bb8" y="368.2573"/>
     <use style="fill:#008000;stroke:#008000;" x="395.577395" xlink:href="#med982b9bb8" y="362.808698"/>
     <use style="fill:#008000;stroke:#008000;" x="402.269221" xlink:href="#med982b9bb8" y="354.476974"/>
     <use style="fill:#008000;stroke:#008000;" x="408.961047" xlink:href="#med982b9bb8" y="348.390682"/>
     <use style="fill:#008000;stroke:#008000;" x="415.652874" xlink:href="#med982b9bb8" y="327.607389"/>
     <use style="fill:#008000;stroke:#008000;" x="422.3447" xlink:href="#med982b9bb8" y="315.041053"/>
     <use style="fill:#008000;stroke:#008000;" x="429.036526" xlink:href="#med982b9bb8" y="301.465434"/>
     <use style="fill:#008000;stroke:#008000;" x="435.728353" xlink:href="#med982b9bb8" y="287.739449"/>
     <use style="fill:#008000;stroke:#008000;" x="442.420179" xlink:href="#med982b9bb8" y="280.377589"/>
     <use style="fill:#008000;stroke:#008000;" x="449.112005" xlink:href="#med982b9bb8" y="262.749502"/>
     <use style="fill:#008000;stroke:#008000;" x="455.803832" xlink:href="#med982b9bb8" y="243.585011"/>
     <use style="fill:#008000;stroke:#008000;" x="462.495658" xlink:href="#med982b9bb8" y="213.421181"/>
     <use style="fill:#008000;stroke:#008000;" x="469.187484" xlink:href="#med982b9bb8" y="200.63552"/>
     <use style="fill:#008000;stroke:#008000;" x="475.87931" xlink:href="#med982b9bb8" y="176.760232"/>
     <use style="fill:#008000;stroke:#008000;" x="482.571137" xlink:href="#med982b9bb8" y="165.953137"/>
     <use style="fill:#008000;stroke:#008000;" x="489.262963" xlink:href="#med982b9bb8" y="145.755142"/>
     <use style="fill:#008000;stroke:#008000;" x="495.954789" xlink:href="#med982b9bb8" y="135.813988"/>
    </g>
   </g>
   <g id="matplotlib.axis_1">
    <g id="xtick_1">
     <g id="line2d_1">
      <defs>
       <path d="M 0 0 
L 0 3.5 
" id="m4c57cac945" style="stroke:#000000;stroke-width:0.8;"/>
      </defs>
      <g>
       <use style="stroke:#000000;stroke-width:0.8;" x="94.445211" xlink:href="#m4c57cac945" y="384.48"/>
      </g>
     </g>
     <g id="text_1">
      <!-- −0.6 -->
      <defs>
       <path d="M 10.59375 35.5 
L 73.1875 35.5 
L 73.1875 27.203125 
L 10.59375 27.203125 
z
" id="DejaVuSans-2212"/>
       <path d="M 31.78125 66.40625 
Q 24.171875 66.40625 20.328125 58.90625 
Q 16.5 51.421875 16.5 36.375 
Q 16.5 21.390625 20.328125 13.890625 
Q 24.171875 6.390625 31.78125 6.390625 
Q 39.453125 6.390625 43.28125 13.890625 
Q 47.125 21.390625 47.125 36.375 
Q 47.125 51.421875 43.28125 58.90625 
Q 39.453125 66.40625 31.78125 66.40625 
z
M 31.78125 74.21875 
Q 44.046875 74.21875 50.515625 64.515625 
Q 56.984375 54.828125 56.984375 36.375 
Q 56.984375 17.96875 50.515625 8.265625 
Q 44.046875 -1.421875 31.78125 -1.421875 
Q 19.53125 -1.421875 13.0625 8.265625 
Q 6.59375 17.96875 6.59375 36.375 
Q 6.59375 54.828125 13.0625 64.515625 
Q 19.53125 74.21875 31.78125 74.21875 
z
" id="DejaVuSans-30"/>
       <path d="M 10.6875 12.40625 
L 21 12.40625 
L 21 0 
L 10.6875 0 
z
" id="DejaVuSans-2e"/>
       <path d="M 33.015625 40.375 
Q 26.375 40.375 22.484375 35.828125 
Q 18.609375 31.296875 18.609375 23.390625 
Q 18.609375 15.53125 22.484375 10.953125 
Q 26.375 6.390625 33.015625 6.390625 
Q 39.65625 6.390625 43.53125 10.953125 
Q 47.40625 15.53125 47.40625 23.390625 
Q 47.40625 31.296875 43.53125 35.828125 
Q 39.65625 40.375 33.015625 40.375 
z
M 52.59375 71.296875 
L 52.59375 62.3125 
Q 48.875 64.0625 45.09375 64.984375 
Q 41.3125 65.921875 37.59375 65.921875 
Q 27.828125 65.921875 22.671875 59.328125 
Q 17.53125 52.734375 16.796875 39.40625 
Q 19.671875 43.65625 24.015625 45.921875 
Q 28.375 48.1875 33.59375 48.1875 
Q 44.578125 48.1875 50.953125 41.515625 
Q 57.328125 34.859375 57.328125 23.390625 
Q 57.328125 12.15625 50.6875 5.359375 
Q 44.046875 -1.421875 33.015625 -1.421875 
Q 20.359375 -1.421875 13.671875 8.265625 
Q 6.984375 17.96875 6.984375 36.375 
Q 6.984375 53.65625 15.1875 63.9375 
Q 23.390625 74.21875 37.203125 74.21875 
Q 40.921875 74.21875 44.703125 73.484375 
Q 48.484375 72.75 52.59375 71.296875 
z
" id="DejaVuSans-36"/>
      </defs>
      <g transform="translate(82.303804 399.078438)scale(0.1 -0.1)">
       <use xlink:href="#DejaVuSans-2212"/>
       <use x="83.789062" xlink:href="#DejaVuSans-30"/>
       <use x="147.412109" xlink:href="#DejaVuSans-2e"/>
       <use x="179.199219" xlink:href="#DejaVuSans-36"/>
      </g>
     </g>
    </g>
    <g id="xtick_2">
     <g id="line2d_2">
      <g>
       <use style="stroke:#000000;stroke-width:0.8;" x="161.363474" xlink:href="#m4c57cac945" y="384.48"/>
      </g>
     </g>
     <g id="text_2">
      <!-- −0.4 -->
      <defs>
       <path d="M 37.796875 64.3125 
L 12.890625 25.390625 
L 37.796875 25.390625 
z
M 35.203125 72.90625 
L 47.609375 72.90625 
L 47.609375 25.390625 
L 58.015625 25.390625 
L 58.015625 17.1875 
L 47.609375 17.1875 
L 47.609375 0 
L 37.796875 0 
L 37.796875 17.1875 
L 4.890625 17.1875 
L 4.890625 26.703125 
z
" id="DejaVuSans-34"/>
      </defs>
      <g transform="translate(149.222067 399.078438)scale(0.1 -0.1)">
       <use xlink:href="#DejaVuSans-2212"/>
       <use x="83.789062" xlink:href="#DejaVuSans-30"/>
       <use x="147.412109" xlink:href="#DejaVuSans-2e"/>
       <use x="179.199219" xlink:href="#DejaVuSans-34"/>
      </g>
     </g>
    </g>
    <g id="xtick_3">
     <g id="line2d_3">
      <g>
       <use style="stroke:#000000;stroke-width:0.8;" x="228.281737" xlink:href="#m4c57cac945" y="384.48"/>
      </g>
     </g>
     <g id="text_3">
      <!-- −0.2 -->
      <defs>
       <path d="M 19.1875 8.296875 
L 53.609375 8.296875 
L 53.609375 0 
L 7.328125 0 
L 7.328125 8.296875 
Q 12.9375 14.109375 22.625 23.890625 
Q 32.328125 33.6875 34.8125 36.53125 
Q 39.546875 41.84375 41.421875 45.53125 
Q 43.3125 49.21875 43.3125 52.78125 
Q 43.3125 58.59375 39.234375 62.25 
Q 35.15625 65.921875 28.609375 65.921875 
Q 23.96875 65.921875 18.8125 64.3125 
Q 13.671875 62.703125 7.8125 59.421875 
L 7.8125 69.390625 
Q 13.765625 71.78125 18.9375 73 
Q 24.125 74.21875 28.421875 74.21875 
Q 39.75 74.21875 46.484375 68.546875 
Q 53.21875 62.890625 53.21875 53.421875 
Q 53.21875 48.921875 51.53125 44.890625 
Q 49.859375 40.875 45.40625 35.40625 
Q 44.1875 33.984375 37.640625 27.21875 
Q 31.109375 20.453125 19.1875 8.296875 
z
" id="DejaVuSans-32"/>
      </defs>
      <g transform="translate(216.140331 399.078438)scale(0.1 -0.1)">
       <use xlink:href="#DejaVuSans-2212"/>
       <use x="83.789062" xlink:href="#DejaVuSans-30"/>
       <use x="147.412109" xlink:href="#DejaVuSans-2e"/>
       <use x="179.199219" xlink:href="#DejaVuSans-32"/>
      </g>
     </g>
    </g>
    <g id="xtick_4">
     <g id="line2d_4">
      <g>
       <use style="stroke:#000000;stroke-width:0.8;" x="295.2" xlink:href="#m4c57cac945" y="384.48"/>
      </g>
     </g>
     <g id="text_4">
      <!-- 0.0 -->
      <g transform="translate(287.248437 399.078438)scale(0.1 -0.1)">
       <use xlink:href="#DejaVuSans-30"/>
       <use x="63.623047" xlink:href="#DejaVuSans-2e"/>
       <use x="95.410156" xlink:href="#DejaVuSans-30"/>
      </g>
     </g>
    </g>
    <g id="xtick_5">
     <g id="line2d_5">
      <g>
       <use style="stroke:#000000;stroke-width:0.8;" x="362.118263" xlink:href="#m4c57cac945" y="384.48"/>
      </g>
     </g>
     <g id="text_5">
      <!-- 0.2 -->
      <g transform="translate(354.166701 399.078438)scale(0.1 -0.1)">
       <use xlink:href="#DejaVuSans-30"/>
       <use x="63.623047" xlink:href="#DejaVuSans-2e"/>
       <use x="95.410156" xlink:href="#DejaVuSans-32"/>
      </g>
     </g>
    </g>
    <g id="xtick_6">
     <g id="line2d_6">
      <g>
       <use style="stroke:#000000;stroke-width:0.8;" x="429.036526" xlink:href="#m4c57cac945" y="384.48"/>
      </g>
     </g>
     <g id="text_6">
      <!-- 0.4 -->
      <g transform="translate(421.084964 399.078438)scale(0.1 -0.1)">
       <use xlink:href="#DejaVuSans-30"/>
       <use x="63.623047" xlink:href="#DejaVuSans-2e"/>
       <use x="95.410156" xlink:href="#DejaVuSans-34"/>
      </g>
     </g>
    </g>
    <g id="xtick_7">
     <g id="line2d_7">
      <g>
       <use style="stroke:#000000;stroke-width:0.8;" x="495.954789" xlink:href="#m4c57cac945" y="384.48"/>
      </g>
     </g>
     <g id="text_7">
      <!-- 0.6 -->
      <g transform="translate(488.003227 399.078438)scale(0.1 -0.1)">
       <use xlink:href="#DejaVuSans-30"/>
       <use x="63.623047" xlink:href="#DejaVuSans-2e"/>
       <use x="95.410156" xlink:href="#DejaVuSans-36"/>
      </g>
     </g>
    </g>
    <g id="text_8">
     <!-- Phase -->
     <defs>
      <path d="M 19.671875 64.796875 
L 19.671875 37.40625 
L 32.078125 37.40625 
Q 38.96875 37.40625 42.71875 40.96875 
Q 46.484375 44.53125 46.484375 51.125 
Q 46.484375 57.671875 42.71875 61.234375 
Q 38.96875 64.796875 32.078125 64.796875 
z
M 9.8125 72.90625 
L 32.078125 72.90625 
Q 44.34375 72.90625 50.609375 67.359375 
Q 56.890625 61.8125 56.890625 51.125 
Q 56.890625 40.328125 50.609375 34.8125 
Q 44.34375 29.296875 32.078125 29.296875 
L 19.671875 29.296875 
L 19.671875 0 
L 9.8125 0 
z
" id="DejaVuSans-50"/>
      <path d="M 54.890625 33.015625 
L 54.890625 0 
L 45.90625 0 
L 45.90625 32.71875 
Q 45.90625 40.484375 42.875 44.328125 
Q 39.84375 48.1875 33.796875 48.1875 
Q 26.515625 48.1875 22.3125 43.546875 
Q 18.109375 38.921875 18.109375 30.90625 
L 18.109375 0 
L 9.078125 0 
L 9.078125 75.984375 
L 18.109375 75.984375 
L 18.109375 46.1875 
Q 21.34375 51.125 25.703125 53.5625 
Q 30.078125 56 35.796875 56 
Q 45.21875 56 50.046875 50.171875 
Q 54.890625 44.34375 54.890625 33.015625 
z
" id="DejaVuSans-68"/>
      <path d="M 34.28125 27.484375 
Q 23.390625 27.484375 19.1875 25 
Q 14.984375 22.515625 14.984375 16.5 
Q 14.984375 11.71875 18.140625 8.90625 
Q 21.296875 6.109375 26.703125 6.109375 
Q 34.1875 6.109375 38.703125 11.40625 
Q 43.21875 16.703125 43.21875 25.484375 
L 43.21875 27.484375 
z
M 52.203125 31.203125 
L 52.203125 0 
L 43.21875 0 
L 43.21875 8.296875 
Q 40.140625 3.328125 35.546875 0.953125 
Q 30.953125 -1.421875 24.3125 -1.421875 
Q 15.921875 -1.421875 10.953125 3.296875 
Q 6 8.015625 6 15.921875 
Q 6 25.140625 12.171875 29.828125 
Q 18.359375 34.515625 30.609375 34.515625 
L 43.21875 34.515625 
L 43.21875 35.40625 
Q 43.21875 41.609375 39.140625 45 
Q 35.0625 48.390625 27.6875 48.390625 
Q 23 48.390625 18.546875 47.265625 
Q 14.109375 46.140625 10.015625 43.890625 
L 10.015625 52.203125 
Q 14.9375 54.109375 19.578125 55.046875 
Q 24.21875 56 28.609375 56 
Q 40.484375 56 46.34375 49.84375 
Q 52.203125 43.703125 52.203125 31.203125 
z
" id="DejaVuSans-61"/>
      <path d="M 44.28125 53.078125 
L 44.28125 44.578125 
Q 40.484375 46.53125 36.375 47.5 
Q 32.28125 48.484375 27.875 48.484375 
Q 21.1875 48.484375 17.84375 46.4375 
Q 14.5 44.390625 14.5 40.28125 
Q 14.5 37.15625 16.890625 35.375 
Q 19.28125 33.59375 26.515625 31.984375 
L 29.59375 31.296875 
Q 39.15625 29.25 43.1875 25.515625 
Q 47.21875 21.78125 47.21875 15.09375 
Q 47.21875 7.46875 41.1875 3.015625 
Q 35.15625 -1.421875 24.609375 -1.421875 
Q 20.21875 -1.421875 15.453125 -0.5625 
Q 10.6875 0.296875 5.421875 2 
L 5.421875 11.28125 
Q 10.40625 8.6875 15.234375 7.390625 
Q 20.0625 6.109375 24.8125 6.109375 
Q 31.15625 6.109375 34.5625 8.28125 
Q 37.984375 10.453125 37.984375 14.40625 
Q 37.984375 18.0625 35.515625 20.015625 
Q 33.0625 21.96875 24.703125 23.78125 
L 21.578125 24.515625 
Q 13.234375 26.265625 9.515625 29.90625 
Q 5.8125 33.546875 5.8125 39.890625 
Q 5.8125 47.609375 11.28125 51.796875 
Q 16.75 56 26.8125 56 
Q 31.78125 56 36.171875 55.265625 
Q 40.578125 54.546875 44.28125 53.078125 
z
" id="DejaVuSans-73"/>
      <path d="M 56.203125 29.59375 
L 56.203125 25.203125 
L 14.890625 25.203125 
Q 15.484375 15.921875 20.484375 11.0625 
Q 25.484375 6.203125 34.421875 6.203125 
Q 39.59375 6.203125 44.453125 7.46875 
Q 49.3125 8.734375 54.109375 11.28125 
L 54.109375 2.78125 
Q 49.265625 0.734375 44.1875 -0.34375 
Q 39.109375 -1.421875 33.890625 -1.421875 
Q 20.796875 -1.421875 13.15625 6.1875 
Q 5.515625 13.8125 5.515625 26.8125 
Q 5.515625 40.234375 12.765625 48.109375 
Q 20.015625 56 32.328125 56 
Q 43.359375 56 49.78125 48.890625 
Q 56.203125 41.796875 56.203125 29.59375 
z
M 47.21875 32.234375 
Q 47.125 39.59375 43.09375 43.984375 
Q 39.0625 48.390625 32.421875 48.390625 
Q 24.90625 48.390625 20.390625 44.140625 
Q 15.875 39.890625 15.1875 32.171875 
z
" id="DejaVuSans-65"/>
     </defs>
     <g transform="translate(280.271094 412.756563)scale(0.1 -0.1)">
      <use xlink:href="#DejaVuSans-50"/>
      <use x="60.302734" xlink:href="#DejaVuSans-68"/>
      <use x="123.681641" xlink:href="#DejaVuSans-61"/>
      <use x="184.960938" xlink:href="#DejaVuSans-73"/>
      <use x="237.060547" xlink:href="#DejaVuSans-65"/>
     </g>
    </g>
   </g>
   <g id="matplotlib.axis_2">
    <g id="ytick_1">
     <g id="line2d_8">
      <defs>
       <path d="M 0 0 
L -3.5 0 
" id="m18bfdfee47" style="stroke:#000000;stroke-width:0.8;"/>
      </defs>
      <g>
       <use style="stroke:#000000;stroke-width:0.8;" x="72" xlink:href="#m18bfdfee47" y="360.598158"/>
      </g>
     </g>
     <g id="text_9">
      <!-- −100000 -->
      <defs>
       <path d="M 12.40625 8.296875 
L 28.515625 8.296875 
L 28.515625 63.921875 
L 10.984375 60.40625 
L 10.984375 69.390625 
L 28.421875 72.90625 
L 38.28125 72.90625 
L 38.28125 8.296875 
L 54.390625 8.296875 
L 54.390625 0 
L 12.40625 0 
z
" id="DejaVuSans-31"/>
      </defs>
      <g transform="translate(18.445312 364.397377)scale(0.1 -0.1)">
       <use xlink:href="#DejaVuSans-2212"/>
       <use x="83.789062" xlink:href="#DejaVuSans-31"/>
       <use x="147.412109" xlink:href="#DejaVuSans-30"/>
       <use x="211.035156" xlink:href="#DejaVuSans-30"/>
       <use x="274.658203" xlink:href="#DejaVuSans-30"/>
       <use x="338.28125" xlink:href="#DejaVuSans-30"/>
       <use x="401.904297" xlink:href="#DejaVuSans-30"/>
      </g>
     </g>
    </g>
    <g id="ytick_2">
     <g id="line2d_9">
      <g>
       <use style="stroke:#000000;stroke-width:0.8;" x="72" xlink:href="#m18bfdfee47" y="301.450729"/>
      </g>
     </g>
     <g id="text_10">
      <!-- −50000 -->
      <defs>
       <path d="M 10.796875 72.90625 
L 49.515625 72.90625 
L 49.515625 64.59375 
L 19.828125 64.59375 
L 19.828125 46.734375 
Q 21.96875 47.46875 24.109375 47.828125 
Q 26.265625 48.1875 28.421875 48.1875 
Q 40.625 48.1875 47.75 41.5 
Q 54.890625 34.8125 54.890625 23.390625 
Q 54.890625 11.625 47.5625 5.09375 
Q 40.234375 -1.421875 26.90625 -1.421875 
Q 22.3125 -1.421875 17.546875 -0.640625 
Q 12.796875 0.140625 7.71875 1.703125 
L 7.71875 11.625 
Q 12.109375 9.234375 16.796875 8.0625 
Q 21.484375 6.890625 26.703125 6.890625 
Q 35.15625 6.890625 40.078125 11.328125 
Q 45.015625 15.765625 45.015625 23.390625 
Q 45.015625 31 40.078125 35.4375 
Q 35.15625 39.890625 26.703125 39.890625 
Q 22.75 39.890625 18.8125 39.015625 
Q 14.890625 38.140625 10.796875 36.28125 
z
" id="DejaVuSans-35"/>
      </defs>
      <g transform="translate(24.807812 305.249948)scale(0.1 -0.1)">
       <use xlink:href="#DejaVuSans-2212"/>
       <use x="83.789062" xlink:href="#DejaVuSans-35"/>
       <use x="147.412109" xlink:href="#DejaVuSans-30"/>
       <use x="211.035156" xlink:href="#DejaVuSans-30"/>
       <use x="274.658203" xlink:href="#DejaVuSans-30"/>
       <use x="338.28125" xlink:href="#DejaVuSans-30"/>
      </g>
     </g>
    </g>
    <g id="ytick_3">
     <g id="line2d_10">
      <g>
       <use style="stroke:#000000;stroke-width:0.8;" x="72" xlink:href="#m18bfdfee47" y="242.3033"/>
      </g>
     </g>
     <g id="text_11">
      <!-- 0 -->
      <g transform="translate(58.6375 246.102519)scale(0.1 -0.1)">
       <use xlink:href="#DejaVuSans-30"/>
      </g>
     </g>
    </g>
    <g id="ytick_4">
     <g id="line2d_11">
      <g>
       <use style="stroke:#000000;stroke-width:0.8;" x="72" xlink:href="#m18bfdfee47" y="183.155871"/>
      </g>
     </g>
     <g id="text_12">
      <!-- 50000 -->
      <g transform="translate(33.1875 186.955089)scale(0.1 -0.1)">
       <use xlink:href="#DejaVuSans-35"/>
       <use x="63.623047" xlink:href="#DejaVuSans-30"/>
       <use x="127.246094" xlink:href="#DejaVuSans-30"/>
       <use x="190.869141" xlink:href="#DejaVuSans-30"/>
       <use x="254.492188" xlink:href="#DejaVuSans-30"/>
      </g>
     </g>
    </g>
    <g id="ytick_5">
     <g id="line2d_12">
      <g>
       <use style="stroke:#000000;stroke-width:0.8;" x="72" xlink:href="#m18bfdfee47" y="124.008441"/>
      </g>
     </g>
     <g id="text_13">
      <!-- 100000 -->
      <g transform="translate(26.825 127.80766)scale(0.1 -0.1)">
       <use xlink:href="#DejaVuSans-31"/>
       <use x="63.623047" xlink:href="#DejaVuSans-30"/>
       <use x="127.246094" xlink:href="#DejaVuSans-30"/>
       <use x="190.869141" xlink:href="#DejaVuSans-30"/>
       <use x="254.492188" xlink:href="#DejaVuSans-30"/>
       <use x="318.115234" xlink:href="#DejaVuSans-30"/>
      </g>
     </g>
    </g>
    <g id="ytick_6">
     <g id="line2d_13">
      <g>
       <use style="stroke:#000000;stroke-width:0.8;" x="72" xlink:href="#m18bfdfee47" y="64.861012"/>
      </g>
     </g>
     <g id="text_14">
      <!-- 150000 -->
      <g transform="translate(26.825 68.660231)scale(0.1 -0.1)">
       <use xlink:href="#DejaVuSans-31"/>
       <use x="63.623047" xlink:href="#DejaVuSans-35"/>
       <use x="127.246094" xlink:href="#DejaVuSans-30"/>
       <use x="190.869141" xlink:href="#DejaVuSans-30"/>
       <use x="254.492188" xlink:href="#DejaVuSans-30"/>
       <use x="318.115234" xlink:href="#DejaVuSans-30"/>
      </g>
     </g>
    </g>
    <g id="text_15">
     <!-- Radial Velocity/($m/s$) -->
     <defs>
      <path d="M 44.390625 34.1875 
Q 47.5625 33.109375 50.5625 29.59375 
Q 53.5625 26.078125 56.59375 19.921875 
L 66.609375 0 
L 56 0 
L 46.6875 18.703125 
Q 43.0625 26.03125 39.671875 28.421875 
Q 36.28125 30.8125 30.421875 30.8125 
L 19.671875 30.8125 
L 19.671875 0 
L 9.8125 0 
L 9.8125 72.90625 
L 32.078125 72.90625 
Q 44.578125 72.90625 50.734375 67.671875 
Q 56.890625 62.453125 56.890625 51.90625 
Q 56.890625 45.015625 53.6875 40.46875 
Q 50.484375 35.9375 44.390625 34.1875 
z
M 19.671875 64.796875 
L 19.671875 38.921875 
L 32.078125 38.921875 
Q 39.203125 38.921875 42.84375 42.21875 
Q 46.484375 45.515625 46.484375 51.90625 
Q 46.484375 58.296875 42.84375 61.546875 
Q 39.203125 64.796875 32.078125 64.796875 
z
" id="DejaVuSans-52"/>
      <path d="M 45.40625 46.390625 
L 45.40625 75.984375 
L 54.390625 75.984375 
L 54.390625 0 
L 45.40625 0 
L 45.40625 8.203125 
Q 42.578125 3.328125 38.25 0.953125 
Q 33.9375 -1.421875 27.875 -1.421875 
Q 17.96875 -1.421875 11.734375 6.484375 
Q 5.515625 14.40625 5.515625 27.296875 
Q 5.515625 40.1875 11.734375 48.09375 
Q 17.96875 56 27.875 56 
Q 33.9375 56 38.25 53.625 
Q 42.578125 51.265625 45.40625 46.390625 
z
M 14.796875 27.296875 
Q 14.796875 17.390625 18.875 11.75 
Q 22.953125 6.109375 30.078125 6.109375 
Q 37.203125 6.109375 41.296875 11.75 
Q 45.40625 17.390625 45.40625 27.296875 
Q 45.40625 37.203125 41.296875 42.84375 
Q 37.203125 48.484375 30.078125 48.484375 
Q 22.953125 48.484375 18.875 42.84375 
Q 14.796875 37.203125 14.796875 27.296875 
z
" id="DejaVuSans-64"/>
      <path d="M 9.421875 54.6875 
L 18.40625 54.6875 
L 18.40625 0 
L 9.421875 0 
z
M 9.421875 75.984375 
L 18.40625 75.984375 
L 18.40625 64.59375 
L 9.421875 64.59375 
z
" id="DejaVuSans-69"/>
      <path d="M 9.421875 75.984375 
L 18.40625 75.984375 
L 18.40625 0 
L 9.421875 0 
z
" id="DejaVuSans-6c"/>
      <path id="DejaVuSans-20"/>
      <path d="M 28.609375 0 
L 0.78125 72.90625 
L 11.078125 72.90625 
L 34.1875 11.53125 
L 57.328125 72.90625 
L 67.578125 72.90625 
L 39.796875 0 
z
" id="DejaVuSans-56"/>
      <path d="M 30.609375 48.390625 
Q 23.390625 48.390625 19.1875 42.75 
Q 14.984375 37.109375 14.984375 27.296875 
Q 14.984375 17.484375 19.15625 11.84375 
Q 23.34375 6.203125 30.609375 6.203125 
Q 37.796875 6.203125 41.984375 11.859375 
Q 46.1875 17.53125 46.1875 27.296875 
Q 46.1875 37.015625 41.984375 42.703125 
Q 37.796875 48.390625 30.609375 48.390625 
z
M 30.609375 56 
Q 42.328125 56 49.015625 48.375 
Q 55.71875 40.765625 55.71875 27.296875 
Q 55.71875 13.875 49.015625 6.21875 
Q 42.328125 -1.421875 30.609375 -1.421875 
Q 18.84375 -1.421875 12.171875 6.21875 
Q 5.515625 13.875 5.515625 27.296875 
Q 5.515625 40.765625 12.171875 48.375 
Q 18.84375 56 30.609375 56 
z
" id="DejaVuSans-6f"/>
      <path d="M 48.78125 52.59375 
L 48.78125 44.1875 
Q 44.96875 46.296875 41.140625 47.34375 
Q 37.3125 48.390625 33.40625 48.390625 
Q 24.65625 48.390625 19.8125 42.84375 
Q 14.984375 37.3125 14.984375 27.296875 
Q 14.984375 17.28125 19.8125 11.734375 
Q 24.65625 6.203125 33.40625 6.203125 
Q 37.3125 6.203125 41.140625 7.25 
Q 44.96875 8.296875 48.78125 10.40625 
L 48.78125 2.09375 
Q 45.015625 0.34375 40.984375 -0.53125 
Q 36.96875 -1.421875 32.421875 -1.421875 
Q 20.0625 -1.421875 12.78125 6.34375 
Q 5.515625 14.109375 5.515625 27.296875 
Q 5.515625 40.671875 12.859375 48.328125 
Q 20.21875 56 33.015625 56 
Q 37.15625 56 41.109375 55.140625 
Q 45.0625 54.296875 48.78125 52.59375 
z
" id="DejaVuSans-63"/>
      <path d="M 18.3125 70.21875 
L 18.3125 54.6875 
L 36.8125 54.6875 
L 36.8125 47.703125 
L 18.3125 47.703125 
L 18.3125 18.015625 
Q 18.3125 11.328125 20.140625 9.421875 
Q 21.96875 7.515625 27.59375 7.515625 
L 36.8125 7.515625 
L 36.8125 0 
L 27.59375 0 
Q 17.1875 0 13.234375 3.875 
Q 9.28125 7.765625 9.28125 18.015625 
L 9.28125 47.703125 
L 2.6875 47.703125 
L 2.6875 54.6875 
L 9.28125 54.6875 
L 9.28125 70.21875 
z
" id="DejaVuSans-74"/>
      <path d="M 32.171875 -5.078125 
Q 28.375 -14.84375 24.75 -17.8125 
Q 21.140625 -20.796875 15.09375 -20.796875 
L 7.90625 -20.796875 
L 7.90625 -13.28125 
L 13.1875 -13.28125 
Q 16.890625 -13.28125 18.9375 -11.515625 
Q 21 -9.765625 23.484375 -3.21875 
L 25.09375 0.875 
L 2.984375 54.6875 
L 12.5 54.6875 
L 29.59375 11.921875 
L 46.6875 54.6875 
L 56.203125 54.6875 
z
" id="DejaVuSans-79"/>
      <path d="M 25.390625 72.90625 
L 33.6875 72.90625 
L 8.296875 -9.28125 
L 0 -9.28125 
z
" id="DejaVuSans-2f"/>
      <path d="M 31 75.875 
Q 24.46875 64.65625 21.28125 53.65625 
Q 18.109375 42.671875 18.109375 31.390625 
Q 18.109375 20.125 21.3125 9.0625 
Q 24.515625 -2 31 -13.1875 
L 23.1875 -13.1875 
Q 15.875 -1.703125 12.234375 9.375 
Q 8.59375 20.453125 8.59375 31.390625 
Q 8.59375 42.28125 12.203125 53.3125 
Q 15.828125 64.359375 23.1875 75.875 
z
" id="DejaVuSans-28"/>
      <path d="M 89.796875 33.015625 
L 83.40625 0 
L 74.421875 0 
L 80.71875 32.71875 
Q 81.109375 34.8125 81.296875 36.328125 
Q 81.5 37.84375 81.5 38.921875 
Q 81.5 43.3125 79.046875 45.75 
Q 76.609375 48.1875 72.21875 48.1875 
Q 65.671875 48.1875 60.546875 43.28125 
Q 55.421875 38.375 53.90625 30.515625 
L 47.90625 0 
L 38.921875 0 
L 45.3125 32.71875 
Q 45.703125 34.515625 45.890625 36.046875 
Q 46.09375 37.59375 46.09375 38.8125 
Q 46.09375 43.265625 43.65625 45.71875 
Q 41.21875 48.1875 36.921875 48.1875 
Q 30.28125 48.1875 25.140625 43.28125 
Q 20.015625 38.375 18.5 30.515625 
L 12.5 0 
L 3.515625 0 
L 14.203125 54.6875 
L 23.1875 54.6875 
L 21.484375 46.1875 
Q 25.140625 50.984375 30.046875 53.484375 
Q 34.96875 56 40.578125 56 
Q 46.53125 56 50.359375 52.875 
Q 54.203125 49.75 54.984375 44.1875 
Q 59.078125 49.953125 64.46875 52.96875 
Q 69.875 56 75.875 56 
Q 82.90625 56 86.734375 51.953125 
Q 90.578125 47.90625 90.578125 40.484375 
Q 90.578125 38.875 90.375 36.9375 
Q 90.1875 35.015625 89.796875 33.015625 
z
" id="DejaVuSans-Oblique-6d"/>
      <path d="M 50 53.078125 
L 48.296875 44.578125 
Q 44.734375 46.53125 40.765625 47.5 
Q 36.8125 48.484375 32.625 48.484375 
Q 25.53125 48.484375 21.453125 46.0625 
Q 17.390625 43.65625 17.390625 39.5 
Q 17.390625 34.671875 26.859375 32.078125 
Q 27.59375 31.890625 27.9375 31.78125 
L 30.8125 30.90625 
Q 39.796875 28.421875 42.796875 25.6875 
Q 45.796875 22.953125 45.796875 18.21875 
Q 45.796875 9.515625 38.890625 4.046875 
Q 31.984375 -1.421875 20.796875 -1.421875 
Q 16.453125 -1.421875 11.671875 -0.578125 
Q 6.890625 0.25 1.125 2 
L 2.875 11.28125 
Q 7.8125 8.734375 12.59375 7.421875 
Q 17.390625 6.109375 21.78125 6.109375 
Q 28.375 6.109375 32.5 8.9375 
Q 36.625 11.765625 36.625 16.109375 
Q 36.625 20.796875 25.78125 23.6875 
L 24.859375 23.921875 
L 21.78125 24.703125 
Q 14.9375 26.515625 11.765625 29.46875 
Q 8.59375 32.421875 8.59375 37.015625 
Q 8.59375 45.75 15.15625 50.875 
Q 21.734375 56 33.015625 56 
Q 37.453125 56 41.671875 55.265625 
Q 45.90625 54.546875 50 53.078125 
z
" id="DejaVuSans-Oblique-73"/>
      <path d="M 8.015625 75.875 
L 15.828125 75.875 
Q 23.140625 64.359375 26.78125 53.3125 
Q 30.421875 42.28125 30.421875 31.390625 
Q 30.421875 20.453125 26.78125 9.375 
Q 23.140625 -1.703125 15.828125 -13.1875 
L 8.015625 -13.1875 
Q 14.5 -2 17.703125 9.0625 
Q 20.90625 20.125 20.90625 31.390625 
Q 20.90625 42.671875 17.703125 53.65625 
Q 14.5 64.65625 8.015625 75.875 
z
" id="DejaVuSans-29"/>
     </defs>
     <g transform="translate(12.345312 270.06)rotate(-90)scale(0.1 -0.1)">
      <use transform="translate(0 0.015625)" xlink:href="#DejaVuSans-52"/>
      <use transform="translate(69.482422 0.015625)" xlink:href="#DejaVuSans-61"/>
      <use transform="translate(130.761719 0.015625)" xlink:href="#DejaVuSans-64"/>
      <use transform="translate(194.238281 0.015625)" xlink:href="#DejaVuSans-69"/>
      <use transform="translate(222.021484 0.015625)" xlink:href="#DejaVuSans-61"/>
      <use transform="translate(283.300781 0.015625)" xlink:href="#DejaVuSans-6c"/>
      <use transform="translate(311.083984 0.015625)" xlink:href="#DejaVuSans-20"/>
      <use transform="translate(342.871094 0.015625)" xlink:href="#DejaVuSans-56"/>
      <use transform="translate(411.279297 0.015625)" xlink:href="#DejaVuSans-65"/>
      <use transform="translate(472.802734 0.015625)" xlink:href="#DejaVuSans-6c"/>
      <use transform="translate(500.585938 0.015625)" xlink:href="#DejaVuSans-6f"/>
      <use transform="translate(561.767578 0.015625)" xlink:href="#DejaVuSans-63"/>
      <use transform="translate(616.748047 0.015625)" xlink:href="#DejaVuSans-69"/>
      <use transform="translate(644.53125 0.015625)" xlink:href="#DejaVuSans-74"/>
      <use transform="translate(683.740234 0.015625)" xlink:href="#DejaVuSans-79"/>
      <use transform="translate(742.919922 0.015625)" xlink:href="#DejaVuSans-2f"/>
      <use transform="translate(776.611328 0.015625)" xlink:href="#DejaVuSans-28"/>
      <use transform="translate(815.625 0.015625)" xlink:href="#DejaVuSans-Oblique-6d"/>
      <use transform="translate(913.037109 0.015625)" xlink:href="#DejaVuSans-2f"/>
      <use transform="translate(946.728516 0.015625)" xlink:href="#DejaVuSans-Oblique-73"/>
      <use transform="translate(998.828125 0.015625)" xlink:href="#DejaVuSans-29"/>
     </g>
    </g>
   </g>
   <g id="line2d_14">
    <path clip-path="url(#p49d9c53200)" d="M 94.445211 176.437158 
L 101.137037 184.112485 
L 107.828863 192.337776 
L 114.52069 200.983314 
L 121.212516 209.912754 
L 127.904342 218.985272 
L 134.596168 228.057791 
L 141.287995 236.987231 
L 147.979821 245.632769 
L 154.671647 253.85806 
L 161.363474 261.533387 
L 168.0553 268.537704 
L 174.747126 274.76055 
L 181.438953 280.103786 
L 188.130779 284.483147 
L 194.822605 287.829567 
L 201.514432 290.090272 
L 208.206258 291.229608 
L 214.898084 291.229608 
L 221.589911 290.090272 
L 228.281737 287.829567 
L 234.973563 284.483147 
L 241.665389 280.103786 
L 248.357216 274.76055 
L 255.049042 268.537704 
L 261.740868 261.533387 
L 268.432695 253.85806 
L 275.124521 245.632769 
L 281.816347 236.987231 
L 288.508174 228.057791 
L 295.2 218.985272 
L 301.891826 209.912754 
L 308.583653 200.983314 
L 315.275479 192.337776 
L 321.967305 184.112485 
L 328.659132 176.437158 
L 335.350958 169.432841 
L 342.042784 163.209995 
L 348.734611 157.866759 
L 355.426437 153.487398 
L 362.118263 150.140978 
L 368.810089 147.880273 
L 375.501916 146.740937 
L 382.193742 146.740937 
L 388.885568 147.880273 
L 395.577395 150.140978 
L 402.269221 153.487398 
L 408.961047 157.866759 
L 415.652874 163.209995 
L 422.3447 169.432841 
L 429.036526 176.437158 
L 435.728353 184.112485 
L 442.420179 192.337776 
L 449.112005 200.983314 
L 455.803832 209.912754 
L 462.495658 218.985272 
L 469.187484 228.057791 
L 475.87931 236.987231 
L 482.571137 245.632769 
L 489.262963 253.85806 
L 495.954789 261.533387 
" style="fill:none;stroke:#ff0000;stroke-linecap:square;stroke-width:1.5;"/>
   </g>
   <g id="line2d_15">
    <path clip-path="url(#p49d9c53200)" d="M 94.445211 305.540964 
L 101.137037 289.927036 
L 107.828863 273.194314 
L 114.52069 255.606683 
L 121.212516 237.441511 
L 127.904342 218.985272 
L 134.596168 200.529034 
L 141.287995 182.363862 
L 147.979821 164.776231 
L 154.671647 148.043509 
L 161.363474 132.429581 
L 168.0553 118.180688 
L 174.747126 105.521543 
L 181.438953 94.65179 
L 188.130779 85.742849 
L 194.822605 78.935222 
L 201.514432 74.336267 
L 208.206258 72.018513 
L 214.898084 72.018513 
L 221.589911 74.336267 
L 228.281737 78.935222 
L 234.973563 85.742849 
L 241.665389 94.65179 
L 248.357216 105.521543 
L 255.049042 118.180688 
L 261.740868 132.429581 
L 268.432695 148.043509 
L 275.124521 164.776231 
L 281.816347 182.363862 
L 288.508174 200.529034 
L 295.2 218.985272 
L 301.891826 237.441511 
L 308.583653 255.606683 
L 315.275479 273.194314 
L 321.967305 289.927036 
L 328.659132 305.540964 
L 335.350958 319.789857 
L 342.042784 332.449001 
L 348.734611 343.318755 
L 355.426437 352.227695 
L 362.118263 359.035323 
L 368.810089 363.634278 
L 375.501916 365.952032 
L 382.193742 365.952032 
L 388.885568 363.634278 
L 395.577395 359.035323 
L 402.269221 352.227696 
L 408.961047 343.318755 
L 415.652874 332.449001 
L 422.3447 319.789857 
L 429.036526 305.540964 
L 435.728353 289.927036 
L 442.420179 273.194314 
L 449.112005 255.606683 
L 455.803832 237.441511 
L 462.495658 218.985272 
L 469.187484 200.529034 
L 475.87931 182.363862 
L 482.571137 164.776231 
L 489.262963 148.043509 
L 495.954789 132.429581 
" style="fill:none;stroke:#ff0000;stroke-linecap:square;stroke-width:1.5;"/>
   </g>
   <g id="patch_3">
    <path d="M 72 384.48 
L 72 51.84 
" style="fill:none;stroke:#000000;stroke-linecap:square;stroke-linejoin:miter;stroke-width:0.8;"/>
   </g>
   <g id="patch_4">
    <path d="M 518.4 384.48 
L 518.4 51.84 
" style="fill:none;stroke:#000000;stroke-linecap:square;stroke-linejoin:miter;stroke-width:0.8;"/>
   </g>
   <g id="patch_5">
    <path d="M 72 384.48 
L 518.4 384.48 
" style="fill:none;stroke:#000000;stroke-linecap:square;stroke-linejoin:miter;stroke-width:0.8;"/>
   </g>
   <g id="patch_6">
    <path d="M 72 51.84 
L 518.4 51.84 
" style="fill:none;stroke:#000000;stroke-linecap:square;stroke-linejoin:miter;stroke-width:0.8;"/>
   </g>
   <g id="legend_1">
    <g id="patch_7">
     <path d="M 420.257812 89.19625 
L 511.4 89.19625 
Q 513.4 89.19625 513.4 87.19625 
L 513.4 58.84 
Q 513.4 56.84 511.4 56.84 
L 420.257812 56.84 
Q 418.257812 56.84 418.257812 58.84 
L 418.257812 87.19625 
Q 418.257812 89.19625 420.257812 89.19625 
z
" style="fill:#ffffff;opacity:0.8;stroke:#cccccc;stroke-linejoin:miter;"/>
    </g>
    <g id="line2d_16">
     <path d="M 422.257812 64.938437 
L 442.257812 64.938437 
" style="fill:none;stroke:#ff0000;stroke-linecap:square;stroke-width:1.5;"/>
    </g>
    <g id="line2d_17"/>
    <g id="text_16">
     <!-- fit -->
     <defs>
      <path d="M 37.109375 75.984375 
L 37.109375 68.5 
L 28.515625 68.5 
Q 23.6875 68.5 21.796875 66.546875 
Q 19.921875 64.59375 19.921875 59.515625 
L 19.921875 54.6875 
L 34.71875 54.6875 
L 34.71875 47.703125 
L 19.921875 47.703125 
L 19.921875 0 
L 10.890625 0 
L 10.890625 47.703125 
L 2.296875 47.703125 
L 2.296875 54.6875 
L 10.890625 54.6875 
L 10.890625 58.5 
Q 10.890625 67.625 15.140625 71.796875 
Q 19.390625 75.984375 28.609375 75.984375 
z
" id="DejaVuSans-66"/>
     </defs>
     <g transform="translate(450.257812 68.438437)scale(0.1 -0.1)">
      <use xlink:href="#DejaVuSans-66"/>
      <use x="35.205078" xlink:href="#DejaVuSans-69"/>
      <use x="62.988281" xlink:href="#DejaVuSans-74"/>
     </g>
    </g>
    <g id="PathCollection_3">
     <g>
      <use style="fill:#008000;stroke:#008000;" x="432.257812" xlink:href="#med982b9bb8" y="80.491562"/>
     </g>
    </g>
    <g id="text_17">
     <!-- observation -->
     <defs>
      <path d="M 48.6875 27.296875 
Q 48.6875 37.203125 44.609375 42.84375 
Q 40.53125 48.484375 33.40625 48.484375 
Q 26.265625 48.484375 22.1875 42.84375 
Q 18.109375 37.203125 18.109375 27.296875 
Q 18.109375 17.390625 22.1875 11.75 
Q 26.265625 6.109375 33.40625 6.109375 
Q 40.53125 6.109375 44.609375 11.75 
Q 48.6875 17.390625 48.6875 27.296875 
z
M 18.109375 46.390625 
Q 20.953125 51.265625 25.265625 53.625 
Q 29.59375 56 35.59375 56 
Q 45.5625 56 51.78125 48.09375 
Q 58.015625 40.1875 58.015625 27.296875 
Q 58.015625 14.40625 51.78125 6.484375 
Q 45.5625 -1.421875 35.59375 -1.421875 
Q 29.59375 -1.421875 25.265625 0.953125 
Q 20.953125 3.328125 18.109375 8.203125 
L 18.109375 0 
L 9.078125 0 
L 9.078125 75.984375 
L 18.109375 75.984375 
z
" id="DejaVuSans-62"/>
      <path d="M 41.109375 46.296875 
Q 39.59375 47.171875 37.8125 47.578125 
Q 36.03125 48 33.890625 48 
Q 26.265625 48 22.1875 43.046875 
Q 18.109375 38.09375 18.109375 28.8125 
L 18.109375 0 
L 9.078125 0 
L 9.078125 54.6875 
L 18.109375 54.6875 
L 18.109375 46.1875 
Q 20.953125 51.171875 25.484375 53.578125 
Q 30.03125 56 36.53125 56 
Q 37.453125 56 38.578125 55.875 
Q 39.703125 55.765625 41.0625 55.515625 
z
" id="DejaVuSans-72"/>
      <path d="M 2.984375 54.6875 
L 12.5 54.6875 
L 29.59375 8.796875 
L 46.6875 54.6875 
L 56.203125 54.6875 
L 35.6875 0 
L 23.484375 0 
z
" id="DejaVuSans-76"/>
      <path d="M 54.890625 33.015625 
L 54.890625 0 
L 45.90625 0 
L 45.90625 32.71875 
Q 45.90625 40.484375 42.875 44.328125 
Q 39.84375 48.1875 33.796875 48.1875 
Q 26.515625 48.1875 22.3125 43.546875 
Q 18.109375 38.921875 18.109375 30.90625 
L 18.109375 0 
L 9.078125 0 
L 9.078125 54.6875 
L 18.109375 54.6875 
L 18.109375 46.1875 
Q 21.34375 51.125 25.703125 53.5625 
Q 30.078125 56 35.796875 56 
Q 45.21875 56 50.046875 50.171875 
Q 54.890625 44.34375 54.890625 33.015625 
z
" id="DejaVuSans-6e"/>
     </defs>
     <g transform="translate(450.257812 83.116562)scale(0.1 -0.1)">
      <use xlink:href="#DejaVuSans-6f"/>
      <use x="61.181641" xlink:href="#DejaVuSans-62"/>
      <use x="124.658203" xlink:href="#DejaVuSans-73"/>
      <use x="176.757812" xlink:href="#DejaVuSans-65"/>
      <use x="238.28125" xlink:href="#DejaVuSans-72"/>
      <use x="279.394531" xlink:href="#DejaVuSans-76"/>
      <use x="338.574219" xlink:href="#DejaVuSans-61"/>
      <use x="399.853516" xlink:href="#DejaVuSans-74"/>
      <use x="439.0625" xlink:href="#DejaVuSans-69"/>
      <use x="466.845703" xlink:href="#DejaVuSans-6f"/>
      <use x="528.027344" xlink:href="#DejaVuSans-6e"/>
     </g>
    </g>
   </g>
  </g>
 </g>
 <defs>
  <clipPath id="p49d9c53200">
   <rect height="332.64" width="446.4" x="72" y="51.84"/>
  </clipPath>
 </defs>
</svg>
