<?xml version="1.0" encoding="utf-8" standalone="no"?>
<!DOCTYPE svg PUBLIC "-//W3C//DTD SVG 1.1//EN"
  "http://www.w3.org/Graphics/SVG/1.1/DTD/svg11.dtd">
<!-- Created with matplotlib (http://matplotlib.org/) -->
<svg height="432pt" version="1.1" viewBox="0 0 576 432" width="576pt" xmlns="http://www.w3.org/2000/svg" xmlns:xlink="http://www.w3.org/1999/xlink">
 <defs>
  <style type="text/css">
*{stroke-linecap:butt;stroke-linejoin:round;}
  </style>
 </defs>
 <g id="figure_1">
  <g id="patch_1">
   <path d="M 0 432 
L 576 432 
L 576 0 
L 0 0 
z
" style="fill:#ffffff;"/>
  </g>
  <g id="axes_1">
   <g id="patch_2">
    <path d="M 72 384.48 
L 518.4 384.48 
L 518.4 51.84 
L 72 51.84 
z
" style="fill:#ffffff;"/>
   </g>
   <g id="PathCollection_1">
    <defs>
     <path d="M 0 3 
C 0.795609 3 1.55874 2.683901 2.12132 2.12132 
C 2.683901 1.55874 3 0.795609 3 0 
C 3 -0.795609 2.683901 -1.55874 2.12132 -2.12132 
C 1.55874 -2.683901 0.795609 -3 0 -3 
C -0.795609 -3 -1.55874 -2.683901 -2.12132 -2.12132 
C -2.683901 -1.55874 -3 -0.795609 -3 0 
C -3 0.795609 -2.683901 1.55874 -2.12132 2.12132 
C -1.55874 2.683901 -0.795609 3 0 3 
z
" id="m5feee9db68" style="stroke:#008000;"/>
    </defs>
    <g clip-path="url(#p96ee567bb4)">
     <use style="fill:#008000;stroke:#008000;" x="94.450908" xlink:href="#m5feee9db68" y="168.944051"/>
     <use style="fill:#008000;stroke:#008000;" x="101.142545" xlink:href="#m5feee9db68" y="171.798805"/>
     <use style="fill:#008000;stroke:#008000;" x="107.834181" xlink:href="#m5feee9db68" y="184.338014"/>
     <use style="fill:#008000;stroke:#008000;" x="114.525818" xlink:href="#m5feee9db68" y="188.804087"/>
     <use style="fill:#008000;stroke:#008000;" x="121.217454" xlink:href="#m5feee9db68" y="197.98659"/>
     <use style="fill:#008000;stroke:#008000;" x="127.90909" xlink:href="#m5feee9db68" y="208.590401"/>
     <use style="fill:#008000;stroke:#008000;" x="134.600727" xlink:href="#m5feee9db68" y="218.56529"/>
     <use style="fill:#008000;stroke:#008000;" x="141.292363" xlink:href="#m5feee9db68" y="223.658038"/>
     <use style="fill:#008000;stroke:#008000;" x="147.984" xlink:href="#m5feee9db68" y="233.344113"/>
     <use style="fill:#008000;stroke:#008000;" x="154.675636" xlink:href="#m5feee9db68" y="251.871051"/>
     <use style="fill:#008000;stroke:#008000;" x="161.367272" xlink:href="#m5feee9db68" y="261.374814"/>
     <use style="fill:#008000;stroke:#008000;" x="168.058909" xlink:href="#m5feee9db68" y="262.267752"/>
     <use style="fill:#008000;stroke:#008000;" x="174.750545" xlink:href="#m5feee9db68" y="280.138643"/>
     <use style="fill:#008000;stroke:#008000;" x="181.442181" xlink:href="#m5feee9db68" y="295.584574"/>
     <use style="fill:#008000;stroke:#008000;" x="188.133818" xlink:href="#m5feee9db68" y="297.000926"/>
     <use style="fill:#008000;stroke:#008000;" x="194.825454" xlink:href="#m5feee9db68" y="298.65288"/>
     <use style="fill:#008000;stroke:#008000;" x="201.517091" xlink:href="#m5feee9db68" y="307.198463"/>
     <use style="fill:#008000;stroke:#008000;" x="208.208727" xlink:href="#m5feee9db68" y="310.747301"/>
     <use style="fill:#008000;stroke:#008000;" x="214.900363" xlink:href="#m5feee9db68" y="317.386163"/>
     <use style="fill:#008000;stroke:#008000;" x="221.592" xlink:href="#m5feee9db68" y="318.019728"/>
     <use style="fill:#008000;stroke:#008000;" x="228.283636" xlink:href="#m5feee9db68" y="325.883338"/>
     <use style="fill:#008000;stroke:#008000;" x="234.975273" xlink:href="#m5feee9db68" y="307.866753"/>
     <use style="fill:#008000;stroke:#008000;" x="241.666909" xlink:href="#m5feee9db68" y="314.501002"/>
     <use style="fill:#008000;stroke:#008000;" x="248.358545" xlink:href="#m5feee9db68" y="299.698311"/>
     <use style="fill:#008000;stroke:#008000;" x="255.050182" xlink:href="#m5feee9db68" y="305.814549"/>
     <use style="fill:#008000;stroke:#008000;" x="261.741818" xlink:href="#m5feee9db68" y="297.357639"/>
     <use style="fill:#008000;stroke:#008000;" x="268.433454" xlink:href="#m5feee9db68" y="280.859909"/>
     <use style="fill:#008000;stroke:#008000;" x="275.125091" xlink:href="#m5feee9db68" y="269.702944"/>
     <use style="fill:#008000;stroke:#008000;" x="281.816727" xlink:href="#m5feee9db68" y="258.142362"/>
     <use style="fill:#008000;stroke:#008000;" x="288.508364" xlink:href="#m5feee9db68" y="241.462007"/>
     <use style="fill:#008000;stroke:#008000;" x="295.2" xlink:href="#m5feee9db68" y="239.470448"/>
     <use style="fill:#008000;stroke:#008000;" x="301.891636" xlink:href="#m5feee9db68" y="224.776604"/>
     <use style="fill:#008000;stroke:#008000;" x="308.583273" xlink:href="#m5feee9db68" y="226.940425"/>
     <use style="fill:#008000;stroke:#008000;" x="315.274909" xlink:href="#m5feee9db68" y="213.995578"/>
     <use style="fill:#008000;stroke:#008000;" x="321.966546" xlink:href="#m5feee9db68" y="206.721781"/>
     <use style="fill:#008000;stroke:#008000;" x="328.658182" xlink:href="#m5feee9db68" y="195.497728"/>
     <use style="fill:#008000;stroke:#008000;" x="335.349818" xlink:href="#m5feee9db68" y="179.592799"/>
     <use style="fill:#008000;stroke:#008000;" x="342.041455" xlink:href="#m5feee9db68" y="186.334833"/>
     <use style="fill:#008000;stroke:#008000;" x="348.733091" xlink:href="#m5feee9db68" y="173.313832"/>
     <use style="fill:#008000;stroke:#008000;" x="355.424727" xlink:href="#m5feee9db68" y="175.174425"/>
     <use style="fill:#008000;stroke:#008000;" x="362.116364" xlink:href="#m5feee9db68" y="156.150488"/>
     <use style="fill:#008000;stroke:#008000;" x="368.808" xlink:href="#m5feee9db68" y="155.136952"/>
     <use style="fill:#008000;stroke:#008000;" x="375.499637" xlink:href="#m5feee9db68" y="156.950978"/>
     <use style="fill:#008000;stroke:#008000;" x="382.191273" xlink:href="#m5feee9db68" y="164.845632"/>
     <use style="fill:#008000;stroke:#008000;" x="388.882909" xlink:href="#m5feee9db68" y="158.390208"/>
     <use style="fill:#008000;stroke:#008000;" x="395.574546" xlink:href="#m5feee9db68" y="161.733198"/>
     <use style="fill:#008000;stroke:#008000;" x="402.266182" xlink:href="#m5feee9db68" y="166.947467"/>
     <use style="fill:#008000;stroke:#008000;" x="408.957819" xlink:href="#m5feee9db68" y="163.703939"/>
     <use style="fill:#008000;stroke:#008000;" x="415.649455" xlink:href="#m5feee9db68" y="166.600177"/>
     <use style="fill:#008000;stroke:#008000;" x="422.341091" xlink:href="#m5feee9db68" y="166.78184"/>
     <use style="fill:#008000;stroke:#008000;" x="429.032728" xlink:href="#m5feee9db68" y="172.725809"/>
     <use style="fill:#008000;stroke:#008000;" x="435.724364" xlink:href="#m5feee9db68" y="183.923961"/>
     <use style="fill:#008000;stroke:#008000;" x="442.416" xlink:href="#m5feee9db68" y="182.50503"/>
     <use style="fill:#008000;stroke:#008000;" x="449.107637" xlink:href="#m5feee9db68" y="193.725343"/>
     <use style="fill:#008000;stroke:#008000;" x="455.799273" xlink:href="#m5feee9db68" y="203.518366"/>
     <use style="fill:#008000;stroke:#008000;" x="462.49091" xlink:href="#m5feee9db68" y="207.327751"/>
     <use style="fill:#008000;stroke:#008000;" x="469.182546" xlink:href="#m5feee9db68" y="211.975837"/>
     <use style="fill:#008000;stroke:#008000;" x="475.874182" xlink:href="#m5feee9db68" y="227.924229"/>
     <use style="fill:#008000;stroke:#008000;" x="482.565819" xlink:href="#m5feee9db68" y="241.889446"/>
     <use style="fill:#008000;stroke:#008000;" x="489.257455" xlink:href="#m5feee9db68" y="253.265776"/>
     <use style="fill:#008000;stroke:#008000;" x="495.949092" xlink:href="#m5feee9db68" y="256.855231"/>
    </g>
   </g>
   <g id="PathCollection_2">
    <g clip-path="url(#p96ee567bb4)">
     <use style="fill:#008000;stroke:#008000;" x="94.450908" xlink:href="#m5feee9db68" y="334.256055"/>
     <use style="fill:#008000;stroke:#008000;" x="101.142545" xlink:href="#m5feee9db68" y="328.020666"/>
     <use style="fill:#008000;stroke:#008000;" x="107.834181" xlink:href="#m5feee9db68" y="305.443425"/>
     <use style="fill:#008000;stroke:#008000;" x="114.525818" xlink:href="#m5feee9db68" y="304.143606"/>
     <use style="fill:#008000;stroke:#008000;" x="121.217454" xlink:href="#m5feee9db68" y="280.139048"/>
     <use style="fill:#008000;stroke:#008000;" x="127.90909" xlink:href="#m5feee9db68" y="264.70661"/>
     <use style="fill:#008000;stroke:#008000;" x="134.600727" xlink:href="#m5feee9db68" y="252.291941"/>
     <use style="fill:#008000;stroke:#008000;" x="141.292363" xlink:href="#m5feee9db68" y="244.137378"/>
     <use style="fill:#008000;stroke:#008000;" x="147.984" xlink:href="#m5feee9db68" y="217.881806"/>
     <use style="fill:#008000;stroke:#008000;" x="154.675636" xlink:href="#m5feee9db68" y="205.4671"/>
     <use style="fill:#008000;stroke:#008000;" x="161.367272" xlink:href="#m5feee9db68" y="181.401838"/>
     <use style="fill:#008000;stroke:#008000;" x="168.058909" xlink:href="#m5feee9db68" y="156.500449"/>
     <use style="fill:#008000;stroke:#008000;" x="174.750545" xlink:href="#m5feee9db68" y="140.276693"/>
     <use style="fill:#008000;stroke:#008000;" x="181.442181" xlink:href="#m5feee9db68" y="120.435024"/>
     <use style="fill:#008000;stroke:#008000;" x="188.133818" xlink:href="#m5feee9db68" y="115.291602"/>
     <use style="fill:#008000;stroke:#008000;" x="194.825454" xlink:href="#m5feee9db68" y="99.713083"/>
     <use style="fill:#008000;stroke:#008000;" x="201.517091" xlink:href="#m5feee9db68" y="78.741441"/>
     <use style="fill:#008000;stroke:#008000;" x="208.208727" xlink:href="#m5feee9db68" y="82.133354"/>
     <use style="fill:#008000;stroke:#008000;" x="214.900363" xlink:href="#m5feee9db68" y="72.537978"/>
     <use style="fill:#008000;stroke:#008000;" x="221.592" xlink:href="#m5feee9db68" y="73.984432"/>
     <use style="fill:#008000;stroke:#008000;" x="228.283636" xlink:href="#m5feee9db68" y="77.753119"/>
     <use style="fill:#008000;stroke:#008000;" x="234.975273" xlink:href="#m5feee9db68" y="74.488203"/>
     <use style="fill:#008000;stroke:#008000;" x="241.666909" xlink:href="#m5feee9db68" y="80.179134"/>
     <use style="fill:#008000;stroke:#008000;" x="248.358545" xlink:href="#m5feee9db68" y="97.155553"/>
     <use style="fill:#008000;stroke:#008000;" x="255.050182" xlink:href="#m5feee9db68" y="104.215602"/>
     <use style="fill:#008000;stroke:#008000;" x="261.741818" xlink:href="#m5feee9db68" y="122.319239"/>
     <use style="fill:#008000;stroke:#008000;" x="268.433454" xlink:href="#m5feee9db68" y="141.621643"/>
     <use style="fill:#008000;stroke:#008000;" x="275.125091" xlink:href="#m5feee9db68" y="163.837578"/>
     <use style="fill:#008000;stroke:#008000;" x="281.816727" xlink:href="#m5feee9db68" y="176.617238"/>
     <use style="fill:#008000;stroke:#008000;" x="288.508364" xlink:href="#m5feee9db68" y="193.651534"/>
     <use style="fill:#008000;stroke:#008000;" x="295.2" xlink:href="#m5feee9db68" y="214.972477"/>
     <use style="fill:#008000;stroke:#008000;" x="301.891636" xlink:href="#m5feee9db68" y="229.830908"/>
     <use style="fill:#008000;stroke:#008000;" x="308.583273" xlink:href="#m5feee9db68" y="250.979717"/>
     <use style="fill:#008000;stroke:#008000;" x="315.274909" xlink:href="#m5feee9db68" y="266.038303"/>
     <use style="fill:#008000;stroke:#008000;" x="321.966546" xlink:href="#m5feee9db68" y="282.100471"/>
     <use style="fill:#008000;stroke:#008000;" x="328.658182" xlink:href="#m5feee9db68" y="306.827222"/>
     <use style="fill:#008000;stroke:#008000;" x="335.349818" xlink:href="#m5feee9db68" y="313.851875"/>
     <use style="fill:#008000;stroke:#008000;" x="342.041455" xlink:href="#m5feee9db68" y="325.056692"/>
     <use style="fill:#008000;stroke:#008000;" x="348.733091" xlink:href="#m5feee9db68" y="333.958875"/>
     <use style="fill:#008000;stroke:#008000;" x="355.424727" xlink:href="#m5feee9db68" y="346.743248"/>
     <use style="fill:#008000;stroke:#008000;" x="362.116364" xlink:href="#m5feee9db68" y="352.541409"/>
     <use style="fill:#008000;stroke:#008000;" x="368.808" xlink:href="#m5feee9db68" y="357.686322"/>
     <use style="fill:#008000;stroke:#008000;" x="375.499637" xlink:href="#m5feee9db68" y="351.483819"/>
     <use style="fill:#008000;stroke:#008000;" x="382.191273" xlink:href="#m5feee9db68" y="363.516393"/>
     <use style="fill:#008000;stroke:#008000;" x="388.882909" xlink:href="#m5feee9db68" y="368.140383"/>
     <use style="fill:#008000;stroke:#008000;" x="395.574546" xlink:href="#m5feee9db68" y="366.594306"/>
     <use style="fill:#008000;stroke:#008000;" x="402.266182" xlink:href="#m5feee9db68" y="362.782828"/>
     <use style="fill:#008000;stroke:#008000;" x="408.957819" xlink:href="#m5feee9db68" y="361.844319"/>
     <use style="fill:#008000;stroke:#008000;" x="415.649455" xlink:href="#m5feee9db68" y="346.316826"/>
     <use style="fill:#008000;stroke:#008000;" x="422.341091" xlink:href="#m5feee9db68" y="339.467637"/>
     <use style="fill:#008000;stroke:#008000;" x="429.032728" xlink:href="#m5feee9db68" y="331.674991"/>
     <use style="fill:#008000;stroke:#008000;" x="435.724364" xlink:href="#m5feee9db68" y="323.612702"/>
     <use style="fill:#008000;stroke:#008000;" x="442.416" xlink:href="#m5feee9db68" y="321.727123"/>
     <use style="fill:#008000;stroke:#008000;" x="449.107637" xlink:href="#m5feee9db68" y="308.793853"/>
     <use style="fill:#008000;stroke:#008000;" x="455.799273" xlink:href="#m5feee9db68" y="293.527004"/>
     <use style="fill:#008000;stroke:#008000;" x="462.49091" xlink:href="#m5feee9db68" y="266.052149"/>
     <use style="fill:#008000;stroke:#008000;" x="469.182546" xlink:href="#m5feee9db68" y="255.215511"/>
     <use style="fill:#008000;stroke:#008000;" x="475.874182" xlink:href="#m5feee9db68" y="231.770415"/>
     <use style="fill:#008000;stroke:#008000;" x="482.565819" xlink:href="#m5feee9db68" y="220.331686"/>
     <use style="fill:#008000;stroke:#008000;" x="489.257455" xlink:href="#m5feee9db68" y="197.901717"/>
     <use style="fill:#008000;stroke:#008000;" x="495.949092" xlink:href="#m5feee9db68" y="184.606732"/>
    </g>
   </g>
   <g id="PathCollection_3">
    <defs>
     <path d="M -3 3 
L 3 -3 
M -3 -3 
L 3 3 
" id="ma7d9feea2c" style="stroke:#ff0000;stroke-width:1.5;"/>
    </defs>
    <g clip-path="url(#p96ee567bb4)">
     <use style="fill:#ff0000;stroke:#ff0000;stroke-width:1.5;" x="94.450908" xlink:href="#ma7d9feea2c" y="173.154906"/>
     <use style="fill:#ff0000;stroke:#ff0000;stroke-width:1.5;" x="101.142545" xlink:href="#ma7d9feea2c" y="178.64134"/>
     <use style="fill:#ff0000;stroke:#ff0000;stroke-width:1.5;" x="107.834181" xlink:href="#ma7d9feea2c" y="184.936115"/>
     <use style="fill:#ff0000;stroke:#ff0000;stroke-width:1.5;" x="114.525818" xlink:href="#ma7d9feea2c" y="192.010469"/>
     <use style="fill:#ff0000;stroke:#ff0000;stroke-width:1.5;" x="121.217454" xlink:href="#ma7d9feea2c" y="199.824837"/>
     <use style="fill:#ff0000;stroke:#ff0000;stroke-width:1.5;" x="127.90909" xlink:href="#ma7d9feea2c" y="208.32603"/>
     <use style="fill:#ff0000;stroke:#ff0000;stroke-width:1.5;" x="134.600727" xlink:href="#ma7d9feea2c" y="217.444102"/>
     <use style="fill:#ff0000;stroke:#ff0000;stroke-width:1.5;" x="141.292363" xlink:href="#ma7d9feea2c" y="227.08902"/>
     <use style="fill:#ff0000;stroke:#ff0000;stroke-width:1.5;" x="147.984" xlink:href="#ma7d9feea2c" y="237.147372"/>
     <use style="fill:#ff0000;stroke:#ff0000;stroke-width:1.5;" x="154.675636" xlink:href="#ma7d9feea2c" y="247.479453"/>
     <use style="fill:#ff0000;stroke:#ff0000;stroke-width:1.5;" x="161.367272" xlink:href="#ma7d9feea2c" y="257.917218"/>
     <use style="fill:#ff0000;stroke:#ff0000;stroke-width:1.5;" x="168.058909" xlink:href="#ma7d9feea2c" y="268.263735"/>
     <use style="fill:#ff0000;stroke:#ff0000;stroke-width:1.5;" x="174.750545" xlink:href="#ma7d9feea2c" y="278.294838"/>
     <use style="fill:#ff0000;stroke:#ff0000;stroke-width:1.5;" x="181.442181" xlink:href="#ma7d9feea2c" y="287.763731"/>
     <use style="fill:#ff0000;stroke:#ff0000;stroke-width:1.5;" x="188.133818" xlink:href="#ma7d9feea2c" y="296.409066"/>
     <use style="fill:#ff0000;stroke:#ff0000;stroke-width:1.5;" x="194.825454" xlink:href="#ma7d9feea2c" y="303.966697"/>
     <use style="fill:#ff0000;stroke:#ff0000;stroke-width:1.5;" x="201.517091" xlink:href="#ma7d9feea2c" y="310.184684"/>
     <use style="fill:#ff0000;stroke:#ff0000;stroke-width:1.5;" x="208.208727" xlink:href="#ma7d9feea2c" y="314.840366"/>
     <use style="fill:#ff0000;stroke:#ff0000;stroke-width:1.5;" x="214.900363" xlink:href="#ma7d9feea2c" y="317.757608"/>
     <use style="fill:#ff0000;stroke:#ff0000;stroke-width:1.5;" x="221.592" xlink:href="#ma7d9feea2c" y="318.821823"/>
     <use style="fill:#ff0000;stroke:#ff0000;stroke-width:1.5;" x="228.283636" xlink:href="#ma7d9feea2c" y="317.990387"/>
     <use style="fill:#ff0000;stroke:#ff0000;stroke-width:1.5;" x="234.975273" xlink:href="#ma7d9feea2c" y="315.296639"/>
     <use style="fill:#ff0000;stroke:#ff0000;stroke-width:1.5;" x="241.666909" xlink:href="#ma7d9feea2c" y="310.846745"/>
     <use style="fill:#ff0000;stroke:#ff0000;stroke-width:1.5;" x="248.358545" xlink:href="#ma7d9feea2c" y="304.809997"/>
     <use style="fill:#ff0000;stroke:#ff0000;stroke-width:1.5;" x="255.050182" xlink:href="#ma7d9feea2c" y="297.404235"/>
     <use style="fill:#ff0000;stroke:#ff0000;stroke-width:1.5;" x="261.741818" xlink:href="#ma7d9feea2c" y="288.878737"/>
     <use style="fill:#ff0000;stroke:#ff0000;stroke-width:1.5;" x="268.433454" xlink:href="#ma7d9feea2c" y="279.497012"/>
     <use style="fill:#ff0000;stroke:#ff0000;stroke-width:1.5;" x="275.125091" xlink:href="#ma7d9feea2c" y="269.52146"/>
     <use style="fill:#ff0000;stroke:#ff0000;stroke-width:1.5;" x="281.816727" xlink:href="#ma7d9feea2c" y="259.201182"/>
     <use style="fill:#ff0000;stroke:#ff0000;stroke-width:1.5;" x="288.508364" xlink:href="#ma7d9feea2c" y="248.763445"/>
     <use style="fill:#ff0000;stroke:#ff0000;stroke-width:1.5;" x="295.2" xlink:href="#ma7d9feea2c" y="238.40868"/>
     <use style="fill:#ff0000;stroke:#ff0000;stroke-width:1.5;" x="301.891636" xlink:href="#ma7d9feea2c" y="228.308499"/>
     <use style="fill:#ff0000;stroke:#ff0000;stroke-width:1.5;" x="308.583273" xlink:href="#ma7d9feea2c" y="218.606011"/>
     <use style="fill:#ff0000;stroke:#ff0000;stroke-width:1.5;" x="315.274909" xlink:href="#ma7d9feea2c" y="209.417724"/>
     <use style="fill:#ff0000;stroke:#ff0000;stroke-width:1.5;" x="321.966546" xlink:href="#ma7d9feea2c" y="200.836376"/>
     <use style="fill:#ff0000;stroke:#ff0000;stroke-width:1.5;" x="328.658182" xlink:href="#ma7d9feea2c" y="192.934206"/>
     <use style="fill:#ff0000;stroke:#ff0000;stroke-width:1.5;" x="335.349818" xlink:href="#ma7d9feea2c" y="185.766294"/>
     <use style="fill:#ff0000;stroke:#ff0000;stroke-width:1.5;" x="342.041455" xlink:href="#ma7d9feea2c" y="179.373723"/>
     <use style="fill:#ff0000;stroke:#ff0000;stroke-width:1.5;" x="348.733091" xlink:href="#ma7d9feea2c" y="173.786447"/>
     <use style="fill:#ff0000;stroke:#ff0000;stroke-width:1.5;" x="355.424727" xlink:href="#ma7d9feea2c" y="169.025771"/>
     <use style="fill:#ff0000;stroke:#ff0000;stroke-width:1.5;" x="362.116364" xlink:href="#ma7d9feea2c" y="165.106443"/>
     <use style="fill:#ff0000;stroke:#ff0000;stroke-width:1.5;" x="368.808" xlink:href="#ma7d9feea2c" y="162.038358"/>
     <use style="fill:#ff0000;stroke:#ff0000;stroke-width:1.5;" x="375.499637" xlink:href="#ma7d9feea2c" y="159.827898"/>
     <use style="fill:#ff0000;stroke:#ff0000;stroke-width:1.5;" x="382.191273" xlink:href="#ma7d9feea2c" y="158.478942"/>
     <use style="fill:#ff0000;stroke:#ff0000;stroke-width:1.5;" x="388.882909" xlink:href="#ma7d9feea2c" y="157.993568"/>
     <use style="fill:#ff0000;stroke:#ff0000;stroke-width:1.5;" x="395.574546" xlink:href="#ma7d9feea2c" y="158.372471"/>
     <use style="fill:#ff0000;stroke:#ff0000;stroke-width:1.5;" x="402.266182" xlink:href="#ma7d9feea2c" y="159.61511"/>
     <use style="fill:#ff0000;stroke:#ff0000;stroke-width:1.5;" x="408.957819" xlink:href="#ma7d9feea2c" y="161.719596"/>
     <use style="fill:#ff0000;stroke:#ff0000;stroke-width:1.5;" x="415.649455" xlink:href="#ma7d9feea2c" y="164.682302"/>
     <use style="fill:#ff0000;stroke:#ff0000;stroke-width:1.5;" x="422.341091" xlink:href="#ma7d9feea2c" y="168.497205"/>
     <use style="fill:#ff0000;stroke:#ff0000;stroke-width:1.5;" x="429.032728" xlink:href="#ma7d9feea2c" y="173.154906"/>
     <use style="fill:#ff0000;stroke:#ff0000;stroke-width:1.5;" x="435.724364" xlink:href="#ma7d9feea2c" y="178.64134"/>
     <use style="fill:#ff0000;stroke:#ff0000;stroke-width:1.5;" x="442.416" xlink:href="#ma7d9feea2c" y="184.936115"/>
     <use style="fill:#ff0000;stroke:#ff0000;stroke-width:1.5;" x="449.107637" xlink:href="#ma7d9feea2c" y="192.010469"/>
     <use style="fill:#ff0000;stroke:#ff0000;stroke-width:1.5;" x="455.799273" xlink:href="#ma7d9feea2c" y="199.824837"/>
     <use style="fill:#ff0000;stroke:#ff0000;stroke-width:1.5;" x="462.49091" xlink:href="#ma7d9feea2c" y="208.32603"/>
     <use style="fill:#ff0000;stroke:#ff0000;stroke-width:1.5;" x="469.182546" xlink:href="#ma7d9feea2c" y="217.444102"/>
     <use style="fill:#ff0000;stroke:#ff0000;stroke-width:1.5;" x="475.874182" xlink:href="#ma7d9feea2c" y="227.08902"/>
     <use style="fill:#ff0000;stroke:#ff0000;stroke-width:1.5;" x="482.565819" xlink:href="#ma7d9feea2c" y="237.147372"/>
     <use style="fill:#ff0000;stroke:#ff0000;stroke-width:1.5;" x="489.257455" xlink:href="#ma7d9feea2c" y="247.479453"/>
     <use style="fill:#ff0000;stroke:#ff0000;stroke-width:1.5;" x="495.949092" xlink:href="#ma7d9feea2c" y="257.917218"/>
    </g>
   </g>
   <g id="PathCollection_4">
    <g clip-path="url(#p96ee567bb4)">
     <use style="fill:#ff0000;stroke:#ff0000;stroke-width:1.5;" x="94.450908" xlink:href="#ma7d9feea2c" y="335.326119"/>
     <use style="fill:#ff0000;stroke:#ff0000;stroke-width:1.5;" x="101.142545" xlink:href="#ma7d9feea2c" y="325.298494"/>
     <use style="fill:#ff0000;stroke:#ff0000;stroke-width:1.5;" x="107.834181" xlink:href="#ma7d9feea2c" y="313.793456"/>
     <use style="fill:#ff0000;stroke:#ff0000;stroke-width:1.5;" x="114.525818" xlink:href="#ma7d9feea2c" y="300.863569"/>
     <use style="fill:#ff0000;stroke:#ff0000;stroke-width:1.5;" x="121.217454" xlink:href="#ma7d9feea2c" y="286.581151"/>
     <use style="fill:#ff0000;stroke:#ff0000;stroke-width:1.5;" x="127.90909" xlink:href="#ma7d9feea2c" y="271.043414"/>
     <use style="fill:#ff0000;stroke:#ff0000;stroke-width:1.5;" x="134.600727" xlink:href="#ma7d9feea2c" y="254.3782"/>
     <use style="fill:#ff0000;stroke:#ff0000;stroke-width:1.5;" x="141.292363" xlink:href="#ma7d9feea2c" y="236.750062"/>
     <use style="fill:#ff0000;stroke:#ff0000;stroke-width:1.5;" x="147.984" xlink:href="#ma7d9feea2c" y="218.366286"/>
     <use style="fill:#ff0000;stroke:#ff0000;stroke-width:1.5;" x="154.675636" xlink:href="#ma7d9feea2c" y="199.482213"/>
     <use style="fill:#ff0000;stroke:#ff0000;stroke-width:1.5;" x="161.367272" xlink:href="#ma7d9feea2c" y="180.404978"/>
     <use style="fill:#ff0000;stroke:#ff0000;stroke-width:1.5;" x="168.058909" xlink:href="#ma7d9feea2c" y="161.494521"/>
     <use style="fill:#ff0000;stroke:#ff0000;stroke-width:1.5;" x="174.750545" xlink:href="#ma7d9feea2c" y="143.160547"/>
     <use style="fill:#ff0000;stroke:#ff0000;stroke-width:1.5;" x="181.442181" xlink:href="#ma7d9feea2c" y="125.854133"/>
     <use style="fill:#ff0000;stroke:#ff0000;stroke-width:1.5;" x="188.133818" xlink:href="#ma7d9feea2c" y="110.052946"/>
     <use style="fill:#ff0000;stroke:#ff0000;stroke-width:1.5;" x="194.825454" xlink:href="#ma7d9feea2c" y="96.239769"/>
     <use style="fill:#ff0000;stroke:#ff0000;stroke-width:1.5;" x="201.517091" xlink:href="#ma7d9feea2c" y="84.875077"/>
     <use style="fill:#ff0000;stroke:#ff0000;stroke-width:1.5;" x="208.208727" xlink:href="#ma7d9feea2c" y="76.365828"/>
     <use style="fill:#ff0000;stroke:#ff0000;stroke-width:1.5;" x="214.900363" xlink:href="#ma7d9feea2c" y="71.033948"/>
     <use style="fill:#ff0000;stroke:#ff0000;stroke-width:1.5;" x="221.592" xlink:href="#ma7d9feea2c" y="69.088869"/>
     <use style="fill:#ff0000;stroke:#ff0000;stroke-width:1.5;" x="228.283636" xlink:href="#ma7d9feea2c" y="70.608495"/>
     <use style="fill:#ff0000;stroke:#ff0000;stroke-width:1.5;" x="234.975273" xlink:href="#ma7d9feea2c" y="75.531893"/>
     <use style="fill:#ff0000;stroke:#ff0000;stroke-width:1.5;" x="241.666909" xlink:href="#ma7d9feea2c" y="83.66502"/>
     <use style="fill:#ff0000;stroke:#ff0000;stroke-width:1.5;" x="248.358545" xlink:href="#ma7d9feea2c" y="94.698459"/>
     <use style="fill:#ff0000;stroke:#ff0000;stroke-width:1.5;" x="255.050182" xlink:href="#ma7d9feea2c" y="108.234064"/>
     <use style="fill:#ff0000;stroke:#ff0000;stroke-width:1.5;" x="261.741818" xlink:href="#ma7d9feea2c" y="123.816223"/>
     <use style="fill:#ff0000;stroke:#ff0000;stroke-width:1.5;" x="268.433454" xlink:href="#ma7d9feea2c" y="140.963319"/>
     <use style="fill:#ff0000;stroke:#ff0000;stroke-width:1.5;" x="275.125091" xlink:href="#ma7d9feea2c" y="159.195761"/>
     <use style="fill:#ff0000;stroke:#ff0000;stroke-width:1.5;" x="281.816727" xlink:href="#ma7d9feea2c" y="178.058262"/>
     <use style="fill:#ff0000;stroke:#ff0000;stroke-width:1.5;" x="288.508364" xlink:href="#ma7d9feea2c" y="197.135444"/>
     <use style="fill:#ff0000;stroke:#ff0000;stroke-width:1.5;" x="295.2" xlink:href="#ma7d9feea2c" y="216.060977"/>
     <use style="fill:#ff0000;stroke:#ff0000;stroke-width:1.5;" x="301.891636" xlink:href="#ma7d9feea2c" y="234.521205"/>
     <use style="fill:#ff0000;stroke:#ff0000;stroke-width:1.5;" x="308.583273" xlink:href="#ma7d9feea2c" y="252.254563"/>
     <use style="fill:#ff0000;stroke:#ff0000;stroke-width:1.5;" x="315.274909" xlink:href="#ma7d9feea2c" y="269.048112"/>
     <use style="fill:#ff0000;stroke:#ff0000;stroke-width:1.5;" x="321.966546" xlink:href="#ma7d9feea2c" y="284.732349"/>
     <use style="fill:#ff0000;stroke:#ff0000;stroke-width:1.5;" x="328.658182" xlink:href="#ma7d9feea2c" y="299.175243"/>
     <use style="fill:#ff0000;stroke:#ff0000;stroke-width:1.5;" x="335.349818" xlink:href="#ma7d9feea2c" y="312.276127"/>
     <use style="fill:#ff0000;stroke:#ff0000;stroke-width:1.5;" x="342.041455" xlink:href="#ma7d9feea2c" y="323.959908"/>
     <use style="fill:#ff0000;stroke:#ff0000;stroke-width:1.5;" x="348.733091" xlink:href="#ma7d9feea2c" y="334.171843"/>
     <use style="fill:#ff0000;stroke:#ff0000;stroke-width:1.5;" x="355.424727" xlink:href="#ma7d9feea2c" y="342.87299"/>
     <use style="fill:#ff0000;stroke:#ff0000;stroke-width:1.5;" x="362.116364" xlink:href="#ma7d9feea2c" y="350.036394"/>
     <use style="fill:#ff0000;stroke:#ff0000;stroke-width:1.5;" x="368.808" xlink:href="#ma7d9feea2c" y="355.643972"/>
     <use style="fill:#ff0000;stroke:#ff0000;stroke-width:1.5;" x="375.499637" xlink:href="#ma7d9feea2c" y="359.684057"/>
     <use style="fill:#ff0000;stroke:#ff0000;stroke-width:1.5;" x="382.191273" xlink:href="#ma7d9feea2c" y="362.149561"/>
     <use style="fill:#ff0000;stroke:#ff0000;stroke-width:1.5;" x="388.882909" xlink:href="#ma7d9feea2c" y="363.036685"/>
     <use style="fill:#ff0000;stroke:#ff0000;stroke-width:1.5;" x="395.574546" xlink:href="#ma7d9feea2c" y="362.34416"/>
     <use style="fill:#ff0000;stroke:#ff0000;stroke-width:1.5;" x="402.266182" xlink:href="#ma7d9feea2c" y="360.072973"/>
     <use style="fill:#ff0000;stroke:#ff0000;stroke-width:1.5;" x="408.957819" xlink:href="#ma7d9feea2c" y="356.226578"/>
     <use style="fill:#ff0000;stroke:#ff0000;stroke-width:1.5;" x="415.649455" xlink:href="#ma7d9feea2c" y="350.811602"/>
     <use style="fill:#ff0000;stroke:#ff0000;stroke-width:1.5;" x="422.341091" xlink:href="#ma7d9feea2c" y="343.839057"/>
     <use style="fill:#ff0000;stroke:#ff0000;stroke-width:1.5;" x="429.032728" xlink:href="#ma7d9feea2c" y="335.326119"/>
     <use style="fill:#ff0000;stroke:#ff0000;stroke-width:1.5;" x="435.724364" xlink:href="#ma7d9feea2c" y="325.298494"/>
     <use style="fill:#ff0000;stroke:#ff0000;stroke-width:1.5;" x="442.416" xlink:href="#ma7d9feea2c" y="313.793456"/>
     <use style="fill:#ff0000;stroke:#ff0000;stroke-width:1.5;" x="449.107637" xlink:href="#ma7d9feea2c" y="300.863569"/>
     <use style="fill:#ff0000;stroke:#ff0000;stroke-width:1.5;" x="455.799273" xlink:href="#ma7d9feea2c" y="286.581151"/>
     <use style="fill:#ff0000;stroke:#ff0000;stroke-width:1.5;" x="462.49091" xlink:href="#ma7d9feea2c" y="271.043414"/>
     <use style="fill:#ff0000;stroke:#ff0000;stroke-width:1.5;" x="469.182546" xlink:href="#ma7d9feea2c" y="254.3782"/>
     <use style="fill:#ff0000;stroke:#ff0000;stroke-width:1.5;" x="475.874182" xlink:href="#ma7d9feea2c" y="236.750062"/>
     <use style="fill:#ff0000;stroke:#ff0000;stroke-width:1.5;" x="482.565819" xlink:href="#ma7d9feea2c" y="218.366286"/>
     <use style="fill:#ff0000;stroke:#ff0000;stroke-width:1.5;" x="489.257455" xlink:href="#ma7d9feea2c" y="199.482213"/>
     <use style="fill:#ff0000;stroke:#ff0000;stroke-width:1.5;" x="495.949092" xlink:href="#ma7d9feea2c" y="180.404978"/>
    </g>
   </g>
   <g id="matplotlib.axis_1">
    <g id="xtick_1">
     <g id="line2d_1">
      <defs>
       <path d="M 0 0 
L 0 3.5 
" id="mffc007abd6" style="stroke:#000000;stroke-width:0.8;"/>
      </defs>
      <g>
       <use style="stroke:#000000;stroke-width:0.8;" x="94.450908" xlink:href="#mffc007abd6" y="384.48"/>
      </g>
     </g>
     <g id="text_1">
      <!-- −0.6 -->
      <defs>
       <path d="M 10.59375 35.5 
L 73.1875 35.5 
L 73.1875 27.203125 
L 10.59375 27.203125 
z
" id="DejaVuSans-2212"/>
       <path d="M 31.78125 66.40625 
Q 24.171875 66.40625 20.328125 58.90625 
Q 16.5 51.421875 16.5 36.375 
Q 16.5 21.390625 20.328125 13.890625 
Q 24.171875 6.390625 31.78125 6.390625 
Q 39.453125 6.390625 43.28125 13.890625 
Q 47.125 21.390625 47.125 36.375 
Q 47.125 51.421875 43.28125 58.90625 
Q 39.453125 66.40625 31.78125 66.40625 
z
M 31.78125 74.21875 
Q 44.046875 74.21875 50.515625 64.515625 
Q 56.984375 54.828125 56.984375 36.375 
Q 56.984375 17.96875 50.515625 8.265625 
Q 44.046875 -1.421875 31.78125 -1.421875 
Q 19.53125 -1.421875 13.0625 8.265625 
Q 6.59375 17.96875 6.59375 36.375 
Q 6.59375 54.828125 13.0625 64.515625 
Q 19.53125 74.21875 31.78125 74.21875 
z
" id="DejaVuSans-30"/>
       <path d="M 10.6875 12.40625 
L 21 12.40625 
L 21 0 
L 10.6875 0 
z
" id="DejaVuSans-2e"/>
       <path d="M 33.015625 40.375 
Q 26.375 40.375 22.484375 35.828125 
Q 18.609375 31.296875 18.609375 23.390625 
Q 18.609375 15.53125 22.484375 10.953125 
Q 26.375 6.390625 33.015625 6.390625 
Q 39.65625 6.390625 43.53125 10.953125 
Q 47.40625 15.53125 47.40625 23.390625 
Q 47.40625 31.296875 43.53125 35.828125 
Q 39.65625 40.375 33.015625 40.375 
z
M 52.59375 71.296875 
L 52.59375 62.3125 
Q 48.875 64.0625 45.09375 64.984375 
Q 41.3125 65.921875 37.59375 65.921875 
Q 27.828125 65.921875 22.671875 59.328125 
Q 17.53125 52.734375 16.796875 39.40625 
Q 19.671875 43.65625 24.015625 45.921875 
Q 28.375 48.1875 33.59375 48.1875 
Q 44.578125 48.1875 50.953125 41.515625 
Q 57.328125 34.859375 57.328125 23.390625 
Q 57.328125 12.15625 50.6875 5.359375 
Q 44.046875 -1.421875 33.015625 -1.421875 
Q 20.359375 -1.421875 13.671875 8.265625 
Q 6.984375 17.96875 6.984375 36.375 
Q 6.984375 53.65625 15.1875 63.9375 
Q 23.390625 74.21875 37.203125 74.21875 
Q 40.921875 74.21875 44.703125 73.484375 
Q 48.484375 72.75 52.59375 71.296875 
z
" id="DejaVuSans-36"/>
      </defs>
      <g transform="translate(82.309502 399.078438)scale(0.1 -0.1)">
       <use xlink:href="#DejaVuSans-2212"/>
       <use x="83.789062" xlink:href="#DejaVuSans-30"/>
       <use x="147.412109" xlink:href="#DejaVuSans-2e"/>
       <use x="179.199219" xlink:href="#DejaVuSans-36"/>
      </g>
     </g>
    </g>
    <g id="xtick_2">
     <g id="line2d_2">
      <g>
       <use style="stroke:#000000;stroke-width:0.8;" x="161.367272" xlink:href="#mffc007abd6" y="384.48"/>
      </g>
     </g>
     <g id="text_2">
      <!-- −0.4 -->
      <defs>
       <path d="M 37.796875 64.3125 
L 12.890625 25.390625 
L 37.796875 25.390625 
z
M 35.203125 72.90625 
L 47.609375 72.90625 
L 47.609375 25.390625 
L 58.015625 25.390625 
L 58.015625 17.1875 
L 47.609375 17.1875 
L 47.609375 0 
L 37.796875 0 
L 37.796875 17.1875 
L 4.890625 17.1875 
L 4.890625 26.703125 
z
" id="DejaVuSans-34"/>
      </defs>
      <g transform="translate(149.225866 399.078438)scale(0.1 -0.1)">
       <use xlink:href="#DejaVuSans-2212"/>
       <use x="83.789062" xlink:href="#DejaVuSans-30"/>
       <use x="147.412109" xlink:href="#DejaVuSans-2e"/>
       <use x="179.199219" xlink:href="#DejaVuSans-34"/>
      </g>
     </g>
    </g>
    <g id="xtick_3">
     <g id="line2d_3">
      <g>
       <use style="stroke:#000000;stroke-width:0.8;" x="228.283636" xlink:href="#mffc007abd6" y="384.48"/>
      </g>
     </g>
     <g id="text_3">
      <!-- −0.2 -->
      <defs>
       <path d="M 19.1875 8.296875 
L 53.609375 8.296875 
L 53.609375 0 
L 7.328125 0 
L 7.328125 8.296875 
Q 12.9375 14.109375 22.625 23.890625 
Q 32.328125 33.6875 34.8125 36.53125 
Q 39.546875 41.84375 41.421875 45.53125 
Q 43.3125 49.21875 43.3125 52.78125 
Q 43.3125 58.59375 39.234375 62.25 
Q 35.15625 65.921875 28.609375 65.921875 
Q 23.96875 65.921875 18.8125 64.3125 
Q 13.671875 62.703125 7.8125 59.421875 
L 7.8125 69.390625 
Q 13.765625 71.78125 18.9375 73 
Q 24.125 74.21875 28.421875 74.21875 
Q 39.75 74.21875 46.484375 68.546875 
Q 53.21875 62.890625 53.21875 53.421875 
Q 53.21875 48.921875 51.53125 44.890625 
Q 49.859375 40.875 45.40625 35.40625 
Q 44.1875 33.984375 37.640625 27.21875 
Q 31.109375 20.453125 19.1875 8.296875 
z
" id="DejaVuSans-32"/>
      </defs>
      <g transform="translate(216.14223 399.078438)scale(0.1 -0.1)">
       <use xlink:href="#DejaVuSans-2212"/>
       <use x="83.789062" xlink:href="#DejaVuSans-30"/>
       <use x="147.412109" xlink:href="#DejaVuSans-2e"/>
       <use x="179.199219" xlink:href="#DejaVuSans-32"/>
      </g>
     </g>
    </g>
    <g id="xtick_4">
     <g id="line2d_4">
      <g>
       <use style="stroke:#000000;stroke-width:0.8;" x="295.2" xlink:href="#mffc007abd6" y="384.48"/>
      </g>
     </g>
     <g id="text_4">
      <!-- 0.0 -->
      <g transform="translate(287.248437 399.078438)scale(0.1 -0.1)">
       <use xlink:href="#DejaVuSans-30"/>
       <use x="63.623047" xlink:href="#DejaVuSans-2e"/>
       <use x="95.410156" xlink:href="#DejaVuSans-30"/>
      </g>
     </g>
    </g>
    <g id="xtick_5">
     <g id="line2d_5">
      <g>
       <use style="stroke:#000000;stroke-width:0.8;" x="362.116364" xlink:href="#mffc007abd6" y="384.48"/>
      </g>
     </g>
     <g id="text_5">
      <!-- 0.2 -->
      <g transform="translate(354.164801 399.078438)scale(0.1 -0.1)">
       <use xlink:href="#DejaVuSans-30"/>
       <use x="63.623047" xlink:href="#DejaVuSans-2e"/>
       <use x="95.410156" xlink:href="#DejaVuSans-32"/>
      </g>
     </g>
    </g>
    <g id="xtick_6">
     <g id="line2d_6">
      <g>
       <use style="stroke:#000000;stroke-width:0.8;" x="429.032728" xlink:href="#mffc007abd6" y="384.48"/>
      </g>
     </g>
     <g id="text_6">
      <!-- 0.4 -->
      <g transform="translate(421.081165 399.078438)scale(0.1 -0.1)">
       <use xlink:href="#DejaVuSans-30"/>
       <use x="63.623047" xlink:href="#DejaVuSans-2e"/>
       <use x="95.410156" xlink:href="#DejaVuSans-34"/>
      </g>
     </g>
    </g>
    <g id="xtick_7">
     <g id="line2d_7">
      <g>
       <use style="stroke:#000000;stroke-width:0.8;" x="495.949092" xlink:href="#mffc007abd6" y="384.48"/>
      </g>
     </g>
     <g id="text_7">
      <!-- 0.6 -->
      <g transform="translate(487.997529 399.078438)scale(0.1 -0.1)">
       <use xlink:href="#DejaVuSans-30"/>
       <use x="63.623047" xlink:href="#DejaVuSans-2e"/>
       <use x="95.410156" xlink:href="#DejaVuSans-36"/>
      </g>
     </g>
    </g>
    <g id="text_8">
     <!-- Phase -->
     <defs>
      <path d="M 19.671875 64.796875 
L 19.671875 37.40625 
L 32.078125 37.40625 
Q 38.96875 37.40625 42.71875 40.96875 
Q 46.484375 44.53125 46.484375 51.125 
Q 46.484375 57.671875 42.71875 61.234375 
Q 38.96875 64.796875 32.078125 64.796875 
z
M 9.8125 72.90625 
L 32.078125 72.90625 
Q 44.34375 72.90625 50.609375 67.359375 
Q 56.890625 61.8125 56.890625 51.125 
Q 56.890625 40.328125 50.609375 34.8125 
Q 44.34375 29.296875 32.078125 29.296875 
L 19.671875 29.296875 
L 19.671875 0 
L 9.8125 0 
z
" id="DejaVuSans-50"/>
      <path d="M 54.890625 33.015625 
L 54.890625 0 
L 45.90625 0 
L 45.90625 32.71875 
Q 45.90625 40.484375 42.875 44.328125 
Q 39.84375 48.1875 33.796875 48.1875 
Q 26.515625 48.1875 22.3125 43.546875 
Q 18.109375 38.921875 18.109375 30.90625 
L 18.109375 0 
L 9.078125 0 
L 9.078125 75.984375 
L 18.109375 75.984375 
L 18.109375 46.1875 
Q 21.34375 51.125 25.703125 53.5625 
Q 30.078125 56 35.796875 56 
Q 45.21875 56 50.046875 50.171875 
Q 54.890625 44.34375 54.890625 33.015625 
z
" id="DejaVuSans-68"/>
      <path d="M 34.28125 27.484375 
Q 23.390625 27.484375 19.1875 25 
Q 14.984375 22.515625 14.984375 16.5 
Q 14.984375 11.71875 18.140625 8.90625 
Q 21.296875 6.109375 26.703125 6.109375 
Q 34.1875 6.109375 38.703125 11.40625 
Q 43.21875 16.703125 43.21875 25.484375 
L 43.21875 27.484375 
z
M 52.203125 31.203125 
L 52.203125 0 
L 43.21875 0 
L 43.21875 8.296875 
Q 40.140625 3.328125 35.546875 0.953125 
Q 30.953125 -1.421875 24.3125 -1.421875 
Q 15.921875 -1.421875 10.953125 3.296875 
Q 6 8.015625 6 15.921875 
Q 6 25.140625 12.171875 29.828125 
Q 18.359375 34.515625 30.609375 34.515625 
L 43.21875 34.515625 
L 43.21875 35.40625 
Q 43.21875 41.609375 39.140625 45 
Q 35.0625 48.390625 27.6875 48.390625 
Q 23 48.390625 18.546875 47.265625 
Q 14.109375 46.140625 10.015625 43.890625 
L 10.015625 52.203125 
Q 14.9375 54.109375 19.578125 55.046875 
Q 24.21875 56 28.609375 56 
Q 40.484375 56 46.34375 49.84375 
Q 52.203125 43.703125 52.203125 31.203125 
z
" id="DejaVuSans-61"/>
      <path d="M 44.28125 53.078125 
L 44.28125 44.578125 
Q 40.484375 46.53125 36.375 47.5 
Q 32.28125 48.484375 27.875 48.484375 
Q 21.1875 48.484375 17.84375 46.4375 
Q 14.5 44.390625 14.5 40.28125 
Q 14.5 37.15625 16.890625 35.375 
Q 19.28125 33.59375 26.515625 31.984375 
L 29.59375 31.296875 
Q 39.15625 29.25 43.1875 25.515625 
Q 47.21875 21.78125 47.21875 15.09375 
Q 47.21875 7.46875 41.1875 3.015625 
Q 35.15625 -1.421875 24.609375 -1.421875 
Q 20.21875 -1.421875 15.453125 -0.5625 
Q 10.6875 0.296875 5.421875 2 
L 5.421875 11.28125 
Q 10.40625 8.6875 15.234375 7.390625 
Q 20.0625 6.109375 24.8125 6.109375 
Q 31.15625 6.109375 34.5625 8.28125 
Q 37.984375 10.453125 37.984375 14.40625 
Q 37.984375 18.0625 35.515625 20.015625 
Q 33.0625 21.96875 24.703125 23.78125 
L 21.578125 24.515625 
Q 13.234375 26.265625 9.515625 29.90625 
Q 5.8125 33.546875 5.8125 39.890625 
Q 5.8125 47.609375 11.28125 51.796875 
Q 16.75 56 26.8125 56 
Q 31.78125 56 36.171875 55.265625 
Q 40.578125 54.546875 44.28125 53.078125 
z
" id="DejaVuSans-73"/>
      <path d="M 56.203125 29.59375 
L 56.203125 25.203125 
L 14.890625 25.203125 
Q 15.484375 15.921875 20.484375 11.0625 
Q 25.484375 6.203125 34.421875 6.203125 
Q 39.59375 6.203125 44.453125 7.46875 
Q 49.3125 8.734375 54.109375 11.28125 
L 54.109375 2.78125 
Q 49.265625 0.734375 44.1875 -0.34375 
Q 39.109375 -1.421875 33.890625 -1.421875 
Q 20.796875 -1.421875 13.15625 6.1875 
Q 5.515625 13.8125 5.515625 26.8125 
Q 5.515625 40.234375 12.765625 48.109375 
Q 20.015625 56 32.328125 56 
Q 43.359375 56 49.78125 48.890625 
Q 56.203125 41.796875 56.203125 29.59375 
z
M 47.21875 32.234375 
Q 47.125 39.59375 43.09375 43.984375 
Q 39.0625 48.390625 32.421875 48.390625 
Q 24.90625 48.390625 20.390625 44.140625 
Q 15.875 39.890625 15.1875 32.171875 
z
" id="DejaVuSans-65"/>
     </defs>
     <g transform="translate(280.271094 412.756563)scale(0.1 -0.1)">
      <use xlink:href="#DejaVuSans-50"/>
      <use x="60.302734" xlink:href="#DejaVuSans-68"/>
      <use x="123.681641" xlink:href="#DejaVuSans-61"/>
      <use x="184.960938" xlink:href="#DejaVuSans-73"/>
      <use x="237.060547" xlink:href="#DejaVuSans-65"/>
     </g>
    </g>
   </g>
   <g id="matplotlib.axis_2">
    <g id="ytick_1">
     <g id="line2d_8">
      <defs>
       <path d="M 0 0 
L -3.5 0 
" id="m0fc15c0e24" style="stroke:#000000;stroke-width:0.8;"/>
      </defs>
      <g>
       <use style="stroke:#000000;stroke-width:0.8;" x="72" xlink:href="#m0fc15c0e24" y="370.259252"/>
      </g>
     </g>
     <g id="text_9">
      <!-- −200000 -->
      <g transform="translate(18.445312 374.058471)scale(0.1 -0.1)">
       <use xlink:href="#DejaVuSans-2212"/>
       <use x="83.789062" xlink:href="#DejaVuSans-32"/>
       <use x="147.412109" xlink:href="#DejaVuSans-30"/>
       <use x="211.035156" xlink:href="#DejaVuSans-30"/>
       <use x="274.658203" xlink:href="#DejaVuSans-30"/>
       <use x="338.28125" xlink:href="#DejaVuSans-30"/>
       <use x="401.904297" xlink:href="#DejaVuSans-30"/>
      </g>
     </g>
    </g>
    <g id="ytick_2">
     <g id="line2d_9">
      <g>
       <use style="stroke:#000000;stroke-width:0.8;" x="72" xlink:href="#m0fc15c0e24" y="306.734855"/>
      </g>
     </g>
     <g id="text_10">
      <!-- −100000 -->
      <defs>
       <path d="M 12.40625 8.296875 
L 28.515625 8.296875 
L 28.515625 63.921875 
L 10.984375 60.40625 
L 10.984375 69.390625 
L 28.421875 72.90625 
L 38.28125 72.90625 
L 38.28125 8.296875 
L 54.390625 8.296875 
L 54.390625 0 
L 12.40625 0 
z
" id="DejaVuSans-31"/>
      </defs>
      <g transform="translate(18.445312 310.534073)scale(0.1 -0.1)">
       <use xlink:href="#DejaVuSans-2212"/>
       <use x="83.789062" xlink:href="#DejaVuSans-31"/>
       <use x="147.412109" xlink:href="#DejaVuSans-30"/>
       <use x="211.035156" xlink:href="#DejaVuSans-30"/>
       <use x="274.658203" xlink:href="#DejaVuSans-30"/>
       <use x="338.28125" xlink:href="#DejaVuSans-30"/>
       <use x="401.904297" xlink:href="#DejaVuSans-30"/>
      </g>
     </g>
    </g>
    <g id="ytick_3">
     <g id="line2d_10">
      <g>
       <use style="stroke:#000000;stroke-width:0.8;" x="72" xlink:href="#m0fc15c0e24" y="243.210457"/>
      </g>
     </g>
     <g id="text_11">
      <!-- 0 -->
      <g transform="translate(58.6375 247.009676)scale(0.1 -0.1)">
       <use xlink:href="#DejaVuSans-30"/>
      </g>
     </g>
    </g>
    <g id="ytick_4">
     <g id="line2d_11">
      <g>
       <use style="stroke:#000000;stroke-width:0.8;" x="72" xlink:href="#m0fc15c0e24" y="179.686059"/>
      </g>
     </g>
     <g id="text_12">
      <!-- 100000 -->
      <g transform="translate(26.825 183.485278)scale(0.1 -0.1)">
       <use xlink:href="#DejaVuSans-31"/>
       <use x="63.623047" xlink:href="#DejaVuSans-30"/>
       <use x="127.246094" xlink:href="#DejaVuSans-30"/>
       <use x="190.869141" xlink:href="#DejaVuSans-30"/>
       <use x="254.492188" xlink:href="#DejaVuSans-30"/>
       <use x="318.115234" xlink:href="#DejaVuSans-30"/>
      </g>
     </g>
    </g>
    <g id="ytick_5">
     <g id="line2d_12">
      <g>
       <use style="stroke:#000000;stroke-width:0.8;" x="72" xlink:href="#m0fc15c0e24" y="116.161662"/>
      </g>
     </g>
     <g id="text_13">
      <!-- 200000 -->
      <g transform="translate(26.825 119.960881)scale(0.1 -0.1)">
       <use xlink:href="#DejaVuSans-32"/>
       <use x="63.623047" xlink:href="#DejaVuSans-30"/>
       <use x="127.246094" xlink:href="#DejaVuSans-30"/>
       <use x="190.869141" xlink:href="#DejaVuSans-30"/>
       <use x="254.492188" xlink:href="#DejaVuSans-30"/>
       <use x="318.115234" xlink:href="#DejaVuSans-30"/>
      </g>
     </g>
    </g>
    <g id="ytick_6">
     <g id="line2d_13">
      <g>
       <use style="stroke:#000000;stroke-width:0.8;" x="72" xlink:href="#m0fc15c0e24" y="52.637264"/>
      </g>
     </g>
     <g id="text_14">
      <!-- 300000 -->
      <defs>
       <path d="M 40.578125 39.3125 
Q 47.65625 37.796875 51.625 33 
Q 55.609375 28.21875 55.609375 21.1875 
Q 55.609375 10.40625 48.1875 4.484375 
Q 40.765625 -1.421875 27.09375 -1.421875 
Q 22.515625 -1.421875 17.65625 -0.515625 
Q 12.796875 0.390625 7.625 2.203125 
L 7.625 11.71875 
Q 11.71875 9.328125 16.59375 8.109375 
Q 21.484375 6.890625 26.8125 6.890625 
Q 36.078125 6.890625 40.9375 10.546875 
Q 45.796875 14.203125 45.796875 21.1875 
Q 45.796875 27.640625 41.28125 31.265625 
Q 36.765625 34.90625 28.71875 34.90625 
L 20.21875 34.90625 
L 20.21875 43.015625 
L 29.109375 43.015625 
Q 36.375 43.015625 40.234375 45.921875 
Q 44.09375 48.828125 44.09375 54.296875 
Q 44.09375 59.90625 40.109375 62.90625 
Q 36.140625 65.921875 28.71875 65.921875 
Q 24.65625 65.921875 20.015625 65.03125 
Q 15.375 64.15625 9.8125 62.3125 
L 9.8125 71.09375 
Q 15.4375 72.65625 20.34375 73.4375 
Q 25.25 74.21875 29.59375 74.21875 
Q 40.828125 74.21875 47.359375 69.109375 
Q 53.90625 64.015625 53.90625 55.328125 
Q 53.90625 49.265625 50.4375 45.09375 
Q 46.96875 40.921875 40.578125 39.3125 
z
" id="DejaVuSans-33"/>
      </defs>
      <g transform="translate(26.825 56.436483)scale(0.1 -0.1)">
       <use xlink:href="#DejaVuSans-33"/>
       <use x="63.623047" xlink:href="#DejaVuSans-30"/>
       <use x="127.246094" xlink:href="#DejaVuSans-30"/>
       <use x="190.869141" xlink:href="#DejaVuSans-30"/>
       <use x="254.492188" xlink:href="#DejaVuSans-30"/>
       <use x="318.115234" xlink:href="#DejaVuSans-30"/>
      </g>
     </g>
    </g>
    <g id="text_15">
     <!-- Radial Velocity/($m/s$) -->
     <defs>
      <path d="M 44.390625 34.1875 
Q 47.5625 33.109375 50.5625 29.59375 
Q 53.5625 26.078125 56.59375 19.921875 
L 66.609375 0 
L 56 0 
L 46.6875 18.703125 
Q 43.0625 26.03125 39.671875 28.421875 
Q 36.28125 30.8125 30.421875 30.8125 
L 19.671875 30.8125 
L 19.671875 0 
L 9.8125 0 
L 9.8125 72.90625 
L 32.078125 72.90625 
Q 44.578125 72.90625 50.734375 67.671875 
Q 56.890625 62.453125 56.890625 51.90625 
Q 56.890625 45.015625 53.6875 40.46875 
Q 50.484375 35.9375 44.390625 34.1875 
z
M 19.671875 64.796875 
L 19.671875 38.921875 
L 32.078125 38.921875 
Q 39.203125 38.921875 42.84375 42.21875 
Q 46.484375 45.515625 46.484375 51.90625 
Q 46.484375 58.296875 42.84375 61.546875 
Q 39.203125 64.796875 32.078125 64.796875 
z
" id="DejaVuSans-52"/>
      <path d="M 45.40625 46.390625 
L 45.40625 75.984375 
L 54.390625 75.984375 
L 54.390625 0 
L 45.40625 0 
L 45.40625 8.203125 
Q 42.578125 3.328125 38.25 0.953125 
Q 33.9375 -1.421875 27.875 -1.421875 
Q 17.96875 -1.421875 11.734375 6.484375 
Q 5.515625 14.40625 5.515625 27.296875 
Q 5.515625 40.1875 11.734375 48.09375 
Q 17.96875 56 27.875 56 
Q 33.9375 56 38.25 53.625 
Q 42.578125 51.265625 45.40625 46.390625 
z
M 14.796875 27.296875 
Q 14.796875 17.390625 18.875 11.75 
Q 22.953125 6.109375 30.078125 6.109375 
Q 37.203125 6.109375 41.296875 11.75 
Q 45.40625 17.390625 45.40625 27.296875 
Q 45.40625 37.203125 41.296875 42.84375 
Q 37.203125 48.484375 30.078125 48.484375 
Q 22.953125 48.484375 18.875 42.84375 
Q 14.796875 37.203125 14.796875 27.296875 
z
" id="DejaVuSans-64"/>
      <path d="M 9.421875 54.6875 
L 18.40625 54.6875 
L 18.40625 0 
L 9.421875 0 
z
M 9.421875 75.984375 
L 18.40625 75.984375 
L 18.40625 64.59375 
L 9.421875 64.59375 
z
" id="DejaVuSans-69"/>
      <path d="M 9.421875 75.984375 
L 18.40625 75.984375 
L 18.40625 0 
L 9.421875 0 
z
" id="DejaVuSans-6c"/>
      <path id="DejaVuSans-20"/>
      <path d="M 28.609375 0 
L 0.78125 72.90625 
L 11.078125 72.90625 
L 34.1875 11.53125 
L 57.328125 72.90625 
L 67.578125 72.90625 
L 39.796875 0 
z
" id="DejaVuSans-56"/>
      <path d="M 30.609375 48.390625 
Q 23.390625 48.390625 19.1875 42.75 
Q 14.984375 37.109375 14.984375 27.296875 
Q 14.984375 17.484375 19.15625 11.84375 
Q 23.34375 6.203125 30.609375 6.203125 
Q 37.796875 6.203125 41.984375 11.859375 
Q 46.1875 17.53125 46.1875 27.296875 
Q 46.1875 37.015625 41.984375 42.703125 
Q 37.796875 48.390625 30.609375 48.390625 
z
M 30.609375 56 
Q 42.328125 56 49.015625 48.375 
Q 55.71875 40.765625 55.71875 27.296875 
Q 55.71875 13.875 49.015625 6.21875 
Q 42.328125 -1.421875 30.609375 -1.421875 
Q 18.84375 -1.421875 12.171875 6.21875 
Q 5.515625 13.875 5.515625 27.296875 
Q 5.515625 40.765625 12.171875 48.375 
Q 18.84375 56 30.609375 56 
z
" id="DejaVuSans-6f"/>
      <path d="M 48.78125 52.59375 
L 48.78125 44.1875 
Q 44.96875 46.296875 41.140625 47.34375 
Q 37.3125 48.390625 33.40625 48.390625 
Q 24.65625 48.390625 19.8125 42.84375 
Q 14.984375 37.3125 14.984375 27.296875 
Q 14.984375 17.28125 19.8125 11.734375 
Q 24.65625 6.203125 33.40625 6.203125 
Q 37.3125 6.203125 41.140625 7.25 
Q 44.96875 8.296875 48.78125 10.40625 
L 48.78125 2.09375 
Q 45.015625 0.34375 40.984375 -0.53125 
Q 36.96875 -1.421875 32.421875 -1.421875 
Q 20.0625 -1.421875 12.78125 6.34375 
Q 5.515625 14.109375 5.515625 27.296875 
Q 5.515625 40.671875 12.859375 48.328125 
Q 20.21875 56 33.015625 56 
Q 37.15625 56 41.109375 55.140625 
Q 45.0625 54.296875 48.78125 52.59375 
z
" id="DejaVuSans-63"/>
      <path d="M 18.3125 70.21875 
L 18.3125 54.6875 
L 36.8125 54.6875 
L 36.8125 47.703125 
L 18.3125 47.703125 
L 18.3125 18.015625 
Q 18.3125 11.328125 20.140625 9.421875 
Q 21.96875 7.515625 27.59375 7.515625 
L 36.8125 7.515625 
L 36.8125 0 
L 27.59375 0 
Q 17.1875 0 13.234375 3.875 
Q 9.28125 7.765625 9.28125 18.015625 
L 9.28125 47.703125 
L 2.6875 47.703125 
L 2.6875 54.6875 
L 9.28125 54.6875 
L 9.28125 70.21875 
z
" id="DejaVuSans-74"/>
      <path d="M 32.171875 -5.078125 
Q 28.375 -14.84375 24.75 -17.8125 
Q 21.140625 -20.796875 15.09375 -20.796875 
L 7.90625 -20.796875 
L 7.90625 -13.28125 
L 13.1875 -13.28125 
Q 16.890625 -13.28125 18.9375 -11.515625 
Q 21 -9.765625 23.484375 -3.21875 
L 25.09375 0.875 
L 2.984375 54.6875 
L 12.5 54.6875 
L 29.59375 11.921875 
L 46.6875 54.6875 
L 56.203125 54.6875 
z
" id="DejaVuSans-79"/>
      <path d="M 25.390625 72.90625 
L 33.6875 72.90625 
L 8.296875 -9.28125 
L 0 -9.28125 
z
" id="DejaVuSans-2f"/>
      <path d="M 31 75.875 
Q 24.46875 64.65625 21.28125 53.65625 
Q 18.109375 42.671875 18.109375 31.390625 
Q 18.109375 20.125 21.3125 9.0625 
Q 24.515625 -2 31 -13.1875 
L 23.1875 -13.1875 
Q 15.875 -1.703125 12.234375 9.375 
Q 8.59375 20.453125 8.59375 31.390625 
Q 8.59375 42.28125 12.203125 53.3125 
Q 15.828125 64.359375 23.1875 75.875 
z
" id="DejaVuSans-28"/>
      <path d="M 89.796875 33.015625 
L 83.40625 0 
L 74.421875 0 
L 80.71875 32.71875 
Q 81.109375 34.8125 81.296875 36.328125 
Q 81.5 37.84375 81.5 38.921875 
Q 81.5 43.3125 79.046875 45.75 
Q 76.609375 48.1875 72.21875 48.1875 
Q 65.671875 48.1875 60.546875 43.28125 
Q 55.421875 38.375 53.90625 30.515625 
L 47.90625 0 
L 38.921875 0 
L 45.3125 32.71875 
Q 45.703125 34.515625 45.890625 36.046875 
Q 46.09375 37.59375 46.09375 38.8125 
Q 46.09375 43.265625 43.65625 45.71875 
Q 41.21875 48.1875 36.921875 48.1875 
Q 30.28125 48.1875 25.140625 43.28125 
Q 20.015625 38.375 18.5 30.515625 
L 12.5 0 
L 3.515625 0 
L 14.203125 54.6875 
L 23.1875 54.6875 
L 21.484375 46.1875 
Q 25.140625 50.984375 30.046875 53.484375 
Q 34.96875 56 40.578125 56 
Q 46.53125 56 50.359375 52.875 
Q 54.203125 49.75 54.984375 44.1875 
Q 59.078125 49.953125 64.46875 52.96875 
Q 69.875 56 75.875 56 
Q 82.90625 56 86.734375 51.953125 
Q 90.578125 47.90625 90.578125 40.484375 
Q 90.578125 38.875 90.375 36.9375 
Q 90.1875 35.015625 89.796875 33.015625 
z
" id="DejaVuSans-Oblique-6d"/>
      <path d="M 50 53.078125 
L 48.296875 44.578125 
Q 44.734375 46.53125 40.765625 47.5 
Q 36.8125 48.484375 32.625 48.484375 
Q 25.53125 48.484375 21.453125 46.0625 
Q 17.390625 43.65625 17.390625 39.5 
Q 17.390625 34.671875 26.859375 32.078125 
Q 27.59375 31.890625 27.9375 31.78125 
L 30.8125 30.90625 
Q 39.796875 28.421875 42.796875 25.6875 
Q 45.796875 22.953125 45.796875 18.21875 
Q 45.796875 9.515625 38.890625 4.046875 
Q 31.984375 -1.421875 20.796875 -1.421875 
Q 16.453125 -1.421875 11.671875 -0.578125 
Q 6.890625 0.25 1.125 2 
L 2.875 11.28125 
Q 7.8125 8.734375 12.59375 7.421875 
Q 17.390625 6.109375 21.78125 6.109375 
Q 28.375 6.109375 32.5 8.9375 
Q 36.625 11.765625 36.625 16.109375 
Q 36.625 20.796875 25.78125 23.6875 
L 24.859375 23.921875 
L 21.78125 24.703125 
Q 14.9375 26.515625 11.765625 29.46875 
Q 8.59375 32.421875 8.59375 37.015625 
Q 8.59375 45.75 15.15625 50.875 
Q 21.734375 56 33.015625 56 
Q 37.453125 56 41.671875 55.265625 
Q 45.90625 54.546875 50 53.078125 
z
" id="DejaVuSans-Oblique-73"/>
      <path d="M 8.015625 75.875 
L 15.828125 75.875 
Q 23.140625 64.359375 26.78125 53.3125 
Q 30.421875 42.28125 30.421875 31.390625 
Q 30.421875 20.453125 26.78125 9.375 
Q 23.140625 -1.703125 15.828125 -13.1875 
L 8.015625 -13.1875 
Q 14.5 -2 17.703125 9.0625 
Q 20.90625 20.125 20.90625 31.390625 
Q 20.90625 42.671875 17.703125 53.65625 
Q 14.5 64.65625 8.015625 75.875 
z
" id="DejaVuSans-29"/>
     </defs>
     <g transform="translate(12.345312 270.06)rotate(-90)scale(0.1 -0.1)">
      <use transform="translate(0 0.015625)" xlink:href="#DejaVuSans-52"/>
      <use transform="translate(69.482422 0.015625)" xlink:href="#DejaVuSans-61"/>
      <use transform="translate(130.761719 0.015625)" xlink:href="#DejaVuSans-64"/>
      <use transform="translate(194.238281 0.015625)" xlink:href="#DejaVuSans-69"/>
      <use transform="translate(222.021484 0.015625)" xlink:href="#DejaVuSans-61"/>
      <use transform="translate(283.300781 0.015625)" xlink:href="#DejaVuSans-6c"/>
      <use transform="translate(311.083984 0.015625)" xlink:href="#DejaVuSans-20"/>
      <use transform="translate(342.871094 0.015625)" xlink:href="#DejaVuSans-56"/>
      <use transform="translate(411.279297 0.015625)" xlink:href="#DejaVuSans-65"/>
      <use transform="translate(472.802734 0.015625)" xlink:href="#DejaVuSans-6c"/>
      <use transform="translate(500.585938 0.015625)" xlink:href="#DejaVuSans-6f"/>
      <use transform="translate(561.767578 0.015625)" xlink:href="#DejaVuSans-63"/>
      <use transform="translate(616.748047 0.015625)" xlink:href="#DejaVuSans-69"/>
      <use transform="translate(644.53125 0.015625)" xlink:href="#DejaVuSans-74"/>
      <use transform="translate(683.740234 0.015625)" xlink:href="#DejaVuSans-79"/>
      <use transform="translate(742.919922 0.015625)" xlink:href="#DejaVuSans-2f"/>
      <use transform="translate(776.611328 0.015625)" xlink:href="#DejaVuSans-28"/>
      <use transform="translate(815.625 0.015625)" xlink:href="#DejaVuSans-Oblique-6d"/>
      <use transform="translate(913.037109 0.015625)" xlink:href="#DejaVuSans-2f"/>
      <use transform="translate(946.728516 0.015625)" xlink:href="#DejaVuSans-Oblique-73"/>
      <use transform="translate(998.828125 0.015625)" xlink:href="#DejaVuSans-29"/>
     </g>
    </g>
   </g>
   <g id="patch_3">
    <path d="M 72 384.48 
L 72 51.84 
" style="fill:none;stroke:#000000;stroke-linecap:square;stroke-linejoin:miter;stroke-width:0.8;"/>
   </g>
   <g id="patch_4">
    <path d="M 518.4 384.48 
L 518.4 51.84 
" style="fill:none;stroke:#000000;stroke-linecap:square;stroke-linejoin:miter;stroke-width:0.8;"/>
   </g>
   <g id="patch_5">
    <path d="M 72 384.48 
L 518.4 384.48 
" style="fill:none;stroke:#000000;stroke-linecap:square;stroke-linejoin:miter;stroke-width:0.8;"/>
   </g>
   <g id="patch_6">
    <path d="M 72 51.84 
L 518.4 51.84 
" style="fill:none;stroke:#000000;stroke-linecap:square;stroke-linejoin:miter;stroke-width:0.8;"/>
   </g>
   <g id="legend_1">
    <g id="patch_7">
     <path d="M 420.257812 89.19625 
L 511.4 89.19625 
Q 513.4 89.19625 513.4 87.19625 
L 513.4 58.84 
Q 513.4 56.84 511.4 56.84 
L 420.257812 56.84 
Q 418.257812 56.84 418.257812 58.84 
L 418.257812 87.19625 
Q 418.257812 89.19625 420.257812 89.19625 
z
" style="fill:#ffffff;opacity:0.8;stroke:#cccccc;stroke-linejoin:miter;"/>
    </g>
    <g id="PathCollection_5">
     <g>
      <use style="fill:#008000;stroke:#008000;" x="432.257812" xlink:href="#m5feee9db68" y="65.813437"/>
     </g>
    </g>
    <g id="text_16">
     <!-- observation -->
     <defs>
      <path d="M 48.6875 27.296875 
Q 48.6875 37.203125 44.609375 42.84375 
Q 40.53125 48.484375 33.40625 48.484375 
Q 26.265625 48.484375 22.1875 42.84375 
Q 18.109375 37.203125 18.109375 27.296875 
Q 18.109375 17.390625 22.1875 11.75 
Q 26.265625 6.109375 33.40625 6.109375 
Q 40.53125 6.109375 44.609375 11.75 
Q 48.6875 17.390625 48.6875 27.296875 
z
M 18.109375 46.390625 
Q 20.953125 51.265625 25.265625 53.625 
Q 29.59375 56 35.59375 56 
Q 45.5625 56 51.78125 48.09375 
Q 58.015625 40.1875 58.015625 27.296875 
Q 58.015625 14.40625 51.78125 6.484375 
Q 45.5625 -1.421875 35.59375 -1.421875 
Q 29.59375 -1.421875 25.265625 0.953125 
Q 20.953125 3.328125 18.109375 8.203125 
L 18.109375 0 
L 9.078125 0 
L 9.078125 75.984375 
L 18.109375 75.984375 
z
" id="DejaVuSans-62"/>
      <path d="M 41.109375 46.296875 
Q 39.59375 47.171875 37.8125 47.578125 
Q 36.03125 48 33.890625 48 
Q 26.265625 48 22.1875 43.046875 
Q 18.109375 38.09375 18.109375 28.8125 
L 18.109375 0 
L 9.078125 0 
L 9.078125 54.6875 
L 18.109375 54.6875 
L 18.109375 46.1875 
Q 20.953125 51.171875 25.484375 53.578125 
Q 30.03125 56 36.53125 56 
Q 37.453125 56 38.578125 55.875 
Q 39.703125 55.765625 41.0625 55.515625 
z
" id="DejaVuSans-72"/>
      <path d="M 2.984375 54.6875 
L 12.5 54.6875 
L 29.59375 8.796875 
L 46.6875 54.6875 
L 56.203125 54.6875 
L 35.6875 0 
L 23.484375 0 
z
" id="DejaVuSans-76"/>
      <path d="M 54.890625 33.015625 
L 54.890625 0 
L 45.90625 0 
L 45.90625 32.71875 
Q 45.90625 40.484375 42.875 44.328125 
Q 39.84375 48.1875 33.796875 48.1875 
Q 26.515625 48.1875 22.3125 43.546875 
Q 18.109375 38.921875 18.109375 30.90625 
L 18.109375 0 
L 9.078125 0 
L 9.078125 54.6875 
L 18.109375 54.6875 
L 18.109375 46.1875 
Q 21.34375 51.125 25.703125 53.5625 
Q 30.078125 56 35.796875 56 
Q 45.21875 56 50.046875 50.171875 
Q 54.890625 44.34375 54.890625 33.015625 
z
" id="DejaVuSans-6e"/>
     </defs>
     <g transform="translate(450.257812 68.438437)scale(0.1 -0.1)">
      <use xlink:href="#DejaVuSans-6f"/>
      <use x="61.181641" xlink:href="#DejaVuSans-62"/>
      <use x="124.658203" xlink:href="#DejaVuSans-73"/>
      <use x="176.757812" xlink:href="#DejaVuSans-65"/>
      <use x="238.28125" xlink:href="#DejaVuSans-72"/>
      <use x="279.394531" xlink:href="#DejaVuSans-76"/>
      <use x="338.574219" xlink:href="#DejaVuSans-61"/>
      <use x="399.853516" xlink:href="#DejaVuSans-74"/>
      <use x="439.0625" xlink:href="#DejaVuSans-69"/>
      <use x="466.845703" xlink:href="#DejaVuSans-6f"/>
      <use x="528.027344" xlink:href="#DejaVuSans-6e"/>
     </g>
    </g>
    <g id="PathCollection_6">
     <g>
      <use style="fill:#ff0000;stroke:#ff0000;stroke-width:1.5;" x="432.257812" xlink:href="#ma7d9feea2c" y="80.491562"/>
     </g>
    </g>
    <g id="text_17">
     <!-- fit -->
     <defs>
      <path d="M 37.109375 75.984375 
L 37.109375 68.5 
L 28.515625 68.5 
Q 23.6875 68.5 21.796875 66.546875 
Q 19.921875 64.59375 19.921875 59.515625 
L 19.921875 54.6875 
L 34.71875 54.6875 
L 34.71875 47.703125 
L 19.921875 47.703125 
L 19.921875 0 
L 10.890625 0 
L 10.890625 47.703125 
L 2.296875 47.703125 
L 2.296875 54.6875 
L 10.890625 54.6875 
L 10.890625 58.5 
Q 10.890625 67.625 15.140625 71.796875 
Q 19.390625 75.984375 28.609375 75.984375 
z
" id="DejaVuSans-66"/>
     </defs>
     <g transform="translate(450.257812 83.116562)scale(0.1 -0.1)">
      <use xlink:href="#DejaVuSans-66"/>
      <use x="35.205078" xlink:href="#DejaVuSans-69"/>
      <use x="62.988281" xlink:href="#DejaVuSans-74"/>
     </g>
    </g>
   </g>
  </g>
 </g>
 <defs>
  <clipPath id="p96ee567bb4">
   <rect height="332.64" width="446.4" x="72" y="51.84"/>
  </clipPath>
 </defs>
</svg>
